%
M48
M72
T01C0.0118
T02C0.0354
T03C0.0400
T04C0.0827
T05C0.1260
%
T01
X3577Y2712
X3931Y2712
X3931Y2358
X4286Y2358
X4640Y2358
X4640Y2712
X4286Y2712
X4286Y2004
X4640Y2004
X4640Y1649
X7278Y3736
X7081Y4011
X7947Y2476
X8262Y2476
X8577Y2476
X8577Y2161
X8931Y2161
X8931Y1846
X9286Y1846
X9286Y2161
X9286Y2476
X9286Y2791
X9286Y3106
X9286Y3421
X9286Y3736
X8971Y3736
X8931Y2476
X11963Y4051
X11963Y4366
X12278Y4366
X12278Y4051
X12199Y2712
X12475Y2712
X12475Y2437
X12711Y1964
X12987Y1964
X13262Y1964
X14010Y2909
X14010Y3185
X14010Y3460
X14286Y3460
X14286Y3185
X14561Y3185
X14561Y3460
X14837Y3460
X14837Y3185
X15113Y3185
X15388Y3185
X15388Y3460
X15113Y3460
X15113Y2909
X15388Y2909
X15664Y2909
X15939Y2909
X15939Y3185
X15664Y3185
X15664Y3460
X15939Y3460
X16924Y3185
X16609Y5035
X16609Y5350
X16294Y5350
X16294Y5035
X16301Y5999
X16252Y6454
X16179Y7152
X14965Y8261
X14965Y8561
X14965Y8861
X14665Y8861
X14665Y8561
X14665Y8261
X14255Y7689
X13813Y9484
X13498Y10389
X13183Y10389
X13183Y10704
X13498Y10704
X14168Y10507
X14483Y10271
X14897Y10005
X16372Y8933
X16648Y10271
X18223Y10626
X18301Y9013
X17987Y9014
X17987Y8696
X18302Y8696
X18420Y6925
X18223Y6492
X20034Y7279
X21097Y7200
X21884Y7633
X21884Y8696
X22593Y10074
X23105Y9759
X21766Y11728
X20821Y10035
X18971Y13342
X18971Y13657
X19286Y13657
X19286Y13972
X19601Y13972
X19601Y14287
X19601Y14602
X19286Y14287
X18971Y13972
X18656Y13972
X18656Y13657
X18656Y13342
X18341Y13342
X18341Y13657
X18341Y13972
X17120Y12870
X16806Y12870
X16806Y12555
X17120Y12555
X14876Y14641
X14246Y15271
X13380Y17358
X13498Y18893
X13459Y19444
X14719Y17988
X17002Y17437
X18853Y19996
X18813Y20468
X19168Y20468
X19640Y21570
X18538Y21846
X18105Y22161
X17317Y22476
X16294Y20862
X15506Y20980
X15113Y22082
X15191Y22948
X10900Y17200
X9640Y16925
X9640Y18421
X8931Y18893
X9365Y19917
X8380Y23263
X8065Y23263
X7750Y23263
X7750Y23578
X8065Y23578
X8380Y23578
X8243Y24661
X8518Y24661
X8518Y24937
X8518Y25212
X8243Y25212
X8243Y24937
X7967Y24937
X7967Y25212
X7967Y24661
X8794Y24661
X9069Y24661
X9069Y24937
X9069Y25212
X8794Y25212
X8794Y24937
X9345Y24937
X9345Y25212
X9620Y25212
X9620Y24937
X9620Y24661
X9345Y24661
X9896Y24661
X9896Y24937
X9896Y25212
X7042Y25232
X7042Y24956
X7042Y24681
X6766Y24681
X6766Y24956
X6491Y24956
X6491Y24681
X6215Y24681
X6215Y24956
X5939Y24956
X5664Y24956
X5664Y24681
X5939Y24681
X5388Y24681
X5388Y24956
X5113Y24956
X5113Y24681
X5113Y25232
X5388Y25232
X5664Y25232
X5939Y25232
X6215Y25232
X6491Y25232
X6766Y25232
X3183Y24759
X3144Y23972
X4246Y19248
X4168Y17909
X4168Y17555
X5152Y17555
X5152Y17909
X4089Y14681
X3813Y14681
X3538Y14681
X3538Y14405
X3813Y14405
X3813Y14130
X3538Y14130
X3538Y13854
X3813Y13854
X3813Y13578
X3538Y13578
X3538Y13303
X3813Y13303
X3813Y13027
X3538Y13027
X3538Y12752
X3813Y12752
X4089Y12752
X4089Y13027
X4089Y13303
X4089Y13578
X4089Y13854
X4089Y14130
X4089Y14405
X4365Y12161
X5309Y12319
X5041Y10607
X5041Y10253
X4404Y8775
X4404Y8460
X4089Y8460
X3774Y8460
X3853Y7791
X4128Y7791
X4128Y7515
X4128Y7240
X3853Y7240
X3853Y7515
X3577Y7515
X3577Y7240
X3577Y6964
X3577Y6689
X3853Y6689
X3853Y6964
X4128Y6964
X4128Y6689
X4128Y6413
X3853Y6413
X3853Y6137
X3853Y5862
X4128Y5862
X4128Y6137
X3577Y6137
X3577Y5862
X3577Y6413
X3577Y7791
X4443Y4917
X4443Y4602
X4758Y4602
X4758Y4917
X5073Y4917
X5073Y4602
X5388Y4602
X5703Y4602
X8617Y7437
X10191Y8736
X10388Y9130
X10782Y9563
X10231Y10457
X10506Y10783
X11648Y12358
X12042Y12200
X11018Y12633
X9640Y14248
X8774Y13972
X9070Y13342
X10388Y15035
X7672Y11531
X11018Y7712
X11609Y8342
X11963Y7240
X11884Y10232
X12317Y10350
X12711Y10350
X14286Y2909
X14561Y2909
X14837Y2909
X20979Y2909
X21254Y2909
X21254Y3185
X21254Y3460
X20979Y3460
X20979Y3185
X21530Y3185
X21530Y3460
X21806Y3460
X22081Y3460
X22081Y3185
X21806Y3185
X21806Y2909
X22081Y2909
X22357Y2909
X22632Y2909
X22632Y3185
X22632Y3460
X22357Y3460
X22357Y3185
X22908Y3185
X22908Y3460
X22908Y2909
X23813Y4326
X24128Y4326
X21530Y2909
X27997Y4670
X27997Y4985
X27997Y5261
X27997Y5576
X28183Y6295
X27987Y6728
X23577Y13460
X22908Y14248
X24089Y14759
X24286Y14326
X25349Y14326
X27514Y14208
X26372Y18775
X25939Y18775
X25762Y19582
X25487Y19582
X25487Y19858
X25762Y19858
X25762Y20133
X25487Y20133
X25211Y20133
X25211Y19858
X25211Y19582
X25211Y20409
X25487Y20409
X25762Y20409
X25762Y20685
X25762Y20960
X25487Y20960
X25487Y20685
X25211Y20685
X25211Y20960
X25211Y21236
X25211Y21511
X25487Y21511
X25487Y21236
X25762Y21236
X25762Y21511
X22554Y25429
X22554Y25704
X22554Y25980
X22554Y26256
X22554Y26531
X22554Y26807
X22554Y27082
X22554Y27358
X22278Y27358
X22002Y27358
X22002Y27082
X22002Y26807
X22002Y26531
X22002Y26256
X22278Y26256
X22278Y26531
X22278Y26807
X22278Y27082
X22278Y25980
X22002Y25980
X22002Y25704
X22002Y25429
X22278Y25429
X22278Y25704
X23183Y17161
X22947Y16492
X20782Y15114
X20703Y15704
X19207Y15822
X21294Y13696
T02
X26097Y9169
X26097Y7437
X6474Y7415
X6470Y8423
X6470Y9423
X6470Y10423
X6470Y11423
T03
X5879Y13295
X5979Y14295
X5879Y15295
X2987Y11193
X2987Y10193
X2987Y9193
X1687Y9193
X1687Y10193
X1687Y11193
X12502Y25797
X13502Y25797
X14502Y25797
X14498Y27122
X13498Y27122
X12498Y27122
X23162Y12158
X23162Y11158
X24162Y11158
X24162Y12158
X25162Y12158
X25162Y11158
X26162Y11158
X26162Y12158
X27162Y12158
X27162Y11158
X19617Y2422
X18617Y2422
X18617Y1137
X19617Y1137
X17617Y1137
X17617Y2422
X25683Y22696
X25683Y23696
X25683Y24696
X27002Y24696
X27002Y23696
X27002Y22696
T04
X26097Y4287
X24522Y2712
T05
X23380Y5429
X18577Y4366
X18577Y14917
X23380Y22830
X7987Y14917
X5979Y22830
X5979Y5429
X7987Y4366
M30
