G75*
%MOIN*%
%OFA0B0*%
%FSLAX24Y24*%
%IPPOS*%
%LPD*%
%AMOC8*
5,1,8,0,0,1.08239X$1,22.5*
%
%ADD10C,0.0000*%
%ADD11C,0.0600*%
%ADD12R,0.0394X0.0551*%
%ADD13R,0.0591X0.0118*%
%ADD14R,0.0118X0.0591*%
%ADD15R,0.0354X0.0276*%
%ADD16R,0.0394X0.0433*%
%ADD17R,0.0787X0.0276*%
%ADD18R,0.0276X0.0354*%
%ADD19R,0.0433X0.0394*%
%ADD20R,0.0315X0.0315*%
%ADD21OC8,0.0740*%
%ADD22R,0.0630X0.0906*%
%ADD23R,0.1650X0.1900*%
%ADD24R,0.1180X0.0630*%
%ADD25R,0.0551X0.0630*%
%ADD26R,0.0630X0.0551*%
%ADD27R,0.0236X0.0472*%
%ADD28R,0.0551X0.0709*%
%ADD29R,0.0748X0.0551*%
%ADD30R,0.0591X0.0315*%
%ADD31R,0.0669X0.0335*%
%ADD32R,0.0315X0.0315*%
%ADD33C,0.0531*%
%ADD34R,0.0276X0.0157*%
%ADD35R,0.0157X0.0276*%
%ADD36R,0.0217X0.0472*%
%ADD37R,0.0394X0.0157*%
%ADD38R,0.0157X0.0394*%
%ADD39C,0.0740*%
%ADD40R,0.0315X0.0984*%
%ADD41R,0.0315X0.0657*%
%ADD42R,0.0657X0.0315*%
%ADD43R,0.1100X0.0900*%
%ADD44R,0.0709X0.0630*%
%ADD45R,0.2165X0.2559*%
%ADD46R,0.2559X0.2165*%
%ADD47R,0.0709X0.1535*%
%ADD48R,0.0512X0.1772*%
%ADD49R,0.0250X0.0500*%
%ADD50C,0.0160*%
%ADD51C,0.0531*%
%ADD52R,0.0984X0.0197*%
%ADD53R,0.0984X0.0787*%
%ADD54R,0.0137X0.0550*%
%ADD55C,0.0100*%
%ADD56C,0.0238*%
%ADD57C,0.0560*%
%ADD58C,0.0500*%
%ADD59C,0.0320*%
%ADD60C,0.0075*%
%ADD61C,0.0240*%
%ADD62C,0.0065*%
%ADD63C,0.0240*%
%ADD64C,0.0067*%
%ADD65C,0.0080*%
%ADD66C,0.0070*%
%ADD67C,0.1693*%
D10*
X000900Y003972D02*
X004522Y000350D01*
X024837Y000350D01*
X028459Y003972D01*
X028459Y024287D01*
X024837Y027909D01*
X004522Y027909D01*
X000900Y024287D01*
X000900Y003972D01*
X005349Y005429D02*
X005351Y005479D01*
X005357Y005529D01*
X005367Y005578D01*
X005381Y005626D01*
X005398Y005673D01*
X005419Y005718D01*
X005444Y005762D01*
X005472Y005803D01*
X005504Y005842D01*
X005538Y005879D01*
X005575Y005913D01*
X005615Y005943D01*
X005657Y005970D01*
X005701Y005994D01*
X005747Y006015D01*
X005794Y006031D01*
X005842Y006044D01*
X005892Y006053D01*
X005941Y006058D01*
X005992Y006059D01*
X006042Y006056D01*
X006091Y006049D01*
X006140Y006038D01*
X006188Y006023D01*
X006234Y006005D01*
X006279Y005983D01*
X006322Y005957D01*
X006363Y005928D01*
X006402Y005896D01*
X006438Y005861D01*
X006470Y005823D01*
X006500Y005783D01*
X006527Y005740D01*
X006550Y005696D01*
X006569Y005650D01*
X006585Y005602D01*
X006597Y005553D01*
X006605Y005504D01*
X006609Y005454D01*
X006609Y005404D01*
X006605Y005354D01*
X006597Y005305D01*
X006585Y005256D01*
X006569Y005208D01*
X006550Y005162D01*
X006527Y005118D01*
X006500Y005075D01*
X006470Y005035D01*
X006438Y004997D01*
X006402Y004962D01*
X006363Y004930D01*
X006322Y004901D01*
X006279Y004875D01*
X006234Y004853D01*
X006188Y004835D01*
X006140Y004820D01*
X006091Y004809D01*
X006042Y004802D01*
X005992Y004799D01*
X005941Y004800D01*
X005892Y004805D01*
X005842Y004814D01*
X005794Y004827D01*
X005747Y004843D01*
X005701Y004864D01*
X005657Y004888D01*
X005615Y004915D01*
X005575Y004945D01*
X005538Y004979D01*
X005504Y005016D01*
X005472Y005055D01*
X005444Y005096D01*
X005419Y005140D01*
X005398Y005185D01*
X005381Y005232D01*
X005367Y005280D01*
X005357Y005329D01*
X005351Y005379D01*
X005349Y005429D01*
X007357Y004366D02*
X007359Y004416D01*
X007365Y004466D01*
X007375Y004515D01*
X007389Y004563D01*
X007406Y004610D01*
X007427Y004655D01*
X007452Y004699D01*
X007480Y004740D01*
X007512Y004779D01*
X007546Y004816D01*
X007583Y004850D01*
X007623Y004880D01*
X007665Y004907D01*
X007709Y004931D01*
X007755Y004952D01*
X007802Y004968D01*
X007850Y004981D01*
X007900Y004990D01*
X007949Y004995D01*
X008000Y004996D01*
X008050Y004993D01*
X008099Y004986D01*
X008148Y004975D01*
X008196Y004960D01*
X008242Y004942D01*
X008287Y004920D01*
X008330Y004894D01*
X008371Y004865D01*
X008410Y004833D01*
X008446Y004798D01*
X008478Y004760D01*
X008508Y004720D01*
X008535Y004677D01*
X008558Y004633D01*
X008577Y004587D01*
X008593Y004539D01*
X008605Y004490D01*
X008613Y004441D01*
X008617Y004391D01*
X008617Y004341D01*
X008613Y004291D01*
X008605Y004242D01*
X008593Y004193D01*
X008577Y004145D01*
X008558Y004099D01*
X008535Y004055D01*
X008508Y004012D01*
X008478Y003972D01*
X008446Y003934D01*
X008410Y003899D01*
X008371Y003867D01*
X008330Y003838D01*
X008287Y003812D01*
X008242Y003790D01*
X008196Y003772D01*
X008148Y003757D01*
X008099Y003746D01*
X008050Y003739D01*
X008000Y003736D01*
X007949Y003737D01*
X007900Y003742D01*
X007850Y003751D01*
X007802Y003764D01*
X007755Y003780D01*
X007709Y003801D01*
X007665Y003825D01*
X007623Y003852D01*
X007583Y003882D01*
X007546Y003916D01*
X007512Y003953D01*
X007480Y003992D01*
X007452Y004033D01*
X007427Y004077D01*
X007406Y004122D01*
X007389Y004169D01*
X007375Y004217D01*
X007365Y004266D01*
X007359Y004316D01*
X007357Y004366D01*
X007357Y014917D02*
X007359Y014967D01*
X007365Y015017D01*
X007375Y015066D01*
X007389Y015114D01*
X007406Y015161D01*
X007427Y015206D01*
X007452Y015250D01*
X007480Y015291D01*
X007512Y015330D01*
X007546Y015367D01*
X007583Y015401D01*
X007623Y015431D01*
X007665Y015458D01*
X007709Y015482D01*
X007755Y015503D01*
X007802Y015519D01*
X007850Y015532D01*
X007900Y015541D01*
X007949Y015546D01*
X008000Y015547D01*
X008050Y015544D01*
X008099Y015537D01*
X008148Y015526D01*
X008196Y015511D01*
X008242Y015493D01*
X008287Y015471D01*
X008330Y015445D01*
X008371Y015416D01*
X008410Y015384D01*
X008446Y015349D01*
X008478Y015311D01*
X008508Y015271D01*
X008535Y015228D01*
X008558Y015184D01*
X008577Y015138D01*
X008593Y015090D01*
X008605Y015041D01*
X008613Y014992D01*
X008617Y014942D01*
X008617Y014892D01*
X008613Y014842D01*
X008605Y014793D01*
X008593Y014744D01*
X008577Y014696D01*
X008558Y014650D01*
X008535Y014606D01*
X008508Y014563D01*
X008478Y014523D01*
X008446Y014485D01*
X008410Y014450D01*
X008371Y014418D01*
X008330Y014389D01*
X008287Y014363D01*
X008242Y014341D01*
X008196Y014323D01*
X008148Y014308D01*
X008099Y014297D01*
X008050Y014290D01*
X008000Y014287D01*
X007949Y014288D01*
X007900Y014293D01*
X007850Y014302D01*
X007802Y014315D01*
X007755Y014331D01*
X007709Y014352D01*
X007665Y014376D01*
X007623Y014403D01*
X007583Y014433D01*
X007546Y014467D01*
X007512Y014504D01*
X007480Y014543D01*
X007452Y014584D01*
X007427Y014628D01*
X007406Y014673D01*
X007389Y014720D01*
X007375Y014768D01*
X007365Y014817D01*
X007359Y014867D01*
X007357Y014917D01*
X005349Y022830D02*
X005351Y022880D01*
X005357Y022930D01*
X005367Y022979D01*
X005381Y023027D01*
X005398Y023074D01*
X005419Y023119D01*
X005444Y023163D01*
X005472Y023204D01*
X005504Y023243D01*
X005538Y023280D01*
X005575Y023314D01*
X005615Y023344D01*
X005657Y023371D01*
X005701Y023395D01*
X005747Y023416D01*
X005794Y023432D01*
X005842Y023445D01*
X005892Y023454D01*
X005941Y023459D01*
X005992Y023460D01*
X006042Y023457D01*
X006091Y023450D01*
X006140Y023439D01*
X006188Y023424D01*
X006234Y023406D01*
X006279Y023384D01*
X006322Y023358D01*
X006363Y023329D01*
X006402Y023297D01*
X006438Y023262D01*
X006470Y023224D01*
X006500Y023184D01*
X006527Y023141D01*
X006550Y023097D01*
X006569Y023051D01*
X006585Y023003D01*
X006597Y022954D01*
X006605Y022905D01*
X006609Y022855D01*
X006609Y022805D01*
X006605Y022755D01*
X006597Y022706D01*
X006585Y022657D01*
X006569Y022609D01*
X006550Y022563D01*
X006527Y022519D01*
X006500Y022476D01*
X006470Y022436D01*
X006438Y022398D01*
X006402Y022363D01*
X006363Y022331D01*
X006322Y022302D01*
X006279Y022276D01*
X006234Y022254D01*
X006188Y022236D01*
X006140Y022221D01*
X006091Y022210D01*
X006042Y022203D01*
X005992Y022200D01*
X005941Y022201D01*
X005892Y022206D01*
X005842Y022215D01*
X005794Y022228D01*
X005747Y022244D01*
X005701Y022265D01*
X005657Y022289D01*
X005615Y022316D01*
X005575Y022346D01*
X005538Y022380D01*
X005504Y022417D01*
X005472Y022456D01*
X005444Y022497D01*
X005419Y022541D01*
X005398Y022586D01*
X005381Y022633D01*
X005367Y022681D01*
X005357Y022730D01*
X005351Y022780D01*
X005349Y022830D01*
X017947Y014917D02*
X017949Y014967D01*
X017955Y015017D01*
X017965Y015066D01*
X017979Y015114D01*
X017996Y015161D01*
X018017Y015206D01*
X018042Y015250D01*
X018070Y015291D01*
X018102Y015330D01*
X018136Y015367D01*
X018173Y015401D01*
X018213Y015431D01*
X018255Y015458D01*
X018299Y015482D01*
X018345Y015503D01*
X018392Y015519D01*
X018440Y015532D01*
X018490Y015541D01*
X018539Y015546D01*
X018590Y015547D01*
X018640Y015544D01*
X018689Y015537D01*
X018738Y015526D01*
X018786Y015511D01*
X018832Y015493D01*
X018877Y015471D01*
X018920Y015445D01*
X018961Y015416D01*
X019000Y015384D01*
X019036Y015349D01*
X019068Y015311D01*
X019098Y015271D01*
X019125Y015228D01*
X019148Y015184D01*
X019167Y015138D01*
X019183Y015090D01*
X019195Y015041D01*
X019203Y014992D01*
X019207Y014942D01*
X019207Y014892D01*
X019203Y014842D01*
X019195Y014793D01*
X019183Y014744D01*
X019167Y014696D01*
X019148Y014650D01*
X019125Y014606D01*
X019098Y014563D01*
X019068Y014523D01*
X019036Y014485D01*
X019000Y014450D01*
X018961Y014418D01*
X018920Y014389D01*
X018877Y014363D01*
X018832Y014341D01*
X018786Y014323D01*
X018738Y014308D01*
X018689Y014297D01*
X018640Y014290D01*
X018590Y014287D01*
X018539Y014288D01*
X018490Y014293D01*
X018440Y014302D01*
X018392Y014315D01*
X018345Y014331D01*
X018299Y014352D01*
X018255Y014376D01*
X018213Y014403D01*
X018173Y014433D01*
X018136Y014467D01*
X018102Y014504D01*
X018070Y014543D01*
X018042Y014584D01*
X018017Y014628D01*
X017996Y014673D01*
X017979Y014720D01*
X017965Y014768D01*
X017955Y014817D01*
X017949Y014867D01*
X017947Y014917D01*
X022750Y022830D02*
X022752Y022880D01*
X022758Y022930D01*
X022768Y022979D01*
X022782Y023027D01*
X022799Y023074D01*
X022820Y023119D01*
X022845Y023163D01*
X022873Y023204D01*
X022905Y023243D01*
X022939Y023280D01*
X022976Y023314D01*
X023016Y023344D01*
X023058Y023371D01*
X023102Y023395D01*
X023148Y023416D01*
X023195Y023432D01*
X023243Y023445D01*
X023293Y023454D01*
X023342Y023459D01*
X023393Y023460D01*
X023443Y023457D01*
X023492Y023450D01*
X023541Y023439D01*
X023589Y023424D01*
X023635Y023406D01*
X023680Y023384D01*
X023723Y023358D01*
X023764Y023329D01*
X023803Y023297D01*
X023839Y023262D01*
X023871Y023224D01*
X023901Y023184D01*
X023928Y023141D01*
X023951Y023097D01*
X023970Y023051D01*
X023986Y023003D01*
X023998Y022954D01*
X024006Y022905D01*
X024010Y022855D01*
X024010Y022805D01*
X024006Y022755D01*
X023998Y022706D01*
X023986Y022657D01*
X023970Y022609D01*
X023951Y022563D01*
X023928Y022519D01*
X023901Y022476D01*
X023871Y022436D01*
X023839Y022398D01*
X023803Y022363D01*
X023764Y022331D01*
X023723Y022302D01*
X023680Y022276D01*
X023635Y022254D01*
X023589Y022236D01*
X023541Y022221D01*
X023492Y022210D01*
X023443Y022203D01*
X023393Y022200D01*
X023342Y022201D01*
X023293Y022206D01*
X023243Y022215D01*
X023195Y022228D01*
X023148Y022244D01*
X023102Y022265D01*
X023058Y022289D01*
X023016Y022316D01*
X022976Y022346D01*
X022939Y022380D01*
X022905Y022417D01*
X022873Y022456D01*
X022845Y022497D01*
X022820Y022541D01*
X022799Y022586D01*
X022782Y022633D01*
X022768Y022681D01*
X022758Y022730D01*
X022752Y022780D01*
X022750Y022830D01*
X022750Y005429D02*
X022752Y005479D01*
X022758Y005529D01*
X022768Y005578D01*
X022782Y005626D01*
X022799Y005673D01*
X022820Y005718D01*
X022845Y005762D01*
X022873Y005803D01*
X022905Y005842D01*
X022939Y005879D01*
X022976Y005913D01*
X023016Y005943D01*
X023058Y005970D01*
X023102Y005994D01*
X023148Y006015D01*
X023195Y006031D01*
X023243Y006044D01*
X023293Y006053D01*
X023342Y006058D01*
X023393Y006059D01*
X023443Y006056D01*
X023492Y006049D01*
X023541Y006038D01*
X023589Y006023D01*
X023635Y006005D01*
X023680Y005983D01*
X023723Y005957D01*
X023764Y005928D01*
X023803Y005896D01*
X023839Y005861D01*
X023871Y005823D01*
X023901Y005783D01*
X023928Y005740D01*
X023951Y005696D01*
X023970Y005650D01*
X023986Y005602D01*
X023998Y005553D01*
X024006Y005504D01*
X024010Y005454D01*
X024010Y005404D01*
X024006Y005354D01*
X023998Y005305D01*
X023986Y005256D01*
X023970Y005208D01*
X023951Y005162D01*
X023928Y005118D01*
X023901Y005075D01*
X023871Y005035D01*
X023839Y004997D01*
X023803Y004962D01*
X023764Y004930D01*
X023723Y004901D01*
X023680Y004875D01*
X023635Y004853D01*
X023589Y004835D01*
X023541Y004820D01*
X023492Y004809D01*
X023443Y004802D01*
X023393Y004799D01*
X023342Y004800D01*
X023293Y004805D01*
X023243Y004814D01*
X023195Y004827D01*
X023148Y004843D01*
X023102Y004864D01*
X023058Y004888D01*
X023016Y004915D01*
X022976Y004945D01*
X022939Y004979D01*
X022905Y005016D01*
X022873Y005055D01*
X022845Y005096D01*
X022820Y005140D01*
X022799Y005185D01*
X022782Y005232D01*
X022768Y005280D01*
X022758Y005329D01*
X022752Y005379D01*
X022750Y005429D01*
X017947Y004366D02*
X017949Y004416D01*
X017955Y004466D01*
X017965Y004515D01*
X017979Y004563D01*
X017996Y004610D01*
X018017Y004655D01*
X018042Y004699D01*
X018070Y004740D01*
X018102Y004779D01*
X018136Y004816D01*
X018173Y004850D01*
X018213Y004880D01*
X018255Y004907D01*
X018299Y004931D01*
X018345Y004952D01*
X018392Y004968D01*
X018440Y004981D01*
X018490Y004990D01*
X018539Y004995D01*
X018590Y004996D01*
X018640Y004993D01*
X018689Y004986D01*
X018738Y004975D01*
X018786Y004960D01*
X018832Y004942D01*
X018877Y004920D01*
X018920Y004894D01*
X018961Y004865D01*
X019000Y004833D01*
X019036Y004798D01*
X019068Y004760D01*
X019098Y004720D01*
X019125Y004677D01*
X019148Y004633D01*
X019167Y004587D01*
X019183Y004539D01*
X019195Y004490D01*
X019203Y004441D01*
X019207Y004391D01*
X019207Y004341D01*
X019203Y004291D01*
X019195Y004242D01*
X019183Y004193D01*
X019167Y004145D01*
X019148Y004099D01*
X019125Y004055D01*
X019098Y004012D01*
X019068Y003972D01*
X019036Y003934D01*
X019000Y003899D01*
X018961Y003867D01*
X018920Y003838D01*
X018877Y003812D01*
X018832Y003790D01*
X018786Y003772D01*
X018738Y003757D01*
X018689Y003746D01*
X018640Y003739D01*
X018590Y003736D01*
X018539Y003737D01*
X018490Y003742D01*
X018440Y003751D01*
X018392Y003764D01*
X018345Y003780D01*
X018299Y003801D01*
X018255Y003825D01*
X018213Y003852D01*
X018173Y003882D01*
X018136Y003916D01*
X018102Y003953D01*
X018070Y003992D01*
X018042Y004033D01*
X018017Y004077D01*
X017996Y004122D01*
X017979Y004169D01*
X017965Y004217D01*
X017955Y004266D01*
X017949Y004316D01*
X017947Y004366D01*
D11*
X017617Y002722D02*
X017617Y002122D01*
X017617Y001437D02*
X017617Y000837D01*
X018617Y000837D02*
X018617Y001437D01*
X018617Y002122D02*
X018617Y002722D01*
X019617Y002722D02*
X019617Y002122D01*
X019617Y001437D02*
X019617Y000837D01*
X003287Y009193D02*
X002687Y009193D01*
X001987Y009193D02*
X001387Y009193D01*
X001387Y010193D02*
X001987Y010193D01*
X002687Y010193D02*
X003287Y010193D01*
X003287Y011193D02*
X002687Y011193D01*
X001987Y011193D02*
X001387Y011193D01*
X012502Y025497D02*
X012502Y026097D01*
X012498Y026822D02*
X012498Y027422D01*
X013498Y027422D02*
X013498Y026822D01*
X013502Y026097D02*
X013502Y025497D01*
X014502Y025497D02*
X014502Y026097D01*
X014498Y026822D02*
X014498Y027422D01*
X025383Y024696D02*
X025983Y024696D01*
X026702Y024696D02*
X027302Y024696D01*
X027302Y023696D02*
X026702Y023696D01*
X025983Y023696D02*
X025383Y023696D01*
X025383Y022696D02*
X025983Y022696D01*
X026702Y022696D02*
X027302Y022696D01*
D12*
X017843Y020288D03*
X017095Y020288D03*
X017469Y019422D03*
X016219Y021327D03*
X016593Y022193D03*
X015845Y022193D03*
X015322Y015976D03*
X014574Y015976D03*
X014948Y015109D03*
X013494Y014370D03*
X012746Y014370D03*
X013120Y015236D03*
X008507Y020852D03*
X007759Y020852D03*
X008133Y021719D03*
X005791Y020829D03*
X005417Y019963D03*
X005043Y020829D03*
D13*
X009349Y010641D03*
X009349Y010444D03*
X009349Y010248D03*
X009349Y010051D03*
X009349Y009854D03*
X009349Y009657D03*
X009349Y009460D03*
X009349Y009263D03*
X009349Y009067D03*
X009349Y008870D03*
X009349Y008673D03*
X009349Y008476D03*
X009349Y008279D03*
X009349Y008082D03*
X009349Y007885D03*
X009349Y007689D03*
X009349Y007492D03*
X009349Y007295D03*
X009349Y007098D03*
X009349Y006901D03*
X009349Y006704D03*
X009349Y006507D03*
X009349Y006311D03*
X009349Y006114D03*
X009349Y005917D03*
X015648Y005917D03*
X015648Y006114D03*
X015648Y006311D03*
X015648Y006507D03*
X015648Y006704D03*
X015648Y006901D03*
X015648Y007098D03*
X015648Y007295D03*
X015648Y007492D03*
X015648Y007689D03*
X015648Y007885D03*
X015648Y008082D03*
X015648Y008279D03*
X015648Y008476D03*
X015648Y008673D03*
X015648Y008870D03*
X015648Y009067D03*
X015648Y009263D03*
X015648Y009460D03*
X015648Y009657D03*
X015648Y009854D03*
X015648Y010051D03*
X015648Y010248D03*
X015648Y010444D03*
X015648Y010641D03*
D14*
X014861Y011429D03*
X014664Y011429D03*
X014467Y011429D03*
X014270Y011429D03*
X014073Y011429D03*
X013876Y011429D03*
X013680Y011429D03*
X013483Y011429D03*
X013286Y011429D03*
X013089Y011429D03*
X012892Y011429D03*
X012695Y011429D03*
X012498Y011429D03*
X012302Y011429D03*
X012105Y011429D03*
X011908Y011429D03*
X011711Y011429D03*
X011514Y011429D03*
X011317Y011429D03*
X011120Y011429D03*
X010924Y011429D03*
X010727Y011429D03*
X010530Y011429D03*
X010333Y011429D03*
X010136Y011429D03*
X010136Y005130D03*
X010333Y005130D03*
X010530Y005130D03*
X010727Y005130D03*
X010924Y005130D03*
X011120Y005130D03*
X011317Y005130D03*
X011514Y005130D03*
X011711Y005130D03*
X011908Y005130D03*
X012105Y005130D03*
X012302Y005130D03*
X012498Y005130D03*
X012695Y005130D03*
X012892Y005130D03*
X013089Y005130D03*
X013286Y005130D03*
X013483Y005130D03*
X013680Y005130D03*
X013876Y005130D03*
X014073Y005130D03*
X014270Y005130D03*
X014467Y005130D03*
X014664Y005130D03*
X014861Y005130D03*
D15*
X015367Y004856D03*
X015367Y004344D03*
X019601Y005212D03*
X019601Y005724D03*
X018985Y011495D03*
X018985Y012007D03*
X016351Y018988D03*
X016351Y019500D03*
X013553Y021931D03*
X013553Y022443D03*
X011701Y015617D03*
X011701Y015105D03*
X011187Y015105D03*
X011187Y015617D03*
X010508Y012521D03*
X010508Y012009D03*
D16*
X012217Y015026D03*
X012217Y015695D03*
X014202Y014778D03*
X014202Y014109D03*
X015686Y014142D03*
X015686Y014811D03*
X015669Y013398D03*
X015669Y012729D03*
X019650Y012119D03*
X019650Y011449D03*
X021136Y004700D03*
X021727Y004700D03*
X021727Y004031D03*
X021136Y004031D03*
X018467Y019422D03*
X018467Y020091D03*
X019110Y020971D03*
X019110Y021641D03*
X019088Y022190D03*
X019088Y022860D03*
X020072Y022855D03*
X020072Y022186D03*
X020073Y021590D03*
X020073Y020921D03*
X020743Y020921D03*
X020743Y021590D03*
X006883Y021167D03*
X006883Y020497D03*
X003846Y024629D03*
X003846Y025298D03*
D17*
X014861Y013461D03*
X014861Y013068D03*
X014861Y012674D03*
D18*
X015101Y012090D03*
X014589Y012090D03*
X016487Y007708D03*
X016998Y007708D03*
X014643Y004170D03*
X014131Y004170D03*
X011431Y004366D03*
X010920Y004366D03*
X008211Y008665D03*
X007699Y008665D03*
X015451Y018252D03*
X015963Y018252D03*
X014227Y021177D03*
X013715Y021177D03*
X015956Y022806D03*
X016468Y022806D03*
D19*
X017137Y021580D03*
X017176Y020938D03*
X017846Y020938D03*
X017806Y021580D03*
X015204Y016598D03*
X014535Y016598D03*
X013454Y013787D03*
X012785Y013787D03*
X016983Y009799D03*
X017652Y009799D03*
X017667Y008257D03*
X016997Y008257D03*
X008478Y020251D03*
X007809Y020251D03*
X005752Y021411D03*
X005082Y021411D03*
X005319Y019234D03*
X004649Y019234D03*
G36*
X002331Y024729D02*
X002026Y024424D01*
X001747Y024703D01*
X002052Y025008D01*
X002331Y024729D01*
G37*
G36*
X002804Y025202D02*
X002499Y024897D01*
X002220Y025176D01*
X002525Y025481D01*
X002804Y025202D01*
G37*
D20*
X017022Y009326D03*
X017038Y008850D03*
X017628Y008850D03*
X017613Y009326D03*
X021136Y005724D03*
X021136Y005133D03*
X021727Y005133D03*
X021727Y005724D03*
D21*
X023162Y011158D03*
X023162Y012158D03*
X024162Y012158D03*
X024162Y011158D03*
X025162Y011158D03*
X025162Y012158D03*
X026162Y012158D03*
X026162Y011158D03*
X027162Y011158D03*
X027162Y012158D03*
D22*
X021558Y012902D03*
X021558Y010422D03*
D23*
X011572Y002137D03*
D24*
X008312Y001267D03*
X008312Y003027D03*
D25*
X006269Y003888D03*
X005166Y003888D03*
D26*
X012992Y002648D03*
X012992Y001545D03*
X020349Y004366D03*
X020349Y005468D03*
D27*
X020211Y016337D03*
X020711Y016337D03*
X021211Y016337D03*
X019711Y016337D03*
X019211Y016337D03*
X018711Y016337D03*
X018211Y016337D03*
X017711Y016337D03*
X017711Y018542D03*
X018211Y018542D03*
X018711Y018542D03*
X019211Y018542D03*
X019711Y018542D03*
X020211Y018542D03*
X020711Y018542D03*
X021211Y018542D03*
D28*
X022317Y016467D03*
X022317Y014223D03*
D29*
X027494Y013593D03*
X027887Y018770D03*
D30*
X026372Y016936D03*
X026214Y016503D03*
X026372Y016070D03*
X026450Y015637D03*
X026372Y015204D03*
X026450Y014770D03*
X026372Y014337D03*
X026372Y013904D03*
D31*
X012108Y016899D03*
X010927Y017686D03*
X012108Y018474D03*
X010927Y019261D03*
X012108Y020048D03*
X010927Y020836D03*
X012108Y021623D03*
X010927Y022411D03*
X012108Y023198D03*
X010927Y023985D03*
X003446Y023198D03*
X002265Y022411D03*
X003446Y021623D03*
X002265Y020836D03*
X003446Y020048D03*
X002265Y019261D03*
X003446Y018474D03*
X002265Y017686D03*
X003446Y016899D03*
X002265Y023985D03*
D32*
G36*
X002959Y025413D02*
X002737Y025635D01*
X002959Y025857D01*
X003181Y025635D01*
X002959Y025413D01*
G37*
G36*
X003376Y025831D02*
X003154Y026053D01*
X003376Y026275D01*
X003598Y026053D01*
X003376Y025831D01*
G37*
G36*
X003874Y026378D02*
X003652Y026600D01*
X003874Y026822D01*
X004096Y026600D01*
X003874Y026378D01*
G37*
G36*
X004291Y026796D02*
X004069Y027018D01*
X004291Y027240D01*
X004513Y027018D01*
X004291Y026796D01*
G37*
D33*
X005939Y011423D02*
X006470Y011423D01*
X006470Y010423D02*
X005939Y010423D01*
X005939Y009423D02*
X006470Y009423D01*
X006470Y008423D02*
X005939Y008423D01*
X005943Y007415D02*
X006474Y007415D01*
D34*
X013935Y019026D03*
X013935Y019242D03*
X013935Y019459D03*
X013935Y019675D03*
X013935Y019892D03*
X013935Y020108D03*
X013935Y020325D03*
X015746Y020325D03*
X015746Y020108D03*
X015746Y019892D03*
X015746Y019675D03*
X015746Y019459D03*
X015746Y019242D03*
X015746Y019026D03*
D35*
X015490Y018770D03*
X015273Y018770D03*
X015057Y018770D03*
X014840Y018770D03*
X014624Y018770D03*
X014407Y018770D03*
X014191Y018770D03*
X014191Y020581D03*
X014407Y020581D03*
X014624Y020581D03*
X014840Y020581D03*
X015057Y020581D03*
X015273Y020581D03*
X015490Y020581D03*
D36*
X014833Y021935D03*
X014085Y021935D03*
X014085Y022959D03*
X014459Y022959D03*
X014833Y022959D03*
D37*
X011643Y014238D03*
X011643Y013982D03*
X011643Y013726D03*
X011643Y013470D03*
X010186Y013470D03*
X010186Y013726D03*
X010186Y013982D03*
X010186Y014238D03*
D38*
X010530Y014582D03*
X010786Y014582D03*
X011042Y014582D03*
X011298Y014582D03*
X011298Y013126D03*
X011042Y013126D03*
X010786Y013126D03*
X010530Y013126D03*
D39*
X005879Y013295D03*
X005979Y014295D03*
X005879Y015295D03*
D40*
X007409Y019018D03*
D41*
X007409Y017555D03*
D42*
X006596Y017868D03*
X006596Y018368D03*
X006596Y018868D03*
X008222Y018868D03*
X008222Y018368D03*
X008222Y017868D03*
D43*
X006672Y002825D03*
X006672Y001214D03*
D44*
X005349Y001366D03*
X005349Y002468D03*
X020349Y011216D03*
X020349Y012319D03*
D45*
X021963Y001807D03*
X014994Y001807D03*
X008932Y026264D03*
X006078Y026284D03*
D46*
X002455Y013716D03*
X002494Y006826D03*
X023634Y026399D03*
X026830Y020552D03*
D47*
X021097Y026807D03*
X016097Y026807D03*
D48*
X017120Y024208D03*
X018105Y024208D03*
X019089Y024208D03*
X020073Y024208D03*
D49*
X027156Y005733D03*
X027656Y005733D03*
X027656Y005064D03*
X027156Y005064D03*
X027156Y004434D03*
X027656Y004434D03*
D50*
X003113Y002569D02*
X002611Y002569D01*
X002453Y002728D02*
X003113Y002728D01*
X003113Y002844D02*
X003113Y002541D01*
X003153Y002442D01*
X004295Y001301D01*
X003879Y001301D01*
X003721Y001460D02*
X004136Y001460D01*
X003978Y001618D02*
X003562Y001618D01*
X003404Y001777D02*
X003819Y001777D01*
X003661Y001935D02*
X003245Y001935D01*
X003087Y002094D02*
X003502Y002094D01*
X003344Y002252D02*
X002928Y002252D01*
X002770Y002411D02*
X003185Y002411D01*
X003113Y002844D02*
X003153Y002943D01*
X003229Y003018D01*
X003350Y003139D01*
X003350Y003139D01*
X003425Y003215D01*
X003524Y003256D01*
X004699Y003256D01*
X004732Y003261D01*
X004752Y003256D01*
X004772Y003256D01*
X004803Y003243D01*
X004836Y003235D01*
X004852Y003223D01*
X004871Y003215D01*
X004894Y003191D01*
X004921Y003171D01*
X004932Y003154D01*
X004946Y003139D01*
X004959Y003109D01*
X004975Y003081D01*
X005055Y003001D01*
X005793Y003001D01*
X005904Y002890D01*
X005904Y003355D01*
X005903Y003355D01*
X005775Y003483D01*
X005775Y003704D01*
X005765Y003728D01*
X005744Y003757D01*
X005728Y003819D01*
X005703Y003879D01*
X005703Y003914D01*
X005694Y003949D01*
X005703Y004012D01*
X005703Y004077D01*
X005717Y004109D01*
X005722Y004145D01*
X005754Y004200D01*
X005775Y004251D01*
X005775Y004293D01*
X005903Y004421D01*
X005940Y004421D01*
X006100Y004581D01*
X005810Y004581D01*
X005499Y004710D01*
X005260Y004949D01*
X005131Y005260D01*
X005131Y005597D01*
X005260Y005909D01*
X005499Y006147D01*
X005810Y006276D01*
X006147Y006276D01*
X006459Y006147D01*
X006524Y006082D01*
X006524Y006187D01*
X006209Y006503D01*
X006069Y006643D01*
X005993Y006826D01*
X005993Y006932D01*
X005847Y006932D01*
X005669Y007005D01*
X005533Y007141D01*
X005526Y007159D01*
X005455Y007188D01*
X004662Y007981D01*
X004662Y005566D01*
X004617Y005457D01*
X004533Y005373D01*
X004424Y005328D01*
X001156Y005328D01*
X001118Y005344D01*
X001118Y004062D01*
X004612Y000568D01*
X006010Y000568D01*
X005904Y000674D01*
X005904Y000868D01*
X005828Y000868D01*
X005793Y000833D01*
X004904Y000833D01*
X004777Y000961D01*
X004777Y001185D01*
X004469Y001185D01*
X004370Y001225D01*
X004295Y001301D01*
X004038Y001143D02*
X004777Y001143D01*
X004777Y000984D02*
X004196Y000984D01*
X004355Y000826D02*
X005904Y000826D01*
X005910Y000667D02*
X004513Y000667D01*
X005012Y003045D02*
X005904Y003045D01*
X005904Y003203D02*
X004882Y003203D01*
X004867Y003393D02*
X005108Y003393D01*
X005108Y003830D01*
X004711Y003830D01*
X004711Y003549D01*
X004723Y003503D01*
X004747Y003462D01*
X004780Y003429D01*
X004821Y003405D01*
X004867Y003393D01*
X004718Y003520D02*
X001660Y003520D01*
X001502Y003679D02*
X004711Y003679D01*
X004711Y003946D02*
X004711Y004226D01*
X004723Y004272D01*
X004747Y004313D01*
X004780Y004347D01*
X004821Y004370D01*
X004867Y004383D01*
X005108Y004383D01*
X005108Y003946D01*
X005224Y003946D01*
X005224Y004383D01*
X005465Y004383D01*
X005511Y004370D01*
X005552Y004347D01*
X005586Y004313D01*
X005609Y004272D01*
X005622Y004226D01*
X005622Y003946D01*
X005224Y003946D01*
X005224Y003830D01*
X005622Y003830D01*
X005622Y003549D01*
X005609Y003503D01*
X005586Y003462D01*
X005552Y003429D01*
X005511Y003405D01*
X005465Y003393D01*
X005224Y003393D01*
X005224Y003830D01*
X005108Y003830D01*
X005108Y003946D01*
X004711Y003946D01*
X004711Y003996D02*
X001185Y003996D01*
X001118Y004154D02*
X004711Y004154D01*
X004746Y004313D02*
X001118Y004313D01*
X001118Y004471D02*
X005990Y004471D01*
X005795Y004313D02*
X005586Y004313D01*
X005622Y004154D02*
X005727Y004154D01*
X005701Y003996D02*
X005622Y003996D01*
X005720Y003837D02*
X005224Y003837D01*
X005108Y003837D02*
X001343Y003837D01*
X001819Y003362D02*
X005896Y003362D01*
X005775Y003520D02*
X005614Y003520D01*
X005622Y003679D02*
X005775Y003679D01*
X005224Y003679D02*
X005108Y003679D01*
X005108Y003520D02*
X005224Y003520D01*
X005224Y003996D02*
X005108Y003996D01*
X005108Y004154D02*
X005224Y004154D01*
X005224Y004313D02*
X005108Y004313D01*
X005421Y004788D02*
X001118Y004788D01*
X001118Y004630D02*
X005693Y004630D01*
X005262Y004947D02*
X001118Y004947D01*
X001118Y005105D02*
X005195Y005105D01*
X005131Y005264D02*
X001118Y005264D01*
X002574Y006746D02*
X002574Y006906D01*
X003954Y006906D01*
X003954Y007933D01*
X003942Y007979D01*
X003936Y007988D01*
X004365Y007988D01*
X004365Y005626D01*
X003910Y005626D01*
X003918Y005633D01*
X003942Y005674D01*
X003954Y005720D01*
X003954Y006746D01*
X002574Y006746D01*
X002574Y006906D01*
X003954Y006906D01*
X003954Y007933D01*
X003942Y007979D01*
X003936Y007988D01*
X004365Y007988D01*
X004365Y005626D01*
X003910Y005626D01*
X003918Y005633D01*
X003942Y005674D01*
X003954Y005720D01*
X003954Y006746D01*
X002574Y006746D01*
X002574Y006849D02*
X004365Y006849D01*
X002574Y006849D01*
X003954Y007007D02*
X004365Y007007D01*
X003954Y007007D01*
X003954Y007166D02*
X004365Y007166D01*
X003954Y007166D01*
X003954Y007324D02*
X004365Y007324D01*
X003954Y007324D01*
X003954Y007483D02*
X004365Y007483D01*
X003954Y007483D01*
X003954Y007641D02*
X004365Y007641D01*
X003954Y007641D01*
X003954Y007800D02*
X004365Y007800D01*
X003954Y007800D01*
X003947Y007958D02*
X004365Y007958D01*
X003947Y007958D01*
X004424Y008286D02*
X001156Y008286D01*
X001118Y008270D01*
X001118Y008795D01*
X001136Y008782D01*
X001203Y008748D01*
X001275Y008724D01*
X001350Y008713D01*
X001667Y008713D01*
X001667Y009173D01*
X001707Y009173D01*
X001707Y008713D01*
X002025Y008713D01*
X002100Y008724D01*
X002172Y008748D01*
X002239Y008782D01*
X002300Y008826D01*
X002310Y008837D01*
X002393Y008754D01*
X002584Y008675D01*
X003390Y008675D01*
X003580Y008754D01*
X003726Y008899D01*
X003804Y009090D01*
X003804Y009296D01*
X003726Y009486D01*
X003580Y009631D01*
X003433Y009693D01*
X003580Y009754D01*
X003726Y009899D01*
X003804Y010090D01*
X003804Y010296D01*
X003726Y010486D01*
X003580Y010631D01*
X003433Y010693D01*
X003580Y010754D01*
X003726Y010899D01*
X003804Y011090D01*
X003804Y011296D01*
X003726Y011486D01*
X003580Y011631D01*
X003390Y011710D01*
X002584Y011710D01*
X002393Y011631D01*
X002337Y011575D01*
X002281Y011631D01*
X002144Y011688D01*
X002350Y011893D01*
X004156Y011893D01*
X004174Y011875D01*
X004298Y011824D01*
X004432Y011824D01*
X004451Y011832D01*
X004451Y008274D01*
X004424Y008286D01*
X004449Y008275D02*
X004451Y008275D01*
X004451Y008434D02*
X001118Y008434D01*
X001118Y008592D02*
X004451Y008592D01*
X004451Y008751D02*
X003573Y008751D01*
X003730Y008909D02*
X004451Y008909D01*
X004451Y009068D02*
X003795Y009068D01*
X003804Y009226D02*
X004451Y009226D01*
X004451Y009385D02*
X003768Y009385D01*
X003668Y009543D02*
X004451Y009543D01*
X004451Y009702D02*
X003454Y009702D01*
X003686Y009860D02*
X004451Y009860D01*
X004451Y010019D02*
X003775Y010019D01*
X003804Y010177D02*
X004451Y010177D01*
X004451Y010336D02*
X003788Y010336D01*
X003717Y010494D02*
X004451Y010494D01*
X004451Y010653D02*
X003529Y010653D01*
X003637Y010811D02*
X004451Y010811D01*
X004451Y010970D02*
X003755Y010970D01*
X003804Y011128D02*
X004451Y011128D01*
X004451Y011287D02*
X003804Y011287D01*
X003742Y011445D02*
X004451Y011445D01*
X004451Y011604D02*
X003608Y011604D01*
X004451Y011762D02*
X002218Y011762D01*
X002309Y011604D02*
X002365Y011604D01*
X003871Y012515D02*
X003879Y012523D01*
X003902Y012564D01*
X003915Y012610D01*
X003915Y013636D01*
X002535Y013636D01*
X002535Y013796D01*
X003915Y013796D01*
X003915Y014823D01*
X003902Y014868D01*
X003897Y014878D01*
X004325Y014878D01*
X004325Y012515D01*
X003871Y012515D01*
X003897Y012555D02*
X004325Y012555D01*
X004325Y012713D02*
X003915Y012713D01*
X003915Y012872D02*
X004325Y012872D01*
X004325Y013030D02*
X003915Y013030D01*
X003915Y013189D02*
X004325Y013189D01*
X004325Y013347D02*
X003915Y013347D01*
X003915Y013506D02*
X004325Y013506D01*
X004325Y013664D02*
X002535Y013664D01*
X003915Y013823D02*
X004325Y013823D01*
X004325Y013981D02*
X003915Y013981D01*
X003915Y014140D02*
X004325Y014140D01*
X004325Y014298D02*
X003915Y014298D01*
X003915Y014457D02*
X004325Y014457D01*
X004325Y014615D02*
X003915Y014615D01*
X003915Y014774D02*
X004325Y014774D01*
X004451Y015161D02*
X004387Y015188D01*
X001118Y015188D01*
X001118Y024197D01*
X001531Y024610D01*
X001561Y024579D01*
X001378Y024396D01*
X001303Y024321D01*
X001262Y024222D01*
X001262Y020257D01*
X001303Y020159D01*
X001578Y019883D01*
X001654Y019808D01*
X001752Y019767D01*
X002918Y019767D01*
X003022Y019663D01*
X003871Y019663D01*
X003999Y019791D01*
X003999Y020306D01*
X003871Y020434D01*
X003022Y020434D01*
X002894Y020306D01*
X002894Y020303D01*
X001916Y020303D01*
X001798Y020422D01*
X001798Y020493D01*
X001840Y020451D01*
X002690Y020451D01*
X002818Y020578D01*
X002818Y021093D01*
X002690Y021221D01*
X001840Y021221D01*
X001798Y021178D01*
X001798Y022068D01*
X001840Y022026D01*
X002690Y022026D01*
X002818Y022153D01*
X002818Y022668D01*
X002690Y022796D01*
X002533Y022796D01*
X002533Y022864D01*
X002894Y023225D01*
X002894Y022940D01*
X003022Y022813D01*
X003767Y022813D01*
X004765Y021815D01*
X004648Y021698D01*
X004648Y021214D01*
X004628Y021195D01*
X004628Y020463D01*
X004756Y020335D01*
X005009Y020335D01*
X005002Y020328D01*
X005002Y019927D01*
X004725Y019649D01*
X004342Y019649D01*
X004278Y019584D01*
X004179Y019584D01*
X004056Y019533D01*
X003961Y019438D01*
X003910Y019315D01*
X003910Y019181D01*
X003961Y019057D01*
X004056Y018962D01*
X004179Y018911D01*
X004251Y018911D01*
X004342Y018820D01*
X004473Y018820D01*
X004455Y018785D01*
X004455Y018776D01*
X004451Y018767D01*
X004451Y018723D01*
X004448Y018679D01*
X004451Y018670D01*
X004451Y015161D01*
X004451Y015249D02*
X001118Y015249D01*
X001118Y015408D02*
X004451Y015408D01*
X004451Y015566D02*
X001118Y015566D01*
X001118Y015725D02*
X004451Y015725D01*
X004451Y015883D02*
X001118Y015883D01*
X001118Y016042D02*
X004451Y016042D01*
X004451Y016200D02*
X001118Y016200D01*
X001118Y016359D02*
X004451Y016359D01*
X004451Y016517D02*
X001118Y016517D01*
X001118Y016676D02*
X002940Y016676D01*
X002944Y016662D02*
X002968Y016621D01*
X003001Y016587D01*
X003042Y016564D01*
X003088Y016551D01*
X003443Y016551D01*
X003443Y016895D01*
X003450Y016895D01*
X003450Y016551D01*
X003805Y016551D01*
X003851Y016564D01*
X003892Y016587D01*
X003925Y016621D01*
X003949Y016662D01*
X003961Y016708D01*
X003961Y016895D01*
X003450Y016895D01*
X003450Y016902D01*
X003961Y016902D01*
X003961Y017090D01*
X003949Y017136D01*
X003925Y017177D01*
X003892Y017210D01*
X003851Y017234D01*
X003805Y017246D01*
X003450Y017246D01*
X003450Y016902D01*
X003443Y016902D01*
X003443Y016895D01*
X002932Y016895D01*
X002932Y016708D01*
X002944Y016662D01*
X002932Y016834D02*
X001118Y016834D01*
X001118Y016993D02*
X002932Y016993D01*
X002932Y016902D02*
X002932Y017090D01*
X002944Y017136D01*
X002968Y017177D01*
X003001Y017210D01*
X003042Y017234D01*
X003088Y017246D01*
X003443Y017246D01*
X003443Y016902D01*
X002932Y016902D01*
X002953Y017151D02*
X001118Y017151D01*
X001118Y017310D02*
X001832Y017310D01*
X001840Y017301D02*
X002690Y017301D01*
X002818Y017429D01*
X002818Y017944D01*
X002690Y018071D01*
X001840Y018071D01*
X001713Y017944D01*
X001713Y017429D01*
X001840Y017301D01*
X001713Y017468D02*
X001118Y017468D01*
X001118Y017627D02*
X001713Y017627D01*
X001713Y017785D02*
X001118Y017785D01*
X001118Y017944D02*
X001713Y017944D01*
X001118Y018102D02*
X003008Y018102D01*
X003022Y018089D02*
X003871Y018089D01*
X003999Y018216D01*
X003999Y018731D01*
X003871Y018859D01*
X003022Y018859D01*
X002894Y018731D01*
X002894Y018216D01*
X003022Y018089D01*
X002894Y018261D02*
X001118Y018261D01*
X001118Y018419D02*
X002894Y018419D01*
X002894Y018578D02*
X001118Y018578D01*
X001118Y018736D02*
X002899Y018736D01*
X002709Y018895D02*
X004268Y018895D01*
X004451Y018736D02*
X003994Y018736D01*
X003999Y018578D02*
X004451Y018578D01*
X004451Y018419D02*
X003999Y018419D01*
X003999Y018261D02*
X004451Y018261D01*
X004451Y018102D02*
X003885Y018102D01*
X004451Y017944D02*
X002818Y017944D01*
X002818Y017785D02*
X004451Y017785D01*
X004451Y017627D02*
X002818Y017627D01*
X002818Y017468D02*
X004451Y017468D01*
X004451Y017310D02*
X002699Y017310D01*
X003443Y017151D02*
X003450Y017151D01*
X003443Y016993D02*
X003450Y016993D01*
X003443Y016834D02*
X003450Y016834D01*
X003443Y016676D02*
X003450Y016676D01*
X003952Y016676D02*
X004451Y016676D01*
X004451Y016834D02*
X003961Y016834D01*
X003961Y016993D02*
X004451Y016993D01*
X004451Y017151D02*
X003940Y017151D01*
X004987Y017151D02*
X007034Y017151D01*
X007034Y017136D02*
X007162Y017009D01*
X007209Y017009D01*
X007287Y016931D01*
X007362Y016855D01*
X007461Y016814D01*
X009321Y016814D01*
X009355Y016734D01*
X009449Y016639D01*
X009573Y016588D01*
X009707Y016588D01*
X009831Y016639D01*
X009926Y016734D01*
X009977Y016858D01*
X009977Y016957D01*
X010672Y016263D01*
X010672Y016094D01*
X009195Y014673D01*
X009192Y014672D01*
X009156Y014636D01*
X009120Y014601D01*
X009119Y014598D01*
X009117Y014596D01*
X009098Y014549D01*
X009077Y014503D01*
X009077Y014500D01*
X009076Y014498D01*
X009076Y014447D01*
X009075Y014396D01*
X009076Y014394D01*
X009076Y014123D01*
X009060Y014163D01*
X008965Y014258D01*
X008841Y014309D01*
X008707Y014309D01*
X008583Y014258D01*
X008488Y014163D01*
X008437Y014039D01*
X008437Y013905D01*
X008488Y013781D01*
X008583Y013686D01*
X008638Y013664D01*
X008547Y013573D01*
X008506Y013474D01*
X008506Y013236D01*
X008506Y013235D01*
X008506Y013183D01*
X008506Y013131D01*
X008507Y013130D01*
X008507Y013129D01*
X008527Y013081D01*
X008547Y013033D01*
X008548Y013032D01*
X008549Y013031D01*
X008586Y012994D01*
X008622Y012958D01*
X008624Y012957D01*
X009570Y012031D01*
X009668Y011991D01*
X009775Y011993D01*
X009815Y012009D01*
X010151Y012009D01*
X010151Y011942D01*
X009987Y011942D01*
X009859Y011814D01*
X009859Y011292D01*
X006709Y014447D01*
X006673Y014484D01*
X006634Y014522D01*
X006634Y014522D01*
X006634Y014522D01*
X006585Y014542D01*
X006536Y014563D01*
X006536Y014563D01*
X006536Y014563D01*
X006505Y014563D01*
X006478Y014628D01*
X006312Y014794D01*
X006193Y014843D01*
X006238Y014876D01*
X006299Y014937D01*
X006350Y015007D01*
X006389Y015084D01*
X006416Y015166D01*
X006429Y015252D01*
X006429Y015275D01*
X005899Y015275D01*
X005899Y015315D01*
X005859Y015315D01*
X005859Y015275D01*
X005329Y015275D01*
X005329Y015252D01*
X005343Y015166D01*
X005370Y015084D01*
X005409Y015007D01*
X005460Y014937D01*
X005521Y014876D01*
X005591Y014825D01*
X005650Y014795D01*
X005646Y014794D01*
X005481Y014628D01*
X005391Y014412D01*
X005391Y014178D01*
X005481Y013962D01*
X005619Y013824D01*
X005546Y013794D01*
X005381Y013628D01*
X005291Y013412D01*
X005291Y013178D01*
X005381Y012962D01*
X005546Y012797D01*
X005762Y012707D01*
X005996Y012707D01*
X006212Y012797D01*
X006378Y012962D01*
X006405Y013027D01*
X007056Y013027D01*
X009057Y011026D01*
X009057Y010918D01*
X008963Y010918D01*
X008836Y010791D01*
X008836Y008941D01*
X008558Y008941D01*
X008439Y009060D01*
X007983Y009060D01*
X007923Y009000D01*
X007906Y009010D01*
X007861Y009022D01*
X007699Y009022D01*
X007538Y009022D01*
X007492Y009010D01*
X007451Y008986D01*
X007417Y008953D01*
X007394Y008912D01*
X007381Y008866D01*
X007381Y008665D01*
X007699Y008665D01*
X007699Y008665D01*
X007381Y008665D01*
X007381Y008464D01*
X007394Y008418D01*
X007417Y008377D01*
X007451Y008344D01*
X007492Y008320D01*
X007538Y008308D01*
X007699Y008308D01*
X007699Y008665D01*
X007699Y009022D01*
X007699Y008665D01*
X007699Y008665D01*
X007699Y008665D01*
X007699Y008308D01*
X007861Y008308D01*
X007906Y008320D01*
X007923Y008330D01*
X007983Y008270D01*
X008427Y008270D01*
X008427Y007724D01*
X008425Y007723D01*
X008330Y007628D01*
X008279Y007504D01*
X008279Y007369D01*
X008330Y007245D01*
X008425Y007150D01*
X008549Y007099D01*
X008684Y007099D01*
X008808Y007150D01*
X008836Y007178D01*
X008836Y005768D01*
X008963Y005640D01*
X009734Y005640D01*
X009862Y005768D01*
X009862Y008428D01*
X009824Y008466D01*
X009824Y008476D01*
X009824Y008486D01*
X009862Y008524D01*
X009862Y008648D01*
X009905Y008544D01*
X010000Y008449D01*
X010124Y008398D01*
X010150Y008398D01*
X010706Y007842D01*
X010680Y007779D01*
X010680Y007645D01*
X010732Y007521D01*
X010827Y007426D01*
X010951Y007374D01*
X011085Y007374D01*
X011209Y007426D01*
X011304Y007521D01*
X011356Y007645D01*
X011356Y007779D01*
X011353Y007786D01*
X011692Y007447D01*
X011677Y007431D01*
X011625Y007307D01*
X011625Y007173D01*
X011677Y007048D01*
X011772Y006953D01*
X011896Y006902D01*
X012030Y006902D01*
X012154Y006953D01*
X012249Y007048D01*
X012301Y007173D01*
X012301Y007307D01*
X012249Y007431D01*
X012231Y007450D01*
X012231Y007608D01*
X012190Y007706D01*
X011820Y008076D01*
X011875Y008130D01*
X013412Y006593D01*
X013412Y005643D01*
X011168Y005643D01*
X011130Y005605D01*
X011120Y005605D01*
X011111Y005605D01*
X011073Y005643D01*
X009987Y005643D01*
X009859Y005515D01*
X009859Y004744D01*
X009987Y004616D01*
X010564Y004616D01*
X010564Y004369D01*
X010043Y003848D01*
X010002Y003750D01*
X010002Y002233D01*
X009293Y001523D01*
X009120Y001523D01*
X009120Y001672D01*
X008992Y001799D01*
X008619Y001799D01*
X007887Y002532D01*
X008234Y002532D01*
X008234Y002949D01*
X007542Y002949D01*
X007542Y002877D01*
X007439Y002979D01*
X007439Y003365D01*
X007340Y003465D01*
X007316Y003525D01*
X007313Y003528D01*
X007312Y003531D01*
X007244Y003599D01*
X006890Y003963D01*
X007139Y004212D01*
X007139Y004197D01*
X007268Y003886D01*
X007506Y003647D01*
X007809Y003522D01*
X007698Y003522D01*
X007652Y003509D01*
X007611Y003486D01*
X007578Y003452D01*
X007554Y003411D01*
X007542Y003365D01*
X007542Y003104D01*
X008234Y003104D01*
X008234Y002949D01*
X008389Y002949D01*
X008389Y002532D01*
X008926Y002532D01*
X008971Y002544D01*
X009012Y002568D01*
X009046Y002601D01*
X009070Y002642D01*
X009082Y002688D01*
X009082Y002949D01*
X008389Y002949D01*
X008389Y003104D01*
X008234Y003104D01*
X008234Y003522D01*
X008164Y003522D01*
X008467Y003647D01*
X008705Y003886D01*
X008834Y004197D01*
X008834Y004534D01*
X008705Y004846D01*
X008467Y005084D01*
X008155Y005213D01*
X007818Y005213D01*
X007520Y005090D01*
X007520Y006492D01*
X007444Y006675D01*
X006988Y007131D01*
X006988Y007498D01*
X006913Y007681D01*
X006756Y007837D01*
X006573Y007913D01*
X006375Y007913D01*
X006341Y007899D01*
X005847Y007899D01*
X005669Y007825D01*
X005622Y007778D01*
X004987Y008414D01*
X004987Y012215D01*
X005023Y012127D01*
X005118Y012032D01*
X005242Y011981D01*
X005377Y011981D01*
X005501Y012032D01*
X005519Y012051D01*
X006773Y012051D01*
X007334Y011490D01*
X007334Y011464D01*
X007385Y011340D01*
X007480Y011245D01*
X007604Y011193D01*
X007739Y011193D01*
X007863Y011245D01*
X007958Y011340D01*
X008009Y011464D01*
X008009Y011598D01*
X007958Y011722D01*
X007863Y011817D01*
X007739Y011869D01*
X007713Y011869D01*
X007036Y012546D01*
X006938Y012586D01*
X005519Y012586D01*
X005501Y012605D01*
X005377Y012656D01*
X005242Y012656D01*
X005118Y012605D01*
X005023Y012510D01*
X004987Y012422D01*
X004987Y018591D01*
X005250Y018820D01*
X005514Y018820D01*
X005514Y018171D01*
X005555Y018072D01*
X005870Y017757D01*
X005945Y017682D01*
X006044Y017641D01*
X006050Y017641D01*
X006050Y017620D01*
X006178Y017493D01*
X006569Y017493D01*
X006640Y017412D01*
X006643Y017403D01*
X006674Y017372D01*
X006704Y017339D01*
X006712Y017335D01*
X006718Y017328D01*
X006759Y017311D01*
X006799Y017291D01*
X006808Y017291D01*
X006817Y017287D01*
X006861Y017287D01*
X006905Y017284D01*
X006914Y017287D01*
X007034Y017287D01*
X007034Y017136D01*
X007225Y016993D02*
X004987Y016993D01*
X004987Y016834D02*
X007414Y016834D01*
X006763Y017310D02*
X004987Y017310D01*
X004987Y017468D02*
X006591Y017468D01*
X006050Y017627D02*
X004987Y017627D01*
X004987Y017785D02*
X005842Y017785D01*
X005684Y017944D02*
X004987Y017944D01*
X004987Y018102D02*
X005543Y018102D01*
X005514Y018261D02*
X004987Y018261D01*
X004987Y018419D02*
X005514Y018419D01*
X005514Y018578D02*
X004987Y018578D01*
X005153Y018736D02*
X005514Y018736D01*
X006050Y018736D02*
X006088Y018736D01*
X006088Y018687D02*
X006088Y018868D01*
X006596Y018868D01*
X006596Y018868D01*
X006088Y018868D01*
X006088Y019049D01*
X006100Y019095D01*
X006124Y019136D01*
X006157Y019170D01*
X006198Y019193D01*
X006244Y019206D01*
X006596Y019206D01*
X006596Y018868D01*
X006596Y018868D01*
X006596Y019206D01*
X006949Y019206D01*
X006995Y019193D01*
X007034Y019171D01*
X007034Y019600D01*
X007162Y019728D01*
X007657Y019728D01*
X007785Y019600D01*
X007785Y019225D01*
X007803Y019243D01*
X008641Y019243D01*
X008723Y019161D01*
X008741Y019179D01*
X008864Y019230D01*
X008998Y019230D01*
X009122Y019179D01*
X009217Y019084D01*
X009268Y018960D01*
X009268Y018826D01*
X009217Y018702D01*
X009122Y018608D01*
X009094Y018596D01*
X009097Y018595D01*
X010567Y017125D01*
X010563Y017133D01*
X010563Y017267D01*
X010577Y017301D01*
X010502Y017301D01*
X010374Y017429D01*
X010374Y017944D01*
X010502Y018071D01*
X011352Y018071D01*
X011479Y017944D01*
X011479Y017577D01*
X013123Y017577D01*
X013189Y017643D01*
X012641Y018190D01*
X012639Y018195D01*
X012533Y018089D01*
X011683Y018089D01*
X011555Y018216D01*
X011555Y018731D01*
X011683Y018859D01*
X012533Y018859D01*
X012601Y018791D01*
X012601Y019731D01*
X012533Y019663D01*
X011683Y019663D01*
X011555Y019791D01*
X011555Y019807D01*
X010335Y019807D01*
X010236Y019847D01*
X010161Y019923D01*
X008922Y021162D01*
X008922Y020487D01*
X008912Y020477D01*
X008912Y020185D01*
X009156Y020185D01*
X009174Y020202D01*
X009298Y020254D01*
X009432Y020254D01*
X009555Y020202D01*
X009650Y020108D01*
X009701Y019984D01*
X009701Y019850D01*
X009650Y019726D01*
X009555Y019631D01*
X009432Y019580D01*
X009298Y019580D01*
X009174Y019631D01*
X009156Y019649D01*
X008091Y019649D01*
X007992Y019690D01*
X007917Y019765D01*
X007888Y019836D01*
X007694Y019836D01*
X007666Y019808D01*
X007567Y019767D01*
X006720Y019767D01*
X006050Y019097D01*
X006050Y018335D01*
X006050Y018335D01*
X006050Y018616D01*
X006095Y018661D01*
X006088Y018687D01*
X006050Y018578D02*
X006050Y018578D01*
X006050Y018419D02*
X006050Y018419D01*
X006050Y018895D02*
X006088Y018895D01*
X006089Y019053D02*
X006050Y019053D01*
X006164Y019212D02*
X007034Y019212D01*
X007034Y019370D02*
X006322Y019370D01*
X006481Y019529D02*
X007034Y019529D01*
X007121Y019687D02*
X006639Y019687D01*
X006596Y019053D02*
X006596Y019053D01*
X006596Y018895D02*
X006596Y018895D01*
X007785Y019370D02*
X010374Y019370D01*
X010374Y019519D02*
X010374Y019003D01*
X010502Y018876D01*
X011352Y018876D01*
X011479Y019003D01*
X011479Y019519D01*
X011352Y019646D01*
X010502Y019646D01*
X010374Y019519D01*
X010384Y019529D02*
X007785Y019529D01*
X007698Y019687D02*
X007999Y019687D01*
X008673Y019212D02*
X008820Y019212D01*
X009043Y019212D02*
X010374Y019212D01*
X010374Y019053D02*
X009230Y019053D01*
X009268Y018895D02*
X010483Y018895D01*
X011370Y018895D02*
X012601Y018895D01*
X012601Y019053D02*
X011479Y019053D01*
X011479Y019212D02*
X012601Y019212D01*
X012601Y019370D02*
X011479Y019370D01*
X011469Y019529D02*
X012601Y019529D01*
X012601Y019687D02*
X012556Y019687D01*
X013136Y019687D02*
X013225Y019687D01*
X013268Y019730D02*
X013173Y019635D01*
X013136Y019546D01*
X013136Y024025D01*
X013096Y024124D01*
X013020Y024199D01*
X011837Y025382D01*
X011837Y026814D01*
X011877Y026854D01*
X011981Y026854D01*
X011981Y026719D01*
X012059Y026528D01*
X012131Y026457D01*
X012063Y026390D01*
X011985Y026200D01*
X011985Y025394D01*
X012063Y025204D01*
X012209Y025058D01*
X012399Y024979D01*
X012605Y024979D01*
X012796Y025058D01*
X012941Y025204D01*
X013002Y025351D01*
X013063Y025204D01*
X013209Y025058D01*
X013399Y024979D01*
X013605Y024979D01*
X013796Y025058D01*
X013941Y025204D01*
X014002Y025351D01*
X014063Y025204D01*
X014209Y025058D01*
X014399Y024979D01*
X014605Y024979D01*
X014796Y025058D01*
X014941Y025204D01*
X015020Y025394D01*
X015020Y026200D01*
X014941Y026390D01*
X014844Y026488D01*
X014865Y026509D01*
X014909Y026570D01*
X014943Y026637D01*
X014967Y026709D01*
X014978Y026784D01*
X014978Y027102D01*
X014518Y027102D01*
X014518Y027142D01*
X014978Y027142D01*
X014978Y027459D01*
X014967Y027534D01*
X014943Y027606D01*
X014909Y027673D01*
X014896Y027691D01*
X015605Y027691D01*
X015598Y027685D01*
X015575Y027644D01*
X015563Y027598D01*
X015563Y026887D01*
X016017Y026887D01*
X016017Y026727D01*
X015563Y026727D01*
X015563Y026015D01*
X015575Y025969D01*
X015598Y025928D01*
X015632Y025895D01*
X015673Y025871D01*
X015719Y025859D01*
X016017Y025859D01*
X016017Y026727D01*
X016177Y026727D01*
X016177Y026887D01*
X016631Y026887D01*
X016631Y027598D01*
X016619Y027644D01*
X016595Y027685D01*
X016589Y027691D01*
X020605Y027691D01*
X020598Y027685D01*
X020575Y027644D01*
X020563Y027598D01*
X020563Y026887D01*
X021017Y026887D01*
X021017Y026727D01*
X020563Y026727D01*
X020563Y026015D01*
X020575Y025969D01*
X020598Y025928D01*
X020632Y025895D01*
X020673Y025871D01*
X020719Y025859D01*
X021017Y025859D01*
X021017Y026727D01*
X021177Y026727D01*
X021177Y025859D01*
X021468Y025859D01*
X021468Y025173D01*
X021514Y025063D01*
X021597Y024979D01*
X021707Y024934D01*
X024554Y024934D01*
X024334Y024714D01*
X024294Y024616D01*
X024294Y019155D01*
X024334Y019057D01*
X024410Y018981D01*
X025057Y018334D01*
X021547Y018334D01*
X021547Y018868D01*
X021419Y018996D01*
X021003Y018996D01*
X020961Y018954D01*
X020919Y018996D01*
X020503Y018996D01*
X020461Y018954D01*
X020419Y018996D01*
X020003Y018996D01*
X019961Y018954D01*
X019919Y018996D01*
X019503Y018996D01*
X019461Y018954D01*
X019419Y018996D01*
X019003Y018996D01*
X018961Y018954D01*
X018919Y018996D01*
X018762Y018996D01*
X018881Y019115D01*
X018881Y019659D01*
X018920Y019659D01*
X019044Y019710D01*
X019138Y019805D01*
X019190Y019929D01*
X019190Y020063D01*
X019138Y020186D01*
X019044Y020281D01*
X018920Y020333D01*
X018881Y020333D01*
X018881Y020398D01*
X018754Y020525D01*
X018727Y020525D01*
X018727Y021151D01*
X018686Y021250D01*
X018611Y021325D01*
X018611Y021325D01*
X018395Y021540D01*
X018471Y021509D01*
X018605Y021509D01*
X018696Y021547D01*
X018696Y021334D01*
X018755Y021274D01*
X018746Y021257D01*
X018733Y021211D01*
X018733Y020990D01*
X019092Y020990D01*
X019092Y020953D01*
X019129Y020953D01*
X019129Y020990D01*
X019487Y020990D01*
X019487Y021211D01*
X019475Y021257D01*
X019465Y021274D01*
X019468Y021277D01*
X019573Y021234D01*
X019665Y021234D01*
X019659Y021228D01*
X019659Y020614D01*
X019786Y020487D01*
X020360Y020487D01*
X020408Y020534D01*
X020455Y020487D01*
X021030Y020487D01*
X021157Y020614D01*
X021157Y021228D01*
X021097Y021287D01*
X021107Y021304D01*
X021119Y021350D01*
X021119Y021572D01*
X020761Y021572D01*
X020761Y021609D01*
X020724Y021609D01*
X020724Y021987D01*
X020522Y021987D01*
X020487Y021977D01*
X020487Y022492D01*
X020459Y022520D01*
X020487Y022548D01*
X020487Y023162D01*
X020482Y023167D01*
X020547Y023232D01*
X020547Y025184D01*
X020419Y025312D01*
X019727Y025312D01*
X019600Y025184D01*
X019600Y023232D01*
X019664Y023168D01*
X019658Y023162D01*
X019658Y022548D01*
X019686Y022520D01*
X019658Y022492D01*
X019658Y021907D01*
X019573Y021907D01*
X019525Y021887D01*
X019525Y021947D01*
X019503Y021969D01*
X019503Y022497D01*
X019475Y022525D01*
X019503Y022553D01*
X019503Y023166D01*
X019500Y023169D01*
X019563Y023232D01*
X019563Y025184D01*
X019435Y025312D01*
X018743Y025312D01*
X018615Y025184D01*
X018615Y023232D01*
X018677Y023170D01*
X018674Y023166D01*
X018674Y022553D01*
X018701Y022525D01*
X018674Y022497D01*
X018674Y022154D01*
X018605Y022183D01*
X018471Y022183D01*
X018442Y022171D01*
X018442Y022228D01*
X018390Y022352D01*
X018373Y022370D01*
X018373Y023105D01*
X018451Y023105D01*
X018578Y023232D01*
X018578Y025184D01*
X018451Y025312D01*
X017759Y025312D01*
X017631Y025184D01*
X017631Y023232D01*
X017759Y023105D01*
X017837Y023105D01*
X017837Y022370D01*
X017820Y022352D01*
X017654Y022518D01*
X017654Y022543D01*
X017603Y022667D01*
X017508Y022762D01*
X017384Y022813D01*
X017250Y022813D01*
X017127Y022762D01*
X017032Y022667D01*
X016993Y022574D01*
X016880Y022687D01*
X016861Y022687D01*
X016861Y022734D01*
X016823Y022824D01*
X016823Y023073D01*
X016696Y023200D01*
X016240Y023200D01*
X016212Y023173D01*
X016184Y023200D01*
X015728Y023200D01*
X015600Y023073D01*
X015600Y022804D01*
X015577Y022748D01*
X015577Y022687D01*
X015558Y022687D01*
X015430Y022559D01*
X015430Y022196D01*
X015398Y022273D01*
X015303Y022368D01*
X015180Y022419D01*
X015046Y022419D01*
X014973Y022389D01*
X014635Y022389D01*
X014507Y022261D01*
X014507Y021988D01*
X014411Y021892D01*
X014411Y022261D01*
X014284Y022389D01*
X013910Y022389D01*
X013910Y022443D01*
X013553Y022443D01*
X013196Y022443D01*
X013196Y022282D01*
X013208Y022236D01*
X013218Y022219D01*
X013158Y022160D01*
X013158Y021703D01*
X013286Y021576D01*
X013792Y021576D01*
X013834Y021534D01*
X013715Y021534D01*
X013715Y021177D01*
X013715Y021177D01*
X013715Y021534D01*
X013553Y021534D01*
X013508Y021522D01*
X013467Y021498D01*
X013433Y021464D01*
X013409Y021423D01*
X013397Y021378D01*
X013397Y021177D01*
X013715Y021177D01*
X013715Y021177D01*
X013397Y021177D01*
X013397Y020976D01*
X013409Y020930D01*
X013433Y020889D01*
X013467Y020856D01*
X013508Y020832D01*
X013553Y020820D01*
X013715Y020820D01*
X013876Y020820D01*
X013922Y020832D01*
X013939Y020842D01*
X013962Y020819D01*
X013944Y020788D01*
X013932Y020742D01*
X013932Y020584D01*
X013773Y020584D01*
X013727Y020571D01*
X013686Y020548D01*
X013653Y020514D01*
X013629Y020473D01*
X013617Y020427D01*
X013617Y020325D01*
X013680Y020325D01*
X013680Y020325D01*
X013617Y020325D01*
X013617Y020222D01*
X013618Y020217D01*
X013617Y020211D01*
X013617Y020108D01*
X013617Y020006D01*
X013618Y020000D01*
X013617Y019994D01*
X013617Y019892D01*
X013680Y019892D01*
X013680Y019892D01*
X013680Y019892D01*
X013617Y019892D01*
X013617Y019789D01*
X013618Y019783D01*
X013617Y019778D01*
X013617Y019744D01*
X013526Y019781D01*
X013392Y019781D01*
X013268Y019730D01*
X013136Y019846D02*
X013617Y019846D01*
X013617Y020004D02*
X013136Y020004D01*
X013136Y020163D02*
X013617Y020163D01*
X013617Y020108D02*
X013680Y020108D01*
X013617Y020108D01*
X013680Y020108D02*
X013680Y020108D01*
X013680Y020108D01*
X013617Y020321D02*
X013136Y020321D01*
X013136Y020480D02*
X013633Y020480D01*
X013932Y020638D02*
X013136Y020638D01*
X013136Y020797D02*
X013949Y020797D01*
X013715Y020820D02*
X013715Y021177D01*
X013715Y021177D01*
X013715Y020820D01*
X013715Y020955D02*
X013715Y020955D01*
X013715Y021114D02*
X013715Y021114D01*
X013715Y021272D02*
X013715Y021272D01*
X013715Y021431D02*
X013715Y021431D01*
X013414Y021431D02*
X013136Y021431D01*
X013136Y021589D02*
X013273Y021589D01*
X013158Y021748D02*
X013136Y021748D01*
X013136Y021906D02*
X013158Y021906D01*
X013158Y022065D02*
X013136Y022065D01*
X013136Y022223D02*
X013216Y022223D01*
X013196Y022382D02*
X013136Y022382D01*
X013196Y022443D02*
X013553Y022443D01*
X013553Y022443D01*
X013553Y022443D01*
X013553Y022761D01*
X013352Y022761D01*
X013307Y022749D01*
X013265Y022725D01*
X013232Y022692D01*
X013208Y022651D01*
X013196Y022605D01*
X013196Y022443D01*
X013196Y022540D02*
X013136Y022540D01*
X013136Y022699D02*
X013239Y022699D01*
X013136Y022857D02*
X013759Y022857D01*
X013759Y022869D02*
X013759Y022760D01*
X013754Y022761D01*
X013553Y022761D01*
X013553Y022443D01*
X013553Y022443D01*
X013910Y022443D01*
X013910Y022505D01*
X014284Y022505D01*
X014323Y022544D01*
X014327Y022542D01*
X014459Y022542D01*
X014459Y022959D01*
X014459Y022959D01*
X014459Y022542D01*
X014591Y022542D01*
X014596Y022544D01*
X014635Y022505D01*
X015032Y022505D01*
X015138Y022612D01*
X015258Y022612D01*
X015382Y022663D01*
X015477Y022758D01*
X015528Y022881D01*
X015528Y023015D01*
X015477Y023139D01*
X015382Y023234D01*
X015258Y023285D01*
X015159Y023285D01*
X015032Y023413D01*
X015022Y023413D01*
X015022Y023439D01*
X015013Y023462D01*
X015008Y023486D01*
X014992Y023511D01*
X014981Y023537D01*
X014964Y023555D01*
X014950Y023576D01*
X014926Y023592D01*
X014828Y023691D01*
X014752Y023766D01*
X014654Y023807D01*
X014114Y023807D01*
X014016Y023766D01*
X013859Y023609D01*
X013783Y023533D01*
X013742Y023435D01*
X013742Y022970D01*
X013740Y022924D01*
X013742Y022917D01*
X013742Y022909D01*
X013759Y022869D01*
X013742Y023016D02*
X013136Y023016D01*
X013136Y023174D02*
X013742Y023174D01*
X013742Y023333D02*
X013136Y023333D01*
X013136Y023491D02*
X013766Y023491D01*
X013900Y023650D02*
X013136Y023650D01*
X013136Y023808D02*
X016685Y023808D01*
X016685Y023650D02*
X014869Y023650D01*
X015005Y023491D02*
X016685Y023491D01*
X016685Y023333D02*
X015112Y023333D01*
X015442Y023174D02*
X015701Y023174D01*
X015600Y023016D02*
X015528Y023016D01*
X015518Y022857D02*
X015600Y022857D01*
X015577Y022699D02*
X015418Y022699D01*
X015430Y022540D02*
X015067Y022540D01*
X015270Y022382D02*
X015430Y022382D01*
X015419Y022223D02*
X015430Y022223D01*
X014627Y022382D02*
X014291Y022382D01*
X014319Y022540D02*
X014599Y022540D01*
X014459Y022699D02*
X014459Y022699D01*
X014459Y022857D02*
X014459Y022857D01*
X014411Y022223D02*
X014507Y022223D01*
X014507Y022065D02*
X014411Y022065D01*
X014411Y021906D02*
X014425Y021906D01*
X013553Y022540D02*
X013553Y022540D01*
X013553Y022699D02*
X013553Y022699D01*
X012601Y022699D02*
X011449Y022699D01*
X011479Y022668D02*
X011352Y022796D01*
X010502Y022796D01*
X010374Y022668D01*
X010374Y022153D01*
X010502Y022026D01*
X011352Y022026D01*
X011479Y022153D01*
X011479Y022668D01*
X011479Y022540D02*
X012601Y022540D01*
X012601Y022382D02*
X011479Y022382D01*
X011479Y022223D02*
X012601Y022223D01*
X012601Y022065D02*
X011391Y022065D01*
X011555Y021881D02*
X011555Y021366D01*
X011683Y021238D01*
X012533Y021238D01*
X012601Y021306D01*
X012601Y020366D01*
X012533Y020434D01*
X011683Y020434D01*
X011592Y020342D01*
X010499Y020342D01*
X009160Y021681D01*
X009160Y022136D01*
X009119Y022234D01*
X009044Y022309D01*
X008650Y022703D01*
X008552Y022744D01*
X007861Y022744D01*
X006524Y024081D01*
X006426Y024122D01*
X004594Y024122D01*
X004261Y024454D01*
X004261Y024935D01*
X004233Y024963D01*
X004261Y024991D01*
X004261Y025255D01*
X004283Y025270D01*
X004297Y025292D01*
X004316Y025310D01*
X004327Y025336D01*
X004342Y025359D01*
X004347Y025384D01*
X004357Y025409D01*
X004357Y025436D01*
X004362Y025463D01*
X004357Y025489D01*
X004357Y026427D01*
X004316Y026525D01*
X004314Y026527D01*
X004314Y026615D01*
X004315Y026615D01*
X004361Y026627D01*
X004402Y026651D01*
X004530Y026779D01*
X004579Y026828D01*
X004579Y024385D01*
X004624Y024276D01*
X004708Y024192D01*
X004817Y024147D01*
X007298Y024147D01*
X007407Y024192D01*
X007486Y024270D01*
X007493Y024252D01*
X007577Y024168D01*
X007686Y024123D01*
X007805Y024123D01*
X010167Y024123D01*
X010277Y024168D01*
X010360Y024252D01*
X010406Y024362D01*
X010406Y027630D01*
X010380Y027691D01*
X012050Y027691D01*
X011981Y027525D01*
X011981Y027389D01*
X011713Y027389D01*
X011614Y027349D01*
X011418Y027152D01*
X011342Y027076D01*
X011301Y026978D01*
X010406Y026978D01*
X010406Y026820D02*
X011301Y026820D01*
X011301Y026978D02*
X011301Y025218D01*
X011342Y025120D01*
X012601Y023861D01*
X012601Y023515D01*
X012533Y023583D01*
X011683Y023583D01*
X011555Y023456D01*
X011555Y022940D01*
X011683Y022813D01*
X012533Y022813D01*
X012601Y022881D01*
X012601Y021940D01*
X012533Y022008D01*
X011683Y022008D01*
X011555Y021881D01*
X011581Y021906D02*
X009160Y021906D01*
X009160Y021748D02*
X011555Y021748D01*
X011555Y021589D02*
X009252Y021589D01*
X009411Y021431D02*
X011555Y021431D01*
X011649Y021272D02*
X009569Y021272D01*
X009728Y021114D02*
X010395Y021114D01*
X010374Y021093D02*
X010374Y020578D01*
X010502Y020451D01*
X011352Y020451D01*
X011479Y020578D01*
X011479Y021093D01*
X011352Y021221D01*
X010502Y021221D01*
X010374Y021093D01*
X010374Y020955D02*
X009886Y020955D01*
X010045Y020797D02*
X010374Y020797D01*
X010374Y020638D02*
X010203Y020638D01*
X010362Y020480D02*
X010473Y020480D01*
X010080Y020004D02*
X009693Y020004D01*
X009700Y019846D02*
X010241Y019846D01*
X009921Y020163D02*
X009595Y020163D01*
X009763Y020321D02*
X008912Y020321D01*
X008915Y020480D02*
X009604Y020480D01*
X009446Y020638D02*
X008922Y020638D01*
X008922Y020797D02*
X009287Y020797D01*
X009129Y020955D02*
X008922Y020955D01*
X008922Y021114D02*
X008970Y021114D01*
X009160Y022065D02*
X010463Y022065D01*
X010374Y022223D02*
X009124Y022223D01*
X008972Y022382D02*
X010374Y022382D01*
X010374Y022540D02*
X008813Y022540D01*
X008655Y022699D02*
X010405Y022699D01*
X010502Y023600D02*
X011352Y023600D01*
X011479Y023728D01*
X011479Y024243D01*
X011352Y024371D01*
X010502Y024371D01*
X010374Y024243D01*
X010374Y023728D01*
X010502Y023600D01*
X010453Y023650D02*
X006956Y023650D01*
X006797Y023808D02*
X010374Y023808D01*
X010374Y023967D02*
X006639Y023967D01*
X007114Y023491D02*
X011591Y023491D01*
X011555Y023333D02*
X007273Y023333D01*
X007431Y023174D02*
X011555Y023174D01*
X011555Y023016D02*
X007590Y023016D01*
X007748Y022857D02*
X011639Y022857D01*
X011401Y023650D02*
X012601Y023650D01*
X012601Y023808D02*
X011479Y023808D01*
X011479Y023967D02*
X012495Y023967D01*
X012337Y024125D02*
X011479Y024125D01*
X011439Y024284D02*
X012178Y024284D01*
X012020Y024442D02*
X010406Y024442D01*
X010406Y024601D02*
X011861Y024601D01*
X011703Y024759D02*
X010406Y024759D01*
X010406Y024918D02*
X011544Y024918D01*
X011386Y025076D02*
X010406Y025076D01*
X010406Y025235D02*
X011301Y025235D01*
X011301Y025393D02*
X010406Y025393D01*
X010406Y025552D02*
X011301Y025552D01*
X011301Y025710D02*
X010406Y025710D01*
X010406Y025869D02*
X011301Y025869D01*
X011301Y026027D02*
X010406Y026027D01*
X010406Y026186D02*
X011301Y026186D01*
X011301Y026344D02*
X010406Y026344D01*
X010406Y026503D02*
X011301Y026503D01*
X011301Y026661D02*
X010406Y026661D01*
X010406Y027137D02*
X011402Y027137D01*
X011561Y027295D02*
X010406Y027295D01*
X010406Y027454D02*
X011981Y027454D01*
X012017Y027612D02*
X010406Y027612D01*
X011843Y026820D02*
X011981Y026820D01*
X012004Y026661D02*
X011837Y026661D01*
X011837Y026503D02*
X012085Y026503D01*
X012044Y026344D02*
X011837Y026344D01*
X011837Y026186D02*
X011985Y026186D01*
X011985Y026027D02*
X011837Y026027D01*
X011837Y025869D02*
X011985Y025869D01*
X011985Y025710D02*
X011837Y025710D01*
X011837Y025552D02*
X011985Y025552D01*
X011985Y025393D02*
X011837Y025393D01*
X011985Y025235D02*
X012051Y025235D01*
X012143Y025076D02*
X012191Y025076D01*
X012302Y024918D02*
X016685Y024918D01*
X016685Y025076D02*
X014814Y025076D01*
X014954Y025235D02*
X016750Y025235D01*
X016754Y025238D02*
X016721Y025205D01*
X016697Y025164D01*
X016685Y025118D01*
X016685Y024256D01*
X017073Y024256D01*
X017073Y025274D01*
X016841Y025274D01*
X016795Y025262D01*
X016754Y025238D01*
X017073Y025235D02*
X017168Y025235D01*
X017168Y025274D02*
X017168Y024256D01*
X017073Y024256D01*
X017073Y024160D01*
X017168Y024160D01*
X017168Y023142D01*
X017400Y023142D01*
X017446Y023155D01*
X017487Y023178D01*
X017520Y023212D01*
X017544Y023253D01*
X017556Y023299D01*
X017556Y024160D01*
X017168Y024160D01*
X017168Y024256D01*
X017556Y024256D01*
X017556Y025118D01*
X017544Y025164D01*
X017520Y025205D01*
X017487Y025238D01*
X017446Y025262D01*
X017400Y025274D01*
X017168Y025274D01*
X017168Y025076D02*
X017073Y025076D01*
X017073Y024918D02*
X017168Y024918D01*
X017168Y024759D02*
X017073Y024759D01*
X017073Y024601D02*
X017168Y024601D01*
X017168Y024442D02*
X017073Y024442D01*
X017073Y024284D02*
X017168Y024284D01*
X017073Y024160D02*
X016685Y024160D01*
X016685Y023299D01*
X016697Y023253D01*
X016721Y023212D01*
X016754Y023178D01*
X016795Y023155D01*
X016841Y023142D01*
X017073Y023142D01*
X017073Y024160D01*
X017073Y024125D02*
X017168Y024125D01*
X017168Y023967D02*
X017073Y023967D01*
X017073Y023808D02*
X017168Y023808D01*
X017168Y023650D02*
X017073Y023650D01*
X017073Y023491D02*
X017168Y023491D01*
X017168Y023333D02*
X017073Y023333D01*
X017073Y023174D02*
X017168Y023174D01*
X017479Y023174D02*
X017689Y023174D01*
X017631Y023333D02*
X017556Y023333D01*
X017556Y023491D02*
X017631Y023491D01*
X017631Y023650D02*
X017556Y023650D01*
X017556Y023808D02*
X017631Y023808D01*
X017631Y023967D02*
X017556Y023967D01*
X017556Y024125D02*
X017631Y024125D01*
X017631Y024284D02*
X017556Y024284D01*
X017556Y024442D02*
X017631Y024442D01*
X017631Y024601D02*
X017556Y024601D01*
X017556Y024759D02*
X017631Y024759D01*
X017631Y024918D02*
X017556Y024918D01*
X017556Y025076D02*
X017631Y025076D01*
X017681Y025235D02*
X017490Y025235D01*
X016685Y024759D02*
X012460Y024759D01*
X012619Y024601D02*
X016685Y024601D01*
X016685Y024442D02*
X012777Y024442D01*
X012936Y024284D02*
X016685Y024284D01*
X016685Y024125D02*
X013094Y024125D01*
X013136Y023967D02*
X016685Y023967D01*
X016722Y023174D02*
X016762Y023174D01*
X016823Y023016D02*
X017837Y023016D01*
X017837Y022857D02*
X016823Y022857D01*
X016861Y022699D02*
X017063Y022699D01*
X017571Y022699D02*
X017837Y022699D01*
X017837Y022540D02*
X017654Y022540D01*
X017790Y022382D02*
X017837Y022382D01*
X018373Y022382D02*
X018674Y022382D01*
X018686Y022540D02*
X018373Y022540D01*
X018373Y022699D02*
X018674Y022699D01*
X018674Y022857D02*
X018373Y022857D01*
X018373Y023016D02*
X018674Y023016D01*
X018673Y023174D02*
X018520Y023174D01*
X018578Y023333D02*
X018615Y023333D01*
X018615Y023491D02*
X018578Y023491D01*
X018578Y023650D02*
X018615Y023650D01*
X018615Y023808D02*
X018578Y023808D01*
X018578Y023967D02*
X018615Y023967D01*
X018615Y024125D02*
X018578Y024125D01*
X018578Y024284D02*
X018615Y024284D01*
X018615Y024442D02*
X018578Y024442D01*
X018578Y024601D02*
X018615Y024601D01*
X018615Y024759D02*
X018578Y024759D01*
X018578Y024918D02*
X018615Y024918D01*
X018615Y025076D02*
X018578Y025076D01*
X018528Y025235D02*
X018666Y025235D01*
X019512Y025235D02*
X019650Y025235D01*
X019600Y025076D02*
X019563Y025076D01*
X019563Y024918D02*
X019600Y024918D01*
X019600Y024759D02*
X019563Y024759D01*
X019563Y024601D02*
X019600Y024601D01*
X019600Y024442D02*
X019563Y024442D01*
X019563Y024284D02*
X019600Y024284D01*
X019600Y024125D02*
X019563Y024125D01*
X019563Y023967D02*
X019600Y023967D01*
X019600Y023808D02*
X019563Y023808D01*
X019563Y023650D02*
X019600Y023650D01*
X019600Y023491D02*
X019563Y023491D01*
X019563Y023333D02*
X019600Y023333D01*
X019658Y023174D02*
X019504Y023174D01*
X019503Y023016D02*
X019658Y023016D01*
X019658Y022857D02*
X019503Y022857D01*
X019503Y022699D02*
X019658Y022699D01*
X019666Y022540D02*
X019490Y022540D01*
X019503Y022382D02*
X019658Y022382D01*
X019658Y022223D02*
X019503Y022223D01*
X019503Y022065D02*
X019658Y022065D01*
X019570Y021906D02*
X019525Y021906D01*
X019480Y021272D02*
X019466Y021272D01*
X019487Y021114D02*
X019659Y021114D01*
X019659Y020955D02*
X019129Y020955D01*
X019129Y020953D02*
X019487Y020953D01*
X019487Y020731D01*
X019475Y020685D01*
X019451Y020644D01*
X019418Y020611D01*
X019377Y020587D01*
X019331Y020575D01*
X019129Y020575D01*
X019129Y020953D01*
X019092Y020953D02*
X019092Y020575D01*
X018890Y020575D01*
X018844Y020587D01*
X018803Y020611D01*
X018769Y020644D01*
X018746Y020685D01*
X018733Y020731D01*
X018733Y020953D01*
X019092Y020953D01*
X019092Y020955D02*
X018727Y020955D01*
X018727Y020797D02*
X018733Y020797D01*
X018727Y020638D02*
X018776Y020638D01*
X018799Y020480D02*
X024294Y020480D01*
X024294Y020638D02*
X021157Y020638D01*
X021157Y020797D02*
X024294Y020797D01*
X024294Y020955D02*
X021157Y020955D01*
X021157Y021114D02*
X024294Y021114D01*
X024294Y021272D02*
X021113Y021272D01*
X021119Y021431D02*
X024294Y021431D01*
X024294Y021589D02*
X020761Y021589D01*
X020761Y021609D02*
X021119Y021609D01*
X021119Y021830D01*
X021107Y021876D01*
X021083Y021917D01*
X021050Y021951D01*
X021009Y021974D01*
X020963Y021987D01*
X020761Y021987D01*
X020761Y021609D01*
X020761Y021748D02*
X020724Y021748D01*
X020724Y021906D02*
X020761Y021906D01*
X020487Y022065D02*
X023014Y022065D01*
X022900Y022112D02*
X023212Y021983D01*
X023549Y021983D01*
X023861Y022112D01*
X024099Y022350D01*
X024228Y022662D01*
X024228Y022999D01*
X024099Y023311D01*
X023861Y023549D01*
X023549Y023678D01*
X023212Y023678D01*
X022900Y023549D01*
X022662Y023311D01*
X022533Y022999D01*
X022533Y022662D01*
X022662Y022350D01*
X022900Y022112D01*
X022789Y022223D02*
X020487Y022223D01*
X020487Y022382D02*
X022649Y022382D01*
X022583Y022540D02*
X020479Y022540D01*
X020487Y022699D02*
X022533Y022699D01*
X022533Y022857D02*
X020487Y022857D01*
X020487Y023016D02*
X022539Y023016D01*
X022605Y023174D02*
X020489Y023174D01*
X020547Y023333D02*
X022684Y023333D01*
X022842Y023491D02*
X020547Y023491D01*
X020547Y023650D02*
X023143Y023650D01*
X023618Y023650D02*
X024294Y023650D01*
X024294Y023808D02*
X020547Y023808D01*
X020547Y023967D02*
X024294Y023967D01*
X024294Y024125D02*
X020547Y024125D01*
X020547Y024284D02*
X024294Y024284D01*
X024294Y024442D02*
X020547Y024442D01*
X020547Y024601D02*
X024294Y024601D01*
X024379Y024759D02*
X020547Y024759D01*
X020547Y024918D02*
X024538Y024918D01*
X024896Y024518D02*
X024944Y024403D01*
X025089Y024257D01*
X025237Y024196D01*
X025089Y024135D01*
X024944Y023990D01*
X024865Y023799D01*
X024865Y023593D01*
X024944Y023403D01*
X025089Y023257D01*
X025237Y023196D01*
X025089Y023135D01*
X024944Y022990D01*
X024865Y022799D01*
X024865Y022593D01*
X024944Y022403D01*
X025089Y022257D01*
X025280Y022179D01*
X026086Y022179D01*
X026276Y022257D01*
X026369Y022351D01*
X026390Y022330D01*
X026451Y022286D01*
X026518Y022252D01*
X026590Y022228D01*
X026665Y022216D01*
X026982Y022216D01*
X026982Y022676D01*
X027022Y022676D01*
X027022Y022216D01*
X027340Y022216D01*
X027415Y022228D01*
X027487Y022252D01*
X027554Y022286D01*
X027615Y022330D01*
X027668Y022384D01*
X027713Y022445D01*
X027747Y022512D01*
X027771Y022584D01*
X027782Y022659D01*
X027782Y022676D01*
X027022Y022676D01*
X027022Y022716D01*
X027782Y022716D01*
X027782Y022734D01*
X027771Y022809D01*
X027747Y022881D01*
X027713Y022948D01*
X027668Y023009D01*
X027615Y023063D01*
X027554Y023107D01*
X027487Y023141D01*
X027415Y023165D01*
X027340Y023176D01*
X027022Y023176D01*
X027022Y022716D01*
X026982Y022716D01*
X026982Y023176D01*
X026665Y023176D01*
X026590Y023165D01*
X026518Y023141D01*
X026451Y023107D01*
X026390Y023063D01*
X026369Y023042D01*
X026276Y023135D01*
X026128Y023196D01*
X026134Y023199D01*
X026551Y023199D01*
X026599Y023179D01*
X027405Y023179D01*
X027596Y023257D01*
X027741Y023403D01*
X027820Y023593D01*
X027820Y023799D01*
X027741Y023990D01*
X027596Y024135D01*
X027448Y024196D01*
X027596Y024257D01*
X027741Y024403D01*
X027820Y024593D01*
X027820Y024618D01*
X028241Y024197D01*
X028241Y022005D01*
X028180Y022030D01*
X024912Y022030D01*
X024829Y021996D01*
X024829Y024452D01*
X024896Y024518D01*
X024927Y024442D02*
X024829Y024442D01*
X024829Y024284D02*
X025063Y024284D01*
X025079Y024125D02*
X024829Y024125D01*
X024829Y023967D02*
X024934Y023967D01*
X024868Y023808D02*
X024829Y023808D01*
X024829Y023650D02*
X024865Y023650D01*
X024829Y023491D02*
X024907Y023491D01*
X024829Y023333D02*
X025014Y023333D01*
X025182Y023174D02*
X024829Y023174D01*
X024829Y023016D02*
X024969Y023016D01*
X024889Y022857D02*
X024829Y022857D01*
X024829Y022699D02*
X024865Y022699D01*
X024887Y022540D02*
X024829Y022540D01*
X024829Y022382D02*
X024965Y022382D01*
X024829Y022223D02*
X025172Y022223D01*
X024829Y022065D02*
X028241Y022065D01*
X028241Y022223D02*
X027382Y022223D01*
X027666Y022382D02*
X028241Y022382D01*
X028241Y022540D02*
X027756Y022540D01*
X027755Y022857D02*
X028241Y022857D01*
X028241Y022699D02*
X027022Y022699D01*
X027022Y022857D02*
X026982Y022857D01*
X026982Y023016D02*
X027022Y023016D01*
X027022Y023174D02*
X026982Y023174D01*
X026649Y023174D02*
X026183Y023174D01*
X026193Y022223D02*
X026623Y022223D01*
X026982Y022223D02*
X027022Y022223D01*
X027022Y022382D02*
X026982Y022382D01*
X026982Y022540D02*
X027022Y022540D01*
X027355Y023174D02*
X028241Y023174D01*
X028241Y023016D02*
X027662Y023016D01*
X027671Y023333D02*
X028241Y023333D01*
X028241Y023491D02*
X027778Y023491D01*
X027820Y023650D02*
X028241Y023650D01*
X028241Y023808D02*
X027817Y023808D01*
X027751Y023967D02*
X028241Y023967D01*
X028241Y024125D02*
X027606Y024125D01*
X027622Y024284D02*
X028155Y024284D01*
X027996Y024442D02*
X027757Y024442D01*
X027820Y024601D02*
X027838Y024601D01*
X025399Y021733D02*
X025382Y021705D01*
X025370Y021659D01*
X025370Y020632D01*
X026750Y020632D01*
X026750Y020472D01*
X025370Y020472D01*
X025370Y019446D01*
X025382Y019400D01*
X025400Y019370D01*
X024971Y019370D01*
X024971Y021733D01*
X025399Y021733D01*
X025370Y021589D02*
X024971Y021589D01*
X024971Y021431D02*
X025370Y021431D01*
X025370Y021272D02*
X024971Y021272D01*
X024971Y021114D02*
X025370Y021114D01*
X025370Y020955D02*
X024971Y020955D01*
X024971Y020797D02*
X025370Y020797D01*
X025370Y020638D02*
X024971Y020638D01*
X024971Y020480D02*
X026750Y020480D01*
X025370Y020321D02*
X024971Y020321D01*
X024971Y020163D02*
X025370Y020163D01*
X025370Y020004D02*
X024971Y020004D01*
X024971Y019846D02*
X025370Y019846D01*
X025370Y019687D02*
X024971Y019687D01*
X024971Y019529D02*
X025370Y019529D01*
X025076Y019073D02*
X027334Y019073D01*
X027333Y019070D01*
X027333Y018828D01*
X027830Y018828D01*
X027830Y018713D01*
X027830Y018327D01*
X028241Y017915D01*
X028241Y018315D01*
X027945Y018315D01*
X027945Y018713D01*
X027830Y018713D01*
X027333Y018713D01*
X027333Y018531D01*
X025617Y018531D01*
X025076Y019073D01*
X025095Y019053D02*
X027333Y019053D01*
X027333Y018895D02*
X025254Y018895D01*
X025412Y018736D02*
X027830Y018736D01*
X027830Y018578D02*
X027945Y018578D01*
X027945Y018419D02*
X027830Y018419D01*
X027896Y018261D02*
X028241Y018261D01*
X028241Y018102D02*
X028054Y018102D01*
X028213Y017944D02*
X028241Y017944D01*
X027861Y017538D02*
X027876Y017523D01*
X027876Y014049D01*
X027551Y014049D01*
X027551Y013651D01*
X027436Y013651D01*
X027436Y013536D01*
X026940Y013536D01*
X026940Y013311D01*
X026878Y013372D01*
X026780Y013413D01*
X025499Y013413D01*
X025184Y013729D01*
X025184Y014030D01*
X025282Y013990D01*
X025416Y013990D01*
X025540Y014041D01*
X025568Y014070D01*
X025859Y014070D01*
X025859Y013657D01*
X025986Y013529D01*
X026757Y013529D01*
X026885Y013657D01*
X026885Y014497D01*
X026890Y014502D01*
X026913Y014544D01*
X026926Y014589D01*
X026926Y014770D01*
X026450Y014770D01*
X025975Y014770D01*
X025975Y014702D01*
X025879Y014605D01*
X025546Y014605D01*
X025540Y014612D01*
X025416Y014663D01*
X025282Y014663D01*
X025184Y014623D01*
X025184Y015412D01*
X025186Y015410D01*
X025544Y015052D01*
X025619Y014977D01*
X025718Y014936D01*
X025879Y014936D01*
X025975Y014839D01*
X025975Y014770D01*
X026450Y014770D01*
X026450Y014770D01*
X026450Y014770D01*
X026926Y014770D01*
X026926Y014952D01*
X026913Y014997D01*
X026890Y015038D01*
X026885Y015043D01*
X026885Y015310D01*
X026943Y015369D01*
X027106Y015369D01*
X027204Y015410D01*
X027280Y015485D01*
X027820Y016025D01*
X027861Y016124D01*
X027861Y017538D01*
X027861Y017468D02*
X027876Y017468D01*
X027861Y017310D02*
X027876Y017310D01*
X027861Y017151D02*
X027876Y017151D01*
X027861Y016993D02*
X027876Y016993D01*
X027861Y016834D02*
X027876Y016834D01*
X027861Y016676D02*
X027876Y016676D01*
X027861Y016517D02*
X027876Y016517D01*
X027861Y016359D02*
X027876Y016359D01*
X027861Y016200D02*
X027876Y016200D01*
X027876Y016042D02*
X027827Y016042D01*
X027876Y015883D02*
X027678Y015883D01*
X027519Y015725D02*
X027876Y015725D01*
X027876Y015566D02*
X027361Y015566D01*
X027199Y015408D02*
X027876Y015408D01*
X027876Y015249D02*
X026885Y015249D01*
X026885Y015091D02*
X027876Y015091D01*
X027876Y014932D02*
X026926Y014932D01*
X026926Y014774D02*
X027876Y014774D01*
X027876Y014615D02*
X026926Y014615D01*
X026885Y014457D02*
X027876Y014457D01*
X027876Y014298D02*
X026885Y014298D01*
X026885Y014140D02*
X027876Y014140D01*
X027551Y013981D02*
X027436Y013981D01*
X027436Y014049D02*
X027096Y014049D01*
X027050Y014037D01*
X027009Y014013D01*
X026976Y013979D01*
X026952Y013938D01*
X026940Y013893D01*
X026940Y013651D01*
X027436Y013651D01*
X027436Y014049D01*
X027436Y013823D02*
X027551Y013823D01*
X027551Y013664D02*
X027436Y013664D01*
X027436Y013536D02*
X027551Y013536D01*
X027551Y013138D01*
X027876Y013138D01*
X027876Y013136D01*
X027876Y013092D01*
X027880Y013083D01*
X027881Y013073D01*
X027900Y013034D01*
X027917Y012994D01*
X027924Y012987D01*
X027955Y012924D01*
X027957Y012676D01*
X027375Y013112D01*
X027351Y013136D01*
X027347Y013138D01*
X027436Y013138D01*
X027436Y013536D01*
X027436Y013506D02*
X027551Y013506D01*
X027551Y013347D02*
X027436Y013347D01*
X027436Y013189D02*
X027551Y013189D01*
X027484Y013030D02*
X027902Y013030D01*
X027956Y012872D02*
X027696Y012872D01*
X027907Y012713D02*
X027957Y012713D01*
X027712Y012190D02*
X027719Y012185D01*
X027719Y011433D01*
X027467Y011685D01*
X027712Y011930D01*
X027712Y012138D01*
X027182Y012138D01*
X027182Y012178D01*
X027712Y012178D01*
X027712Y012190D01*
X027712Y012079D02*
X027719Y012079D01*
X027703Y011921D02*
X027719Y011921D01*
X027719Y011762D02*
X027544Y011762D01*
X027548Y011604D02*
X027719Y011604D01*
X027706Y011445D02*
X027719Y011445D01*
X027142Y012138D02*
X026612Y012138D01*
X026182Y012138D01*
X026182Y012178D01*
X026142Y012178D01*
X026142Y012138D01*
X025612Y012138D01*
X025182Y012138D01*
X025182Y012178D01*
X025142Y012178D01*
X025142Y012138D01*
X024612Y012138D01*
X024182Y012138D01*
X024182Y012178D01*
X024142Y012178D01*
X024142Y012708D01*
X023934Y012708D01*
X023689Y012462D01*
X023430Y012721D01*
X023430Y012934D01*
X023619Y013123D01*
X023644Y013123D01*
X023768Y013175D01*
X023863Y013269D01*
X023914Y013393D01*
X023914Y013527D01*
X023863Y013651D01*
X023768Y013746D01*
X023644Y013797D01*
X023510Y013797D01*
X023386Y013746D01*
X023292Y013651D01*
X023240Y013527D01*
X023240Y013502D01*
X023011Y013272D01*
X022935Y013197D01*
X022894Y013099D01*
X022894Y012721D01*
X022633Y012459D01*
X022526Y012459D01*
X022402Y012408D01*
X022059Y012066D01*
X021699Y012066D01*
X021575Y012014D01*
X021556Y011996D01*
X021016Y011996D01*
X020921Y012098D01*
X020921Y012724D01*
X020793Y012851D01*
X019904Y012851D01*
X019777Y012724D01*
X019777Y012561D01*
X019634Y012703D01*
X019536Y012744D01*
X018693Y012744D01*
X017001Y014435D01*
X016903Y014476D01*
X016073Y014476D01*
X016073Y014477D01*
X016100Y014505D01*
X016100Y015118D01*
X015973Y015246D01*
X015568Y015246D01*
X015487Y015310D01*
X015461Y015336D01*
X015446Y015343D01*
X015433Y015353D01*
X015397Y015363D01*
X015389Y015366D01*
X015418Y015395D01*
X015505Y015482D01*
X015609Y015482D01*
X015737Y015610D01*
X015737Y016341D01*
X015638Y016440D01*
X015638Y016726D01*
X016280Y016085D01*
X016389Y016039D01*
X017375Y016039D01*
X017375Y016011D01*
X017503Y015883D01*
X017919Y015883D01*
X017961Y015925D01*
X018003Y015883D01*
X018419Y015883D01*
X018456Y015920D01*
X018484Y015852D01*
X018571Y015765D01*
X018409Y015765D01*
X018097Y015636D01*
X017859Y015397D01*
X017729Y015086D01*
X017729Y014748D01*
X017859Y014437D01*
X018097Y014198D01*
X018409Y014069D01*
X018746Y014069D01*
X019057Y014198D01*
X019296Y014437D01*
X019425Y014748D01*
X019425Y015086D01*
X019296Y015397D01*
X019207Y015486D01*
X019274Y015486D01*
X019398Y015537D01*
X019493Y015632D01*
X019544Y015755D01*
X019544Y015883D01*
X019634Y015883D01*
X020445Y015072D01*
X020445Y015047D01*
X020496Y014923D01*
X020591Y014828D01*
X020715Y014777D01*
X020849Y014777D01*
X020973Y014828D01*
X021067Y014923D01*
X021119Y015047D01*
X021119Y015181D01*
X021067Y015305D01*
X020973Y015399D01*
X020903Y015428D01*
X020920Y015444D01*
X023025Y015444D01*
X023751Y014719D01*
X023751Y014692D01*
X023792Y014594D01*
X023649Y014594D01*
X022863Y015380D01*
X022764Y015421D01*
X021949Y015421D01*
X021851Y015380D01*
X021775Y015305D01*
X021382Y014911D01*
X021341Y014813D01*
X021341Y014122D01*
X021253Y014034D01*
X021227Y014034D01*
X021102Y013983D01*
X021007Y013888D01*
X020956Y013764D01*
X020956Y013629D01*
X021007Y013505D01*
X021080Y013432D01*
X021076Y013424D01*
X021063Y013378D01*
X021063Y012979D01*
X021481Y012979D01*
X021481Y012824D01*
X021636Y012824D01*
X021636Y012269D01*
X021897Y012269D01*
X021943Y012281D01*
X021984Y012305D01*
X022017Y012339D01*
X022041Y012380D01*
X022053Y012426D01*
X022053Y012824D01*
X021636Y012824D01*
X021636Y012979D01*
X022053Y012979D01*
X022053Y013378D01*
X022041Y013424D01*
X022017Y013465D01*
X021984Y013499D01*
X021943Y013522D01*
X021897Y013535D01*
X021636Y013535D01*
X021636Y012979D01*
X021481Y012979D01*
X021481Y013408D01*
X021485Y013410D01*
X021580Y013505D01*
X021631Y013629D01*
X021631Y013656D01*
X021760Y013784D01*
X021836Y013860D01*
X021861Y013921D01*
X021861Y013845D01*
X021873Y013799D01*
X021897Y013758D01*
X021930Y013725D01*
X021971Y013701D01*
X022017Y013689D01*
X022259Y013689D01*
X022259Y014165D01*
X022374Y014165D01*
X022374Y013689D01*
X022616Y013689D01*
X022662Y013701D01*
X022703Y013725D01*
X022736Y013758D01*
X022760Y013799D01*
X022772Y013845D01*
X022772Y014165D01*
X022374Y014165D01*
X022374Y014281D01*
X022259Y014281D01*
X022259Y014758D01*
X022017Y014758D01*
X021974Y014746D01*
X022113Y014885D01*
X022600Y014885D01*
X023386Y014099D01*
X023485Y014059D01*
X024076Y014059D01*
X024094Y014040D01*
X024219Y013989D01*
X024353Y013989D01*
X024477Y014040D01*
X024572Y014135D01*
X024624Y014259D01*
X024624Y014394D01*
X024572Y014518D01*
X024477Y014613D01*
X024406Y014642D01*
X024427Y014692D01*
X024427Y014827D01*
X024375Y014951D01*
X024280Y015046D01*
X024156Y015097D01*
X024130Y015097D01*
X023288Y015939D01*
X023190Y015980D01*
X022714Y015980D01*
X022736Y016002D01*
X022760Y016044D01*
X022772Y016089D01*
X022772Y016410D01*
X022374Y016410D01*
X022374Y016525D01*
X022259Y016525D01*
X022259Y017002D01*
X022017Y017002D01*
X021971Y016989D01*
X021930Y016966D01*
X021897Y016932D01*
X021873Y016891D01*
X021861Y016845D01*
X021861Y016525D01*
X022259Y016525D01*
X022259Y016410D01*
X021861Y016410D01*
X021861Y016089D01*
X021873Y016044D01*
X021897Y016002D01*
X021919Y015980D01*
X021463Y015980D01*
X021473Y015991D01*
X021497Y016032D01*
X021509Y016077D01*
X021509Y016337D01*
X021211Y016337D01*
X021211Y016337D01*
X021509Y016337D01*
X021509Y016597D01*
X021497Y016643D01*
X021473Y016684D01*
X021440Y016718D01*
X021399Y016741D01*
X021353Y016753D01*
X021211Y016753D01*
X021211Y016337D01*
X021211Y016337D01*
X021211Y016753D01*
X021069Y016753D01*
X021023Y016741D01*
X020989Y016721D01*
X020919Y016791D01*
X020503Y016791D01*
X020479Y016767D01*
X020479Y016946D01*
X020758Y017206D01*
X022847Y017206D01*
X022847Y017094D01*
X022898Y016970D01*
X022993Y016875D01*
X023116Y016824D01*
X023142Y016824D01*
X024648Y015318D01*
X024648Y013564D01*
X024689Y013466D01*
X025236Y012918D01*
X025335Y012877D01*
X026616Y012877D01*
X026736Y012757D01*
X026811Y012682D01*
X026880Y012654D01*
X026662Y012436D01*
X026390Y012708D01*
X026182Y012708D01*
X026182Y012178D01*
X027142Y012178D01*
X027142Y012138D01*
X026781Y012555D02*
X026543Y012555D01*
X026780Y012713D02*
X023438Y012713D01*
X023430Y012872D02*
X026622Y012872D01*
X026904Y013347D02*
X026940Y013347D01*
X026940Y013506D02*
X025407Y013506D01*
X025248Y013664D02*
X025859Y013664D01*
X025859Y013823D02*
X025184Y013823D01*
X025184Y013981D02*
X025859Y013981D01*
X025889Y014615D02*
X025532Y014615D01*
X025184Y014774D02*
X025975Y014774D01*
X025882Y014932D02*
X025184Y014932D01*
X025184Y015091D02*
X025505Y015091D01*
X025544Y015052D02*
X025544Y015052D01*
X025347Y015249D02*
X025184Y015249D01*
X025184Y015408D02*
X025188Y015408D01*
X025186Y015410D02*
X025186Y015410D01*
X024648Y015249D02*
X023978Y015249D01*
X023820Y015408D02*
X024558Y015408D01*
X024400Y015566D02*
X023661Y015566D01*
X023503Y015725D02*
X024241Y015725D01*
X024083Y015883D02*
X023344Y015883D01*
X023062Y015408D02*
X022797Y015408D01*
X022994Y015249D02*
X023221Y015249D01*
X023152Y015091D02*
X023379Y015091D01*
X023311Y014932D02*
X023538Y014932D01*
X023469Y014774D02*
X023696Y014774D01*
X023628Y014615D02*
X023783Y014615D01*
X024172Y015091D02*
X024648Y015091D01*
X024648Y014932D02*
X024383Y014932D01*
X024427Y014774D02*
X024648Y014774D01*
X024648Y014615D02*
X024472Y014615D01*
X024598Y014457D02*
X024648Y014457D01*
X024648Y014298D02*
X024624Y014298D01*
X024648Y014140D02*
X024574Y014140D01*
X024648Y013981D02*
X022772Y013981D01*
X022772Y014140D02*
X023346Y014140D01*
X023187Y014298D02*
X022772Y014298D01*
X022772Y014281D02*
X022772Y014601D01*
X022760Y014647D01*
X022736Y014688D01*
X022703Y014722D01*
X022662Y014745D01*
X022616Y014758D01*
X022374Y014758D01*
X022374Y014281D01*
X022772Y014281D01*
X022772Y014457D02*
X023029Y014457D01*
X022870Y014615D02*
X022768Y014615D01*
X022712Y014774D02*
X022001Y014774D01*
X022259Y014615D02*
X022374Y014615D01*
X022374Y014457D02*
X022259Y014457D01*
X022259Y014298D02*
X022374Y014298D01*
X022374Y014140D02*
X022259Y014140D01*
X022259Y013981D02*
X022374Y013981D01*
X022374Y013823D02*
X022259Y013823D01*
X021972Y013506D02*
X023240Y013506D01*
X023305Y013664D02*
X021640Y013664D01*
X021636Y013506D02*
X021580Y013506D01*
X021636Y013347D02*
X021481Y013347D01*
X021481Y013189D02*
X021636Y013189D01*
X021636Y013030D02*
X021481Y013030D01*
X021481Y012872D02*
X018565Y012872D01*
X018407Y013030D02*
X021063Y013030D01*
X021063Y013189D02*
X018248Y013189D01*
X018090Y013347D02*
X021063Y013347D01*
X021007Y013506D02*
X017931Y013506D01*
X017773Y013664D02*
X020956Y013664D01*
X020980Y013823D02*
X017614Y013823D01*
X017456Y013981D02*
X021101Y013981D01*
X021341Y014140D02*
X018916Y014140D01*
X019157Y014298D02*
X021341Y014298D01*
X021341Y014457D02*
X019304Y014457D01*
X019370Y014615D02*
X021341Y014615D01*
X021341Y014774D02*
X019425Y014774D01*
X019425Y014932D02*
X020493Y014932D01*
X020426Y015091D02*
X019423Y015091D01*
X019357Y015249D02*
X020268Y015249D01*
X020109Y015408D02*
X019285Y015408D01*
X019427Y015566D02*
X019951Y015566D01*
X019792Y015725D02*
X019531Y015725D01*
X019544Y015883D02*
X019634Y015883D01*
X020479Y016834D02*
X021861Y016834D01*
X021861Y016676D02*
X021478Y016676D01*
X021509Y016517D02*
X022259Y016517D01*
X022374Y016517D02*
X023449Y016517D01*
X023607Y016359D02*
X022772Y016359D01*
X022772Y016200D02*
X023766Y016200D01*
X023924Y016042D02*
X022759Y016042D01*
X022772Y016525D02*
X022374Y016525D01*
X022374Y017002D01*
X022616Y017002D01*
X022662Y016989D01*
X022703Y016966D01*
X022736Y016932D01*
X022760Y016891D01*
X022772Y016845D01*
X022772Y016525D01*
X022772Y016676D02*
X023290Y016676D01*
X023093Y016834D02*
X022772Y016834D01*
X022889Y016993D02*
X022650Y016993D01*
X022847Y017151D02*
X020699Y017151D01*
X020529Y016993D02*
X021983Y016993D01*
X022259Y016993D02*
X022374Y016993D01*
X022374Y016834D02*
X022259Y016834D01*
X022259Y016676D02*
X022374Y016676D01*
X021861Y016359D02*
X021509Y016359D01*
X021509Y016200D02*
X021861Y016200D01*
X021874Y016042D02*
X021499Y016042D01*
X021211Y016359D02*
X021211Y016359D01*
X021211Y016517D02*
X021211Y016517D01*
X021211Y016676D02*
X021211Y016676D01*
X020953Y015408D02*
X021917Y015408D01*
X021720Y015249D02*
X021090Y015249D01*
X021119Y015091D02*
X021561Y015091D01*
X021403Y014932D02*
X021071Y014932D01*
X021798Y013823D02*
X021867Y013823D01*
X022053Y013347D02*
X023085Y013347D01*
X022932Y013189D02*
X022053Y013189D01*
X022053Y013030D02*
X022894Y013030D01*
X022894Y012872D02*
X021636Y012872D01*
X021636Y012713D02*
X021481Y012713D01*
X021481Y012824D02*
X021481Y012269D01*
X021220Y012269D01*
X021174Y012281D01*
X021133Y012305D01*
X021099Y012339D01*
X021076Y012380D01*
X021063Y012426D01*
X021063Y012824D01*
X021481Y012824D01*
X021481Y012555D02*
X021636Y012555D01*
X021636Y012396D02*
X021481Y012396D01*
X021071Y012396D02*
X020921Y012396D01*
X020921Y012238D02*
X022231Y012238D01*
X022390Y012396D02*
X022045Y012396D01*
X022053Y012555D02*
X022728Y012555D01*
X022886Y012713D02*
X022053Y012713D01*
X022073Y012079D02*
X020939Y012079D01*
X020921Y012555D02*
X021063Y012555D01*
X021063Y012713D02*
X020921Y012713D01*
X019777Y012713D02*
X019610Y012713D01*
X018590Y012208D02*
X018590Y012159D01*
X018586Y012155D01*
X017639Y011208D01*
X015205Y011208D01*
X015137Y011208D01*
X015137Y011733D01*
X015262Y011733D01*
X015308Y011745D01*
X015349Y011769D01*
X015383Y011802D01*
X015406Y011844D01*
X015419Y011889D01*
X015419Y012090D01*
X015101Y012090D01*
X015101Y012090D01*
X015419Y012090D01*
X015419Y012291D01*
X015418Y012295D01*
X015956Y012295D01*
X016084Y012422D01*
X016084Y013036D01*
X016056Y013064D01*
X016084Y013092D01*
X016084Y013705D01*
X016027Y013762D01*
X016100Y013835D01*
X016100Y013940D01*
X016739Y013940D01*
X018355Y012324D01*
X018430Y012249D01*
X018529Y012208D01*
X018590Y012208D01*
X018458Y012238D02*
X015419Y012238D01*
X015419Y012079D02*
X018510Y012079D01*
X018352Y011921D02*
X015419Y011921D01*
X015337Y011762D02*
X018193Y011762D01*
X018035Y011604D02*
X015137Y011604D01*
X015137Y011445D02*
X017876Y011445D01*
X017718Y011287D02*
X015137Y011287D01*
X016161Y010673D02*
X016161Y010319D01*
X016311Y010319D01*
X016311Y010338D01*
X016362Y010462D01*
X016457Y010557D01*
X016581Y010608D01*
X016715Y010608D01*
X016839Y010557D01*
X016934Y010462D01*
X016985Y010338D01*
X016985Y010204D01*
X016964Y010154D01*
X016964Y009817D01*
X016603Y009817D01*
X016582Y009808D01*
X016546Y009789D01*
X016533Y009788D01*
X016520Y009783D01*
X016480Y009783D01*
X016440Y009779D01*
X016427Y009783D01*
X016161Y009783D01*
X016161Y009531D01*
X016599Y009531D01*
X016598Y009532D01*
X016586Y009578D01*
X016586Y009780D01*
X016964Y009780D01*
X016964Y009817D01*
X017001Y009817D01*
X017001Y010176D01*
X017223Y010176D01*
X017269Y010163D01*
X017285Y010154D01*
X017345Y010213D01*
X017959Y010213D01*
X018086Y010086D01*
X018086Y009512D01*
X017988Y009413D01*
X017988Y009113D01*
X018004Y009098D01*
X018004Y008602D01*
X017996Y008595D01*
X018027Y008564D01*
X018051Y008523D01*
X018063Y008478D01*
X018063Y008276D01*
X017685Y008276D01*
X017685Y008239D01*
X018063Y008239D01*
X018063Y008037D01*
X018051Y007991D01*
X018027Y007950D01*
X017994Y007916D01*
X017953Y007893D01*
X017907Y007880D01*
X017685Y007880D01*
X017685Y008239D01*
X017648Y008239D01*
X017648Y007880D01*
X017426Y007880D01*
X017381Y007893D01*
X017364Y007902D01*
X017316Y007855D01*
X017316Y007708D01*
X016998Y007708D01*
X016998Y007708D01*
X016998Y007351D01*
X016837Y007351D01*
X016791Y007363D01*
X016774Y007373D01*
X016715Y007313D01*
X016477Y007313D01*
X016516Y007219D01*
X016516Y007169D01*
X018186Y007169D01*
X018228Y007211D01*
X018352Y007263D01*
X018487Y007263D01*
X018611Y007211D01*
X018706Y007116D01*
X018757Y006992D01*
X018757Y006858D01*
X018706Y006733D01*
X018611Y006638D01*
X018540Y006609D01*
X018561Y006559D01*
X018561Y006425D01*
X018509Y006300D01*
X018414Y006205D01*
X018290Y006154D01*
X018156Y006154D01*
X018031Y006205D01*
X017936Y006300D01*
X017885Y006425D01*
X017885Y006437D01*
X016589Y006437D01*
X016589Y006387D01*
X016538Y006263D01*
X016525Y006251D01*
X016587Y006189D01*
X016638Y006066D01*
X016638Y005932D01*
X016587Y005808D01*
X016492Y005713D01*
X016368Y005662D01*
X016234Y005662D01*
X016110Y005713D01*
X016108Y005715D01*
X016034Y005640D01*
X015263Y005640D01*
X015135Y005768D01*
X015135Y007421D01*
X015121Y007421D01*
X015127Y005525D01*
X015137Y005515D01*
X015137Y005212D01*
X015634Y005212D01*
X015762Y005084D01*
X015762Y004628D01*
X015702Y004569D01*
X015712Y004552D01*
X015724Y004506D01*
X015724Y004344D01*
X015367Y004344D01*
X015367Y004027D01*
X015568Y004027D01*
X015614Y004039D01*
X015655Y004063D01*
X015688Y004096D01*
X015712Y004137D01*
X015724Y004183D01*
X015724Y004344D01*
X015367Y004344D01*
X015367Y004344D01*
X015367Y004027D01*
X015166Y004027D01*
X015120Y004039D01*
X015079Y004063D01*
X015046Y004096D01*
X015022Y004137D01*
X015010Y004183D01*
X015010Y004344D01*
X015367Y004344D01*
X015367Y004344D01*
X015367Y004344D01*
X015010Y004344D01*
X015010Y004506D01*
X015022Y004552D01*
X015032Y004569D01*
X014984Y004616D01*
X014735Y004616D01*
X014735Y004612D01*
X014700Y004528D01*
X014805Y004528D01*
X014851Y004515D01*
X014892Y004492D01*
X014925Y004458D01*
X014949Y004417D01*
X014961Y004371D01*
X014961Y004170D01*
X014643Y004170D01*
X014643Y004170D01*
X014961Y004170D01*
X014961Y003998D01*
X016220Y003998D01*
X016329Y003953D01*
X016413Y003869D01*
X016458Y003760D01*
X016458Y000568D01*
X017168Y000568D01*
X017099Y000734D01*
X017099Y001017D01*
X017090Y001025D01*
X017090Y001025D01*
X016697Y001419D01*
X016656Y001517D01*
X016656Y002976D01*
X016638Y002994D01*
X016587Y003118D01*
X016587Y003252D01*
X016638Y003375D01*
X016733Y003470D01*
X016857Y003521D01*
X016991Y003521D01*
X017114Y003470D01*
X017209Y003375D01*
X017260Y003252D01*
X017260Y003118D01*
X017247Y003085D01*
X017323Y003161D01*
X017514Y003240D01*
X017720Y003240D01*
X017910Y003161D01*
X018055Y003016D01*
X018117Y002868D01*
X018178Y003016D01*
X018323Y003161D01*
X018514Y003240D01*
X018720Y003240D01*
X018910Y003161D01*
X019055Y003016D01*
X019117Y002868D01*
X019178Y003016D01*
X019323Y003161D01*
X019514Y003240D01*
X019720Y003240D01*
X019910Y003161D01*
X020055Y003016D01*
X020134Y002825D01*
X020134Y002019D01*
X020055Y001829D01*
X019980Y001753D01*
X019983Y001750D01*
X020027Y001689D01*
X020061Y001622D01*
X020085Y001550D01*
X020097Y001475D01*
X020097Y001157D01*
X019637Y001157D01*
X019637Y001117D01*
X020097Y001117D01*
X020097Y000800D01*
X020085Y000725D01*
X020061Y000653D01*
X020027Y000586D01*
X020014Y000568D01*
X020484Y000568D01*
X020484Y003756D01*
X020529Y003865D01*
X020574Y003910D01*
X020407Y003910D01*
X020407Y004308D01*
X020291Y004308D01*
X019854Y004308D01*
X019854Y004066D01*
X019866Y004021D01*
X019890Y003980D01*
X019923Y003946D01*
X019964Y003922D01*
X020010Y003910D01*
X020291Y003910D01*
X020291Y004308D01*
X020291Y004424D01*
X020291Y004821D01*
X020010Y004821D01*
X019964Y004809D01*
X019923Y004785D01*
X019890Y004752D01*
X019866Y004711D01*
X019854Y004665D01*
X019854Y004424D01*
X020291Y004424D01*
X020407Y004424D01*
X020407Y004821D01*
X020566Y004821D01*
X020566Y004890D01*
X020481Y004975D01*
X020219Y004975D01*
X020146Y004944D01*
X019956Y004944D01*
X019868Y004857D01*
X019333Y004857D01*
X019206Y004984D01*
X019206Y005440D01*
X019266Y005500D01*
X019256Y005517D01*
X019244Y005563D01*
X019244Y005724D01*
X019601Y005724D01*
X019601Y005724D01*
X019244Y005724D01*
X019244Y005886D01*
X019256Y005931D01*
X019280Y005972D01*
X019313Y006006D01*
X019331Y006016D01*
X019078Y006016D01*
X018950Y006144D01*
X018950Y006874D01*
X018969Y006893D01*
X018969Y007441D01*
X019010Y007539D01*
X019085Y007614D01*
X019085Y007614D01*
X020000Y008530D01*
X020099Y008571D01*
X021571Y008571D01*
X021546Y008629D01*
X021546Y008687D01*
X021528Y008732D01*
X021528Y008895D01*
X021125Y008895D01*
X021087Y008933D01*
X021028Y008933D01*
X021028Y008992D01*
X021028Y008992D01*
X021028Y008992D01*
X021028Y008933D01*
X020969Y008933D01*
X020931Y008895D01*
X019078Y008895D01*
X018950Y009023D01*
X018950Y009753D01*
X019078Y009881D01*
X019731Y009881D01*
X019529Y010082D01*
X018445Y010082D01*
X018347Y010123D01*
X018182Y010288D01*
X018156Y010288D01*
X018031Y010339D01*
X017936Y010434D01*
X017885Y010558D01*
X017885Y010693D01*
X017892Y010709D01*
X017804Y010673D01*
X016161Y010673D01*
X016161Y010653D02*
X017885Y010653D01*
X017912Y010494D02*
X016902Y010494D01*
X016985Y010336D02*
X018040Y010336D01*
X017995Y010177D02*
X018293Y010177D01*
X018086Y010019D02*
X019593Y010019D01*
X020033Y010336D02*
X021026Y010336D01*
X021026Y010494D02*
X019875Y010494D01*
X019867Y010502D02*
X019792Y010577D01*
X019693Y010618D01*
X018609Y010618D01*
X018561Y010667D01*
X018561Y010693D01*
X018509Y010817D01*
X018414Y010912D01*
X018290Y010963D01*
X018156Y010963D01*
X018149Y010961D01*
X018628Y011439D01*
X018628Y011334D01*
X018640Y011288D01*
X018664Y011247D01*
X018698Y011213D01*
X018739Y011190D01*
X018784Y011177D01*
X018985Y011177D01*
X018985Y011495D01*
X018985Y011495D01*
X018985Y011177D01*
X019186Y011177D01*
X019232Y011190D01*
X019236Y011192D01*
X019236Y011142D01*
X019363Y011015D01*
X019777Y011015D01*
X019777Y010811D01*
X018512Y010811D01*
X018575Y010653D02*
X020949Y010653D01*
X021026Y010576D02*
X020856Y010746D01*
X020793Y010683D01*
X019904Y010683D01*
X019777Y010811D01*
X019777Y010970D02*
X018158Y010970D01*
X018317Y011128D02*
X019250Y011128D01*
X018985Y011287D02*
X018985Y011287D01*
X018985Y011445D02*
X018985Y011445D01*
X018641Y011287D02*
X018475Y011287D01*
X018355Y012324D02*
X018355Y012324D01*
X018283Y012396D02*
X016058Y012396D01*
X016084Y012555D02*
X018125Y012555D01*
X017966Y012713D02*
X016084Y012713D01*
X016084Y012872D02*
X017808Y012872D01*
X017649Y013030D02*
X016084Y013030D01*
X016084Y013189D02*
X017491Y013189D01*
X017332Y013347D02*
X016084Y013347D01*
X016084Y013506D02*
X017174Y013506D01*
X017015Y013664D02*
X016084Y013664D01*
X016088Y013823D02*
X016857Y013823D01*
X017297Y014140D02*
X018239Y014140D01*
X017997Y014298D02*
X017139Y014298D01*
X016950Y014457D02*
X017850Y014457D01*
X017785Y014615D02*
X016100Y014615D01*
X016100Y014774D02*
X017729Y014774D01*
X017729Y014932D02*
X016100Y014932D01*
X016100Y015091D02*
X017732Y015091D01*
X017797Y015249D02*
X015564Y015249D01*
X015431Y015408D02*
X017869Y015408D01*
X018027Y015566D02*
X015693Y015566D01*
X015737Y015725D02*
X018312Y015725D01*
X018471Y015883D02*
X015737Y015883D01*
X015737Y016042D02*
X016384Y016042D01*
X016164Y016200D02*
X015737Y016200D01*
X015720Y016359D02*
X016006Y016359D01*
X015847Y016517D02*
X015638Y016517D01*
X015638Y016676D02*
X015689Y016676D01*
X015428Y017358D02*
X013380Y017358D01*
X013302Y017279D01*
X010979Y017279D01*
X010900Y017200D01*
X010563Y017151D02*
X010541Y017151D01*
X010493Y017310D02*
X010382Y017310D01*
X010374Y017468D02*
X010224Y017468D01*
X010374Y017627D02*
X010065Y017627D01*
X009907Y017785D02*
X010374Y017785D01*
X010374Y017944D02*
X009748Y017944D01*
X009590Y018102D02*
X011669Y018102D01*
X011555Y018261D02*
X009431Y018261D01*
X009273Y018419D02*
X011555Y018419D01*
X011555Y018578D02*
X009114Y018578D01*
X009231Y018736D02*
X011560Y018736D01*
X011659Y019687D02*
X009611Y019687D01*
X011380Y020480D02*
X012601Y020480D01*
X012601Y020638D02*
X011479Y020638D01*
X011479Y020797D02*
X012601Y020797D01*
X012601Y020955D02*
X011479Y020955D01*
X011459Y021114D02*
X012601Y021114D01*
X012601Y021272D02*
X012567Y021272D01*
X013136Y021272D02*
X013397Y021272D01*
X013397Y021114D02*
X013136Y021114D01*
X013136Y020955D02*
X013403Y020955D01*
X013935Y020325D02*
X013935Y020325D01*
X013935Y020150D01*
X013935Y020108D01*
X013935Y019892D01*
X013935Y019892D01*
X013935Y019934D01*
X013935Y020108D01*
X013935Y020108D01*
X013935Y020108D01*
X013935Y020325D01*
X013935Y020321D02*
X013935Y020321D01*
X013935Y020163D02*
X013935Y020163D01*
X013935Y020004D02*
X013935Y020004D01*
X014189Y020108D02*
X014189Y020108D01*
X014189Y020108D01*
X014252Y020108D01*
X014252Y020006D01*
X014251Y020000D01*
X014252Y019994D01*
X014252Y019892D01*
X014189Y019892D01*
X014189Y019892D01*
X014189Y019892D01*
X014252Y019892D01*
X014252Y019789D01*
X014251Y019783D01*
X014252Y019778D01*
X014252Y019675D01*
X014252Y019665D01*
X014290Y019628D01*
X014290Y019125D01*
X015390Y019125D01*
X015390Y019411D01*
X015428Y019449D01*
X015428Y019459D01*
X015438Y019459D01*
X015438Y019459D01*
X015438Y019459D01*
X015428Y019459D01*
X015428Y019468D01*
X015390Y019506D01*
X015390Y019624D01*
X014966Y019624D01*
X014868Y019665D01*
X014685Y019847D01*
X014610Y019923D01*
X014569Y020021D01*
X014569Y020225D01*
X014252Y020225D01*
X014252Y020222D01*
X014251Y020217D01*
X014252Y020211D01*
X014252Y020108D01*
X014189Y020108D01*
X014252Y020163D02*
X014569Y020163D01*
X014576Y020004D02*
X014252Y020004D01*
X014252Y019846D02*
X014687Y019846D01*
X014846Y019687D02*
X014252Y019687D01*
X014252Y019675D02*
X014243Y019675D01*
X014243Y019675D01*
X014252Y019675D01*
X014290Y019529D02*
X015390Y019529D01*
X015390Y019370D02*
X014290Y019370D01*
X014290Y019212D02*
X015390Y019212D01*
X016101Y019804D02*
X016101Y019840D01*
X016341Y019840D01*
X016440Y019881D01*
X016515Y019957D01*
X016579Y020020D01*
X016680Y020020D01*
X016680Y019922D01*
X016808Y019794D01*
X017061Y019794D01*
X017054Y019787D01*
X017054Y019386D01*
X016964Y019296D01*
X016954Y019321D01*
X016878Y019396D01*
X016800Y019475D01*
X016708Y019513D01*
X016708Y019661D01*
X016696Y019707D01*
X016672Y019748D01*
X016638Y019782D01*
X016597Y019806D01*
X016552Y019818D01*
X016351Y019818D01*
X016351Y019500D01*
X016351Y019500D01*
X016351Y019818D01*
X016150Y019818D01*
X016104Y019806D01*
X016101Y019804D01*
X016354Y019846D02*
X016757Y019846D01*
X016701Y019687D02*
X017054Y019687D01*
X017054Y019529D02*
X016708Y019529D01*
X016904Y019370D02*
X017039Y019370D01*
X016351Y019529D02*
X016351Y019529D01*
X016351Y019687D02*
X016351Y019687D01*
X016563Y020004D02*
X016680Y020004D01*
X018505Y021431D02*
X018696Y021431D01*
X018664Y021272D02*
X018754Y021272D01*
X018733Y021114D02*
X018727Y021114D01*
X019092Y020797D02*
X019129Y020797D01*
X019129Y020638D02*
X019092Y020638D01*
X018947Y020321D02*
X024294Y020321D01*
X024294Y020163D02*
X019148Y020163D01*
X019190Y020004D02*
X024294Y020004D01*
X024294Y019846D02*
X019155Y019846D01*
X018988Y019687D02*
X024294Y019687D01*
X024294Y019529D02*
X018881Y019529D01*
X018881Y019370D02*
X024294Y019370D01*
X024294Y019212D02*
X018881Y019212D01*
X018819Y019053D02*
X024338Y019053D01*
X024496Y018895D02*
X021521Y018895D01*
X021547Y018736D02*
X024655Y018736D01*
X024813Y018578D02*
X021547Y018578D01*
X021547Y018419D02*
X024972Y018419D01*
X025571Y018578D02*
X027333Y018578D01*
X024294Y021748D02*
X021119Y021748D01*
X021090Y021906D02*
X024294Y021906D01*
X024294Y022065D02*
X023747Y022065D01*
X023972Y022223D02*
X024294Y022223D01*
X024294Y022382D02*
X024112Y022382D01*
X024178Y022540D02*
X024294Y022540D01*
X024294Y022699D02*
X024228Y022699D01*
X024228Y022857D02*
X024294Y022857D01*
X024294Y023016D02*
X024221Y023016D01*
X024156Y023174D02*
X024294Y023174D01*
X024294Y023333D02*
X024077Y023333D01*
X023918Y023491D02*
X024294Y023491D01*
X022195Y025232D02*
X021766Y025232D01*
X021766Y027594D01*
X022213Y027594D01*
X022211Y027592D01*
X022187Y027551D01*
X022175Y027505D01*
X022175Y026479D01*
X023554Y026479D01*
X023554Y026319D01*
X022175Y026319D01*
X022175Y025292D01*
X022187Y025247D01*
X022195Y025232D01*
X022194Y025235D02*
X021766Y025235D01*
X021766Y025393D02*
X022175Y025393D01*
X022175Y025552D02*
X021766Y025552D01*
X021766Y025710D02*
X022175Y025710D01*
X022175Y025869D02*
X021766Y025869D01*
X021766Y026027D02*
X022175Y026027D01*
X022175Y026186D02*
X021766Y026186D01*
X021766Y026344D02*
X023554Y026344D01*
X022175Y026503D02*
X021766Y026503D01*
X021766Y026661D02*
X022175Y026661D01*
X022175Y026820D02*
X021766Y026820D01*
X021766Y026978D02*
X022175Y026978D01*
X022175Y027137D02*
X021766Y027137D01*
X021766Y027295D02*
X022175Y027295D01*
X022175Y027454D02*
X021766Y027454D01*
X021017Y026820D02*
X016177Y026820D01*
X016177Y026727D02*
X016631Y026727D01*
X016631Y026015D01*
X016619Y025969D01*
X016595Y025928D01*
X016562Y025895D01*
X016521Y025871D01*
X016475Y025859D01*
X016177Y025859D01*
X016177Y026727D01*
X016177Y026661D02*
X016017Y026661D01*
X016017Y026503D02*
X016177Y026503D01*
X016177Y026344D02*
X016017Y026344D01*
X016017Y026186D02*
X016177Y026186D01*
X016177Y026027D02*
X016017Y026027D01*
X016017Y025869D02*
X016177Y025869D01*
X016511Y025869D02*
X020683Y025869D01*
X020563Y026027D02*
X016631Y026027D01*
X016631Y026186D02*
X020563Y026186D01*
X020563Y026344D02*
X016631Y026344D01*
X016631Y026503D02*
X020563Y026503D01*
X020563Y026661D02*
X016631Y026661D01*
X016631Y026978D02*
X020563Y026978D01*
X020563Y027137D02*
X016631Y027137D01*
X016631Y027295D02*
X020563Y027295D01*
X020563Y027454D02*
X016631Y027454D01*
X016627Y027612D02*
X020566Y027612D01*
X021017Y026661D02*
X021177Y026661D01*
X021177Y026503D02*
X021017Y026503D01*
X021017Y026344D02*
X021177Y026344D01*
X021177Y026186D02*
X021017Y026186D01*
X021017Y026027D02*
X021177Y026027D01*
X021177Y025869D02*
X021017Y025869D01*
X021468Y025710D02*
X015020Y025710D01*
X015020Y025552D02*
X021468Y025552D01*
X021468Y025393D02*
X015020Y025393D01*
X015020Y025869D02*
X015683Y025869D01*
X015563Y026027D02*
X015020Y026027D01*
X015020Y026186D02*
X015563Y026186D01*
X015563Y026344D02*
X014960Y026344D01*
X014858Y026503D02*
X015563Y026503D01*
X015563Y026661D02*
X014951Y026661D01*
X014978Y026820D02*
X016017Y026820D01*
X015563Y026978D02*
X014978Y026978D01*
X014978Y027295D02*
X015563Y027295D01*
X015563Y027137D02*
X014518Y027137D01*
X014478Y027137D02*
X014016Y027137D01*
X014018Y027142D02*
X014478Y027142D01*
X014478Y027102D01*
X014018Y027102D01*
X014018Y026784D01*
X014030Y026709D01*
X014054Y026637D01*
X014088Y026570D01*
X014132Y026509D01*
X014157Y026484D01*
X014063Y026390D01*
X014002Y026243D01*
X013999Y026251D01*
X013998Y026674D01*
X014016Y026719D01*
X014016Y027525D01*
X013947Y027691D01*
X014101Y027691D01*
X014088Y027673D01*
X014054Y027606D01*
X014030Y027534D01*
X014018Y027459D01*
X014018Y027142D01*
X014016Y027295D02*
X014018Y027295D01*
X014016Y027454D02*
X014018Y027454D01*
X013980Y027612D02*
X014057Y027612D01*
X014016Y026978D02*
X014018Y026978D01*
X014016Y026820D02*
X014018Y026820D01*
X013998Y026661D02*
X014046Y026661D01*
X013998Y026503D02*
X014139Y026503D01*
X014044Y026344D02*
X013999Y026344D01*
X013954Y025235D02*
X014051Y025235D01*
X014191Y025076D02*
X013814Y025076D01*
X013191Y025076D02*
X012814Y025076D01*
X012954Y025235D02*
X013051Y025235D01*
X012601Y022857D02*
X012577Y022857D01*
X010374Y024125D02*
X010172Y024125D01*
X010373Y024284D02*
X010415Y024284D01*
X010108Y024421D02*
X007746Y024421D01*
X007746Y024837D01*
X007780Y024817D01*
X007826Y024805D01*
X008852Y024805D01*
X008852Y026184D01*
X009012Y026184D01*
X009012Y024805D01*
X010038Y024805D01*
X010084Y024817D01*
X010108Y024830D01*
X010108Y024421D01*
X010108Y024442D02*
X007746Y024442D01*
X007746Y024601D02*
X010108Y024601D01*
X010108Y024759D02*
X007746Y024759D01*
X007239Y024759D02*
X004876Y024759D01*
X004926Y024837D02*
X004971Y024824D01*
X005998Y024824D01*
X005998Y026204D01*
X006158Y026204D01*
X006158Y024824D01*
X007184Y024824D01*
X007230Y024837D01*
X007239Y024842D01*
X007239Y024444D01*
X004876Y024444D01*
X004876Y024868D01*
X004885Y024860D01*
X004926Y024837D01*
X004876Y024601D02*
X007239Y024601D01*
X007682Y024125D02*
X004590Y024125D01*
X004621Y024284D02*
X004432Y024284D01*
X004579Y024442D02*
X004273Y024442D01*
X004261Y024601D02*
X004579Y024601D01*
X004579Y024759D02*
X004261Y024759D01*
X004261Y024918D02*
X004579Y024918D01*
X004579Y025076D02*
X004261Y025076D01*
X004261Y025235D02*
X004579Y025235D01*
X004579Y025393D02*
X004350Y025393D01*
X004357Y025552D02*
X004579Y025552D01*
X004579Y025710D02*
X004357Y025710D01*
X004357Y025869D02*
X004579Y025869D01*
X004579Y026027D02*
X004357Y026027D01*
X004357Y026186D02*
X004579Y026186D01*
X004579Y026344D02*
X004357Y026344D01*
X004325Y026503D02*
X004579Y026503D01*
X004579Y026661D02*
X004412Y026661D01*
X004530Y026779D02*
X004291Y027018D01*
X004530Y027256D01*
X004579Y027208D01*
X004579Y027653D01*
X004582Y027661D01*
X004336Y027415D01*
X004361Y027408D01*
X004402Y027385D01*
X004530Y027256D01*
X004291Y027018D01*
X004291Y027018D01*
X004530Y026779D01*
X004570Y026820D02*
X004579Y026820D01*
X004489Y026820D02*
X004489Y026820D01*
X004331Y026978D02*
X004331Y026978D01*
X004291Y027018D02*
X004291Y027018D01*
X004410Y027137D02*
X004410Y027137D01*
X004491Y027295D02*
X004579Y027295D01*
X004579Y027454D02*
X004375Y027454D01*
X004533Y027612D02*
X004579Y027612D01*
X003433Y026512D02*
X003433Y026510D01*
X003783Y026160D01*
X003821Y026160D01*
X003821Y025732D01*
X003559Y025732D01*
X003432Y025605D01*
X003432Y024991D01*
X003460Y024963D01*
X003432Y024935D01*
X003432Y024322D01*
X003559Y024194D01*
X003763Y024194D01*
X004256Y023702D01*
X004331Y023627D01*
X004429Y023586D01*
X005588Y023586D01*
X005499Y023549D01*
X005260Y023311D01*
X005131Y022999D01*
X005131Y022758D01*
X004004Y023884D01*
X003906Y023925D01*
X003481Y023925D01*
X003481Y024039D01*
X003430Y024163D01*
X003335Y024258D01*
X003211Y024309D01*
X003077Y024309D01*
X002953Y024258D01*
X002949Y024253D01*
X002808Y024253D01*
X002690Y024371D01*
X002280Y024371D01*
X002549Y024639D01*
X002549Y024679D01*
X002589Y024679D01*
X003022Y025113D01*
X003022Y025195D01*
X003049Y025195D01*
X003399Y025545D01*
X003399Y025650D01*
X003400Y025650D01*
X003446Y025662D01*
X003487Y025686D01*
X003615Y025814D01*
X003743Y025942D01*
X003767Y025983D01*
X003779Y026029D01*
X003779Y026076D01*
X003767Y026122D01*
X003743Y026163D01*
X003615Y026291D01*
X003376Y026053D01*
X003615Y026291D01*
X003487Y026419D01*
X003446Y026443D01*
X003400Y026455D01*
X003376Y026455D01*
X003433Y026512D01*
X003424Y026503D02*
X003441Y026503D01*
X003562Y026344D02*
X003599Y026344D01*
X003509Y026186D02*
X003509Y026186D01*
X003376Y026053D02*
X003376Y026053D01*
X003615Y025814D01*
X003376Y026053D01*
X003376Y026053D01*
X003402Y026027D02*
X003402Y026027D01*
X003560Y025869D02*
X003560Y025869D01*
X003669Y025869D02*
X003821Y025869D01*
X003821Y026027D02*
X003778Y026027D01*
X003758Y026186D02*
X003720Y026186D01*
X003537Y025710D02*
X003511Y025710D01*
X003432Y025552D02*
X003399Y025552D01*
X003432Y025393D02*
X003247Y025393D01*
X003089Y025235D02*
X003432Y025235D01*
X003432Y025076D02*
X002986Y025076D01*
X002827Y024918D02*
X003432Y024918D01*
X003432Y024759D02*
X002669Y024759D01*
X002510Y024601D02*
X003432Y024601D01*
X003432Y024442D02*
X002352Y024442D01*
X002777Y024284D02*
X003016Y024284D01*
X003272Y024284D02*
X003470Y024284D01*
X003445Y024125D02*
X003833Y024125D01*
X003991Y023967D02*
X003481Y023967D01*
X004081Y023808D02*
X004150Y023808D01*
X004239Y023650D02*
X004308Y023650D01*
X004398Y023491D02*
X005441Y023491D01*
X005282Y023333D02*
X004556Y023333D01*
X004715Y023174D02*
X005204Y023174D01*
X005138Y023016D02*
X004873Y023016D01*
X005032Y022857D02*
X005131Y022857D01*
X004357Y022223D02*
X002818Y022223D01*
X002818Y022382D02*
X004198Y022382D01*
X004040Y022540D02*
X002818Y022540D01*
X002787Y022699D02*
X003881Y022699D01*
X003871Y022008D02*
X003999Y021881D01*
X003999Y021366D01*
X003871Y021238D01*
X003022Y021238D01*
X002894Y021366D01*
X002894Y021881D01*
X003022Y022008D01*
X003871Y022008D01*
X003974Y021906D02*
X004674Y021906D01*
X004697Y021748D02*
X003999Y021748D01*
X003999Y021589D02*
X004648Y021589D01*
X004648Y021431D02*
X003999Y021431D01*
X003905Y021272D02*
X004648Y021272D01*
X004628Y021114D02*
X002798Y021114D01*
X002818Y020955D02*
X004628Y020955D01*
X004628Y020797D02*
X002818Y020797D01*
X002818Y020638D02*
X004628Y020638D01*
X004628Y020480D02*
X002719Y020480D01*
X002909Y020321D02*
X001898Y020321D01*
X001812Y020480D02*
X001798Y020480D01*
X001262Y020480D02*
X001118Y020480D01*
X001118Y020638D02*
X001262Y020638D01*
X001262Y020797D02*
X001118Y020797D01*
X001118Y020955D02*
X001262Y020955D01*
X001262Y021114D02*
X001118Y021114D01*
X001118Y021272D02*
X001262Y021272D01*
X001262Y021431D02*
X001118Y021431D01*
X001118Y021589D02*
X001262Y021589D01*
X001262Y021748D02*
X001118Y021748D01*
X001118Y021906D02*
X001262Y021906D01*
X001262Y022065D02*
X001118Y022065D01*
X001118Y022223D02*
X001262Y022223D01*
X001262Y022382D02*
X001118Y022382D01*
X001118Y022540D02*
X001262Y022540D01*
X001262Y022699D02*
X001118Y022699D01*
X001118Y022857D02*
X001262Y022857D01*
X001262Y023016D02*
X001118Y023016D01*
X001118Y023174D02*
X001262Y023174D01*
X001262Y023333D02*
X001118Y023333D01*
X001118Y023491D02*
X001262Y023491D01*
X001262Y023650D02*
X001118Y023650D01*
X001118Y023808D02*
X001262Y023808D01*
X001262Y023967D02*
X001118Y023967D01*
X001118Y024125D02*
X001262Y024125D01*
X001288Y024284D02*
X001205Y024284D01*
X001363Y024442D02*
X001424Y024442D01*
X001522Y024601D02*
X001540Y024601D01*
X002843Y023174D02*
X002894Y023174D01*
X002894Y023016D02*
X002684Y023016D01*
X002533Y022857D02*
X002977Y022857D01*
X002729Y022065D02*
X004515Y022065D01*
X002919Y021906D02*
X001798Y021906D01*
X001798Y021748D02*
X002894Y021748D01*
X002894Y021589D02*
X001798Y021589D01*
X001798Y021431D02*
X002894Y021431D01*
X002988Y021272D02*
X001798Y021272D01*
X001798Y022065D02*
X001801Y022065D01*
X001262Y020321D02*
X001118Y020321D01*
X001118Y020163D02*
X001301Y020163D01*
X001458Y020004D02*
X001118Y020004D01*
X001118Y019846D02*
X001616Y019846D01*
X001840Y019646D02*
X001713Y019519D01*
X001713Y019003D01*
X001840Y018876D01*
X002690Y018876D01*
X002818Y019003D01*
X002818Y019519D01*
X002690Y019646D01*
X001840Y019646D01*
X001723Y019529D02*
X001118Y019529D01*
X001118Y019687D02*
X002998Y019687D01*
X002808Y019529D02*
X004051Y019529D01*
X003933Y019370D02*
X002818Y019370D01*
X002818Y019212D02*
X003910Y019212D01*
X003965Y019053D02*
X002818Y019053D01*
X003895Y019687D02*
X004763Y019687D01*
X004921Y019846D02*
X003999Y019846D01*
X003999Y020004D02*
X005002Y020004D01*
X005002Y020163D02*
X003999Y020163D01*
X003984Y020321D02*
X005002Y020321D01*
X004987Y016676D02*
X009413Y016676D01*
X009867Y016676D02*
X010259Y016676D01*
X010100Y016834D02*
X009967Y016834D01*
X010417Y016517D02*
X004987Y016517D01*
X004987Y016359D02*
X010576Y016359D01*
X010672Y016200D02*
X004987Y016200D01*
X004987Y016042D02*
X010617Y016042D01*
X010453Y015883D02*
X004987Y015883D01*
X004987Y015725D02*
X005534Y015725D01*
X005521Y015715D02*
X005460Y015654D01*
X005409Y015584D01*
X005370Y015506D01*
X005343Y015424D01*
X005329Y015339D01*
X005329Y015315D01*
X005859Y015315D01*
X005859Y015845D01*
X005836Y015845D01*
X005750Y015832D01*
X005668Y015805D01*
X005591Y015766D01*
X005521Y015715D01*
X005400Y015566D02*
X004987Y015566D01*
X004987Y015408D02*
X005340Y015408D01*
X005330Y015249D02*
X004987Y015249D01*
X004987Y015091D02*
X005368Y015091D01*
X005465Y014932D02*
X004987Y014932D01*
X004987Y014774D02*
X005626Y014774D01*
X005476Y014615D02*
X004987Y014615D01*
X004987Y014457D02*
X005410Y014457D01*
X005391Y014298D02*
X004987Y014298D01*
X004987Y014140D02*
X005408Y014140D01*
X005473Y013981D02*
X004987Y013981D01*
X004987Y013823D02*
X005616Y013823D01*
X005417Y013664D02*
X004987Y013664D01*
X004987Y013506D02*
X005330Y013506D01*
X005291Y013347D02*
X004987Y013347D01*
X004987Y013189D02*
X005291Y013189D01*
X005353Y013030D02*
X004987Y013030D01*
X004987Y012872D02*
X005472Y012872D01*
X005749Y012713D02*
X004987Y012713D01*
X004987Y012555D02*
X005068Y012555D01*
X005071Y012079D02*
X004987Y012079D01*
X004987Y011921D02*
X006904Y011921D01*
X006761Y011763D02*
X006704Y011804D01*
X006642Y011836D01*
X006575Y011858D01*
X006506Y011869D01*
X006479Y011869D01*
X006479Y011432D01*
X006462Y011432D01*
X006462Y011869D01*
X005904Y011869D01*
X005835Y011858D01*
X005768Y011836D01*
X005705Y011804D01*
X005649Y011763D01*
X005599Y011714D01*
X005558Y011657D01*
X005526Y011594D01*
X005504Y011528D01*
X005493Y011458D01*
X005493Y011432D01*
X006462Y011432D01*
X006462Y011415D01*
X005493Y011415D01*
X005493Y011388D01*
X005504Y011319D01*
X005526Y011252D01*
X005558Y011190D01*
X005599Y011133D01*
X005649Y011083D01*
X005705Y011042D01*
X005768Y011010D01*
X005835Y010988D01*
X005904Y010977D01*
X006462Y010977D01*
X006462Y011415D01*
X006479Y011415D01*
X006479Y011432D01*
X006916Y011432D01*
X006916Y011458D01*
X006905Y011528D01*
X006884Y011594D01*
X006852Y011657D01*
X006810Y011714D01*
X006761Y011763D01*
X006762Y011762D02*
X007062Y011762D01*
X007221Y011604D02*
X006879Y011604D01*
X006916Y011445D02*
X007342Y011445D01*
X007439Y011287D02*
X006895Y011287D01*
X006905Y011319D02*
X006884Y011252D01*
X006852Y011190D01*
X006810Y011133D01*
X006761Y011083D01*
X006704Y011042D01*
X006642Y011010D01*
X006575Y010988D01*
X006506Y010977D01*
X006479Y010977D01*
X006479Y011415D01*
X006916Y011415D01*
X006916Y011388D01*
X006905Y011319D01*
X006806Y011128D02*
X008956Y011128D01*
X009057Y010970D02*
X004987Y010970D01*
X004987Y011128D02*
X005604Y011128D01*
X005515Y011287D02*
X004987Y011287D01*
X004987Y011445D02*
X005493Y011445D01*
X005531Y011604D02*
X004987Y011604D01*
X004987Y011762D02*
X005647Y011762D01*
X006010Y012713D02*
X007371Y012713D01*
X007529Y012555D02*
X007014Y012555D01*
X007185Y012396D02*
X007688Y012396D01*
X007846Y012238D02*
X007344Y012238D01*
X007502Y012079D02*
X008005Y012079D01*
X008163Y011921D02*
X007661Y011921D01*
X007918Y011762D02*
X008322Y011762D01*
X008480Y011604D02*
X008007Y011604D01*
X008002Y011445D02*
X008639Y011445D01*
X008797Y011287D02*
X007905Y011287D01*
X008836Y010653D02*
X006854Y010653D01*
X006852Y010657D02*
X006810Y010714D01*
X006761Y010763D01*
X006704Y010804D01*
X006642Y010836D01*
X006575Y010858D01*
X006506Y010869D01*
X006479Y010869D01*
X006479Y010432D01*
X006462Y010432D01*
X006462Y010869D01*
X005904Y010869D01*
X005835Y010858D01*
X005768Y010836D01*
X005705Y010804D01*
X005649Y010763D01*
X005599Y010714D01*
X005558Y010657D01*
X005526Y010594D01*
X005504Y010528D01*
X005493Y010458D01*
X005493Y010432D01*
X006462Y010432D01*
X006462Y010415D01*
X005493Y010415D01*
X005493Y010388D01*
X005504Y010319D01*
X005526Y010252D01*
X005558Y010190D01*
X005599Y010133D01*
X005649Y010083D01*
X005705Y010042D01*
X005768Y010010D01*
X005835Y009988D01*
X005904Y009977D01*
X006462Y009977D01*
X006462Y010415D01*
X006479Y010415D01*
X006479Y010432D01*
X006916Y010432D01*
X006916Y010458D01*
X006905Y010528D01*
X006884Y010594D01*
X006852Y010657D01*
X006911Y010494D02*
X008836Y010494D01*
X008836Y010336D02*
X006908Y010336D01*
X006905Y010319D02*
X006916Y010388D01*
X006916Y010415D01*
X006479Y010415D01*
X006479Y009977D01*
X006506Y009977D01*
X006575Y009988D01*
X006642Y010010D01*
X006704Y010042D01*
X006761Y010083D01*
X006810Y010133D01*
X006852Y010190D01*
X006884Y010252D01*
X006905Y010319D01*
X006843Y010177D02*
X008836Y010177D01*
X008836Y010019D02*
X006658Y010019D01*
X006567Y009907D02*
X005843Y009907D01*
X005665Y009833D01*
X005529Y009697D01*
X005455Y009519D01*
X005455Y009327D01*
X005529Y009149D01*
X005665Y009013D01*
X005843Y008940D01*
X006567Y008940D01*
X006744Y009013D01*
X006880Y009149D01*
X006954Y009327D01*
X006954Y009519D01*
X006880Y009697D01*
X006744Y009833D01*
X006567Y009907D01*
X006680Y009860D02*
X008836Y009860D01*
X008836Y009702D02*
X006876Y009702D01*
X006944Y009543D02*
X008836Y009543D01*
X008836Y009385D02*
X006954Y009385D01*
X006912Y009226D02*
X008836Y009226D01*
X008836Y009068D02*
X006799Y009068D01*
X006744Y008833D02*
X006567Y008907D01*
X005843Y008907D01*
X005665Y008833D01*
X005529Y008697D01*
X005455Y008519D01*
X005455Y008327D01*
X005529Y008149D01*
X005665Y008013D01*
X005843Y007940D01*
X006567Y007940D01*
X006744Y008013D01*
X006880Y008149D01*
X006954Y008327D01*
X006954Y008519D01*
X006880Y008697D01*
X006744Y008833D01*
X006827Y008751D02*
X007381Y008751D01*
X007393Y008909D02*
X004987Y008909D01*
X004987Y008751D02*
X005582Y008751D01*
X005486Y008592D02*
X004987Y008592D01*
X004987Y008434D02*
X005455Y008434D01*
X005477Y008275D02*
X005125Y008275D01*
X005284Y008117D02*
X005562Y008117D01*
X005442Y007958D02*
X005799Y007958D01*
X005643Y007800D02*
X005601Y007800D01*
X005160Y007483D02*
X004662Y007483D01*
X004662Y007641D02*
X005002Y007641D01*
X004843Y007800D02*
X004662Y007800D01*
X004662Y007958D02*
X004685Y007958D01*
X004662Y007324D02*
X005319Y007324D01*
X005510Y007166D02*
X004662Y007166D01*
X004662Y007007D02*
X005667Y007007D01*
X005993Y006849D02*
X004662Y006849D01*
X004662Y006690D02*
X006049Y006690D01*
X006180Y006532D02*
X004662Y006532D01*
X004662Y006373D02*
X006338Y006373D01*
X006297Y006215D02*
X006497Y006215D01*
X007271Y006849D02*
X008836Y006849D01*
X008836Y007007D02*
X007112Y007007D01*
X006988Y007166D02*
X008410Y007166D01*
X008298Y007324D02*
X006988Y007324D01*
X006988Y007483D02*
X008279Y007483D01*
X008343Y007641D02*
X006929Y007641D01*
X006794Y007800D02*
X008427Y007800D01*
X008427Y007958D02*
X006611Y007958D01*
X006848Y008117D02*
X008427Y008117D01*
X007978Y008275D02*
X006932Y008275D01*
X006954Y008434D02*
X007390Y008434D01*
X007381Y008592D02*
X006924Y008592D01*
X007699Y008592D02*
X007699Y008592D01*
X007699Y008434D02*
X007699Y008434D01*
X007699Y008751D02*
X007699Y008751D01*
X007699Y008909D02*
X007699Y008909D01*
X006479Y010019D02*
X006462Y010019D01*
X006462Y010177D02*
X006479Y010177D01*
X006462Y010336D02*
X006479Y010336D01*
X006462Y010494D02*
X006479Y010494D01*
X006462Y010653D02*
X006479Y010653D01*
X006462Y010811D02*
X006479Y010811D01*
X006691Y010811D02*
X008856Y010811D01*
X009549Y011604D02*
X009859Y011604D01*
X009859Y011762D02*
X009390Y011762D01*
X009232Y011921D02*
X009966Y011921D01*
X010151Y012009D02*
X010508Y012009D01*
X010508Y012009D01*
X010865Y012009D01*
X010865Y011942D01*
X010876Y011942D01*
X011050Y011942D01*
X011050Y011992D01*
X011041Y011992D01*
X011001Y012009D01*
X010865Y012009D01*
X010865Y012009D01*
X010508Y012009D01*
X010508Y012009D01*
X010151Y012009D01*
X010151Y012009D01*
X009859Y011445D02*
X009707Y011445D01*
X009521Y012079D02*
X009074Y012079D01*
X008916Y012238D02*
X009359Y012238D01*
X009197Y012396D02*
X008757Y012396D01*
X008599Y012555D02*
X009035Y012555D01*
X008873Y012713D02*
X008441Y012713D01*
X008282Y012872D02*
X008711Y012872D01*
X008549Y013030D02*
X008124Y013030D01*
X007966Y013189D02*
X008506Y013189D01*
X008506Y013347D02*
X007808Y013347D01*
X007649Y013506D02*
X008519Y013506D01*
X008637Y013664D02*
X007491Y013664D01*
X007333Y013823D02*
X008471Y013823D01*
X008437Y013981D02*
X007175Y013981D01*
X007016Y014140D02*
X007648Y014140D01*
X007506Y014198D02*
X007818Y014069D01*
X008155Y014069D01*
X008467Y014198D01*
X008705Y014437D01*
X008834Y014748D01*
X008834Y015086D01*
X008705Y015397D01*
X008467Y015636D01*
X008155Y015765D01*
X007818Y015765D01*
X007506Y015636D01*
X007268Y015397D01*
X007139Y015086D01*
X007139Y014748D01*
X007268Y014437D01*
X007506Y014198D01*
X007407Y014298D02*
X006858Y014298D01*
X006709Y014447D02*
X006709Y014447D01*
X006700Y014457D02*
X007260Y014457D01*
X007194Y014615D02*
X006483Y014615D01*
X006332Y014774D02*
X007139Y014774D01*
X007139Y014932D02*
X006294Y014932D01*
X006391Y015091D02*
X007141Y015091D01*
X007207Y015249D02*
X006429Y015249D01*
X006429Y015315D02*
X006429Y015339D01*
X006416Y015424D01*
X006389Y015506D01*
X006350Y015584D01*
X006299Y015654D01*
X006238Y015715D01*
X006168Y015766D01*
X006090Y015805D01*
X006008Y015832D01*
X005923Y015845D01*
X005899Y015845D01*
X005899Y015315D01*
X006429Y015315D01*
X006418Y015408D02*
X007278Y015408D01*
X007437Y015566D02*
X006359Y015566D01*
X006224Y015725D02*
X007721Y015725D01*
X008252Y015725D02*
X010288Y015725D01*
X010123Y015566D02*
X008536Y015566D01*
X008695Y015408D02*
X009959Y015408D01*
X009794Y015249D02*
X008767Y015249D01*
X008832Y015091D02*
X009629Y015091D01*
X009464Y014932D02*
X008834Y014932D01*
X008834Y014774D02*
X009300Y014774D01*
X009135Y014615D02*
X008779Y014615D01*
X008713Y014457D02*
X009076Y014457D01*
X009076Y014298D02*
X008867Y014298D01*
X008681Y014298D02*
X008567Y014298D01*
X008479Y014140D02*
X008325Y014140D01*
X009069Y014140D02*
X009076Y014140D01*
X009825Y014536D02*
X010518Y015203D01*
X010518Y014997D01*
X010361Y014997D01*
X010234Y014869D01*
X010234Y014664D01*
X010104Y014534D01*
X009899Y014534D01*
X009870Y014506D01*
X009859Y014506D01*
X009831Y014533D01*
X009825Y014536D01*
X009907Y014615D02*
X010184Y014615D01*
X010234Y014774D02*
X010072Y014774D01*
X010237Y014932D02*
X010296Y014932D01*
X010401Y015091D02*
X010518Y015091D01*
X011339Y014582D02*
X011557Y014582D01*
X011339Y014582D01*
X011339Y014582D01*
X011557Y014582D02*
X011557Y014750D01*
X011850Y014750D01*
X011853Y014740D01*
X011876Y014699D01*
X011910Y014665D01*
X011951Y014642D01*
X011997Y014629D01*
X012199Y014629D01*
X012199Y015007D01*
X012236Y015007D01*
X012236Y014629D01*
X012331Y014629D01*
X012331Y014004D01*
X012351Y013985D01*
X012351Y013728D01*
X012318Y013728D01*
X012266Y013728D01*
X012265Y013728D01*
X012264Y013728D01*
X012216Y013708D01*
X012168Y013689D01*
X012167Y013688D01*
X012166Y013687D01*
X012129Y013650D01*
X012019Y013543D01*
X012019Y013573D01*
X012013Y013598D01*
X012019Y013624D01*
X012019Y013726D01*
X012019Y013828D01*
X012013Y013854D01*
X012019Y013879D01*
X012019Y013982D01*
X012019Y014084D01*
X012013Y014110D01*
X012019Y014135D01*
X012019Y014238D01*
X012019Y014340D01*
X012007Y014386D01*
X011983Y014427D01*
X011950Y014461D01*
X011909Y014484D01*
X011863Y014497D01*
X011643Y014497D01*
X011643Y014238D01*
X011643Y014238D01*
X011643Y013982D01*
X011643Y013982D01*
X011643Y013979D01*
X011643Y013726D01*
X011643Y013723D01*
X011643Y013470D01*
X011643Y013211D01*
X011682Y013211D01*
X011557Y013088D01*
X011557Y013126D01*
X011557Y013211D01*
X011643Y013211D01*
X011643Y013470D01*
X011643Y013470D01*
X011643Y013470D01*
X011643Y013726D01*
X011643Y013726D01*
X011643Y013726D01*
X011643Y013982D01*
X011643Y013982D01*
X011643Y014238D01*
X011643Y014238D01*
X011643Y014497D01*
X011557Y014497D01*
X011557Y014582D01*
X011557Y014615D02*
X012331Y014615D01*
X012331Y014457D02*
X011954Y014457D01*
X012019Y014298D02*
X012331Y014298D01*
X012331Y014140D02*
X012019Y014140D01*
X012019Y014238D02*
X011874Y014238D01*
X011874Y014238D01*
X012019Y014238D01*
X012019Y013982D02*
X011874Y013982D01*
X011874Y013982D01*
X011874Y013982D01*
X012019Y013982D01*
X012019Y013981D02*
X012351Y013981D01*
X012351Y013823D02*
X012019Y013823D01*
X012019Y013726D02*
X011874Y013726D01*
X011874Y013726D01*
X012019Y013726D01*
X012019Y013664D02*
X012142Y013664D01*
X011874Y013726D02*
X011874Y013726D01*
X011643Y013664D02*
X011643Y013664D01*
X011643Y013506D02*
X011643Y013506D01*
X011643Y013347D02*
X011643Y013347D01*
X011659Y013189D02*
X011557Y013189D01*
X011557Y013126D02*
X011339Y013126D01*
X011339Y013126D01*
X011557Y013126D01*
X011174Y012711D02*
X010903Y012711D01*
X010903Y012510D01*
X010969Y012510D01*
X011174Y012711D01*
X011015Y012555D02*
X010903Y012555D01*
X011643Y013823D02*
X011643Y013823D01*
X011643Y013981D02*
X011643Y013981D01*
X011643Y014140D02*
X011643Y014140D01*
X011643Y014298D02*
X011643Y014298D01*
X011643Y014457D02*
X011643Y014457D01*
X012199Y014774D02*
X012236Y014774D01*
X012236Y014932D02*
X012199Y014932D01*
X013960Y013189D02*
X014287Y013189D01*
X014287Y013194D02*
X014287Y013068D01*
X014861Y013068D01*
X014861Y013068D01*
X014287Y013068D01*
X014287Y012942D01*
X013761Y012942D01*
X013679Y012908D01*
X013965Y013194D01*
X014287Y013194D01*
X014287Y013030D02*
X013801Y013030D01*
X013609Y010916D02*
X013609Y009755D01*
X013528Y009675D01*
X013477Y009551D01*
X013477Y009417D01*
X013528Y009293D01*
X013623Y009198D01*
X013746Y009147D01*
X013880Y009147D01*
X014004Y009198D01*
X014099Y009293D01*
X014150Y009417D01*
X014150Y009551D01*
X014144Y009565D01*
X014144Y009640D01*
X014551Y009233D01*
X014650Y009192D01*
X014756Y009192D01*
X015135Y009192D01*
X015135Y007956D01*
X014906Y007956D01*
X014905Y007957D01*
X014852Y007956D01*
X014821Y007956D01*
X014463Y007957D01*
X014445Y007975D01*
X014322Y008026D01*
X014188Y008026D01*
X014064Y007975D01*
X013969Y007880D01*
X013918Y007756D01*
X013918Y007711D01*
X012979Y008650D01*
X012979Y010141D01*
X012997Y010159D01*
X013048Y010283D01*
X013048Y010417D01*
X012997Y010541D01*
X012902Y010636D01*
X012778Y010687D01*
X012644Y010687D01*
X012520Y010636D01*
X012514Y010630D01*
X012508Y010636D01*
X012384Y010687D01*
X012250Y010687D01*
X012127Y010636D01*
X012032Y010541D01*
X012030Y010536D01*
X011951Y010569D01*
X011817Y010569D01*
X011693Y010517D01*
X011599Y010423D01*
X011547Y010299D01*
X011547Y010165D01*
X011599Y010041D01*
X011616Y010023D01*
X011616Y010012D01*
X011599Y010029D01*
X011524Y010105D01*
X011426Y010145D01*
X010459Y010145D01*
X010427Y010177D01*
X011547Y010177D01*
X011563Y010336D02*
X011085Y010336D01*
X011004Y010263D02*
X011265Y010498D01*
X011272Y010501D01*
X011305Y010534D01*
X011339Y010565D01*
X011342Y010571D01*
X011347Y010576D01*
X011365Y010619D01*
X011385Y010661D01*
X011385Y010668D01*
X011388Y010675D01*
X011388Y010721D01*
X011391Y010767D01*
X011388Y010774D01*
X011388Y010916D01*
X013609Y010916D01*
X013609Y010811D02*
X011388Y010811D01*
X011381Y010653D02*
X012167Y010653D01*
X012467Y010653D02*
X012561Y010653D01*
X012861Y010653D02*
X013609Y010653D01*
X013609Y010494D02*
X013016Y010494D01*
X013048Y010336D02*
X013609Y010336D01*
X013609Y010177D02*
X013004Y010177D01*
X012979Y010019D02*
X013609Y010019D01*
X013609Y009860D02*
X012979Y009860D01*
X012979Y009702D02*
X013555Y009702D01*
X013477Y009543D02*
X012979Y009543D01*
X012979Y009385D02*
X013490Y009385D01*
X013595Y009226D02*
X012979Y009226D01*
X012979Y009068D02*
X015135Y009068D01*
X015135Y008909D02*
X012979Y008909D01*
X012979Y008751D02*
X015135Y008751D01*
X015135Y008592D02*
X013037Y008592D01*
X013195Y008434D02*
X015135Y008434D01*
X015135Y008275D02*
X013354Y008275D01*
X013512Y008117D02*
X015135Y008117D01*
X015135Y007958D02*
X014462Y007958D01*
X014047Y007958D02*
X013671Y007958D01*
X013829Y007800D02*
X013936Y007800D01*
X012998Y007007D02*
X012208Y007007D01*
X012298Y007166D02*
X012840Y007166D01*
X012681Y007324D02*
X012294Y007324D01*
X012231Y007483D02*
X012523Y007483D01*
X012364Y007641D02*
X012217Y007641D01*
X012206Y007800D02*
X012097Y007800D01*
X012047Y007958D02*
X011938Y007958D01*
X011889Y008117D02*
X011861Y008117D01*
X011498Y007641D02*
X011354Y007641D01*
X011266Y007483D02*
X011656Y007483D01*
X011632Y007324D02*
X009862Y007324D01*
X009862Y007166D02*
X011628Y007166D01*
X011718Y007007D02*
X009862Y007007D01*
X009862Y006849D02*
X013157Y006849D01*
X013315Y006690D02*
X009862Y006690D01*
X009862Y006532D02*
X013412Y006532D01*
X013412Y006373D02*
X009862Y006373D01*
X009862Y006215D02*
X013412Y006215D01*
X013412Y006056D02*
X009862Y006056D01*
X009862Y005898D02*
X013412Y005898D01*
X013412Y005739D02*
X009833Y005739D01*
X009925Y005581D02*
X007520Y005581D01*
X007520Y005739D02*
X008864Y005739D01*
X008836Y005898D02*
X007520Y005898D01*
X007520Y006056D02*
X008836Y006056D01*
X008836Y006215D02*
X007520Y006215D01*
X007520Y006373D02*
X008836Y006373D01*
X008836Y006532D02*
X007504Y006532D01*
X007429Y006690D02*
X008836Y006690D01*
X008823Y007166D02*
X008836Y007166D01*
X009862Y007483D02*
X010770Y007483D01*
X010682Y007641D02*
X009862Y007641D01*
X009862Y007800D02*
X010689Y007800D01*
X010590Y007958D02*
X009862Y007958D01*
X009862Y008117D02*
X010432Y008117D01*
X010273Y008275D02*
X009862Y008275D01*
X009857Y008434D02*
X010038Y008434D01*
X009824Y008476D02*
X009814Y008476D01*
X009814Y008476D01*
X009814Y008476D01*
X009824Y008476D01*
X009862Y008592D02*
X009885Y008592D01*
X010427Y010177D02*
X010439Y010189D01*
X010812Y010189D01*
X010859Y010187D01*
X010865Y010189D01*
X010873Y010189D01*
X010915Y010207D01*
X010959Y010222D01*
X010964Y010227D01*
X010971Y010230D01*
X011004Y010263D01*
X011261Y010494D02*
X011670Y010494D01*
X011610Y010019D02*
X011616Y010019D01*
X014032Y009226D02*
X014569Y009226D01*
X014400Y009385D02*
X014137Y009385D01*
X014150Y009543D02*
X014242Y009543D01*
X015122Y007324D02*
X015135Y007324D01*
X015122Y007166D02*
X015135Y007166D01*
X015123Y007007D02*
X015135Y007007D01*
X015123Y006849D02*
X015135Y006849D01*
X015124Y006690D02*
X015135Y006690D01*
X015124Y006532D02*
X015135Y006532D01*
X015125Y006373D02*
X015135Y006373D01*
X015125Y006215D02*
X015135Y006215D01*
X015126Y006056D02*
X015135Y006056D01*
X015126Y005898D02*
X015135Y005898D01*
X015127Y005739D02*
X015164Y005739D01*
X015127Y005581D02*
X019244Y005581D01*
X019244Y005739D02*
X016518Y005739D01*
X016624Y005898D02*
X019247Y005898D01*
X019038Y006056D02*
X016638Y006056D01*
X016562Y006215D02*
X018022Y006215D01*
X017906Y006373D02*
X016583Y006373D01*
X016725Y007324D02*
X018969Y007324D01*
X018969Y007166D02*
X018657Y007166D01*
X018751Y007007D02*
X018969Y007007D01*
X018950Y006849D02*
X018754Y006849D01*
X018663Y006690D02*
X018950Y006690D01*
X018950Y006532D02*
X018561Y006532D01*
X018539Y006373D02*
X018950Y006373D01*
X018950Y006215D02*
X018423Y006215D01*
X018409Y005213D02*
X018097Y005084D01*
X017859Y004846D01*
X017729Y004534D01*
X017729Y004197D01*
X017859Y003886D01*
X018097Y003647D01*
X018409Y003518D01*
X018746Y003518D01*
X019057Y003647D01*
X019296Y003886D01*
X019425Y004197D01*
X019425Y004534D01*
X019296Y004846D01*
X019057Y005084D01*
X018746Y005213D01*
X018409Y005213D01*
X018147Y005105D02*
X015741Y005105D01*
X015762Y004947D02*
X017959Y004947D01*
X017835Y004788D02*
X015762Y004788D01*
X015762Y004630D02*
X017769Y004630D01*
X017729Y004471D02*
X015724Y004471D01*
X015724Y004313D02*
X017729Y004313D01*
X017747Y004154D02*
X015716Y004154D01*
X015367Y004154D02*
X015367Y004154D01*
X015367Y004313D02*
X015367Y004313D01*
X015010Y004313D02*
X014961Y004313D01*
X014961Y004154D02*
X015018Y004154D01*
X015010Y004471D02*
X014912Y004471D01*
X015137Y005264D02*
X019206Y005264D01*
X019206Y005422D02*
X015137Y005422D01*
X014040Y004616D02*
X013989Y004565D01*
X013903Y004565D01*
X013776Y004438D01*
X013776Y003998D01*
X013739Y003998D01*
X013630Y003953D01*
X013546Y003869D01*
X013501Y003760D01*
X013501Y003038D01*
X013397Y003141D01*
X013102Y003141D01*
X013091Y003145D01*
X012615Y003145D01*
X012615Y003177D01*
X012487Y003304D01*
X010657Y003304D01*
X010538Y003186D01*
X010538Y003586D01*
X010923Y003971D01*
X011148Y003971D01*
X011207Y004031D01*
X011224Y004021D01*
X011270Y004009D01*
X011431Y004009D01*
X011431Y004366D01*
X011432Y004366D01*
X011749Y004366D01*
X011749Y004567D01*
X011737Y004612D01*
X011735Y004616D01*
X014040Y004616D01*
X013809Y004471D02*
X011749Y004471D01*
X011749Y004366D02*
X011432Y004366D01*
X011432Y004366D01*
X011432Y004009D01*
X011593Y004009D01*
X011639Y004021D01*
X011680Y004045D01*
X011713Y004078D01*
X011737Y004119D01*
X011749Y004165D01*
X011749Y004366D01*
X011749Y004313D02*
X013776Y004313D01*
X013776Y004154D02*
X011746Y004154D01*
X011432Y004154D02*
X011431Y004154D01*
X011431Y004313D02*
X011432Y004313D01*
X011172Y003996D02*
X013733Y003996D01*
X013533Y003837D02*
X010789Y003837D01*
X010631Y003679D02*
X013501Y003679D01*
X013501Y003520D02*
X010538Y003520D01*
X010538Y003362D02*
X013501Y003362D01*
X013501Y003203D02*
X012589Y003203D01*
X013494Y003045D02*
X013501Y003045D01*
X013798Y003227D02*
X013798Y003700D01*
X016161Y003700D01*
X016161Y003246D01*
X016147Y003254D01*
X016101Y003266D01*
X015074Y003266D01*
X015074Y001887D01*
X014914Y001887D01*
X014914Y003266D01*
X013888Y003266D01*
X013842Y003254D01*
X013801Y003230D01*
X013798Y003227D01*
X013798Y003362D02*
X016161Y003362D01*
X016161Y003520D02*
X013798Y003520D01*
X013798Y003679D02*
X016161Y003679D01*
X016458Y003679D02*
X018066Y003679D01*
X017907Y003837D02*
X016426Y003837D01*
X016226Y003996D02*
X017813Y003996D01*
X018404Y003520D02*
X016994Y003520D01*
X016853Y003520D02*
X016458Y003520D01*
X016458Y003362D02*
X016632Y003362D01*
X016587Y003203D02*
X016458Y003203D01*
X016458Y003045D02*
X016617Y003045D01*
X016656Y002886D02*
X016458Y002886D01*
X016458Y002728D02*
X016656Y002728D01*
X016656Y002569D02*
X016458Y002569D01*
X016458Y002411D02*
X016656Y002411D01*
X016656Y002252D02*
X016458Y002252D01*
X016458Y002094D02*
X016656Y002094D01*
X016656Y001935D02*
X016458Y001935D01*
X016458Y001777D02*
X016656Y001777D01*
X016656Y001618D02*
X016458Y001618D01*
X016458Y001460D02*
X016680Y001460D01*
X016814Y001301D02*
X016458Y001301D01*
X016458Y001143D02*
X016973Y001143D01*
X017099Y000984D02*
X016458Y000984D01*
X016458Y000826D02*
X017099Y000826D01*
X017127Y000667D02*
X016458Y000667D01*
X015074Y001935D02*
X014914Y001935D01*
X014914Y002094D02*
X015074Y002094D01*
X015074Y002252D02*
X014914Y002252D01*
X014914Y002411D02*
X015074Y002411D01*
X015074Y002569D02*
X014914Y002569D01*
X014914Y002728D02*
X015074Y002728D01*
X015074Y002886D02*
X014914Y002886D01*
X014914Y003045D02*
X015074Y003045D01*
X015074Y003203D02*
X014914Y003203D01*
X013501Y002258D02*
X013501Y000568D01*
X007334Y000568D01*
X007439Y000674D01*
X007439Y001571D01*
X007504Y001506D01*
X007504Y001278D01*
X007491Y001248D01*
X007491Y001244D01*
X007489Y001240D01*
X007489Y001145D01*
X007487Y001050D01*
X007489Y001046D01*
X007489Y001042D01*
X007504Y001004D01*
X007504Y000861D01*
X007632Y000734D01*
X007686Y000734D01*
X007696Y000723D01*
X007700Y000721D01*
X007703Y000718D01*
X007791Y000681D01*
X007878Y000643D01*
X007882Y000643D01*
X007886Y000642D01*
X007981Y000641D01*
X008076Y000640D01*
X008080Y000641D01*
X008477Y000640D01*
X008478Y000640D01*
X008576Y000640D01*
X008675Y000639D01*
X008675Y000640D01*
X008676Y000640D01*
X008767Y000677D01*
X008858Y000715D01*
X008859Y000715D01*
X008878Y000734D01*
X008992Y000734D01*
X009120Y000861D01*
X009120Y000988D01*
X009457Y000988D01*
X009556Y001028D01*
X009631Y001104D01*
X010497Y001970D01*
X010529Y002047D01*
X010529Y001096D01*
X010657Y000969D01*
X012487Y000969D01*
X012615Y001096D01*
X012615Y001100D01*
X012653Y001090D01*
X012934Y001090D01*
X012934Y001487D01*
X013050Y001487D01*
X013050Y001090D01*
X013331Y001090D01*
X013377Y001102D01*
X013418Y001126D01*
X013451Y001159D01*
X013475Y001200D01*
X013487Y001246D01*
X013487Y001487D01*
X013050Y001487D01*
X013050Y001603D01*
X013487Y001603D01*
X013487Y001845D01*
X013475Y001890D01*
X013451Y001931D01*
X013418Y001965D01*
X013377Y001989D01*
X013331Y002001D01*
X013050Y002001D01*
X013050Y001603D01*
X012934Y001603D01*
X012934Y002001D01*
X012653Y002001D01*
X012615Y001990D01*
X012615Y002129D01*
X012665Y002150D01*
X013091Y002150D01*
X013102Y002154D01*
X013397Y002154D01*
X013501Y002258D01*
X013501Y002252D02*
X013495Y002252D01*
X013501Y002094D02*
X012615Y002094D01*
X012934Y001935D02*
X013050Y001935D01*
X013050Y001777D02*
X012934Y001777D01*
X012934Y001618D02*
X013050Y001618D01*
X013050Y001460D02*
X012934Y001460D01*
X012934Y001301D02*
X013050Y001301D01*
X013050Y001143D02*
X012934Y001143D01*
X012502Y000984D02*
X013501Y000984D01*
X013501Y000826D02*
X009084Y000826D01*
X009120Y000984D02*
X010642Y000984D01*
X010529Y001143D02*
X009670Y001143D01*
X009828Y001301D02*
X010529Y001301D01*
X010529Y001460D02*
X009987Y001460D01*
X010145Y001618D02*
X010529Y001618D01*
X010529Y001777D02*
X010304Y001777D01*
X010462Y001935D02*
X010529Y001935D01*
X010002Y002252D02*
X008167Y002252D01*
X008325Y002094D02*
X009863Y002094D01*
X009705Y001935D02*
X008484Y001935D01*
X008008Y002411D02*
X010002Y002411D01*
X010002Y002569D02*
X009014Y002569D01*
X009082Y002728D02*
X010002Y002728D01*
X010002Y002886D02*
X009082Y002886D01*
X009082Y003104D02*
X009082Y003365D01*
X009070Y003411D01*
X009046Y003452D01*
X009012Y003486D01*
X008971Y003509D01*
X008926Y003522D01*
X008389Y003522D01*
X008389Y003104D01*
X009082Y003104D01*
X009082Y003203D02*
X010002Y003203D01*
X010002Y003045D02*
X008389Y003045D01*
X008234Y003045D02*
X007439Y003045D01*
X007439Y003203D02*
X007542Y003203D01*
X007542Y003362D02*
X007439Y003362D01*
X007318Y003520D02*
X007692Y003520D01*
X007475Y003679D02*
X007167Y003679D01*
X007317Y003837D02*
X007012Y003837D01*
X006923Y003996D02*
X007222Y003996D01*
X007157Y004154D02*
X007081Y004154D01*
X007520Y005105D02*
X007556Y005105D01*
X007520Y005264D02*
X009859Y005264D01*
X009859Y005422D02*
X007520Y005422D01*
X008417Y005105D02*
X009859Y005105D01*
X009859Y004947D02*
X008605Y004947D01*
X008729Y004788D02*
X009859Y004788D01*
X009974Y004630D02*
X008795Y004630D01*
X008834Y004471D02*
X010564Y004471D01*
X010507Y004313D02*
X008834Y004313D01*
X008816Y004154D02*
X010349Y004154D01*
X010190Y003996D02*
X008751Y003996D01*
X008657Y003837D02*
X010038Y003837D01*
X010002Y003679D02*
X008498Y003679D01*
X008389Y003520D02*
X008234Y003520D01*
X008234Y003362D02*
X008389Y003362D01*
X008389Y003203D02*
X008234Y003203D01*
X008234Y002886D02*
X008389Y002886D01*
X008389Y002728D02*
X008234Y002728D01*
X008234Y002569D02*
X008389Y002569D01*
X009015Y001777D02*
X009546Y001777D01*
X009388Y001618D02*
X009120Y001618D01*
X008858Y000715D02*
X008858Y000715D01*
X008742Y000667D02*
X013501Y000667D01*
X013501Y001143D02*
X013434Y001143D01*
X013487Y001301D02*
X013501Y001301D01*
X013487Y001460D02*
X013501Y001460D01*
X013487Y001618D02*
X013501Y001618D01*
X013487Y001777D02*
X013501Y001777D01*
X013501Y001935D02*
X013448Y001935D01*
X010555Y003203D02*
X010538Y003203D01*
X010002Y003362D02*
X009082Y003362D01*
X008932Y003520D02*
X010002Y003520D01*
X011120Y005595D02*
X011120Y005595D01*
X011120Y005605D01*
X011120Y005595D01*
X011120Y005595D01*
X007542Y002886D02*
X007533Y002886D01*
X007504Y001460D02*
X007439Y001460D01*
X007439Y001301D02*
X007504Y001301D01*
X007489Y001143D02*
X007439Y001143D01*
X007439Y000984D02*
X007504Y000984D01*
X007540Y000826D02*
X007439Y000826D01*
X007433Y000667D02*
X007824Y000667D01*
X003414Y003203D02*
X001977Y003203D01*
X002136Y003045D02*
X003255Y003045D01*
X003130Y002886D02*
X002294Y002886D01*
X003954Y005739D02*
X004365Y005739D01*
X003954Y005739D01*
X003954Y005898D02*
X004365Y005898D01*
X003954Y005898D01*
X003954Y006056D02*
X004365Y006056D01*
X003954Y006056D01*
X003954Y006215D02*
X004365Y006215D01*
X003954Y006215D01*
X003954Y006373D02*
X004365Y006373D01*
X003954Y006373D01*
X003954Y006532D02*
X004365Y006532D01*
X003954Y006532D01*
X003954Y006690D02*
X004365Y006690D01*
X003954Y006690D01*
X004662Y006215D02*
X005661Y006215D01*
X005407Y006056D02*
X004662Y006056D01*
X004662Y005898D02*
X005255Y005898D01*
X005190Y005739D02*
X004662Y005739D01*
X004662Y005581D02*
X005131Y005581D01*
X005131Y005422D02*
X004582Y005422D01*
X002401Y008751D02*
X002177Y008751D01*
X001707Y008751D02*
X001667Y008751D01*
X001667Y008909D02*
X001707Y008909D01*
X001707Y009068D02*
X001667Y009068D01*
X001667Y009213D02*
X001667Y009673D01*
X001350Y009673D01*
X001275Y009661D01*
X001203Y009637D01*
X001136Y009603D01*
X001118Y009590D01*
X001118Y009744D01*
X001284Y009675D01*
X002090Y009675D01*
X002139Y009695D01*
X002535Y009695D01*
X002541Y009693D01*
X002393Y009631D01*
X002310Y009548D01*
X002300Y009559D01*
X002239Y009603D01*
X002172Y009637D01*
X002100Y009661D01*
X002025Y009673D01*
X001707Y009673D01*
X001707Y009213D01*
X001667Y009213D01*
X001667Y009226D02*
X001707Y009226D01*
X001707Y009385D02*
X001667Y009385D01*
X001667Y009543D02*
X001707Y009543D01*
X001220Y009702D02*
X001118Y009702D01*
X001118Y008751D02*
X001198Y008751D01*
X001130Y008275D02*
X001118Y008275D01*
X004987Y009068D02*
X005611Y009068D01*
X005497Y009226D02*
X004987Y009226D01*
X004987Y009385D02*
X005455Y009385D01*
X005465Y009543D02*
X004987Y009543D01*
X004987Y009702D02*
X005533Y009702D01*
X005730Y009860D02*
X004987Y009860D01*
X004987Y010019D02*
X005751Y010019D01*
X005567Y010177D02*
X004987Y010177D01*
X004987Y010336D02*
X005502Y010336D01*
X005499Y010494D02*
X004987Y010494D01*
X004987Y010653D02*
X005556Y010653D01*
X005718Y010811D02*
X004987Y010811D01*
X006462Y011128D02*
X006479Y011128D01*
X006462Y011287D02*
X006479Y011287D01*
X006462Y011445D02*
X006479Y011445D01*
X006462Y011604D02*
X006479Y011604D01*
X006462Y011762D02*
X006479Y011762D01*
X006287Y012872D02*
X007212Y012872D01*
X005899Y015408D02*
X005859Y015408D01*
X005859Y015566D02*
X005899Y015566D01*
X005899Y015725D02*
X005859Y015725D01*
X001822Y018895D02*
X001118Y018895D01*
X001118Y019053D02*
X001713Y019053D01*
X001713Y019212D02*
X001118Y019212D01*
X001118Y019370D02*
X001713Y019370D01*
X005998Y024918D02*
X006158Y024918D01*
X006158Y025076D02*
X005998Y025076D01*
X005998Y025235D02*
X006158Y025235D01*
X006158Y025393D02*
X005998Y025393D01*
X005998Y025552D02*
X006158Y025552D01*
X006158Y025710D02*
X005998Y025710D01*
X005998Y025869D02*
X006158Y025869D01*
X006158Y026027D02*
X005998Y026027D01*
X005998Y026186D02*
X006158Y026186D01*
X008852Y026027D02*
X009012Y026027D01*
X009012Y025869D02*
X008852Y025869D01*
X008852Y025710D02*
X009012Y025710D01*
X009012Y025552D02*
X008852Y025552D01*
X008852Y025393D02*
X009012Y025393D01*
X009012Y025235D02*
X008852Y025235D01*
X008852Y025076D02*
X009012Y025076D01*
X009012Y024918D02*
X008852Y024918D01*
X012546Y018102D02*
X012730Y018102D01*
X012888Y017944D02*
X011479Y017944D01*
X011479Y017785D02*
X013047Y017785D01*
X013173Y017627D02*
X011479Y017627D01*
X015428Y017358D02*
X016448Y016337D01*
X017711Y016337D01*
X019445Y020638D02*
X019659Y020638D01*
X019659Y020797D02*
X019487Y020797D01*
X018674Y022223D02*
X018442Y022223D01*
X016213Y023174D02*
X016210Y023174D01*
X015563Y027454D02*
X014978Y027454D01*
X014940Y027612D02*
X015566Y027612D01*
X020497Y025235D02*
X021468Y025235D01*
X021508Y025076D02*
X020547Y025076D01*
X022766Y013823D02*
X024648Y013823D01*
X024648Y013664D02*
X023850Y013664D01*
X023914Y013506D02*
X024672Y013506D01*
X024808Y013347D02*
X023895Y013347D01*
X023782Y013189D02*
X024966Y013189D01*
X025125Y013030D02*
X023526Y013030D01*
X023597Y012555D02*
X023781Y012555D01*
X024142Y012555D02*
X024182Y012555D01*
X024182Y012708D02*
X024182Y012178D01*
X025142Y012178D01*
X025142Y012708D01*
X024934Y012708D01*
X024662Y012436D01*
X024390Y012708D01*
X024182Y012708D01*
X024182Y012396D02*
X024142Y012396D01*
X024142Y012238D02*
X024182Y012238D01*
X024543Y012555D02*
X024781Y012555D01*
X025142Y012555D02*
X025182Y012555D01*
X025182Y012708D02*
X025182Y012178D01*
X026142Y012178D01*
X026142Y012708D01*
X025934Y012708D01*
X025662Y012436D01*
X025390Y012708D01*
X025182Y012708D01*
X025182Y012396D02*
X025142Y012396D01*
X025142Y012238D02*
X025182Y012238D01*
X025543Y012555D02*
X025781Y012555D01*
X026142Y012555D02*
X026182Y012555D01*
X026182Y012396D02*
X026142Y012396D01*
X026142Y012238D02*
X026182Y012238D01*
X026662Y010827D02*
X026803Y010686D01*
X026696Y010686D01*
X026568Y010558D01*
X026568Y009590D01*
X026696Y009463D01*
X027719Y009463D01*
X027719Y007143D01*
X026696Y007143D01*
X026568Y007015D01*
X026568Y006047D01*
X026639Y005976D01*
X026210Y005351D01*
X025957Y005351D01*
X025686Y005279D01*
X025443Y005139D01*
X025245Y004940D01*
X025105Y004698D01*
X025033Y004427D01*
X025033Y004147D01*
X025105Y003876D01*
X025245Y003634D01*
X025443Y003435D01*
X025686Y003295D01*
X025957Y003223D01*
X026237Y003223D01*
X026508Y003295D01*
X026750Y003435D01*
X026948Y003634D01*
X026972Y003674D01*
X027455Y003674D01*
X027565Y003720D01*
X027649Y003803D01*
X027694Y003913D01*
X027694Y004004D01*
X027805Y004004D01*
X027851Y004016D01*
X027892Y004040D01*
X027925Y004073D01*
X027949Y004114D01*
X027961Y004160D01*
X027961Y004434D01*
X027961Y004707D01*
X027950Y004749D01*
X027961Y004790D01*
X027961Y005064D01*
X027961Y005337D01*
X027949Y005383D01*
X027940Y005398D01*
X027949Y005414D01*
X027961Y005459D01*
X027961Y005733D01*
X027961Y006007D01*
X027958Y006018D01*
X027971Y006031D01*
X027993Y006009D01*
X028116Y005958D01*
X028241Y005958D01*
X028241Y004062D01*
X024747Y000568D01*
X023442Y000568D01*
X023442Y003756D01*
X023397Y003865D01*
X023313Y003949D01*
X023203Y003994D01*
X022141Y003994D01*
X022141Y004338D01*
X022114Y004366D01*
X022141Y004394D01*
X022141Y005007D01*
X022102Y005047D01*
X022102Y005381D01*
X022054Y005429D01*
X022102Y005476D01*
X022102Y005972D01*
X022020Y006054D01*
X022052Y006054D01*
X022111Y006054D01*
X022149Y006016D01*
X022722Y006016D01*
X022850Y006144D01*
X022850Y006874D01*
X022722Y007002D01*
X022149Y007002D01*
X022111Y006964D01*
X022052Y006964D01*
X022052Y006905D01*
X022052Y006905D01*
X022052Y006964D01*
X021959Y006964D01*
X021924Y006954D01*
X021888Y006964D01*
X021796Y006964D01*
X021796Y006905D01*
X021796Y006964D01*
X021736Y006964D01*
X021698Y007002D01*
X020869Y007002D01*
X020831Y006964D01*
X020784Y006964D01*
X020784Y007139D01*
X021011Y007366D01*
X021674Y007366D01*
X021693Y007347D01*
X021817Y007296D01*
X021951Y007296D01*
X022076Y007347D01*
X022094Y007366D01*
X024438Y007366D01*
X024446Y007363D01*
X024491Y007366D01*
X024521Y007366D01*
X024530Y007357D01*
X025613Y007357D01*
X025613Y007340D01*
X025687Y007163D01*
X025823Y007027D01*
X026001Y006953D01*
X026193Y006953D01*
X026371Y007027D01*
X026507Y007163D01*
X026580Y007340D01*
X026580Y007533D01*
X026507Y007711D01*
X026371Y007847D01*
X026193Y007920D01*
X026001Y007920D01*
X025823Y007847D01*
X025823Y007846D01*
X025823Y008759D01*
X026001Y008685D01*
X026193Y008685D01*
X026371Y008759D01*
X026507Y008895D01*
X026580Y009073D01*
X026580Y009265D01*
X026507Y009443D01*
X026371Y009579D01*
X026193Y009652D01*
X026001Y009652D01*
X025823Y009579D01*
X025687Y009443D01*
X025613Y009265D01*
X025613Y009211D01*
X025113Y009211D01*
X025113Y008934D01*
X025113Y008934D01*
X025113Y009211D01*
X024597Y009211D01*
X024551Y009199D01*
X024510Y009175D01*
X024476Y009142D01*
X024453Y009101D01*
X024440Y009055D01*
X024440Y008933D01*
X024529Y008933D01*
X024529Y008933D01*
X024440Y008933D01*
X024440Y008844D01*
X024403Y008806D01*
X024403Y008571D01*
X022198Y008571D01*
X022222Y008629D01*
X022222Y008764D01*
X022171Y008888D01*
X022163Y008895D01*
X022210Y008895D01*
X022722Y008895D01*
X022850Y009023D01*
X022850Y009146D01*
X022885Y009161D01*
X023146Y009422D01*
X023172Y009422D01*
X023296Y009473D01*
X023391Y009568D01*
X023443Y009692D01*
X023443Y009827D01*
X023391Y009951D01*
X023296Y010046D01*
X023172Y010097D01*
X023038Y010097D01*
X022931Y010053D01*
X022931Y010142D01*
X022879Y010266D01*
X022784Y010361D01*
X022756Y010373D01*
X022953Y010570D01*
X023406Y010570D01*
X023662Y010827D01*
X023919Y010570D01*
X024406Y010570D01*
X024662Y010827D01*
X024803Y010686D01*
X024530Y010686D01*
X024403Y010558D01*
X024403Y009590D01*
X024530Y009463D01*
X025695Y009463D01*
X025823Y009590D01*
X025823Y010558D01*
X025695Y010686D01*
X025522Y010686D01*
X025662Y010827D01*
X025919Y010570D01*
X026406Y010570D01*
X026662Y010827D01*
X026647Y010811D02*
X026678Y010811D01*
X026662Y010653D02*
X026488Y010653D01*
X026568Y010494D02*
X025823Y010494D01*
X025823Y010336D02*
X026568Y010336D01*
X026568Y010177D02*
X025823Y010177D01*
X025823Y010019D02*
X026568Y010019D01*
X026568Y009860D02*
X025823Y009860D01*
X025823Y009702D02*
X026568Y009702D01*
X026616Y009543D02*
X026407Y009543D01*
X026531Y009385D02*
X027719Y009385D01*
X027719Y009226D02*
X026580Y009226D01*
X026578Y009068D02*
X027719Y009068D01*
X027719Y008909D02*
X026513Y008909D01*
X026350Y008751D02*
X027719Y008751D01*
X027719Y008592D02*
X025823Y008592D01*
X025823Y008434D02*
X027719Y008434D01*
X027719Y008275D02*
X025823Y008275D01*
X025823Y008117D02*
X027719Y008117D01*
X027719Y007958D02*
X025823Y007958D01*
X026418Y007800D02*
X027719Y007800D01*
X027719Y007641D02*
X026536Y007641D01*
X026580Y007483D02*
X027719Y007483D01*
X027719Y007324D02*
X026574Y007324D01*
X026508Y007166D02*
X027719Y007166D01*
X026568Y007007D02*
X026323Y007007D01*
X026568Y006849D02*
X025823Y006849D01*
X025823Y007007D02*
X025870Y007007D01*
X025823Y007015D02*
X025695Y007143D01*
X024530Y007143D01*
X024403Y007015D01*
X024403Y006047D01*
X024530Y005920D01*
X025695Y005920D01*
X025823Y006047D01*
X025823Y007015D01*
X025686Y007166D02*
X020811Y007166D01*
X020784Y007007D02*
X024403Y007007D01*
X024403Y006849D02*
X022850Y006849D01*
X022850Y006690D02*
X024403Y006690D01*
X024403Y006532D02*
X022850Y006532D01*
X022850Y006373D02*
X024403Y006373D01*
X024403Y006215D02*
X023698Y006215D01*
X023549Y006276D02*
X023212Y006276D01*
X022900Y006147D01*
X022662Y005909D01*
X022533Y005597D01*
X022533Y005260D01*
X022662Y004949D01*
X022900Y004710D01*
X023212Y004581D01*
X023549Y004581D01*
X023861Y004710D01*
X024099Y004949D01*
X024228Y005260D01*
X024228Y005597D01*
X024099Y005909D01*
X023861Y006147D01*
X023549Y006276D01*
X023952Y006056D02*
X024403Y006056D01*
X024104Y005898D02*
X026585Y005898D01*
X026568Y006056D02*
X025823Y006056D01*
X025823Y006215D02*
X026568Y006215D01*
X026568Y006373D02*
X025823Y006373D01*
X025823Y006532D02*
X026568Y006532D01*
X026568Y006690D02*
X025823Y006690D01*
X025620Y007324D02*
X022020Y007324D01*
X021749Y007324D02*
X020969Y007324D01*
X020608Y007720D02*
X020289Y007401D01*
X020248Y007303D01*
X020248Y007196D01*
X020248Y007002D01*
X020102Y007002D01*
X020064Y006964D01*
X020004Y006964D01*
X019945Y006964D01*
X019907Y007002D01*
X019760Y007002D01*
X019760Y007099D01*
X020381Y007720D01*
X020608Y007720D01*
X020529Y007641D02*
X020302Y007641D01*
X020370Y007483D02*
X020144Y007483D01*
X020257Y007324D02*
X019985Y007324D01*
X019827Y007166D02*
X020248Y007166D01*
X020248Y007007D02*
X019760Y007007D01*
X020004Y006964D02*
X020004Y006905D01*
X020004Y006905D01*
X020004Y006905D01*
X020004Y006964D01*
X019270Y007800D02*
X017316Y007800D01*
X017316Y007708D02*
X016998Y007708D01*
X016998Y007351D01*
X017160Y007351D01*
X017206Y007363D01*
X017247Y007387D01*
X017280Y007421D01*
X017304Y007462D01*
X017316Y007507D01*
X017316Y007708D01*
X017316Y007641D02*
X019112Y007641D01*
X018986Y007483D02*
X017310Y007483D01*
X016998Y007483D02*
X016998Y007483D01*
X016998Y007641D02*
X016998Y007641D01*
X016998Y007708D02*
X016998Y007708D01*
X017648Y007958D02*
X017685Y007958D01*
X017685Y008117D02*
X017648Y008117D01*
X017685Y008275D02*
X019746Y008275D01*
X019904Y008434D02*
X018063Y008434D01*
X018000Y008592D02*
X021562Y008592D01*
X021528Y008751D02*
X018004Y008751D01*
X018004Y008909D02*
X019064Y008909D01*
X018950Y009068D02*
X018004Y009068D01*
X017988Y009226D02*
X018950Y009226D01*
X018950Y009385D02*
X017988Y009385D01*
X018086Y009543D02*
X018950Y009543D01*
X018950Y009702D02*
X018086Y009702D01*
X018086Y009860D02*
X019057Y009860D01*
X019867Y010502D02*
X019867Y010502D01*
X020156Y010213D01*
X020156Y010213D01*
X020231Y010138D01*
X020272Y010039D01*
X020272Y009881D01*
X020931Y009881D01*
X020969Y009843D01*
X021028Y009843D01*
X021028Y009783D01*
X021028Y009783D01*
X021028Y009783D01*
X021028Y009843D01*
X021061Y009843D01*
X021026Y009879D01*
X021026Y010576D01*
X021026Y010177D02*
X020192Y010177D01*
X020272Y010019D02*
X021026Y010019D01*
X021044Y009860D02*
X020951Y009860D01*
X020945Y008909D02*
X021111Y008909D01*
X022222Y008751D02*
X024403Y008751D01*
X024403Y008592D02*
X022207Y008592D01*
X022736Y008909D02*
X024440Y008909D01*
X024444Y009068D02*
X022850Y009068D01*
X022950Y009226D02*
X025613Y009226D01*
X025663Y009385D02*
X023109Y009385D01*
X023366Y009543D02*
X024450Y009543D01*
X024403Y009702D02*
X023443Y009702D01*
X023429Y009860D02*
X024403Y009860D01*
X024403Y010019D02*
X023323Y010019D01*
X022916Y010177D02*
X024403Y010177D01*
X024403Y010336D02*
X022810Y010336D01*
X022877Y010494D02*
X024403Y010494D01*
X024488Y010653D02*
X024497Y010653D01*
X024647Y010811D02*
X024678Y010811D01*
X023836Y010653D02*
X023488Y010653D01*
X023647Y010811D02*
X023678Y010811D01*
X025113Y009068D02*
X025113Y009068D01*
X025823Y008759D02*
X025823Y008759D01*
X025823Y008751D02*
X025843Y008751D01*
X025787Y009543D02*
X025775Y009543D01*
X025728Y010653D02*
X025836Y010653D01*
X025678Y010811D02*
X025647Y010811D01*
X026885Y013664D02*
X026940Y013664D01*
X026940Y013823D02*
X026885Y013823D01*
X026885Y013981D02*
X026977Y013981D01*
X021796Y006905D02*
X021796Y006905D01*
X021826Y006509D02*
X022021Y006509D01*
X021826Y006509D01*
X021826Y006509D01*
X022021Y006509D02*
X022021Y006509D01*
X022052Y006113D02*
X022052Y006113D01*
X022052Y006054D01*
X022052Y006113D01*
X022052Y006056D02*
X022052Y006056D01*
X022102Y005898D02*
X022657Y005898D01*
X022591Y005739D02*
X022102Y005739D01*
X022102Y005581D02*
X022533Y005581D01*
X022533Y005422D02*
X022061Y005422D01*
X022102Y005264D02*
X022533Y005264D01*
X022597Y005105D02*
X022102Y005105D01*
X022141Y004947D02*
X022664Y004947D01*
X022822Y004788D02*
X022141Y004788D01*
X022141Y004630D02*
X023095Y004630D01*
X023666Y004630D02*
X025087Y004630D01*
X025044Y004471D02*
X022141Y004471D01*
X022141Y004313D02*
X025033Y004313D01*
X025033Y004154D02*
X022141Y004154D01*
X022141Y003996D02*
X025073Y003996D01*
X025128Y003837D02*
X023408Y003837D01*
X023442Y003679D02*
X024067Y003679D01*
X024111Y003704D02*
X023869Y003564D01*
X023670Y003366D01*
X023530Y003123D01*
X023458Y002852D01*
X023458Y002572D01*
X023530Y002301D01*
X023670Y002059D01*
X023869Y001861D01*
X024111Y001720D01*
X024382Y001648D01*
X024662Y001648D01*
X024933Y001720D01*
X025176Y001861D01*
X025374Y002059D01*
X025514Y002301D01*
X025586Y002572D01*
X025586Y002852D01*
X025514Y003123D01*
X025374Y003366D01*
X025176Y003564D01*
X024933Y003704D01*
X024662Y003776D01*
X024382Y003776D01*
X024111Y003704D01*
X023825Y003520D02*
X023442Y003520D01*
X023442Y003362D02*
X023668Y003362D01*
X023577Y003203D02*
X023442Y003203D01*
X023442Y003045D02*
X023509Y003045D01*
X023467Y002886D02*
X023442Y002886D01*
X023442Y002728D02*
X023458Y002728D01*
X023442Y002569D02*
X023459Y002569D01*
X023442Y002411D02*
X023501Y002411D01*
X023442Y002252D02*
X023559Y002252D01*
X023650Y002094D02*
X023442Y002094D01*
X023442Y001935D02*
X023794Y001935D01*
X024014Y001777D02*
X023442Y001777D01*
X023442Y001618D02*
X025797Y001618D01*
X025639Y001460D02*
X023442Y001460D01*
X023442Y001301D02*
X025480Y001301D01*
X025322Y001143D02*
X023442Y001143D01*
X023442Y000984D02*
X025163Y000984D01*
X025005Y000826D02*
X023442Y000826D01*
X023442Y000667D02*
X024846Y000667D01*
X025030Y001777D02*
X025956Y001777D01*
X026114Y001935D02*
X025250Y001935D01*
X025394Y002094D02*
X026273Y002094D01*
X026431Y002252D02*
X025485Y002252D01*
X025543Y002411D02*
X026590Y002411D01*
X026748Y002569D02*
X025585Y002569D01*
X025586Y002728D02*
X026907Y002728D01*
X027065Y002886D02*
X025577Y002886D01*
X025535Y003045D02*
X027224Y003045D01*
X027382Y003203D02*
X025468Y003203D01*
X025376Y003362D02*
X025571Y003362D01*
X025359Y003520D02*
X025219Y003520D01*
X025219Y003679D02*
X024977Y003679D01*
X025624Y003972D02*
X026851Y005760D01*
X026851Y005733D01*
X026851Y005459D01*
X026864Y005414D01*
X026872Y005398D01*
X026864Y005383D01*
X026851Y005337D01*
X026851Y005064D01*
X026916Y005064D01*
X026916Y005064D01*
X026851Y005064D01*
X026851Y004790D01*
X026862Y004749D01*
X026851Y004707D01*
X026851Y004434D01*
X026916Y004434D01*
X026916Y004434D01*
X026851Y004434D01*
X026851Y004160D01*
X026864Y004114D01*
X026887Y004073D01*
X026921Y004040D01*
X026962Y004016D01*
X027008Y004004D01*
X027156Y004004D01*
X027156Y004193D01*
X027156Y004193D01*
X027156Y004004D01*
X027305Y004004D01*
X027351Y004016D01*
X027392Y004040D01*
X027396Y004044D01*
X027396Y003972D01*
X025624Y003972D01*
X025641Y003996D02*
X027396Y003996D01*
X027156Y004154D02*
X027156Y004154D01*
X027156Y004434D02*
X027656Y004434D01*
X027954Y004434D02*
X027961Y004434D01*
X027954Y004434D01*
X027954Y004434D01*
X027961Y004471D02*
X028241Y004471D01*
X028241Y004313D02*
X027961Y004313D01*
X027960Y004154D02*
X028241Y004154D01*
X028175Y003996D02*
X027694Y003996D01*
X027662Y003837D02*
X028016Y003837D01*
X027858Y003679D02*
X027466Y003679D01*
X027699Y003520D02*
X026835Y003520D01*
X026622Y003362D02*
X027541Y003362D01*
X026853Y004154D02*
X025749Y004154D01*
X025858Y004313D02*
X026851Y004313D01*
X026851Y004471D02*
X025967Y004471D01*
X026076Y004630D02*
X026851Y004630D01*
X026852Y004788D02*
X026184Y004788D01*
X026293Y004947D02*
X026851Y004947D01*
X026851Y005105D02*
X026402Y005105D01*
X026511Y005264D02*
X026851Y005264D01*
X026861Y005422D02*
X026619Y005422D01*
X026728Y005581D02*
X026851Y005581D01*
X026851Y005733D02*
X026916Y005733D01*
X026916Y005733D01*
X026851Y005733D01*
X026851Y005739D02*
X026837Y005739D01*
X027156Y005733D02*
X027656Y005733D01*
X027954Y005733D02*
X027961Y005733D01*
X027954Y005733D01*
X027954Y005733D01*
X027961Y005739D02*
X028241Y005739D01*
X028241Y005581D02*
X027961Y005581D01*
X027951Y005422D02*
X028241Y005422D01*
X028241Y005264D02*
X027961Y005264D01*
X027961Y005105D02*
X028241Y005105D01*
X028241Y004947D02*
X027961Y004947D01*
X027961Y005064D02*
X027954Y005064D01*
X027961Y005064D01*
X027954Y005064D02*
X027954Y005064D01*
X027961Y004788D02*
X028241Y004788D01*
X028241Y004630D02*
X027961Y004630D01*
X027656Y005064D02*
X027156Y005064D01*
X027156Y005304D02*
X027156Y005304D01*
X027156Y005492D01*
X027156Y005492D01*
X027156Y005304D01*
X027156Y005422D02*
X027156Y005422D01*
X027156Y004823D02*
X027156Y004674D01*
X027156Y004674D01*
X027156Y004823D01*
X027156Y004823D01*
X027156Y004788D02*
X027156Y004788D01*
X026258Y005422D02*
X024228Y005422D01*
X024228Y005264D02*
X025660Y005264D01*
X025410Y005105D02*
X024164Y005105D01*
X024097Y004947D02*
X025251Y004947D01*
X025157Y004788D02*
X023938Y004788D01*
X024228Y005581D02*
X026367Y005581D01*
X026476Y005739D02*
X024169Y005739D01*
X023062Y006215D02*
X022850Y006215D01*
X022809Y006056D02*
X022762Y006056D01*
X023144Y003696D02*
X022033Y003696D01*
X021990Y003654D01*
X021463Y003654D01*
X021431Y003686D01*
X021400Y003654D01*
X020873Y003654D01*
X020830Y003696D01*
X020782Y003696D01*
X020782Y003237D01*
X020811Y003254D01*
X020857Y003266D01*
X021883Y003266D01*
X021883Y001887D01*
X022043Y001887D01*
X022043Y003266D01*
X023069Y003266D01*
X023115Y003254D01*
X023144Y003237D01*
X023144Y003696D01*
X023144Y003679D02*
X022015Y003679D01*
X022043Y003203D02*
X021883Y003203D01*
X021883Y003045D02*
X022043Y003045D01*
X022043Y002886D02*
X021883Y002886D01*
X021883Y002728D02*
X022043Y002728D01*
X022043Y002569D02*
X021883Y002569D01*
X021883Y002411D02*
X022043Y002411D01*
X022043Y002252D02*
X021883Y002252D01*
X021883Y002094D02*
X022043Y002094D01*
X022043Y001935D02*
X021883Y001935D01*
X020484Y001935D02*
X020099Y001935D01*
X020134Y002094D02*
X020484Y002094D01*
X020484Y002252D02*
X020134Y002252D01*
X020134Y002411D02*
X020484Y002411D01*
X020484Y002569D02*
X020134Y002569D01*
X020134Y002728D02*
X020484Y002728D01*
X020484Y002886D02*
X020109Y002886D01*
X020027Y003045D02*
X020484Y003045D01*
X020484Y003203D02*
X019809Y003203D01*
X019424Y003203D02*
X018809Y003203D01*
X019027Y003045D02*
X019207Y003045D01*
X019124Y002886D02*
X019109Y002886D01*
X018751Y003520D02*
X020484Y003520D01*
X020484Y003362D02*
X017215Y003362D01*
X017260Y003203D02*
X017424Y003203D01*
X017809Y003203D02*
X018424Y003203D01*
X018207Y003045D02*
X018027Y003045D01*
X018109Y002886D02*
X018124Y002886D01*
X019089Y003679D02*
X020484Y003679D01*
X020518Y003837D02*
X019247Y003837D01*
X019341Y003996D02*
X019881Y003996D01*
X019854Y004154D02*
X019407Y004154D01*
X019425Y004313D02*
X020291Y004313D01*
X020291Y004471D02*
X020407Y004471D01*
X020407Y004630D02*
X020291Y004630D01*
X020291Y004788D02*
X020407Y004788D01*
X020509Y004947D02*
X020151Y004947D01*
X019928Y004788D02*
X019320Y004788D01*
X019385Y004630D02*
X019854Y004630D01*
X019854Y004471D02*
X019425Y004471D01*
X019244Y004947D02*
X019195Y004947D01*
X019206Y005105D02*
X019008Y005105D01*
X020291Y004154D02*
X020407Y004154D01*
X020407Y003996D02*
X020291Y003996D01*
X020782Y003679D02*
X020848Y003679D01*
X020782Y003520D02*
X023144Y003520D01*
X023144Y003362D02*
X020782Y003362D01*
X021424Y003679D02*
X021439Y003679D01*
X020484Y001777D02*
X020003Y001777D01*
X020063Y001618D02*
X020484Y001618D01*
X020484Y001460D02*
X020097Y001460D01*
X020097Y001301D02*
X020484Y001301D01*
X020484Y001143D02*
X019637Y001143D01*
X019597Y001143D02*
X019134Y001143D01*
X019137Y001157D02*
X019597Y001157D01*
X019597Y001117D01*
X019137Y001117D01*
X019137Y000800D01*
X019148Y000725D01*
X019172Y000653D01*
X019206Y000586D01*
X019219Y000568D01*
X019065Y000568D01*
X019134Y000734D01*
X019134Y001540D01*
X019114Y001589D01*
X019114Y001971D01*
X019117Y001976D01*
X019178Y001829D01*
X019253Y001753D01*
X019250Y001750D01*
X019206Y001689D01*
X019172Y001622D01*
X019148Y001550D01*
X019137Y001475D01*
X019137Y001157D01*
X019134Y001301D02*
X019137Y001301D01*
X019134Y001460D02*
X019137Y001460D01*
X019114Y001618D02*
X019171Y001618D01*
X019114Y001777D02*
X019230Y001777D01*
X019134Y001935D02*
X019114Y001935D01*
X019134Y000984D02*
X019137Y000984D01*
X019134Y000826D02*
X019137Y000826D01*
X019106Y000667D02*
X019167Y000667D01*
X020066Y000667D02*
X020484Y000667D01*
X020484Y000826D02*
X020097Y000826D01*
X020097Y000984D02*
X020484Y000984D01*
X019429Y007958D02*
X018032Y007958D01*
X018063Y008117D02*
X019587Y008117D01*
X017309Y010177D02*
X016974Y010177D01*
X016964Y010019D02*
X017001Y010019D01*
X017001Y009860D02*
X016964Y009860D01*
X016586Y009702D02*
X016161Y009702D01*
X016161Y009543D02*
X016596Y009543D01*
X016311Y010336D02*
X016161Y010336D01*
X016161Y010494D02*
X016394Y010494D01*
X027961Y005898D02*
X028241Y005898D01*
D51*
X026097Y007437D03*
X026097Y009169D03*
D52*
X025113Y008933D03*
X025113Y008618D03*
X025113Y008303D03*
X025113Y007988D03*
X025113Y007673D03*
D53*
X025113Y006531D03*
X027278Y006531D03*
X027278Y010074D03*
X025113Y010074D03*
D54*
X022563Y009388D03*
X022307Y009388D03*
X022052Y009388D03*
X021796Y009388D03*
X021540Y009388D03*
X021284Y009388D03*
X021028Y009388D03*
X020772Y009388D03*
X020516Y009388D03*
X020260Y009388D03*
X020004Y009388D03*
X019748Y009388D03*
X019493Y009388D03*
X019237Y009388D03*
X019237Y006509D03*
X019493Y006509D03*
X019748Y006509D03*
X020004Y006509D03*
X020260Y006509D03*
X020516Y006509D03*
X020772Y006509D03*
X021028Y006509D03*
X021284Y006509D03*
X021540Y006509D03*
X021796Y006509D03*
X022052Y006509D03*
X022307Y006509D03*
X022563Y006509D03*
D55*
X021806Y006519D02*
X021806Y007082D01*
X021884Y007633D02*
X020900Y007633D01*
X020516Y007250D01*
X020516Y006509D01*
X020516Y005635D01*
X020349Y005468D01*
X020093Y005212D01*
X019601Y005212D01*
X019601Y005724D02*
X020004Y006128D01*
X020004Y006509D01*
X019493Y006509D02*
X019493Y007210D01*
X020270Y007988D01*
X025113Y007988D01*
X025113Y008303D02*
X020152Y008303D01*
X019237Y007387D01*
X019237Y006509D01*
X018420Y006925D02*
X018396Y006901D01*
X015648Y006901D01*
X015648Y006704D02*
X018010Y006704D01*
X018223Y006492D01*
X016491Y007712D02*
X016487Y007708D01*
X016467Y007689D01*
X015648Y007689D01*
X014853Y007689D01*
X014821Y007689D01*
X014255Y007689D01*
X014853Y007689D02*
X014861Y005130D01*
X014858Y004896D01*
X015367Y004856D01*
X014680Y005114D02*
X014680Y004170D01*
X014643Y004170D01*
X014131Y004170D02*
X014131Y004330D01*
X014467Y004665D01*
X014467Y005130D01*
X014664Y005130D02*
X014680Y005114D01*
X014270Y005130D02*
X014270Y006980D01*
X012711Y008539D01*
X012711Y010350D01*
X012317Y010350D02*
X012317Y008657D01*
X014073Y006901D01*
X014073Y005130D01*
X013876Y005130D02*
X013876Y006822D01*
X011884Y008815D01*
X011884Y010232D01*
X011372Y009878D02*
X011648Y009602D01*
X011648Y008736D01*
X013680Y006704D01*
X013680Y005130D01*
X011963Y007240D02*
X011963Y007555D01*
X010388Y009130D01*
X010782Y009169D02*
X010782Y009563D01*
X010782Y009169D02*
X011609Y008342D01*
X011018Y007909D02*
X011018Y007712D01*
X011018Y007909D02*
X010191Y008736D01*
X010128Y008476D02*
X009349Y008476D01*
X009861Y008476D01*
X010191Y008145D01*
X009349Y008673D02*
X008711Y008673D01*
X008695Y008657D01*
X008695Y007515D01*
X008617Y007437D01*
X008577Y008673D02*
X009349Y008673D01*
X008219Y008673D01*
X008211Y008665D01*
X006474Y007415D02*
X005606Y007415D01*
X004719Y008303D01*
X004719Y018713D01*
X005319Y019234D01*
X005538Y019234D01*
X005538Y019319D01*
X006687Y020468D01*
X006853Y020468D01*
X006883Y020497D01*
X006609Y020035D02*
X005782Y019208D01*
X005782Y018224D01*
X006097Y017909D01*
X006556Y017909D01*
X006596Y017868D01*
X006556Y017870D01*
X006596Y017868D02*
X006870Y017555D01*
X007409Y017555D01*
X007409Y017187D01*
X007514Y017082D01*
X009640Y017082D01*
X009640Y016925D01*
X010939Y016374D02*
X008945Y018368D01*
X008222Y018368D01*
X008222Y018868D02*
X008906Y018868D01*
X008931Y018893D01*
X009365Y019917D02*
X008144Y019917D01*
X007869Y020271D02*
X007750Y020271D01*
X007514Y020035D01*
X006609Y020035D01*
X005791Y020829D02*
X005791Y021293D01*
X005752Y021411D01*
X005585Y021925D02*
X007593Y021925D01*
X007869Y022200D01*
X008498Y022200D01*
X008617Y022082D01*
X008617Y020961D01*
X008507Y020852D01*
X008507Y020373D01*
X008478Y020251D01*
X007869Y020271D02*
X007780Y020359D01*
X007780Y020852D01*
X007759Y020852D01*
X007736Y020829D01*
X007759Y020852D02*
X007759Y020373D01*
X007809Y020251D01*
X007033Y021089D02*
X007632Y021689D01*
X008104Y021689D01*
X008133Y021719D01*
X008144Y021708D01*
X008892Y022082D02*
X008498Y022476D01*
X007750Y022476D01*
X006372Y023854D01*
X004483Y023854D01*
X003846Y024490D01*
X003846Y024629D01*
X003846Y025298D02*
X004089Y025462D01*
X004089Y026374D01*
X003874Y026589D01*
X003874Y026600D01*
X002959Y025635D02*
X002457Y025133D01*
X002512Y025189D01*
X002095Y024734D02*
X001530Y024169D01*
X001530Y020311D01*
X001806Y020035D01*
X003433Y020035D01*
X003446Y020048D01*
X004246Y019248D02*
X004260Y019234D01*
X004649Y019234D01*
X004728Y019274D01*
X005417Y019963D01*
X005043Y020829D02*
X005043Y021293D01*
X005082Y021411D01*
X005161Y021798D01*
X003774Y023185D01*
X003460Y023185D01*
X003446Y023198D01*
X003853Y023657D02*
X005585Y021925D01*
X006883Y021167D02*
X007033Y021089D01*
X008892Y021570D02*
X010388Y020074D01*
X012082Y020074D01*
X012108Y020048D01*
X013459Y019444D02*
X013920Y019444D01*
X013935Y019459D01*
X013935Y019675D02*
X013935Y019892D01*
X013935Y019675D02*
X014803Y019675D01*
X015020Y019459D01*
X015746Y019459D01*
X016309Y019459D01*
X016351Y019500D01*
X016648Y019248D02*
X016727Y019169D01*
X016727Y018736D01*
X016243Y018252D01*
X015963Y018252D01*
X016294Y017870D02*
X014837Y017870D01*
X014719Y017988D01*
X015057Y018437D02*
X015231Y018263D01*
X015439Y018263D01*
X015451Y018252D01*
X015057Y018437D02*
X015057Y018770D01*
X015746Y019026D02*
X016313Y019026D01*
X016351Y018988D01*
X017081Y019034D02*
X017081Y018657D01*
X016294Y017870D01*
X016845Y017633D02*
X017002Y017437D01*
X016845Y017633D02*
X013577Y017633D01*
X012869Y018342D01*
X012869Y023972D01*
X011569Y025271D01*
X011569Y026925D01*
X011766Y027122D01*
X012498Y027122D01*
X014168Y023539D02*
X014010Y023381D01*
X014010Y022963D01*
X014085Y022959D01*
X014168Y023539D02*
X014601Y023539D01*
X014754Y023385D01*
X014833Y022959D01*
X014765Y022948D01*
X015191Y022948D01*
X015113Y022082D02*
X014902Y022082D01*
X014833Y021935D01*
X014227Y021329D01*
X014227Y021177D01*
X014191Y020701D02*
X013715Y021177D01*
X014191Y020701D02*
X014191Y020581D01*
X013935Y020325D01*
X014837Y020074D02*
X014837Y020578D01*
X014840Y020581D01*
X014840Y021189D01*
X015845Y022193D01*
X015845Y022694D01*
X015956Y022806D01*
X016468Y022806D02*
X016593Y022680D01*
X016593Y022193D01*
X017167Y022193D01*
X017475Y021885D01*
X017475Y021846D01*
X017728Y022066D02*
X017317Y022476D01*
X017728Y022066D02*
X017806Y021580D01*
X017977Y021580D01*
X018459Y021098D01*
X018459Y020020D01*
X018467Y020091D01*
X018483Y019996D01*
X018853Y019996D01*
X018467Y019422D02*
X018388Y019422D01*
X017469Y019422D01*
X017081Y019034D01*
X017987Y018067D02*
X017711Y017791D01*
X017711Y016337D01*
X018211Y016337D02*
X018211Y017700D01*
X018420Y017879D01*
X026933Y017879D01*
X027375Y017437D01*
X027375Y017004D01*
X026905Y016503D01*
X026214Y016503D01*
X026372Y016070D02*
X026361Y016059D01*
X025861Y016059D01*
X025585Y016334D01*
X025585Y017446D01*
X025339Y017692D01*
X019640Y017692D01*
X019211Y017322D01*
X019211Y016337D01*
X019711Y016337D02*
X019711Y016185D01*
X020782Y015114D01*
X020703Y015704D02*
X020711Y015712D01*
X023136Y015712D01*
X024089Y014759D01*
X024286Y014326D02*
X023538Y014326D01*
X022711Y015153D01*
X022002Y015153D01*
X021609Y014759D01*
X021609Y014011D01*
X021294Y013696D01*
X022317Y014223D02*
X022341Y014248D01*
X022908Y014248D01*
X023577Y013460D02*
X023162Y013045D01*
X023162Y012158D01*
X023162Y011158D02*
X022052Y010047D01*
X022052Y009388D01*
X022307Y009388D02*
X022307Y009789D01*
X022593Y010074D01*
X023105Y009759D02*
X022733Y009388D01*
X022563Y009388D01*
X021796Y009388D02*
X021796Y008785D01*
X021884Y008696D01*
X021018Y008854D02*
X021018Y009378D01*
X021028Y009388D01*
X021558Y010422D02*
X020764Y011216D01*
X020349Y011216D01*
X020194Y011528D01*
X019650Y011449D01*
X019844Y011531D01*
X019404Y011531D01*
X019204Y012007D02*
X018985Y012007D01*
X019179Y012004D01*
X018813Y012004D01*
X017750Y010941D01*
X015152Y010941D01*
X014994Y010783D01*
X014207Y010783D01*
X014073Y010917D01*
X014073Y011429D01*
X013876Y011429D02*
X013876Y011909D01*
X014050Y012082D01*
X014581Y012082D01*
X014589Y012090D01*
X014861Y012674D02*
X015535Y012674D01*
X015669Y012729D01*
X015669Y013398D02*
X015528Y013461D01*
X014861Y013461D01*
X013854Y013461D01*
X013286Y012893D01*
X013286Y011429D01*
X013483Y011429D02*
X013483Y012342D01*
X013815Y012674D01*
X014861Y012674D01*
X013876Y011429D02*
X013876Y009547D01*
X013813Y009484D01*
X014168Y009996D02*
X014168Y010507D01*
X014168Y009996D02*
X014703Y009460D01*
X015648Y009460D01*
X015648Y009263D02*
X016959Y009263D01*
X017022Y009326D01*
X017038Y008850D02*
X016802Y008850D01*
X016491Y008578D01*
X016491Y007712D01*
X016179Y007152D02*
X016186Y007098D01*
X015648Y007098D01*
X015648Y007885D02*
X015057Y007885D01*
X014680Y008263D01*
X014994Y008007D02*
X015117Y007885D01*
X015648Y007885D01*
X015648Y008673D02*
X016113Y008673D01*
X016372Y008933D01*
X017076Y008416D02*
X016997Y008257D01*
X017396Y008578D02*
X017628Y008850D01*
X017613Y009326D02*
X017652Y009799D01*
X018223Y010626D02*
X018498Y010350D01*
X019640Y010350D01*
X020004Y009986D01*
X020004Y009388D01*
X020782Y007082D02*
X020979Y007082D01*
X021097Y007200D01*
X020782Y007082D02*
X020782Y006519D01*
X020772Y006509D01*
X021028Y006509D02*
X021028Y005754D01*
X021136Y005724D01*
X021284Y006108D02*
X021569Y005822D01*
X021727Y005724D01*
X021284Y006108D02*
X021284Y006509D01*
X021796Y006509D02*
X021806Y006519D01*
X021884Y007633D02*
X024483Y007633D01*
X025113Y007673D01*
X027987Y006728D02*
X027987Y012319D01*
X027199Y012909D01*
X026963Y012909D01*
X026727Y013145D01*
X025388Y013145D01*
X024916Y013618D01*
X024916Y015429D01*
X023183Y017161D01*
X022947Y016492D02*
X022341Y016492D01*
X022317Y016467D01*
X020711Y016337D02*
X020711Y015712D01*
X020211Y016337D02*
X020211Y017063D01*
X020653Y017474D01*
X025231Y017474D01*
X025338Y017367D01*
X025338Y015637D01*
X025771Y015204D01*
X026372Y015204D01*
X026450Y015637D02*
X027053Y015637D01*
X027593Y016177D01*
X027593Y017515D01*
X027042Y018067D01*
X017987Y018067D01*
X018711Y016337D02*
X018711Y016004D01*
X018892Y015822D01*
X019207Y015822D01*
X016850Y014208D02*
X018582Y012476D01*
X019483Y012476D01*
X019847Y012111D01*
X019650Y012119D01*
X020306Y012040D01*
X020349Y012319D01*
X020900Y011728D01*
X021766Y011728D01*
X025349Y014326D02*
X025360Y014337D01*
X026372Y014337D01*
X028144Y013145D02*
X028223Y012988D01*
X028262Y006413D01*
X028183Y006295D01*
X028144Y013145D02*
X028144Y017633D01*
X027514Y018263D01*
X025506Y018263D01*
X024561Y019208D01*
X024561Y024563D01*
X025270Y025271D01*
X026428Y025271D01*
X027002Y024696D01*
X020743Y020921D02*
X020073Y020921D01*
X020072Y021552D02*
X020073Y021590D01*
X019660Y021551D01*
X019640Y021570D01*
X020072Y021552D02*
X020072Y022186D01*
X020072Y022855D02*
X020072Y024207D01*
X020073Y024208D01*
X019089Y024208D02*
X019089Y022722D01*
X019088Y022860D01*
X019088Y022190D02*
X019110Y022187D01*
X019110Y021846D01*
X018538Y021846D01*
X018105Y022161D02*
X018105Y024208D01*
X016593Y022193D02*
X016593Y021988D01*
X016412Y021807D01*
X016219Y021327D02*
X016294Y021252D01*
X016294Y020862D01*
X016219Y021327D02*
X016890Y021327D01*
X017137Y021580D01*
X017514Y021256D02*
X017767Y021003D01*
X017846Y020938D01*
X017843Y020862D01*
X017843Y020288D01*
X017095Y020288D02*
X016468Y020288D01*
X016288Y020108D01*
X015746Y020108D01*
X015118Y020108D01*
X015057Y020170D01*
X015057Y020581D01*
X015273Y020581D02*
X015490Y020581D01*
X015506Y020597D01*
X015506Y020980D01*
X015506Y021413D01*
X015821Y021728D01*
X014833Y021783D02*
X014833Y021935D01*
X014085Y021935D02*
X013439Y021935D01*
X013553Y021931D01*
X014837Y020074D02*
X015020Y019892D01*
X015746Y019892D01*
X015746Y020325D02*
X015490Y020581D01*
X013935Y019242D02*
X013935Y019026D01*
X013631Y019026D01*
X013498Y018893D01*
X014535Y016598D02*
X014574Y016480D01*
X014574Y015976D01*
X014333Y016216D01*
X011884Y016216D01*
X011644Y015976D01*
X010935Y015976D01*
X010939Y015980D01*
X010939Y016374D01*
X010935Y015976D02*
X009344Y014444D01*
X009344Y014169D01*
X009531Y013982D01*
X010186Y013982D01*
X010186Y014238D02*
X009710Y014238D01*
X009640Y014248D01*
X010186Y014238D02*
X010530Y014582D01*
X010786Y014582D01*
X010786Y015236D01*
X010899Y015360D01*
X010891Y015617D02*
X010349Y015074D01*
X010388Y015035D01*
X011042Y014961D02*
X011042Y014582D01*
X011042Y014961D02*
X011187Y015105D01*
X011701Y015105D01*
X011701Y015617D02*
X012212Y015617D01*
X012217Y015695D01*
X012632Y015507D02*
X012632Y015311D01*
X012592Y015360D01*
X012632Y015311D02*
X012632Y014483D01*
X012746Y014370D01*
X012746Y013906D01*
X012785Y013787D01*
X012317Y013460D02*
X011097Y012260D01*
X011317Y012027D02*
X011648Y012358D01*
X011609Y012004D02*
X011514Y011909D01*
X011514Y011429D01*
X011317Y011429D02*
X011317Y012027D01*
X011609Y012004D02*
X011845Y012004D01*
X012042Y012200D01*
X011298Y012913D02*
X011018Y012633D01*
X011298Y012913D02*
X011298Y013126D01*
X010530Y013126D02*
X010530Y012543D01*
X010508Y012521D01*
X010530Y013126D02*
X010186Y013470D01*
X009198Y013470D01*
X009070Y013342D01*
X008774Y013421D02*
X009079Y013726D01*
X009020Y013726D01*
X008774Y013972D01*
X009079Y013726D02*
X010186Y013726D01*
X008774Y013185D02*
X009719Y012260D01*
X009325Y011137D02*
X007167Y013295D01*
X005879Y013295D01*
X005979Y014295D02*
X006482Y014295D01*
X009987Y010785D01*
X010231Y010457D02*
X010819Y010457D01*
X011120Y010728D01*
X011120Y011429D01*
X010924Y011429D02*
X010924Y010885D01*
X010821Y010783D01*
X010506Y010783D01*
X009987Y010234D02*
X010349Y009878D01*
X011372Y009878D01*
X013183Y010389D02*
X013498Y010704D01*
X013680Y010885D01*
X013680Y011429D01*
X013680Y010807D01*
X013420Y010547D01*
X013498Y010507D02*
X013680Y010689D01*
X013680Y011429D01*
X014483Y010005D02*
X014861Y009657D01*
X015648Y009657D01*
X015648Y009854D02*
X015057Y009854D01*
X014897Y010005D01*
X015648Y010051D02*
X016467Y010051D01*
X016648Y010271D01*
X015682Y014187D02*
X014202Y014109D01*
X014236Y014221D01*
X015686Y014142D01*
X015682Y014187D02*
X015703Y014208D01*
X016850Y014208D01*
X015686Y014811D02*
X015309Y015109D01*
X014948Y015109D01*
X014948Y014713D01*
X014876Y014641D01*
X014202Y014778D02*
X013938Y014963D01*
X014246Y015271D01*
X013938Y014963D02*
X013665Y015236D01*
X013120Y015236D01*
X012829Y015704D02*
X012632Y015507D01*
X012829Y015704D02*
X013538Y015704D01*
X013695Y015547D01*
X015191Y015547D01*
X015322Y015678D01*
X015322Y015976D01*
X015322Y016480D01*
X015204Y016598D01*
X014263Y014248D02*
X014202Y014109D01*
X013494Y013906D02*
X013454Y013787D01*
X013376Y013534D01*
X013302Y013460D01*
X012317Y013460D01*
X013494Y013906D02*
X013494Y014370D01*
X011187Y015617D02*
X010891Y015617D01*
X008774Y013421D02*
X008774Y013185D01*
X007672Y011531D02*
X006884Y012319D01*
X005309Y012319D01*
X004365Y012161D02*
X002239Y012161D01*
X001687Y011610D01*
X001687Y011193D01*
X003577Y002988D02*
X004719Y002988D01*
X004837Y002791D01*
X004837Y001531D01*
X004758Y001452D01*
X004522Y001452D01*
X003380Y002594D01*
X003380Y002791D01*
X003577Y002988D01*
X003500Y002911D02*
X004765Y002911D01*
X004824Y002813D02*
X003402Y002813D01*
X003380Y002714D02*
X004837Y002714D01*
X004837Y002616D02*
X003380Y002616D01*
X003457Y002517D02*
X004837Y002517D01*
X004837Y002419D02*
X003556Y002419D01*
X003654Y002320D02*
X004837Y002320D01*
X004837Y002222D02*
X003753Y002222D01*
X003851Y002123D02*
X004837Y002123D01*
X004837Y002025D02*
X003950Y002025D01*
X004048Y001926D02*
X004837Y001926D01*
X004837Y001828D02*
X004147Y001828D01*
X004245Y001729D02*
X004837Y001729D01*
X004837Y001631D02*
X004344Y001631D01*
X004442Y001532D02*
X004837Y001532D01*
X008312Y001267D02*
X008323Y001256D01*
X009404Y001256D01*
X010270Y002122D01*
X010270Y003696D01*
X010920Y004346D01*
X010920Y004366D01*
X010924Y004559D01*
X010924Y005130D01*
X011120Y005130D02*
X011120Y005610D01*
X011120Y005130D02*
X011120Y006240D01*
X011136Y006256D01*
X008312Y003027D02*
X008312Y002526D01*
X008262Y002476D01*
X008577Y001137D02*
X008636Y001137D01*
X015648Y006114D02*
X016186Y006114D01*
X016301Y005999D01*
X016139Y006311D02*
X016252Y006454D01*
X016139Y006311D02*
X015648Y006311D01*
X016924Y003185D02*
X016924Y001570D01*
X017317Y001177D01*
X017577Y001177D01*
X017617Y001137D01*
X021136Y004031D02*
X021727Y004031D01*
X021727Y004700D02*
X021727Y005133D01*
X021136Y005133D02*
X021136Y004700D01*
X009349Y010641D02*
X009325Y010665D01*
X009325Y011137D01*
X017095Y020288D02*
X017095Y020778D01*
X017176Y020938D01*
X019110Y021641D02*
X019110Y021846D01*
X008892Y022082D02*
X008892Y021570D01*
X003853Y023657D02*
X002947Y023657D01*
X002265Y022975D01*
X002265Y022411D01*
X002265Y023985D02*
X003131Y023985D01*
X003144Y023972D01*
X002095Y024734D02*
X002039Y024716D01*
D56*
X003183Y024759D03*
X003144Y023972D03*
X005113Y024681D03*
X005388Y024681D03*
X005388Y024956D03*
X005113Y024956D03*
X005113Y025232D03*
X005388Y025232D03*
X005664Y025232D03*
X005939Y025232D03*
X005939Y024956D03*
X005664Y024956D03*
X005664Y024681D03*
X005939Y024681D03*
X006215Y024681D03*
X006215Y024956D03*
X006491Y024956D03*
X006766Y024956D03*
X006766Y024681D03*
X006491Y024681D03*
X007042Y024681D03*
X007042Y024956D03*
X007042Y025232D03*
X006766Y025232D03*
X006491Y025232D03*
X006215Y025232D03*
X007750Y023578D03*
X007750Y023263D03*
X008065Y023263D03*
X008380Y023263D03*
X008380Y023578D03*
X008065Y023578D03*
X007967Y024661D03*
X008243Y024661D03*
X008518Y024661D03*
X008518Y024937D03*
X008518Y025212D03*
X008243Y025212D03*
X008243Y024937D03*
X007967Y024937D03*
X007967Y025212D03*
X008794Y025212D03*
X009069Y025212D03*
X009069Y024937D03*
X008794Y024937D03*
X008794Y024661D03*
X009069Y024661D03*
X009345Y024661D03*
X009620Y024661D03*
X009620Y024937D03*
X009345Y024937D03*
X009345Y025212D03*
X009620Y025212D03*
X009896Y025212D03*
X009896Y024937D03*
X009896Y024661D03*
X009365Y019917D03*
X008931Y018893D03*
X009640Y016925D03*
X010900Y017200D03*
X010388Y015035D03*
X009640Y014248D03*
X008774Y013972D03*
X009070Y013342D03*
X011018Y012633D03*
X010506Y010783D03*
X010231Y010457D03*
X011884Y010232D03*
X012317Y010350D03*
X012711Y010350D03*
X013183Y010389D03*
X013183Y010704D03*
X013498Y010704D03*
X013498Y010389D03*
X014168Y010507D03*
X014897Y010005D03*
X014965Y008861D03*
X014665Y008861D03*
X014665Y008561D03*
X014965Y008561D03*
X014965Y008261D03*
X014665Y008261D03*
X014255Y007689D03*
X013813Y009484D03*
X016372Y008933D03*
X016648Y010271D03*
X017987Y009014D03*
X018301Y009013D03*
X018302Y008696D03*
X017987Y008696D03*
X016179Y007152D03*
X016252Y006454D03*
X016301Y005999D03*
X015939Y003460D03*
X015664Y003460D03*
X015664Y003185D03*
X015939Y003185D03*
X015939Y002909D03*
X015664Y002909D03*
X015388Y002909D03*
X015113Y002909D03*
X015113Y003185D03*
X015388Y003185D03*
X015388Y003460D03*
X015113Y003460D03*
X014837Y003460D03*
X014837Y003185D03*
X014561Y003185D03*
X014286Y003185D03*
X014286Y003460D03*
X014561Y003460D03*
X014010Y003460D03*
X014010Y003185D03*
X014010Y002909D03*
X014286Y002909D03*
X014561Y002909D03*
X014837Y002909D03*
X016924Y003185D03*
X020979Y003185D03*
X020979Y003460D03*
X021254Y003460D03*
X021254Y003185D03*
X021530Y003185D03*
X021530Y003460D03*
X021806Y003460D03*
X022081Y003460D03*
X022081Y003185D03*
X021806Y003185D03*
X021806Y002909D03*
X022081Y002909D03*
X022357Y002909D03*
X022632Y002909D03*
X022632Y003185D03*
X022632Y003460D03*
X022357Y003460D03*
X022357Y003185D03*
X022908Y003185D03*
X022908Y003460D03*
X022908Y002909D03*
X021530Y002909D03*
X021254Y002909D03*
X020979Y002909D03*
X027997Y004670D03*
X027997Y004985D03*
X027997Y005261D03*
X027997Y005576D03*
X028183Y006295D03*
X027987Y006728D03*
X023577Y013460D03*
X025349Y014326D03*
X027514Y014208D03*
X026372Y018775D03*
X025939Y018775D03*
X025762Y019582D03*
X025487Y019582D03*
X025487Y019858D03*
X025762Y019858D03*
X025762Y020133D03*
X025487Y020133D03*
X025211Y020133D03*
X025211Y019858D03*
X025211Y019582D03*
X025211Y020409D03*
X025487Y020409D03*
X025762Y020409D03*
X025762Y020685D03*
X025762Y020960D03*
X025487Y020960D03*
X025487Y020685D03*
X025211Y020685D03*
X025211Y020960D03*
X025211Y021236D03*
X025211Y021511D03*
X025487Y021511D03*
X025487Y021236D03*
X025762Y021236D03*
X025762Y021511D03*
X022554Y025429D03*
X022554Y025704D03*
X022554Y025980D03*
X022554Y026256D03*
X022554Y026531D03*
X022554Y026807D03*
X022554Y027082D03*
X022554Y027358D03*
X022278Y027358D03*
X022002Y027358D03*
X022002Y027082D03*
X022002Y026807D03*
X022002Y026531D03*
X022002Y026256D03*
X022278Y026256D03*
X022278Y026531D03*
X022278Y026807D03*
X022278Y027082D03*
X022278Y025980D03*
X022002Y025980D03*
X022002Y025704D03*
X022002Y025429D03*
X022278Y025429D03*
X022278Y025704D03*
X019640Y021570D03*
X018538Y021846D03*
X018105Y022161D03*
X017317Y022476D03*
X016294Y020862D03*
X015506Y020980D03*
X015113Y022082D03*
X015191Y022948D03*
X013459Y019444D03*
X013498Y018893D03*
X014719Y017988D03*
X013380Y017358D03*
X014246Y015271D03*
X014876Y014641D03*
X017120Y012555D03*
X018341Y013342D03*
X018656Y013342D03*
X018971Y013342D03*
X018971Y013657D03*
X019286Y013657D03*
X019286Y013972D03*
X019601Y013972D03*
X019601Y014287D03*
X019601Y014602D03*
X019286Y014287D03*
X018971Y013972D03*
X018656Y013972D03*
X018656Y013657D03*
X018341Y013657D03*
X018341Y013972D03*
X019207Y015822D03*
X020703Y015704D03*
X020782Y015114D03*
X023183Y017161D03*
X019168Y020468D03*
X018813Y020468D03*
X018853Y019996D03*
X017002Y017437D03*
X005703Y004602D03*
X005388Y004602D03*
X005073Y004602D03*
X004758Y004602D03*
X004443Y004602D03*
X004443Y004917D03*
X004758Y004917D03*
X005073Y004917D03*
X004128Y005862D03*
X003853Y005862D03*
X003853Y006137D03*
X004128Y006137D03*
X004128Y006413D03*
X003853Y006413D03*
X003853Y006689D03*
X003853Y006964D03*
X004128Y006964D03*
X004128Y006689D03*
X004128Y007240D03*
X003853Y007240D03*
X003853Y007515D03*
X004128Y007515D03*
X004128Y007791D03*
X003853Y007791D03*
X003577Y007791D03*
X003577Y007515D03*
X003577Y007240D03*
X003577Y006964D03*
X003577Y006689D03*
X003577Y006413D03*
X003577Y006137D03*
X003577Y005862D03*
X003774Y008460D03*
X004089Y008460D03*
X004404Y008460D03*
X004404Y008775D03*
X005041Y010253D03*
X005041Y010607D03*
X004365Y012161D03*
X004089Y012752D03*
X004089Y013027D03*
X003813Y013027D03*
X003538Y013027D03*
X003538Y012752D03*
X003813Y012752D03*
X003813Y013303D03*
X003538Y013303D03*
X003538Y013578D03*
X003813Y013578D03*
X003813Y013854D03*
X003538Y013854D03*
X003538Y014130D03*
X003538Y014405D03*
X003813Y014405D03*
X003813Y014130D03*
X004089Y014130D03*
X004089Y014405D03*
X004089Y014681D03*
X003813Y014681D03*
X003538Y014681D03*
X004089Y013854D03*
X004089Y013578D03*
X004089Y013303D03*
X004168Y017555D03*
X004168Y017909D03*
X004246Y019248D03*
X007081Y004011D03*
X007278Y003736D03*
X007947Y002476D03*
X008262Y002476D03*
X008577Y002476D03*
X008577Y002161D03*
X008931Y002161D03*
X008931Y001846D03*
X009286Y001846D03*
X009286Y002161D03*
X009286Y002476D03*
X009286Y002791D03*
X009286Y003106D03*
X009286Y003421D03*
X009286Y003736D03*
X008971Y003736D03*
X008931Y002476D03*
X012199Y002712D03*
X012475Y002712D03*
X012475Y002437D03*
X004640Y002358D03*
X004286Y002358D03*
X004286Y002712D03*
X004640Y002712D03*
X004640Y002004D03*
X004286Y002004D03*
X004640Y001649D03*
X003931Y002358D03*
X003931Y002712D03*
X003577Y002712D03*
D57*
X004640Y002712D02*
X004884Y002468D01*
X005349Y002468D01*
X005349Y001366D02*
X006520Y001366D01*
X006672Y001214D01*
X006672Y002825D02*
X006890Y002825D01*
X006890Y003249D01*
X006269Y003888D01*
X006201Y003978D01*
X007022Y004799D01*
X007022Y006393D01*
X006491Y006925D01*
X006491Y007399D01*
X006474Y007415D01*
X004443Y004602D02*
X005098Y003947D01*
X005166Y003888D01*
X006890Y002825D02*
X008577Y001137D01*
X007987Y001139D01*
X008312Y001267D01*
X011572Y002137D02*
X011860Y002058D01*
X012382Y002580D02*
X012450Y002648D01*
X012992Y002648D01*
X018617Y002422D02*
X018617Y001137D01*
X002987Y010193D02*
X001687Y010193D01*
X013502Y025797D02*
X013498Y027122D01*
X025683Y023696D02*
X027002Y023696D01*
D58*
X027117Y005772D02*
X026097Y004287D01*
X027156Y004434D02*
X027156Y005064D01*
X027156Y005733D01*
X027656Y005733D02*
X027656Y005064D01*
X027656Y004434D01*
D59*
X027656Y005064D02*
X027800Y005064D01*
X027997Y004985D01*
X027156Y005733D02*
X027117Y005772D01*
D60*
X025162Y011158D02*
X025152Y011168D01*
X025152Y011649D01*
X022750Y011649D01*
X021834Y010733D01*
X021558Y010422D01*
X019404Y011531D02*
X019325Y011610D01*
X019325Y011885D01*
X019204Y012007D01*
X016254Y013067D02*
X014862Y013067D01*
X014861Y013068D01*
X014483Y010271D02*
X014483Y010005D01*
X009987Y010234D02*
X009987Y010785D01*
X020349Y005468D02*
X020821Y004996D01*
X020821Y004287D01*
X020998Y004110D01*
X021136Y004031D01*
D61*
X023813Y004326D03*
X024128Y004326D03*
X021884Y007633D03*
X021097Y007200D03*
X020034Y007279D03*
X018420Y006925D03*
X018223Y006492D03*
X016609Y005350D03*
X016609Y005035D03*
X016294Y005035D03*
X016294Y005350D03*
X013262Y001964D03*
X012987Y001964D03*
X012711Y001964D03*
X012278Y004051D03*
X012278Y004366D03*
X011963Y004366D03*
X011963Y004051D03*
X011963Y007240D03*
X011018Y007712D03*
X011609Y008342D03*
X010388Y009130D03*
X010191Y008736D03*
X010782Y009563D03*
X012042Y012200D03*
X011648Y012358D03*
X014483Y010271D03*
X016806Y012555D03*
X016806Y012870D03*
X017120Y012870D03*
X018223Y010626D03*
X020821Y010035D03*
X021884Y008696D03*
X022593Y010074D03*
X023105Y009759D03*
X021766Y011728D03*
X021294Y013696D03*
X022908Y014248D03*
X024089Y014759D03*
X024286Y014326D03*
X022947Y016492D03*
X009640Y018421D03*
X005152Y017909D03*
X005152Y017555D03*
X005309Y012319D03*
X007672Y011531D03*
X008617Y007437D03*
D62*
X009719Y012260D02*
X011097Y012260D01*
X010899Y015360D02*
X012592Y015360D01*
X008144Y019917D02*
X008144Y021708D01*
D63*
X021766Y011728D02*
X022199Y011728D01*
X022593Y012122D01*
X023126Y012122D01*
X023162Y012158D01*
X012382Y002580D02*
X012331Y002580D01*
X012475Y002437D01*
X012331Y002580D02*
X012015Y002580D01*
X011572Y002137D01*
D64*
X007736Y020829D02*
X005791Y020829D01*
D65*
X017239Y008578D02*
X017076Y008416D01*
X017239Y008578D02*
X017396Y008578D01*
D66*
X016643Y019242D02*
X015746Y019242D01*
X016643Y019242D02*
X016648Y019248D01*
X017514Y021256D02*
X017475Y021295D01*
X017475Y021846D01*
X016412Y021807D02*
X016372Y021767D01*
X015861Y021767D01*
X015821Y021728D01*
D67*
X026097Y004287D03*
X024522Y002712D03*
M02*
