G75*
%MOIN*%
%OFA0B0*%
%FSLAX24Y24*%
%IPPOS*%
%LPD*%
%AMOC8*
5,1,8,0,0,1.08239X$1,22.5*
%
%ADD10C,0.1300*%
%ADD11C,0.0640*%
%ADD12OC8,0.0780*%
%ADD13C,0.0571*%
%ADD14C,0.0780*%
%ADD15C,0.1733*%
D10*
X005979Y005429D03*
X007987Y004366D03*
X007987Y014917D03*
X005979Y022830D03*
X018577Y014917D03*
X023380Y022830D03*
X023380Y005429D03*
X018577Y004366D03*
D11*
X018617Y002722D02*
X018617Y002122D01*
X018617Y001437D02*
X018617Y000837D01*
X019617Y000837D02*
X019617Y001437D01*
X019617Y002122D02*
X019617Y002722D01*
X017617Y002722D02*
X017617Y002122D01*
X017617Y001437D02*
X017617Y000837D01*
X003287Y009193D02*
X002687Y009193D01*
X001987Y009193D02*
X001387Y009193D01*
X001387Y010193D02*
X001987Y010193D01*
X002687Y010193D02*
X003287Y010193D01*
X003287Y011193D02*
X002687Y011193D01*
X001987Y011193D02*
X001387Y011193D01*
X012502Y025497D02*
X012502Y026097D01*
X012498Y026822D02*
X012498Y027422D01*
X013498Y027422D02*
X013498Y026822D01*
X013502Y026097D02*
X013502Y025497D01*
X014502Y025497D02*
X014502Y026097D01*
X014498Y026822D02*
X014498Y027422D01*
X025383Y024696D02*
X025983Y024696D01*
X026702Y024696D02*
X027302Y024696D01*
X027302Y023696D02*
X026702Y023696D01*
X025983Y023696D02*
X025383Y023696D01*
X025383Y022696D02*
X025983Y022696D01*
X026702Y022696D02*
X027302Y022696D01*
D12*
X027162Y012158D03*
X027162Y011158D03*
X026162Y011158D03*
X025162Y011158D03*
X024162Y011158D03*
X023162Y011158D03*
X023162Y012158D03*
X024162Y012158D03*
X025162Y012158D03*
X026162Y012158D03*
D13*
X006470Y011423D02*
X005939Y011423D01*
X005939Y010423D02*
X006470Y010423D01*
X006470Y009423D02*
X005939Y009423D01*
X005939Y008423D02*
X006470Y008423D01*
X006474Y007415D02*
X005943Y007415D01*
D14*
X005879Y013295D03*
X005979Y014295D03*
X005879Y015295D03*
D15*
X024522Y002712D03*
X026097Y004287D03*
M02*
