G75*
%MOIN*%
%OFA0B0*%
%FSLAX24Y24*%
%IPPOS*%
%LPD*%
%AMOC8*
5,1,8,0,0,1.08239X$1,22.5*
%
%ADD10C,0.0100*%
%ADD11C,0.0040*%
%ADD12C,0.0020*%
%ADD13C,0.0060*%
%ADD14C,0.0000*%
%ADD15C,0.0004*%
%ADD16C,0.0050*%
%ADD17C,0.0010*%
%ADD18C,0.0160*%
%ADD19R,0.0300X0.0180*%
%ADD20C,0.0087*%
%ADD21R,0.0180X0.0300*%
%ADD22C,0.0080*%
%ADD23R,0.0200X0.0200*%
%ADD24C,0.0030*%
%ADD25C,0.0070*%
%ADD26C,0.0079*%
%ADD27R,0.0160X0.0280*%
%ADD28C,0.0059*%
%ADD29C,0.0028*%
%ADD30R,0.0236X0.0709*%
%ADD31R,0.0236X0.0433*%
D10*
X005018Y006490D02*
X007380Y006490D01*
X007419Y004364D02*
X007421Y004412D01*
X007427Y004460D01*
X007437Y004507D01*
X007450Y004553D01*
X007468Y004598D01*
X007488Y004642D01*
X007513Y004684D01*
X007541Y004723D01*
X007571Y004760D01*
X007605Y004794D01*
X007642Y004826D01*
X007680Y004855D01*
X007721Y004880D01*
X007764Y004902D01*
X007809Y004920D01*
X007855Y004934D01*
X007902Y004945D01*
X007950Y004952D01*
X007998Y004955D01*
X008046Y004954D01*
X008094Y004949D01*
X008142Y004940D01*
X008188Y004928D01*
X008233Y004911D01*
X008277Y004891D01*
X008319Y004868D01*
X008359Y004841D01*
X008397Y004811D01*
X008432Y004778D01*
X008464Y004742D01*
X008494Y004704D01*
X008520Y004663D01*
X008542Y004620D01*
X008562Y004576D01*
X008577Y004531D01*
X008589Y004484D01*
X008597Y004436D01*
X008601Y004388D01*
X008601Y004340D01*
X008597Y004292D01*
X008589Y004244D01*
X008577Y004197D01*
X008562Y004152D01*
X008542Y004108D01*
X008520Y004065D01*
X008494Y004024D01*
X008464Y003986D01*
X008432Y003950D01*
X008397Y003917D01*
X008359Y003887D01*
X008319Y003860D01*
X008277Y003837D01*
X008233Y003817D01*
X008188Y003800D01*
X008142Y003788D01*
X008094Y003779D01*
X008046Y003774D01*
X007998Y003773D01*
X007950Y003776D01*
X007902Y003783D01*
X007855Y003794D01*
X007809Y003808D01*
X007764Y003826D01*
X007721Y003848D01*
X007680Y003873D01*
X007642Y003902D01*
X007605Y003934D01*
X007571Y003968D01*
X007541Y004005D01*
X007513Y004044D01*
X007488Y004086D01*
X007468Y004130D01*
X007450Y004175D01*
X007437Y004221D01*
X007427Y004268D01*
X007421Y004316D01*
X007419Y004364D01*
X009743Y005622D02*
X009743Y010937D01*
X009841Y011035D01*
X015156Y011035D01*
X015254Y010937D01*
X015254Y005819D01*
X014959Y005523D01*
X009841Y005523D01*
X009743Y005622D01*
X005018Y006490D02*
X005018Y012396D01*
X007380Y012396D01*
X007419Y014915D02*
X007421Y014963D01*
X007427Y015011D01*
X007437Y015058D01*
X007450Y015104D01*
X007468Y015149D01*
X007488Y015193D01*
X007513Y015235D01*
X007541Y015274D01*
X007571Y015311D01*
X007605Y015345D01*
X007642Y015377D01*
X007680Y015406D01*
X007721Y015431D01*
X007764Y015453D01*
X007809Y015471D01*
X007855Y015485D01*
X007902Y015496D01*
X007950Y015503D01*
X007998Y015506D01*
X008046Y015505D01*
X008094Y015500D01*
X008142Y015491D01*
X008188Y015479D01*
X008233Y015462D01*
X008277Y015442D01*
X008319Y015419D01*
X008359Y015392D01*
X008397Y015362D01*
X008432Y015329D01*
X008464Y015293D01*
X008494Y015255D01*
X008520Y015214D01*
X008542Y015171D01*
X008562Y015127D01*
X008577Y015082D01*
X008589Y015035D01*
X008597Y014987D01*
X008601Y014939D01*
X008601Y014891D01*
X008597Y014843D01*
X008589Y014795D01*
X008577Y014748D01*
X008562Y014703D01*
X008542Y014659D01*
X008520Y014616D01*
X008494Y014575D01*
X008464Y014537D01*
X008432Y014501D01*
X008397Y014468D01*
X008359Y014438D01*
X008319Y014411D01*
X008277Y014388D01*
X008233Y014368D01*
X008188Y014351D01*
X008142Y014339D01*
X008094Y014330D01*
X008046Y014325D01*
X007998Y014324D01*
X007950Y014327D01*
X007902Y014334D01*
X007855Y014345D01*
X007809Y014359D01*
X007764Y014377D01*
X007721Y014399D01*
X007680Y014424D01*
X007642Y014453D01*
X007605Y014485D01*
X007571Y014519D01*
X007541Y014556D01*
X007513Y014595D01*
X007488Y014637D01*
X007468Y014681D01*
X007450Y014726D01*
X007437Y014772D01*
X007427Y014819D01*
X007421Y014867D01*
X007419Y014915D01*
X014763Y005917D02*
X014765Y005936D01*
X014770Y005955D01*
X014780Y005971D01*
X014792Y005986D01*
X014807Y005998D01*
X014823Y006008D01*
X014842Y006013D01*
X014861Y006015D01*
X014880Y006013D01*
X014899Y006008D01*
X014915Y005998D01*
X014930Y005986D01*
X014942Y005971D01*
X014952Y005955D01*
X014957Y005936D01*
X014959Y005917D01*
X014957Y005898D01*
X014952Y005879D01*
X014942Y005863D01*
X014930Y005848D01*
X014915Y005836D01*
X014899Y005826D01*
X014880Y005821D01*
X014861Y005819D01*
X014842Y005821D01*
X014823Y005826D01*
X014807Y005836D01*
X014792Y005848D01*
X014780Y005863D01*
X014770Y005879D01*
X014765Y005898D01*
X014763Y005917D01*
X017970Y004364D02*
X017972Y004412D01*
X017978Y004460D01*
X017988Y004507D01*
X018001Y004553D01*
X018019Y004598D01*
X018039Y004642D01*
X018064Y004684D01*
X018092Y004723D01*
X018122Y004760D01*
X018156Y004794D01*
X018193Y004826D01*
X018231Y004855D01*
X018272Y004880D01*
X018315Y004902D01*
X018360Y004920D01*
X018406Y004934D01*
X018453Y004945D01*
X018501Y004952D01*
X018549Y004955D01*
X018597Y004954D01*
X018645Y004949D01*
X018693Y004940D01*
X018739Y004928D01*
X018784Y004911D01*
X018828Y004891D01*
X018870Y004868D01*
X018910Y004841D01*
X018948Y004811D01*
X018983Y004778D01*
X019015Y004742D01*
X019045Y004704D01*
X019071Y004663D01*
X019093Y004620D01*
X019113Y004576D01*
X019128Y004531D01*
X019140Y004484D01*
X019148Y004436D01*
X019152Y004388D01*
X019152Y004340D01*
X019148Y004292D01*
X019140Y004244D01*
X019128Y004197D01*
X019113Y004152D01*
X019093Y004108D01*
X019071Y004065D01*
X019045Y004024D01*
X019015Y003986D01*
X018983Y003950D01*
X018948Y003917D01*
X018910Y003887D01*
X018870Y003860D01*
X018828Y003837D01*
X018784Y003817D01*
X018739Y003800D01*
X018693Y003788D01*
X018645Y003779D01*
X018597Y003774D01*
X018549Y003773D01*
X018501Y003776D01*
X018453Y003783D01*
X018406Y003794D01*
X018360Y003808D01*
X018315Y003826D01*
X018272Y003848D01*
X018231Y003873D01*
X018193Y003902D01*
X018156Y003934D01*
X018122Y003968D01*
X018092Y004005D01*
X018064Y004044D01*
X018039Y004086D01*
X018019Y004130D01*
X018001Y004175D01*
X017988Y004221D01*
X017978Y004268D01*
X017972Y004316D01*
X017970Y004364D01*
X017970Y014915D02*
X017972Y014963D01*
X017978Y015011D01*
X017988Y015058D01*
X018001Y015104D01*
X018019Y015149D01*
X018039Y015193D01*
X018064Y015235D01*
X018092Y015274D01*
X018122Y015311D01*
X018156Y015345D01*
X018193Y015377D01*
X018231Y015406D01*
X018272Y015431D01*
X018315Y015453D01*
X018360Y015471D01*
X018406Y015485D01*
X018453Y015496D01*
X018501Y015503D01*
X018549Y015506D01*
X018597Y015505D01*
X018645Y015500D01*
X018693Y015491D01*
X018739Y015479D01*
X018784Y015462D01*
X018828Y015442D01*
X018870Y015419D01*
X018910Y015392D01*
X018948Y015362D01*
X018983Y015329D01*
X019015Y015293D01*
X019045Y015255D01*
X019071Y015214D01*
X019093Y015171D01*
X019113Y015127D01*
X019128Y015082D01*
X019140Y015035D01*
X019148Y014987D01*
X019152Y014939D01*
X019152Y014891D01*
X019148Y014843D01*
X019140Y014795D01*
X019128Y014748D01*
X019113Y014703D01*
X019093Y014659D01*
X019071Y014616D01*
X019045Y014575D01*
X019015Y014537D01*
X018983Y014501D01*
X018948Y014468D01*
X018910Y014438D01*
X018870Y014411D01*
X018828Y014388D01*
X018784Y014368D01*
X018739Y014351D01*
X018693Y014339D01*
X018645Y014330D01*
X018597Y014325D01*
X018549Y014324D01*
X018501Y014327D01*
X018453Y014334D01*
X018406Y014345D01*
X018360Y014359D01*
X018315Y014377D01*
X018272Y014399D01*
X018231Y014424D01*
X018193Y014453D01*
X018156Y014485D01*
X018122Y014519D01*
X018092Y014556D01*
X018064Y014595D01*
X018039Y014637D01*
X018019Y014681D01*
X018001Y014726D01*
X017988Y014772D01*
X017978Y014819D01*
X017972Y014867D01*
X017970Y014915D01*
X021911Y019520D02*
X023884Y019520D01*
X023599Y019359D01*
X023599Y019681D02*
X023884Y019520D01*
X023902Y019520D01*
X022863Y019353D02*
X022763Y019256D01*
X022902Y019159D01*
X022763Y019256D02*
X022798Y019250D01*
X022834Y019249D01*
X022869Y019252D01*
X022904Y019258D01*
X022938Y019269D01*
X022970Y019283D01*
X023001Y019300D01*
X023029Y019321D01*
X023055Y019345D01*
X023078Y019372D01*
X023098Y019401D01*
X023115Y019432D01*
X023128Y019465D01*
X023137Y019499D01*
X023143Y019534D01*
X023144Y019570D01*
X023141Y019605D01*
X023135Y019640D01*
X023125Y019674D01*
X023111Y019706D01*
X023093Y019737D01*
X023072Y019765D01*
X023048Y019792D01*
X023022Y019815D01*
X022992Y019835D01*
X022961Y019852D01*
X022928Y019865D01*
X022894Y019874D01*
X022859Y019879D01*
X022824Y019881D01*
X022475Y020375D02*
X022314Y020236D01*
X022214Y020436D01*
X022314Y020236D02*
X022323Y020272D01*
X022328Y020309D01*
X022329Y020346D01*
X022326Y020383D01*
X022320Y020419D01*
X022310Y020455D01*
X022296Y020489D01*
X022279Y020522D01*
X022259Y020553D01*
X022235Y020582D01*
X022209Y020608D01*
X022180Y020631D01*
X022149Y020651D01*
X022116Y020668D01*
X022082Y020682D01*
X022046Y020691D01*
X022010Y020698D01*
X021973Y020700D01*
X021936Y020699D01*
X021899Y020693D01*
X021863Y020684D01*
X021828Y020672D01*
X021795Y020656D01*
X021763Y020636D01*
X021734Y020614D01*
X021707Y020588D01*
X021683Y020560D01*
X021662Y020530D01*
X021644Y020497D01*
X021629Y020463D01*
X021618Y020428D01*
X021611Y020392D01*
X021607Y020355D01*
X021608Y020318D01*
X021672Y021011D02*
X021911Y021336D01*
X022150Y021011D01*
X021911Y021336D02*
X021911Y021354D01*
X021911Y021336D02*
X021911Y019520D01*
X023055Y020853D02*
X023057Y020866D01*
X023062Y020879D01*
X023071Y020890D01*
X023082Y020897D01*
X023095Y020902D01*
X023108Y020903D01*
X023122Y020900D01*
X023134Y020894D01*
X023144Y020885D01*
X023151Y020873D01*
X023155Y020860D01*
X023155Y020846D01*
X023151Y020833D01*
X023144Y020821D01*
X023134Y020812D01*
X023122Y020806D01*
X023108Y020803D01*
X023095Y020804D01*
X023082Y020809D01*
X023071Y020816D01*
X023062Y020827D01*
X023057Y020840D01*
X023055Y020853D01*
X022744Y020893D02*
X022746Y020931D01*
X022752Y020968D01*
X022762Y021005D01*
X022775Y021040D01*
X022792Y021073D01*
X022813Y021105D01*
X022837Y021135D01*
X022863Y021161D01*
X022893Y021185D01*
X022924Y021206D01*
X022958Y021223D01*
X022993Y021236D01*
X023030Y021246D01*
X023067Y021252D01*
X023105Y021254D01*
X023143Y021252D01*
X023180Y021246D01*
X023217Y021236D01*
X023252Y021223D01*
X023285Y021206D01*
X023317Y021185D01*
X023347Y021161D01*
X023373Y021135D01*
X023397Y021105D01*
X023418Y021074D01*
X023435Y021040D01*
X023448Y021005D01*
X023458Y020968D01*
X023464Y020931D01*
X023466Y020893D01*
X023464Y020855D01*
X023458Y020818D01*
X023448Y020781D01*
X023435Y020746D01*
X023418Y020713D01*
X023397Y020681D01*
X023373Y020651D01*
X023347Y020625D01*
X023317Y020601D01*
X023286Y020580D01*
X023252Y020563D01*
X023217Y020550D01*
X023180Y020540D01*
X023143Y020534D01*
X023105Y020532D01*
X023067Y020534D01*
X023030Y020540D01*
X022993Y020550D01*
X022958Y020563D01*
X022925Y020580D01*
X022893Y020601D01*
X022863Y020625D01*
X022837Y020651D01*
X022813Y020681D01*
X022792Y020712D01*
X022775Y020746D01*
X022762Y020781D01*
X022752Y020818D01*
X022746Y020855D01*
X022744Y020893D01*
X022944Y021232D02*
X023105Y021132D01*
X022944Y021232D02*
X023005Y021393D01*
D11*
X023625Y021229D02*
X023625Y021152D01*
X023932Y021152D01*
X023625Y021229D02*
X023932Y021536D01*
X023932Y021612D01*
X023625Y021612D01*
X022414Y021821D02*
X022414Y021898D01*
X022414Y021821D02*
X022260Y021668D01*
X022260Y021438D01*
X022260Y021668D02*
X022107Y021821D01*
X022107Y021898D01*
X021894Y023477D02*
X021971Y023554D01*
X021971Y023630D01*
X021894Y023707D01*
X021510Y023707D01*
X021510Y023630D02*
X021510Y023784D01*
X021510Y023937D02*
X021510Y024168D01*
X021587Y024244D01*
X021740Y024244D01*
X021817Y024168D01*
X021817Y023937D01*
X021971Y023937D02*
X021510Y023937D01*
X021664Y024398D02*
X021510Y024551D01*
X021971Y024551D01*
X021971Y024398D02*
X021971Y024705D01*
X023692Y020352D02*
X023999Y019891D01*
X023692Y019891D02*
X023999Y020352D01*
D12*
X025341Y021907D02*
X025304Y021943D01*
X025341Y021907D02*
X025414Y021907D01*
X025451Y021943D01*
X025451Y021980D01*
X025414Y022017D01*
X025341Y022017D01*
X025304Y022054D01*
X025304Y022090D01*
X025341Y022127D01*
X025414Y022127D01*
X025451Y022090D01*
X025525Y022127D02*
X025525Y021907D01*
X025672Y021907D01*
X025746Y021907D02*
X025893Y021907D01*
X025967Y021907D02*
X026114Y022054D01*
X026114Y022090D01*
X026077Y022127D01*
X026004Y022127D01*
X025967Y022090D01*
X025967Y021907D02*
X026114Y021907D01*
X025746Y021907D02*
X025746Y022127D01*
X025672Y022127D02*
X025525Y022127D01*
X025525Y022017D02*
X025599Y022017D01*
X026639Y022076D02*
X026639Y021929D01*
X026676Y021892D01*
X026749Y021892D01*
X026786Y021929D01*
X026786Y022003D01*
X026713Y022003D01*
X026786Y022076D02*
X026749Y022113D01*
X026676Y022113D01*
X026639Y022076D01*
X026860Y022113D02*
X027007Y021892D01*
X027007Y022113D01*
X027081Y022113D02*
X027191Y022113D01*
X027228Y022076D01*
X027228Y021929D01*
X027191Y021892D01*
X027081Y021892D01*
X027081Y022113D01*
X026860Y022113D02*
X026860Y021892D01*
X024969Y023031D02*
X024932Y022994D01*
X024858Y022994D01*
X024822Y023031D01*
X024822Y023104D01*
X024858Y023141D01*
X024932Y023141D01*
X024969Y023104D01*
X024969Y023031D01*
X024858Y023215D02*
X024858Y023288D01*
X024858Y023362D02*
X024858Y023436D01*
X024785Y023399D02*
X024748Y023436D01*
X024785Y023399D02*
X024969Y023399D01*
X024969Y023252D02*
X024785Y023252D01*
X024748Y023288D01*
X024858Y024052D02*
X024932Y024052D01*
X024969Y024089D01*
X024969Y024162D01*
X024932Y024199D01*
X024858Y024199D01*
X024822Y024162D01*
X024822Y024089D01*
X024858Y024052D01*
X024822Y024273D02*
X024822Y024383D01*
X024858Y024420D01*
X024969Y024420D01*
X024969Y024273D02*
X024822Y024273D01*
X020733Y017170D02*
X020623Y017170D01*
X020623Y016950D01*
X020623Y017023D02*
X020733Y017023D01*
X020770Y017060D01*
X020770Y017133D01*
X020733Y017170D01*
X020696Y017023D02*
X020770Y016950D01*
X020549Y016950D02*
X020402Y016950D01*
X020402Y017170D01*
X020549Y017170D01*
X020475Y017060D02*
X020402Y017060D01*
X020328Y017170D02*
X020181Y017170D01*
X020254Y017170D02*
X020254Y016950D01*
X020107Y016950D02*
X020033Y017023D01*
X020070Y017023D02*
X019960Y017023D01*
X019960Y016950D02*
X019960Y017170D01*
X020070Y017170D01*
X020107Y017133D01*
X020107Y017060D01*
X020070Y017023D01*
X019886Y016950D02*
X019739Y016950D01*
X019739Y017170D01*
X019886Y017170D01*
X019812Y017060D02*
X019739Y017060D01*
X019665Y017023D02*
X019665Y017170D01*
X019665Y017023D02*
X019591Y016950D01*
X019518Y017023D01*
X019518Y017170D01*
X019444Y017170D02*
X019444Y016950D01*
X019297Y017170D01*
X019297Y016950D01*
X019223Y016986D02*
X019186Y016950D01*
X019113Y016950D01*
X019076Y016986D01*
X019076Y017133D01*
X019113Y017170D01*
X019186Y017170D01*
X019223Y017133D01*
X019223Y016986D01*
X019002Y016986D02*
X018965Y016950D01*
X018892Y016950D01*
X018855Y016986D01*
X018855Y017133D01*
X018892Y017170D01*
X018965Y017170D01*
X019002Y017133D01*
X018781Y016913D02*
X018634Y016913D01*
X018560Y016950D02*
X018413Y017170D01*
X018339Y017170D02*
X018192Y017170D01*
X018192Y016950D01*
X018339Y016950D01*
X018413Y016950D02*
X018560Y017170D01*
X018265Y017060D02*
X018192Y017060D01*
X018118Y017060D02*
X017971Y017060D01*
X017971Y016950D02*
X017971Y017170D01*
X018118Y017170D02*
X018118Y016950D01*
X018081Y017450D02*
X018118Y017486D01*
X018118Y017670D01*
X018192Y017633D02*
X018229Y017670D01*
X018302Y017670D01*
X018339Y017633D01*
X018339Y017596D01*
X018192Y017450D01*
X018339Y017450D01*
X018081Y017450D02*
X018008Y017450D01*
X017971Y017486D01*
X017971Y017670D01*
X022370Y012372D02*
X022370Y012185D01*
X022370Y012278D02*
X022651Y012278D01*
X022604Y012096D02*
X022651Y012049D01*
X022651Y011955D01*
X022604Y011909D01*
X022651Y011819D02*
X022557Y011726D01*
X022557Y011773D02*
X022557Y011632D01*
X022651Y011632D02*
X022370Y011632D01*
X022370Y011773D01*
X022417Y011819D01*
X022511Y011819D01*
X022557Y011773D01*
X022464Y011909D02*
X022511Y011955D01*
X022511Y012049D01*
X022557Y012096D01*
X022604Y012096D01*
X022417Y012096D02*
X022370Y012049D01*
X022370Y011955D01*
X022417Y011909D01*
X022464Y011909D01*
X022883Y009036D02*
X022883Y006861D01*
X018917Y006861D01*
X018917Y009036D01*
X022883Y009036D01*
X019340Y003293D02*
X019303Y003256D01*
X019303Y003073D01*
X019267Y003183D02*
X019340Y003183D01*
X019193Y003183D02*
X019119Y003183D01*
X019045Y003183D02*
X019008Y003220D01*
X018935Y003220D01*
X018898Y003183D01*
X018898Y003109D01*
X018935Y003073D01*
X019008Y003073D01*
X019045Y003109D01*
X019045Y003183D01*
X019156Y003256D02*
X019193Y003293D01*
X019156Y003256D02*
X019156Y003073D01*
X018257Y003073D02*
X018257Y003183D01*
X018220Y003220D01*
X018110Y003220D01*
X018110Y003073D01*
X018036Y003109D02*
X018036Y003183D01*
X017999Y003220D01*
X017926Y003220D01*
X017889Y003183D01*
X017889Y003109D01*
X017926Y003073D01*
X017999Y003073D01*
X018036Y003109D01*
X020225Y002856D02*
X020225Y002783D01*
X020262Y002746D01*
X020335Y002820D02*
X020335Y002856D01*
X020372Y002893D01*
X020409Y002893D01*
X020446Y002856D01*
X020446Y002783D01*
X020409Y002746D01*
X020446Y002672D02*
X020446Y002525D01*
X020225Y002525D01*
X020225Y002451D02*
X020225Y002304D01*
X020446Y002304D01*
X020446Y002451D01*
X020335Y002378D02*
X020335Y002304D01*
X020372Y002230D02*
X020409Y002230D01*
X020446Y002193D01*
X020446Y002120D01*
X020409Y002083D01*
X020335Y002120D02*
X020335Y002193D01*
X020372Y002230D01*
X020262Y002230D02*
X020225Y002193D01*
X020225Y002120D01*
X020262Y002083D01*
X020299Y002083D01*
X020335Y002120D01*
X020382Y001407D02*
X020235Y001407D01*
X020198Y001370D01*
X020198Y001260D01*
X020418Y001260D01*
X020418Y001370D01*
X020382Y001407D01*
X020418Y001186D02*
X020198Y001186D01*
X020198Y001039D02*
X020418Y001186D01*
X020418Y001039D02*
X020198Y001039D01*
X020235Y000965D02*
X020198Y000928D01*
X020198Y000855D01*
X020235Y000818D01*
X020382Y000818D01*
X020418Y000855D01*
X020418Y000928D01*
X020382Y000965D01*
X020308Y000965D01*
X020308Y000892D01*
X020335Y002856D02*
X020299Y002893D01*
X020262Y002893D01*
X020225Y002856D01*
X010640Y015230D02*
X010677Y015267D01*
X010677Y015414D01*
X010640Y015450D01*
X010530Y015450D01*
X010530Y015230D01*
X010640Y015230D01*
X010456Y015267D02*
X010419Y015230D01*
X010346Y015230D01*
X010309Y015267D01*
X010456Y015414D01*
X010456Y015267D01*
X010456Y015414D02*
X010419Y015450D01*
X010346Y015450D01*
X010309Y015414D01*
X010309Y015267D01*
X010235Y015267D02*
X010198Y015230D01*
X010125Y015230D01*
X010088Y015267D01*
X010235Y015414D01*
X010235Y015267D01*
X010235Y015414D02*
X010198Y015450D01*
X010125Y015450D01*
X010088Y015414D01*
X010088Y015267D01*
X010014Y015230D02*
X009867Y015230D01*
X010014Y015377D01*
X010014Y015414D01*
X009977Y015450D01*
X009904Y015450D01*
X009867Y015414D01*
X009793Y015340D02*
X009646Y015340D01*
X009756Y015450D01*
X009756Y015230D01*
X009572Y015267D02*
X009572Y015340D01*
X009498Y015340D01*
X009425Y015267D02*
X009462Y015230D01*
X009535Y015230D01*
X009572Y015267D01*
X009572Y015414D02*
X009535Y015450D01*
X009462Y015450D01*
X009425Y015414D01*
X009425Y015267D01*
X009351Y015267D02*
X009314Y015230D01*
X009241Y015230D01*
X009204Y015267D01*
X009130Y015230D02*
X008983Y015230D01*
X008983Y015450D01*
X009204Y015414D02*
X009241Y015450D01*
X009314Y015450D01*
X009351Y015414D01*
X009351Y015377D01*
X009314Y015340D01*
X009351Y015304D01*
X009351Y015267D01*
X009314Y015340D02*
X009277Y015340D01*
X007840Y019571D02*
X007767Y019571D01*
X007730Y019607D01*
X007730Y019681D02*
X007804Y019717D01*
X007840Y019717D01*
X007877Y019681D01*
X007877Y019607D01*
X007840Y019571D01*
X007730Y019681D02*
X007730Y019791D01*
X007877Y019791D01*
X007656Y019754D02*
X007656Y019717D01*
X007619Y019681D01*
X007546Y019681D01*
X007509Y019717D01*
X007509Y019754D01*
X007546Y019791D01*
X007619Y019791D01*
X007656Y019754D01*
X007619Y019681D02*
X007656Y019644D01*
X007656Y019607D01*
X007619Y019571D01*
X007546Y019571D01*
X007509Y019607D01*
X007509Y019644D01*
X007546Y019681D01*
X007435Y019754D02*
X007288Y019607D01*
X007325Y019571D01*
X007398Y019571D01*
X007435Y019607D01*
X007435Y019754D01*
X007398Y019791D01*
X007325Y019791D01*
X007288Y019754D01*
X007288Y019607D01*
X007214Y019681D02*
X007178Y019644D01*
X007067Y019644D01*
X007067Y019571D02*
X007067Y019791D01*
X007178Y019791D01*
X007214Y019754D01*
X007214Y019681D01*
X006993Y019791D02*
X006993Y019571D01*
X006846Y019571D02*
X006846Y019791D01*
X006920Y019717D01*
X006993Y019791D01*
X006772Y019754D02*
X006772Y019717D01*
X006736Y019681D01*
X006625Y019681D01*
X006625Y019791D02*
X006736Y019791D01*
X006772Y019754D01*
X006736Y019681D02*
X006772Y019644D01*
X006772Y019607D01*
X006736Y019571D01*
X006625Y019571D01*
X006625Y019791D01*
X005041Y014717D02*
X005041Y014571D01*
X005261Y014571D01*
X005261Y014496D02*
X005187Y014423D01*
X005187Y014460D02*
X005187Y014350D01*
X005261Y014350D02*
X005041Y014350D01*
X005041Y014460D01*
X005077Y014496D01*
X005151Y014496D01*
X005187Y014460D01*
X005151Y014571D02*
X005151Y014644D01*
X005187Y014275D02*
X005151Y014239D01*
X005151Y014165D01*
X005114Y014129D01*
X005077Y014129D01*
X005041Y014165D01*
X005041Y014239D01*
X005077Y014275D01*
X005187Y014275D02*
X005224Y014275D01*
X005261Y014239D01*
X005261Y014165D01*
X005224Y014129D01*
X005224Y014055D02*
X005041Y014055D01*
X005041Y013908D02*
X005224Y013908D01*
X005261Y013944D01*
X005261Y014018D01*
X005224Y014055D01*
X003350Y011951D02*
X003203Y011951D01*
X003313Y012061D01*
X003313Y011841D01*
X003129Y011841D02*
X002982Y011841D01*
X002982Y012061D01*
X002908Y012061D02*
X002761Y012061D01*
X002761Y011841D01*
X002908Y011841D01*
X002835Y011951D02*
X002761Y011951D01*
X002687Y011914D02*
X002687Y011878D01*
X002650Y011841D01*
X002577Y011841D01*
X002540Y011878D01*
X002577Y011951D02*
X002650Y011951D01*
X002687Y011914D01*
X002687Y012024D02*
X002650Y012061D01*
X002577Y012061D01*
X002540Y012024D01*
X002540Y011988D01*
X002577Y011951D01*
X003721Y010940D02*
X003758Y010903D01*
X003941Y010903D01*
X003831Y010866D02*
X003831Y010940D01*
X003831Y010792D02*
X003831Y010719D01*
X003831Y010645D02*
X003794Y010608D01*
X003794Y010534D01*
X003831Y010498D01*
X003904Y010498D01*
X003941Y010534D01*
X003941Y010608D01*
X003904Y010645D01*
X003831Y010645D01*
X003758Y010755D02*
X003721Y010792D01*
X003758Y010755D02*
X003941Y010755D01*
X003941Y009881D02*
X003831Y009881D01*
X003794Y009845D01*
X003794Y009735D01*
X003941Y009735D01*
X003904Y009660D02*
X003831Y009660D01*
X003794Y009624D01*
X003794Y009550D01*
X003831Y009514D01*
X003904Y009514D01*
X003941Y009550D01*
X003941Y009624D01*
X003904Y009660D01*
X001996Y008535D02*
X001996Y008388D01*
X001960Y008351D01*
X001850Y008351D01*
X001850Y008572D01*
X001960Y008572D01*
X001996Y008535D01*
X001775Y008572D02*
X001775Y008351D01*
X001629Y008572D01*
X001629Y008351D01*
X001554Y008388D02*
X001554Y008461D01*
X001481Y008461D01*
X001408Y008388D02*
X001444Y008351D01*
X001518Y008351D01*
X001554Y008388D01*
X001408Y008388D02*
X001408Y008535D01*
X001444Y008572D01*
X001518Y008572D01*
X001554Y008535D01*
X006735Y003411D02*
X006882Y003411D01*
X006956Y003338D02*
X007029Y003411D01*
X007029Y003191D01*
X006956Y003191D02*
X007103Y003191D01*
X006808Y003301D02*
X006735Y003301D01*
X006735Y003191D02*
X006735Y003411D01*
X013356Y023827D02*
X013356Y024047D01*
X013430Y023974D01*
X013503Y024047D01*
X013503Y023827D01*
X013577Y023864D02*
X013614Y023901D01*
X013724Y023901D01*
X013724Y023937D02*
X013724Y023827D01*
X013614Y023827D01*
X013577Y023864D01*
X013614Y023974D02*
X013687Y023974D01*
X013724Y023937D01*
X013798Y023974D02*
X013798Y023864D01*
X013835Y023827D01*
X013945Y023827D01*
X013945Y023791D02*
X013908Y023754D01*
X013872Y023754D01*
X013945Y023791D02*
X013945Y023974D01*
X013943Y024187D02*
X014053Y024187D01*
X014090Y024224D01*
X014053Y024261D01*
X013980Y024261D01*
X013943Y024297D01*
X013980Y024334D01*
X014090Y024334D01*
X014164Y024334D02*
X014201Y024334D01*
X014201Y024187D01*
X014237Y024187D02*
X014164Y024187D01*
X014311Y024224D02*
X014348Y024187D01*
X014421Y024187D01*
X014458Y024224D01*
X014458Y024297D01*
X014421Y024334D01*
X014348Y024334D01*
X014311Y024297D01*
X014311Y024224D01*
X014277Y024047D02*
X014350Y024047D01*
X014387Y024011D01*
X014387Y023974D01*
X014240Y023827D01*
X014387Y023827D01*
X014461Y023864D02*
X014608Y024011D01*
X014608Y023864D01*
X014571Y023827D01*
X014498Y023827D01*
X014461Y023864D01*
X014461Y024011D01*
X014498Y024047D01*
X014571Y024047D01*
X014608Y024011D01*
X014682Y023974D02*
X014756Y024047D01*
X014756Y023827D01*
X014829Y023827D02*
X014682Y023827D01*
X014903Y023937D02*
X015050Y023937D01*
X015013Y023827D02*
X015013Y024047D01*
X014903Y023937D01*
X015084Y024187D02*
X015084Y024407D01*
X014974Y024297D01*
X015121Y024297D01*
X015101Y024527D02*
X015138Y024563D01*
X015138Y024637D01*
X015101Y024673D01*
X015028Y024673D01*
X014991Y024637D01*
X014991Y024563D01*
X015028Y024527D01*
X015101Y024527D01*
X015212Y024563D02*
X015249Y024600D01*
X015359Y024600D01*
X015359Y024637D02*
X015359Y024527D01*
X015249Y024527D01*
X015212Y024563D01*
X015249Y024673D02*
X015322Y024673D01*
X015359Y024637D01*
X015433Y024673D02*
X015433Y024527D01*
X015433Y024600D02*
X015507Y024673D01*
X015543Y024673D01*
X015617Y024637D02*
X015654Y024673D01*
X015764Y024673D01*
X015764Y024747D02*
X015764Y024527D01*
X015654Y024527D01*
X015617Y024563D01*
X015617Y024637D01*
X015255Y025300D02*
X015292Y025337D01*
X015292Y025411D01*
X015255Y025447D01*
X015219Y025447D01*
X015182Y025411D01*
X015182Y025337D01*
X015145Y025300D01*
X015109Y025300D01*
X015072Y025337D01*
X015072Y025411D01*
X015109Y025447D01*
X015072Y025521D02*
X015292Y025521D01*
X015292Y025668D01*
X015292Y025742D02*
X015292Y025889D01*
X015292Y025963D02*
X015292Y026110D01*
X015292Y026037D02*
X015072Y026037D01*
X015145Y025963D01*
X015072Y025742D02*
X015292Y025742D01*
X015182Y025595D02*
X015182Y025521D01*
X015072Y025521D02*
X015072Y025668D01*
X014880Y024747D02*
X014917Y024710D01*
X014917Y024673D01*
X014880Y024637D01*
X014770Y024637D01*
X014770Y024527D02*
X014770Y024747D01*
X014880Y024747D01*
X014880Y024637D02*
X014917Y024600D01*
X014917Y024563D01*
X014880Y024527D01*
X014770Y024527D01*
X014642Y024334D02*
X014532Y024334D01*
X014532Y024187D01*
X014679Y024187D02*
X014679Y024297D01*
X014642Y024334D01*
X014475Y024527D02*
X014402Y024527D01*
X014439Y024527D02*
X014439Y024747D01*
X014402Y024747D01*
X014328Y024637D02*
X014291Y024673D01*
X014218Y024673D01*
X014181Y024637D01*
X014181Y024563D01*
X014218Y024527D01*
X014291Y024527D01*
X014328Y024563D01*
X014328Y024637D01*
X014107Y024673D02*
X014070Y024673D01*
X013997Y024600D01*
X013997Y024527D02*
X013997Y024673D01*
X013923Y024673D02*
X013850Y024673D01*
X013886Y024710D02*
X013886Y024563D01*
X013923Y024527D01*
X013775Y024527D02*
X013775Y024637D01*
X013739Y024673D01*
X013629Y024673D01*
X013629Y024527D01*
X013554Y024563D02*
X013554Y024637D01*
X013518Y024673D01*
X013444Y024673D01*
X013408Y024637D01*
X013408Y024563D01*
X013444Y024527D01*
X013518Y024527D01*
X013554Y024563D01*
X013464Y024407D02*
X013464Y024261D01*
X013390Y024187D01*
X013317Y024261D01*
X013317Y024407D01*
X013297Y024527D02*
X013333Y024563D01*
X013297Y024527D02*
X013223Y024527D01*
X013187Y024563D01*
X013187Y024710D01*
X013223Y024747D01*
X013297Y024747D01*
X013333Y024710D01*
X013139Y024923D02*
X013139Y025033D01*
X013102Y025070D01*
X012992Y025070D01*
X012992Y024923D01*
X012918Y024960D02*
X012918Y025033D01*
X012881Y025070D01*
X012808Y025070D01*
X012771Y025033D01*
X012771Y024960D01*
X012808Y024923D01*
X012881Y024923D01*
X012918Y024960D01*
X012855Y024747D02*
X012891Y024710D01*
X012891Y024563D01*
X012855Y024527D01*
X012781Y024527D01*
X012745Y024563D01*
X012745Y024710D01*
X012781Y024747D01*
X012855Y024747D01*
X012818Y024600D02*
X012891Y024527D01*
X012670Y024563D02*
X012634Y024527D01*
X012560Y024527D01*
X012524Y024563D01*
X012449Y024563D02*
X012449Y024710D01*
X012413Y024747D01*
X012339Y024747D01*
X012303Y024710D01*
X012303Y024563D01*
X012339Y024527D01*
X012413Y024527D01*
X012449Y024563D01*
X012524Y024673D02*
X012560Y024637D01*
X012634Y024637D01*
X012670Y024600D01*
X012670Y024563D01*
X012670Y024710D02*
X012634Y024747D01*
X012560Y024747D01*
X012524Y024710D01*
X012524Y024673D01*
X013538Y024297D02*
X013575Y024334D01*
X013648Y024334D01*
X013685Y024297D01*
X013685Y024261D01*
X013538Y024261D01*
X013538Y024297D02*
X013538Y024224D01*
X013575Y024187D01*
X013648Y024187D01*
X013759Y024187D02*
X013759Y024334D01*
X013832Y024334D02*
X013869Y024334D01*
X013832Y024334D02*
X013759Y024261D01*
X014201Y024407D02*
X014201Y024444D01*
X014277Y024047D02*
X014240Y024011D01*
X014087Y024923D02*
X014087Y025107D01*
X014123Y025143D01*
X014123Y025033D02*
X014050Y025033D01*
X013976Y025033D02*
X013903Y025033D01*
X013829Y025033D02*
X013792Y025070D01*
X013718Y025070D01*
X013682Y025033D01*
X013682Y024960D01*
X013718Y024923D01*
X013792Y024923D01*
X013829Y024960D01*
X013829Y025033D01*
X013939Y025107D02*
X013939Y024923D01*
X013939Y025107D02*
X013976Y025143D01*
X015077Y026881D02*
X015224Y026881D01*
X015261Y026918D01*
X015261Y026991D01*
X015224Y027028D01*
X015151Y027028D01*
X015151Y026955D01*
X015077Y027028D02*
X015041Y026991D01*
X015041Y026918D01*
X015077Y026881D01*
X015041Y027102D02*
X015261Y027249D01*
X015041Y027249D01*
X015041Y027323D02*
X015041Y027433D01*
X015077Y027470D01*
X015224Y027470D01*
X015261Y027433D01*
X015261Y027323D01*
X015041Y027323D01*
X015041Y027102D02*
X015261Y027102D01*
X004709Y026760D02*
X004605Y026656D01*
X004657Y026708D02*
X004501Y026864D01*
X004501Y026760D01*
X004423Y026733D02*
X004371Y026733D01*
X004319Y026681D01*
X004319Y026630D01*
X004423Y026526D01*
X004475Y026526D01*
X004527Y026578D01*
X004527Y026630D01*
X004423Y026733D01*
X004241Y026603D02*
X004189Y026551D01*
X004215Y026577D02*
X004371Y026422D01*
X004345Y026396D02*
X004397Y026447D01*
X004266Y026369D02*
X004163Y026473D01*
X004111Y026473D01*
X004033Y026395D01*
X004189Y026239D01*
X004266Y026317D01*
X004266Y026369D01*
X003834Y025874D02*
X003782Y025822D01*
X003808Y025848D02*
X003652Y026003D01*
X003626Y025977D02*
X003678Y026029D01*
X003599Y025899D02*
X003548Y025899D01*
X003496Y025847D01*
X003496Y025795D01*
X003522Y025769D01*
X003573Y025769D01*
X003625Y025821D01*
X003677Y025821D01*
X003703Y025795D01*
X003703Y025743D01*
X003651Y025691D01*
X003599Y025691D01*
X003547Y025639D02*
X003547Y025587D01*
X003495Y025535D01*
X003443Y025535D01*
X003417Y025613D02*
X003469Y025665D01*
X003521Y025665D01*
X003547Y025639D01*
X003417Y025613D02*
X003365Y025613D01*
X003339Y025639D01*
X003339Y025691D01*
X003391Y025743D01*
X003443Y025743D01*
X003287Y025586D02*
X003339Y025535D01*
X003339Y025483D01*
X003261Y025405D01*
X003313Y025457D02*
X003417Y025457D01*
X003313Y025353D02*
X003157Y025509D01*
X003235Y025586D01*
X003287Y025586D01*
D13*
X004857Y020656D02*
X005977Y020656D01*
X005977Y020136D01*
X004857Y020136D01*
X004857Y020656D01*
X007573Y021025D02*
X007573Y021545D01*
X008693Y021545D01*
X008693Y021025D01*
X007573Y021025D01*
X012002Y025547D02*
X012252Y025297D01*
X012752Y025297D01*
X013002Y025547D01*
X013252Y025297D01*
X013752Y025297D01*
X014002Y025547D01*
X014252Y025297D01*
X014752Y025297D01*
X015002Y025547D01*
X015002Y026047D01*
X014752Y026297D01*
X014252Y026297D01*
X014002Y026047D01*
X014002Y025547D01*
X014002Y026047D02*
X013752Y026297D01*
X013252Y026297D01*
X013002Y026047D01*
X013002Y025547D01*
X013002Y026047D02*
X012752Y026297D01*
X012252Y026297D01*
X012002Y026047D01*
X012002Y025547D01*
X012248Y026622D02*
X011998Y026872D01*
X011998Y027372D01*
X012248Y027622D01*
X012748Y027622D01*
X012998Y027372D01*
X013248Y027622D01*
X013748Y027622D01*
X013998Y027372D01*
X014248Y027622D01*
X014748Y027622D01*
X014998Y027372D01*
X014998Y026872D01*
X014748Y026622D01*
X014248Y026622D01*
X013998Y026872D01*
X013748Y026622D01*
X013248Y026622D01*
X012998Y026872D01*
X012748Y026622D01*
X012248Y026622D01*
X012998Y026872D02*
X012998Y027372D01*
X013998Y027372D02*
X013998Y026872D01*
X015659Y022020D02*
X016779Y022020D01*
X016779Y021500D01*
X015659Y021500D01*
X015659Y022020D01*
X016909Y020115D02*
X018029Y020115D01*
X018029Y019595D01*
X016909Y019595D01*
X016909Y020115D01*
X015508Y015803D02*
X014388Y015803D01*
X014388Y015283D01*
X015508Y015283D01*
X015508Y015803D01*
X013680Y015063D02*
X013680Y014543D01*
X012560Y014543D01*
X012560Y015063D01*
X013680Y015063D01*
X018853Y009100D02*
X022947Y009100D01*
X022947Y006797D01*
X018853Y006797D01*
X018853Y009100D01*
X022382Y008716D02*
X022384Y008742D01*
X022390Y008768D01*
X022399Y008793D01*
X022412Y008816D01*
X022428Y008837D01*
X022447Y008855D01*
X022469Y008871D01*
X022492Y008883D01*
X022517Y008891D01*
X022543Y008896D01*
X022570Y008897D01*
X022596Y008894D01*
X022621Y008887D01*
X022646Y008877D01*
X022668Y008863D01*
X022689Y008846D01*
X022706Y008827D01*
X022721Y008805D01*
X022732Y008781D01*
X022740Y008755D01*
X022744Y008729D01*
X022744Y008703D01*
X022740Y008677D01*
X022732Y008651D01*
X022721Y008627D01*
X022706Y008605D01*
X022689Y008586D01*
X022668Y008569D01*
X022646Y008555D01*
X022621Y008545D01*
X022596Y008538D01*
X022570Y008535D01*
X022543Y008536D01*
X022517Y008541D01*
X022492Y008549D01*
X022469Y008561D01*
X022447Y008577D01*
X022428Y008595D01*
X022412Y008616D01*
X022399Y008639D01*
X022390Y008664D01*
X022384Y008690D01*
X022382Y008716D01*
X022912Y010658D02*
X022662Y010908D01*
X022662Y012408D01*
X022912Y012658D01*
X023412Y012658D01*
X023662Y012408D01*
X023662Y010908D01*
X023912Y010658D01*
X024412Y010658D01*
X024662Y010908D01*
X024662Y012408D01*
X024912Y012658D01*
X025412Y012658D01*
X025662Y012408D01*
X025662Y010908D01*
X025912Y010658D01*
X026412Y010658D01*
X026662Y010908D01*
X026912Y010658D01*
X027412Y010658D01*
X027662Y010908D01*
X027662Y012408D01*
X027412Y012658D01*
X026912Y012658D01*
X026662Y012408D01*
X026662Y010908D01*
X025662Y010908D02*
X025412Y010658D01*
X024912Y010658D01*
X024662Y010908D01*
X023662Y010908D02*
X023412Y010658D01*
X022912Y010658D01*
X023662Y012408D02*
X023912Y012658D01*
X024412Y012658D01*
X024662Y012408D01*
X025662Y012408D02*
X025912Y012658D01*
X026412Y012658D01*
X026662Y012408D01*
X027235Y003637D02*
X026933Y003335D01*
X025582Y001944D02*
X025280Y001643D01*
X025280Y001944D02*
X025582Y001643D01*
X020117Y001387D02*
X020117Y000887D01*
X019867Y000637D01*
X019367Y000637D01*
X019117Y000887D01*
X018867Y000637D01*
X018367Y000637D01*
X018117Y000887D01*
X017867Y000637D01*
X017367Y000637D01*
X017117Y000887D01*
X017117Y001387D01*
X017367Y001637D01*
X017867Y001637D01*
X018117Y001387D01*
X018367Y001637D01*
X018867Y001637D01*
X019117Y001387D01*
X019367Y001637D01*
X019867Y001637D01*
X020117Y001387D01*
X019867Y001922D02*
X019367Y001922D01*
X019117Y002172D01*
X018867Y001922D01*
X018367Y001922D01*
X018117Y002172D01*
X017867Y001922D01*
X017367Y001922D01*
X017117Y002172D01*
X017117Y002672D01*
X017367Y002922D01*
X017867Y002922D01*
X018117Y002672D01*
X018367Y002922D01*
X018867Y002922D01*
X019117Y002672D01*
X019367Y002922D01*
X019867Y002922D01*
X020117Y002672D01*
X020117Y002172D01*
X019867Y001922D01*
X019117Y002172D02*
X019117Y002672D01*
X018117Y002672D02*
X018117Y002172D01*
X018117Y001387D02*
X018117Y000887D01*
X019117Y000887D02*
X019117Y001387D01*
X003487Y008943D02*
X003487Y009443D01*
X003237Y009693D01*
X003487Y009943D01*
X003487Y010443D01*
X003237Y010693D01*
X003487Y010943D01*
X003487Y011443D01*
X003237Y011693D01*
X002737Y011693D01*
X002487Y011443D01*
X002487Y010943D01*
X002737Y010693D01*
X003237Y010693D01*
X002737Y010693D02*
X002487Y010443D01*
X002487Y009943D01*
X002737Y009693D01*
X003237Y009693D01*
X002737Y009693D02*
X002487Y009443D01*
X002487Y008943D01*
X002737Y008693D01*
X003237Y008693D01*
X003487Y008943D01*
X002187Y008943D02*
X002187Y009443D01*
X001937Y009693D01*
X002187Y009943D01*
X002187Y010443D01*
X001937Y010693D01*
X002187Y010943D01*
X002187Y011443D01*
X001937Y011693D01*
X001437Y011693D01*
X001187Y011443D01*
X001187Y010943D01*
X001437Y010693D01*
X001937Y010693D01*
X001437Y010693D02*
X001187Y010443D01*
X001187Y009943D01*
X001437Y009693D01*
X001937Y009693D01*
X001437Y009693D02*
X001187Y009443D01*
X001187Y008943D01*
X001437Y008693D01*
X001937Y008693D01*
X002187Y008943D01*
X025183Y022446D02*
X025183Y022946D01*
X025433Y023196D01*
X025183Y023446D01*
X025183Y023946D01*
X025433Y024196D01*
X025183Y024446D01*
X025183Y024946D01*
X025433Y025196D01*
X025933Y025196D01*
X026183Y024946D01*
X026183Y024446D01*
X025933Y024196D01*
X026183Y023946D01*
X026183Y023446D01*
X025933Y023196D01*
X026183Y022946D01*
X026183Y022446D01*
X025933Y022196D01*
X025433Y022196D01*
X025183Y022446D01*
X025433Y023196D02*
X025933Y023196D01*
X026502Y022946D02*
X026502Y022446D01*
X026752Y022196D01*
X027252Y022196D01*
X027502Y022446D01*
X027502Y022946D01*
X027252Y023196D01*
X027502Y023446D01*
X027502Y023946D01*
X027252Y024196D01*
X027502Y024446D01*
X027502Y024946D01*
X027252Y025196D01*
X026752Y025196D01*
X026502Y024946D01*
X026502Y024446D01*
X026752Y024196D01*
X027252Y024196D01*
X026752Y024196D02*
X026502Y023946D01*
X026502Y023446D01*
X026752Y023196D01*
X027252Y023196D01*
X026752Y023196D02*
X026502Y022946D01*
X025933Y024196D02*
X025433Y024196D01*
D14*
X023380Y001098D02*
X023302Y001098D01*
D15*
X022396Y005429D02*
X022398Y005491D01*
X022404Y005554D01*
X022414Y005615D01*
X022428Y005676D01*
X022445Y005736D01*
X022466Y005795D01*
X022492Y005852D01*
X022520Y005907D01*
X022552Y005961D01*
X022588Y006012D01*
X022626Y006062D01*
X022668Y006108D01*
X022712Y006152D01*
X022760Y006193D01*
X022809Y006231D01*
X022861Y006265D01*
X022915Y006296D01*
X022971Y006324D01*
X023029Y006348D01*
X023088Y006369D01*
X023148Y006385D01*
X023209Y006398D01*
X023271Y006407D01*
X023333Y006412D01*
X023396Y006413D01*
X023458Y006410D01*
X023520Y006403D01*
X023582Y006392D01*
X023642Y006377D01*
X023702Y006359D01*
X023760Y006337D01*
X023817Y006311D01*
X023872Y006281D01*
X023925Y006248D01*
X023976Y006212D01*
X024024Y006173D01*
X024070Y006130D01*
X024113Y006085D01*
X024153Y006037D01*
X024190Y005987D01*
X024224Y005934D01*
X024255Y005880D01*
X024281Y005824D01*
X024305Y005766D01*
X024324Y005706D01*
X024340Y005646D01*
X024352Y005584D01*
X024360Y005523D01*
X024364Y005460D01*
X024364Y005398D01*
X024360Y005335D01*
X024352Y005274D01*
X024340Y005212D01*
X024324Y005152D01*
X024305Y005092D01*
X024281Y005034D01*
X024255Y004978D01*
X024224Y004924D01*
X024190Y004871D01*
X024153Y004821D01*
X024113Y004773D01*
X024070Y004728D01*
X024024Y004685D01*
X023976Y004646D01*
X023925Y004610D01*
X023872Y004577D01*
X023817Y004547D01*
X023760Y004521D01*
X023702Y004499D01*
X023642Y004481D01*
X023582Y004466D01*
X023520Y004455D01*
X023458Y004448D01*
X023396Y004445D01*
X023333Y004446D01*
X023271Y004451D01*
X023209Y004460D01*
X023148Y004473D01*
X023088Y004489D01*
X023029Y004510D01*
X022971Y004534D01*
X022915Y004562D01*
X022861Y004593D01*
X022809Y004627D01*
X022760Y004665D01*
X022712Y004706D01*
X022668Y004750D01*
X022626Y004796D01*
X022588Y004846D01*
X022552Y004897D01*
X022520Y004951D01*
X022492Y005006D01*
X022466Y005063D01*
X022445Y005122D01*
X022428Y005182D01*
X022414Y005243D01*
X022404Y005304D01*
X022398Y005367D01*
X022396Y005429D01*
X017593Y004366D02*
X017595Y004428D01*
X017601Y004491D01*
X017611Y004552D01*
X017625Y004613D01*
X017642Y004673D01*
X017663Y004732D01*
X017689Y004789D01*
X017717Y004844D01*
X017749Y004898D01*
X017785Y004949D01*
X017823Y004999D01*
X017865Y005045D01*
X017909Y005089D01*
X017957Y005130D01*
X018006Y005168D01*
X018058Y005202D01*
X018112Y005233D01*
X018168Y005261D01*
X018226Y005285D01*
X018285Y005306D01*
X018345Y005322D01*
X018406Y005335D01*
X018468Y005344D01*
X018530Y005349D01*
X018593Y005350D01*
X018655Y005347D01*
X018717Y005340D01*
X018779Y005329D01*
X018839Y005314D01*
X018899Y005296D01*
X018957Y005274D01*
X019014Y005248D01*
X019069Y005218D01*
X019122Y005185D01*
X019173Y005149D01*
X019221Y005110D01*
X019267Y005067D01*
X019310Y005022D01*
X019350Y004974D01*
X019387Y004924D01*
X019421Y004871D01*
X019452Y004817D01*
X019478Y004761D01*
X019502Y004703D01*
X019521Y004643D01*
X019537Y004583D01*
X019549Y004521D01*
X019557Y004460D01*
X019561Y004397D01*
X019561Y004335D01*
X019557Y004272D01*
X019549Y004211D01*
X019537Y004149D01*
X019521Y004089D01*
X019502Y004029D01*
X019478Y003971D01*
X019452Y003915D01*
X019421Y003861D01*
X019387Y003808D01*
X019350Y003758D01*
X019310Y003710D01*
X019267Y003665D01*
X019221Y003622D01*
X019173Y003583D01*
X019122Y003547D01*
X019069Y003514D01*
X019014Y003484D01*
X018957Y003458D01*
X018899Y003436D01*
X018839Y003418D01*
X018779Y003403D01*
X018717Y003392D01*
X018655Y003385D01*
X018593Y003382D01*
X018530Y003383D01*
X018468Y003388D01*
X018406Y003397D01*
X018345Y003410D01*
X018285Y003426D01*
X018226Y003447D01*
X018168Y003471D01*
X018112Y003499D01*
X018058Y003530D01*
X018006Y003564D01*
X017957Y003602D01*
X017909Y003643D01*
X017865Y003687D01*
X017823Y003733D01*
X017785Y003783D01*
X017749Y003834D01*
X017717Y003888D01*
X017689Y003943D01*
X017663Y004000D01*
X017642Y004059D01*
X017625Y004119D01*
X017611Y004180D01*
X017601Y004241D01*
X017595Y004304D01*
X017593Y004366D01*
X017593Y014917D02*
X017595Y014979D01*
X017601Y015042D01*
X017611Y015103D01*
X017625Y015164D01*
X017642Y015224D01*
X017663Y015283D01*
X017689Y015340D01*
X017717Y015395D01*
X017749Y015449D01*
X017785Y015500D01*
X017823Y015550D01*
X017865Y015596D01*
X017909Y015640D01*
X017957Y015681D01*
X018006Y015719D01*
X018058Y015753D01*
X018112Y015784D01*
X018168Y015812D01*
X018226Y015836D01*
X018285Y015857D01*
X018345Y015873D01*
X018406Y015886D01*
X018468Y015895D01*
X018530Y015900D01*
X018593Y015901D01*
X018655Y015898D01*
X018717Y015891D01*
X018779Y015880D01*
X018839Y015865D01*
X018899Y015847D01*
X018957Y015825D01*
X019014Y015799D01*
X019069Y015769D01*
X019122Y015736D01*
X019173Y015700D01*
X019221Y015661D01*
X019267Y015618D01*
X019310Y015573D01*
X019350Y015525D01*
X019387Y015475D01*
X019421Y015422D01*
X019452Y015368D01*
X019478Y015312D01*
X019502Y015254D01*
X019521Y015194D01*
X019537Y015134D01*
X019549Y015072D01*
X019557Y015011D01*
X019561Y014948D01*
X019561Y014886D01*
X019557Y014823D01*
X019549Y014762D01*
X019537Y014700D01*
X019521Y014640D01*
X019502Y014580D01*
X019478Y014522D01*
X019452Y014466D01*
X019421Y014412D01*
X019387Y014359D01*
X019350Y014309D01*
X019310Y014261D01*
X019267Y014216D01*
X019221Y014173D01*
X019173Y014134D01*
X019122Y014098D01*
X019069Y014065D01*
X019014Y014035D01*
X018957Y014009D01*
X018899Y013987D01*
X018839Y013969D01*
X018779Y013954D01*
X018717Y013943D01*
X018655Y013936D01*
X018593Y013933D01*
X018530Y013934D01*
X018468Y013939D01*
X018406Y013948D01*
X018345Y013961D01*
X018285Y013977D01*
X018226Y013998D01*
X018168Y014022D01*
X018112Y014050D01*
X018058Y014081D01*
X018006Y014115D01*
X017957Y014153D01*
X017909Y014194D01*
X017865Y014238D01*
X017823Y014284D01*
X017785Y014334D01*
X017749Y014385D01*
X017717Y014439D01*
X017689Y014494D01*
X017663Y014551D01*
X017642Y014610D01*
X017625Y014670D01*
X017611Y014731D01*
X017601Y014792D01*
X017595Y014855D01*
X017593Y014917D01*
X022396Y022830D02*
X022398Y022892D01*
X022404Y022955D01*
X022414Y023016D01*
X022428Y023077D01*
X022445Y023137D01*
X022466Y023196D01*
X022492Y023253D01*
X022520Y023308D01*
X022552Y023362D01*
X022588Y023413D01*
X022626Y023463D01*
X022668Y023509D01*
X022712Y023553D01*
X022760Y023594D01*
X022809Y023632D01*
X022861Y023666D01*
X022915Y023697D01*
X022971Y023725D01*
X023029Y023749D01*
X023088Y023770D01*
X023148Y023786D01*
X023209Y023799D01*
X023271Y023808D01*
X023333Y023813D01*
X023396Y023814D01*
X023458Y023811D01*
X023520Y023804D01*
X023582Y023793D01*
X023642Y023778D01*
X023702Y023760D01*
X023760Y023738D01*
X023817Y023712D01*
X023872Y023682D01*
X023925Y023649D01*
X023976Y023613D01*
X024024Y023574D01*
X024070Y023531D01*
X024113Y023486D01*
X024153Y023438D01*
X024190Y023388D01*
X024224Y023335D01*
X024255Y023281D01*
X024281Y023225D01*
X024305Y023167D01*
X024324Y023107D01*
X024340Y023047D01*
X024352Y022985D01*
X024360Y022924D01*
X024364Y022861D01*
X024364Y022799D01*
X024360Y022736D01*
X024352Y022675D01*
X024340Y022613D01*
X024324Y022553D01*
X024305Y022493D01*
X024281Y022435D01*
X024255Y022379D01*
X024224Y022325D01*
X024190Y022272D01*
X024153Y022222D01*
X024113Y022174D01*
X024070Y022129D01*
X024024Y022086D01*
X023976Y022047D01*
X023925Y022011D01*
X023872Y021978D01*
X023817Y021948D01*
X023760Y021922D01*
X023702Y021900D01*
X023642Y021882D01*
X023582Y021867D01*
X023520Y021856D01*
X023458Y021849D01*
X023396Y021846D01*
X023333Y021847D01*
X023271Y021852D01*
X023209Y021861D01*
X023148Y021874D01*
X023088Y021890D01*
X023029Y021911D01*
X022971Y021935D01*
X022915Y021963D01*
X022861Y021994D01*
X022809Y022028D01*
X022760Y022066D01*
X022712Y022107D01*
X022668Y022151D01*
X022626Y022197D01*
X022588Y022247D01*
X022552Y022298D01*
X022520Y022352D01*
X022492Y022407D01*
X022466Y022464D01*
X022445Y022523D01*
X022428Y022583D01*
X022414Y022644D01*
X022404Y022705D01*
X022398Y022768D01*
X022396Y022830D01*
X007003Y014917D02*
X007005Y014979D01*
X007011Y015042D01*
X007021Y015103D01*
X007035Y015164D01*
X007052Y015224D01*
X007073Y015283D01*
X007099Y015340D01*
X007127Y015395D01*
X007159Y015449D01*
X007195Y015500D01*
X007233Y015550D01*
X007275Y015596D01*
X007319Y015640D01*
X007367Y015681D01*
X007416Y015719D01*
X007468Y015753D01*
X007522Y015784D01*
X007578Y015812D01*
X007636Y015836D01*
X007695Y015857D01*
X007755Y015873D01*
X007816Y015886D01*
X007878Y015895D01*
X007940Y015900D01*
X008003Y015901D01*
X008065Y015898D01*
X008127Y015891D01*
X008189Y015880D01*
X008249Y015865D01*
X008309Y015847D01*
X008367Y015825D01*
X008424Y015799D01*
X008479Y015769D01*
X008532Y015736D01*
X008583Y015700D01*
X008631Y015661D01*
X008677Y015618D01*
X008720Y015573D01*
X008760Y015525D01*
X008797Y015475D01*
X008831Y015422D01*
X008862Y015368D01*
X008888Y015312D01*
X008912Y015254D01*
X008931Y015194D01*
X008947Y015134D01*
X008959Y015072D01*
X008967Y015011D01*
X008971Y014948D01*
X008971Y014886D01*
X008967Y014823D01*
X008959Y014762D01*
X008947Y014700D01*
X008931Y014640D01*
X008912Y014580D01*
X008888Y014522D01*
X008862Y014466D01*
X008831Y014412D01*
X008797Y014359D01*
X008760Y014309D01*
X008720Y014261D01*
X008677Y014216D01*
X008631Y014173D01*
X008583Y014134D01*
X008532Y014098D01*
X008479Y014065D01*
X008424Y014035D01*
X008367Y014009D01*
X008309Y013987D01*
X008249Y013969D01*
X008189Y013954D01*
X008127Y013943D01*
X008065Y013936D01*
X008003Y013933D01*
X007940Y013934D01*
X007878Y013939D01*
X007816Y013948D01*
X007755Y013961D01*
X007695Y013977D01*
X007636Y013998D01*
X007578Y014022D01*
X007522Y014050D01*
X007468Y014081D01*
X007416Y014115D01*
X007367Y014153D01*
X007319Y014194D01*
X007275Y014238D01*
X007233Y014284D01*
X007195Y014334D01*
X007159Y014385D01*
X007127Y014439D01*
X007099Y014494D01*
X007073Y014551D01*
X007052Y014610D01*
X007035Y014670D01*
X007021Y014731D01*
X007011Y014792D01*
X007005Y014855D01*
X007003Y014917D01*
X004995Y022830D02*
X004997Y022892D01*
X005003Y022955D01*
X005013Y023016D01*
X005027Y023077D01*
X005044Y023137D01*
X005065Y023196D01*
X005091Y023253D01*
X005119Y023308D01*
X005151Y023362D01*
X005187Y023413D01*
X005225Y023463D01*
X005267Y023509D01*
X005311Y023553D01*
X005359Y023594D01*
X005408Y023632D01*
X005460Y023666D01*
X005514Y023697D01*
X005570Y023725D01*
X005628Y023749D01*
X005687Y023770D01*
X005747Y023786D01*
X005808Y023799D01*
X005870Y023808D01*
X005932Y023813D01*
X005995Y023814D01*
X006057Y023811D01*
X006119Y023804D01*
X006181Y023793D01*
X006241Y023778D01*
X006301Y023760D01*
X006359Y023738D01*
X006416Y023712D01*
X006471Y023682D01*
X006524Y023649D01*
X006575Y023613D01*
X006623Y023574D01*
X006669Y023531D01*
X006712Y023486D01*
X006752Y023438D01*
X006789Y023388D01*
X006823Y023335D01*
X006854Y023281D01*
X006880Y023225D01*
X006904Y023167D01*
X006923Y023107D01*
X006939Y023047D01*
X006951Y022985D01*
X006959Y022924D01*
X006963Y022861D01*
X006963Y022799D01*
X006959Y022736D01*
X006951Y022675D01*
X006939Y022613D01*
X006923Y022553D01*
X006904Y022493D01*
X006880Y022435D01*
X006854Y022379D01*
X006823Y022325D01*
X006789Y022272D01*
X006752Y022222D01*
X006712Y022174D01*
X006669Y022129D01*
X006623Y022086D01*
X006575Y022047D01*
X006524Y022011D01*
X006471Y021978D01*
X006416Y021948D01*
X006359Y021922D01*
X006301Y021900D01*
X006241Y021882D01*
X006181Y021867D01*
X006119Y021856D01*
X006057Y021849D01*
X005995Y021846D01*
X005932Y021847D01*
X005870Y021852D01*
X005808Y021861D01*
X005747Y021874D01*
X005687Y021890D01*
X005628Y021911D01*
X005570Y021935D01*
X005514Y021963D01*
X005460Y021994D01*
X005408Y022028D01*
X005359Y022066D01*
X005311Y022107D01*
X005267Y022151D01*
X005225Y022197D01*
X005187Y022247D01*
X005151Y022298D01*
X005119Y022352D01*
X005091Y022407D01*
X005065Y022464D01*
X005044Y022523D01*
X005027Y022583D01*
X005013Y022644D01*
X005003Y022705D01*
X004997Y022768D01*
X004995Y022830D01*
X004995Y005429D02*
X004997Y005491D01*
X005003Y005554D01*
X005013Y005615D01*
X005027Y005676D01*
X005044Y005736D01*
X005065Y005795D01*
X005091Y005852D01*
X005119Y005907D01*
X005151Y005961D01*
X005187Y006012D01*
X005225Y006062D01*
X005267Y006108D01*
X005311Y006152D01*
X005359Y006193D01*
X005408Y006231D01*
X005460Y006265D01*
X005514Y006296D01*
X005570Y006324D01*
X005628Y006348D01*
X005687Y006369D01*
X005747Y006385D01*
X005808Y006398D01*
X005870Y006407D01*
X005932Y006412D01*
X005995Y006413D01*
X006057Y006410D01*
X006119Y006403D01*
X006181Y006392D01*
X006241Y006377D01*
X006301Y006359D01*
X006359Y006337D01*
X006416Y006311D01*
X006471Y006281D01*
X006524Y006248D01*
X006575Y006212D01*
X006623Y006173D01*
X006669Y006130D01*
X006712Y006085D01*
X006752Y006037D01*
X006789Y005987D01*
X006823Y005934D01*
X006854Y005880D01*
X006880Y005824D01*
X006904Y005766D01*
X006923Y005706D01*
X006939Y005646D01*
X006951Y005584D01*
X006959Y005523D01*
X006963Y005460D01*
X006963Y005398D01*
X006959Y005335D01*
X006951Y005274D01*
X006939Y005212D01*
X006923Y005152D01*
X006904Y005092D01*
X006880Y005034D01*
X006854Y004978D01*
X006823Y004924D01*
X006789Y004871D01*
X006752Y004821D01*
X006712Y004773D01*
X006669Y004728D01*
X006623Y004685D01*
X006575Y004646D01*
X006524Y004610D01*
X006471Y004577D01*
X006416Y004547D01*
X006359Y004521D01*
X006301Y004499D01*
X006241Y004481D01*
X006181Y004466D01*
X006119Y004455D01*
X006057Y004448D01*
X005995Y004445D01*
X005932Y004446D01*
X005870Y004451D01*
X005808Y004460D01*
X005747Y004473D01*
X005687Y004489D01*
X005628Y004510D01*
X005570Y004534D01*
X005514Y004562D01*
X005460Y004593D01*
X005408Y004627D01*
X005359Y004665D01*
X005311Y004706D01*
X005267Y004750D01*
X005225Y004796D01*
X005187Y004846D01*
X005151Y004897D01*
X005119Y004951D01*
X005091Y005006D01*
X005065Y005063D01*
X005044Y005122D01*
X005027Y005182D01*
X005013Y005243D01*
X005003Y005304D01*
X004997Y005367D01*
X004995Y005429D01*
X007003Y004366D02*
X007005Y004428D01*
X007011Y004491D01*
X007021Y004552D01*
X007035Y004613D01*
X007052Y004673D01*
X007073Y004732D01*
X007099Y004789D01*
X007127Y004844D01*
X007159Y004898D01*
X007195Y004949D01*
X007233Y004999D01*
X007275Y005045D01*
X007319Y005089D01*
X007367Y005130D01*
X007416Y005168D01*
X007468Y005202D01*
X007522Y005233D01*
X007578Y005261D01*
X007636Y005285D01*
X007695Y005306D01*
X007755Y005322D01*
X007816Y005335D01*
X007878Y005344D01*
X007940Y005349D01*
X008003Y005350D01*
X008065Y005347D01*
X008127Y005340D01*
X008189Y005329D01*
X008249Y005314D01*
X008309Y005296D01*
X008367Y005274D01*
X008424Y005248D01*
X008479Y005218D01*
X008532Y005185D01*
X008583Y005149D01*
X008631Y005110D01*
X008677Y005067D01*
X008720Y005022D01*
X008760Y004974D01*
X008797Y004924D01*
X008831Y004871D01*
X008862Y004817D01*
X008888Y004761D01*
X008912Y004703D01*
X008931Y004643D01*
X008947Y004583D01*
X008959Y004521D01*
X008967Y004460D01*
X008971Y004397D01*
X008971Y004335D01*
X008967Y004272D01*
X008959Y004211D01*
X008947Y004149D01*
X008931Y004089D01*
X008912Y004029D01*
X008888Y003971D01*
X008862Y003915D01*
X008831Y003861D01*
X008797Y003808D01*
X008760Y003758D01*
X008720Y003710D01*
X008677Y003665D01*
X008631Y003622D01*
X008583Y003583D01*
X008532Y003547D01*
X008479Y003514D01*
X008424Y003484D01*
X008367Y003458D01*
X008309Y003436D01*
X008249Y003418D01*
X008189Y003403D01*
X008127Y003392D01*
X008065Y003385D01*
X008003Y003382D01*
X007940Y003383D01*
X007878Y003388D01*
X007816Y003397D01*
X007755Y003410D01*
X007695Y003426D01*
X007636Y003447D01*
X007578Y003471D01*
X007522Y003499D01*
X007468Y003530D01*
X007416Y003564D01*
X007367Y003602D01*
X007319Y003643D01*
X007275Y003687D01*
X007233Y003733D01*
X007195Y003783D01*
X007159Y003834D01*
X007127Y003888D01*
X007099Y003943D01*
X007073Y004000D01*
X007052Y004059D01*
X007035Y004119D01*
X007021Y004180D01*
X007011Y004241D01*
X007005Y004304D01*
X007003Y004366D01*
D16*
X007380Y003734D02*
X019191Y003734D01*
X019191Y015545D01*
X007380Y015545D01*
X007380Y012396D01*
X007380Y006490D01*
X007380Y003734D01*
X007345Y003122D02*
X007345Y000917D01*
X005998Y000917D02*
X005998Y003122D01*
X005867Y003488D02*
X005867Y004288D01*
X005467Y001996D02*
X005231Y001996D01*
X005349Y001838D01*
X005231Y001838D01*
X005231Y001799D01*
X005349Y001838D02*
X005506Y001838D01*
X005506Y001878D01*
X005467Y001996D02*
X005349Y001838D01*
X009827Y001780D02*
X010277Y001780D01*
X010277Y002081D01*
X010202Y002241D02*
X009902Y002241D01*
X009827Y002316D01*
X009827Y002466D01*
X009902Y002541D01*
X010052Y002541D02*
X010052Y002391D01*
X010052Y002541D02*
X010202Y002541D01*
X010277Y002466D01*
X010277Y002316D01*
X010202Y002241D01*
X010052Y001931D02*
X010052Y001780D01*
X010052Y001620D02*
X009902Y001620D01*
X009827Y001545D01*
X009827Y001320D01*
X010277Y001320D01*
X010127Y001320D02*
X010127Y001545D01*
X010052Y001620D01*
X010127Y001470D02*
X010277Y001620D01*
X009827Y001780D02*
X009827Y002081D01*
X009977Y002701D02*
X009827Y002851D01*
X010277Y002851D01*
X010277Y002701D02*
X010277Y003001D01*
X012592Y002246D02*
X013392Y002246D01*
X016566Y001552D02*
X016566Y001402D01*
X016641Y001326D01*
X016566Y001166D02*
X017016Y001166D01*
X016941Y001326D02*
X017016Y001402D01*
X017016Y001552D01*
X016941Y001627D01*
X016866Y001627D01*
X016791Y001552D01*
X016791Y001477D01*
X016791Y001552D02*
X016716Y001627D01*
X016641Y001627D01*
X016566Y001552D01*
X016566Y001166D02*
X016716Y001016D01*
X016566Y000866D01*
X017016Y000866D01*
X019949Y005067D02*
X020749Y005067D01*
X020968Y010481D02*
X021125Y010481D01*
X020968Y010481D02*
X020951Y010482D01*
X020934Y010487D01*
X020919Y010494D01*
X020905Y010504D01*
X020893Y010516D01*
X020883Y010530D01*
X020876Y010545D01*
X020871Y010562D01*
X020870Y010579D01*
X020869Y010579D02*
X020869Y012744D01*
X020870Y012744D02*
X020871Y012761D01*
X020876Y012778D01*
X020883Y012793D01*
X020893Y012807D01*
X020905Y012819D01*
X020919Y012829D01*
X020934Y012836D01*
X020951Y012841D01*
X020968Y012842D01*
X020968Y012843D02*
X021125Y012843D01*
X021263Y012252D02*
X021854Y012252D01*
X021854Y011071D01*
X021263Y011071D01*
X021263Y012252D01*
X020467Y011885D02*
X020467Y011846D01*
X020349Y011846D01*
X020191Y011846D01*
X020191Y011807D01*
X020231Y011689D02*
X020467Y011689D01*
X020349Y011846D01*
X020231Y011689D01*
X021991Y012843D02*
X022149Y012843D01*
X022169Y012838D01*
X022188Y012829D01*
X022205Y012818D01*
X022220Y012803D01*
X022232Y012786D01*
X022241Y012767D01*
X022247Y012747D01*
X022249Y012726D01*
X022247Y012705D01*
X022247Y010579D01*
X022246Y010562D01*
X022241Y010545D01*
X022234Y010530D01*
X022224Y010516D01*
X022212Y010504D01*
X022198Y010494D01*
X022183Y010487D01*
X022166Y010482D01*
X022149Y010481D01*
X021991Y010481D01*
X015824Y018691D02*
X015824Y018888D01*
X015824Y018691D02*
X015628Y018691D01*
X014053Y018691D02*
X013856Y018691D01*
X013856Y018888D01*
X013856Y020463D02*
X013856Y020659D01*
X014053Y020659D01*
X015628Y020659D02*
X015824Y020659D01*
X015824Y020463D01*
X015939Y023224D02*
X021254Y023224D01*
X021254Y025429D01*
X021569Y025429D01*
X021569Y027594D01*
X015624Y027594D01*
X015624Y025429D01*
X015939Y025429D01*
X015939Y023224D01*
X017120Y025232D02*
X017120Y027004D01*
X018105Y027004D02*
X018105Y025232D01*
X019089Y025232D02*
X019089Y027004D01*
X020073Y027004D02*
X020073Y025232D01*
X027786Y023484D02*
X028237Y023484D01*
X028237Y023334D02*
X028237Y023635D01*
X027936Y023334D02*
X027786Y023484D01*
X027786Y023174D02*
X028237Y023174D01*
X028237Y022874D02*
X027786Y022874D01*
X027936Y023024D01*
X027786Y023174D01*
X011859Y026732D02*
X011408Y026732D01*
X011559Y026882D01*
X011408Y027033D01*
X011859Y027033D01*
X011859Y027193D02*
X011559Y027493D01*
X011483Y027493D01*
X011408Y027418D01*
X011408Y027268D01*
X011483Y027193D01*
X011859Y027193D02*
X011859Y027493D01*
X006504Y019195D02*
X006506Y019213D01*
X006512Y019229D01*
X006521Y019244D01*
X006534Y019257D01*
X006549Y019266D01*
X006565Y019272D01*
X006583Y019274D01*
X006601Y019272D01*
X006617Y019266D01*
X006632Y019257D01*
X006645Y019244D01*
X006654Y019229D01*
X006660Y019213D01*
X006662Y019195D01*
X006660Y019177D01*
X006654Y019161D01*
X006645Y019146D01*
X006632Y019133D01*
X006617Y019124D01*
X006601Y019118D01*
X006583Y019116D01*
X006565Y019118D01*
X006549Y019124D01*
X006534Y019133D01*
X006521Y019146D01*
X006512Y019161D01*
X006506Y019177D01*
X006504Y019195D01*
X001984Y012283D02*
X001758Y012057D01*
X002059Y012057D01*
X001984Y011832D02*
X001984Y012283D01*
X001598Y012283D02*
X001598Y011832D01*
X001298Y011832D02*
X001298Y012283D01*
X001448Y012132D01*
X001598Y012283D01*
D17*
X002199Y015790D02*
X002299Y015940D01*
X002346Y015940D02*
X002421Y015940D01*
X002446Y015915D01*
X002446Y015890D01*
X002421Y015865D01*
X002346Y015865D01*
X002346Y015790D02*
X002346Y015940D01*
X002421Y015865D02*
X002446Y015840D01*
X002446Y015815D01*
X002421Y015790D01*
X002346Y015790D01*
X002299Y015790D02*
X002199Y015940D01*
X002494Y015940D02*
X002494Y015790D01*
X002594Y015790D01*
X002641Y015790D02*
X002741Y015790D01*
X002788Y015865D02*
X002888Y015865D01*
X002936Y015890D02*
X002986Y015940D01*
X002986Y015790D01*
X002936Y015790D02*
X003036Y015790D01*
X003083Y015790D02*
X003083Y015940D01*
X003158Y015940D01*
X003183Y015915D01*
X003183Y015890D01*
X003158Y015865D01*
X003083Y015865D01*
X003158Y015865D02*
X003183Y015840D01*
X003183Y015815D01*
X003158Y015790D01*
X003083Y015790D01*
X003230Y015815D02*
X003255Y015790D01*
X003305Y015790D01*
X003330Y015815D01*
X003330Y015840D01*
X003305Y015865D01*
X003280Y015865D01*
X003305Y015865D02*
X003330Y015890D01*
X003330Y015915D01*
X003305Y015940D01*
X003255Y015940D01*
X003230Y015915D01*
X002741Y015940D02*
X002641Y015940D01*
X002641Y015790D01*
X002641Y015865D02*
X002691Y015865D01*
X002594Y015940D02*
X002494Y015940D01*
X002494Y015865D02*
X002544Y015865D01*
X004787Y019492D02*
X004787Y019643D01*
X004862Y019643D01*
X004887Y019618D01*
X004887Y019567D01*
X004862Y019542D01*
X004787Y019542D01*
X004837Y019542D02*
X004887Y019492D01*
X004934Y019517D02*
X004959Y019492D01*
X005009Y019492D01*
X005034Y019517D01*
X005034Y019542D01*
X005009Y019567D01*
X004934Y019567D01*
X004934Y019517D01*
X004934Y019567D02*
X004984Y019618D01*
X005034Y019643D01*
X005025Y019841D02*
X004925Y019841D01*
X004877Y019841D02*
X004827Y019891D01*
X004802Y019841D02*
X004777Y019866D01*
X004777Y019966D01*
X004802Y019991D01*
X004852Y019991D01*
X004877Y019966D01*
X004877Y019866D01*
X004852Y019841D01*
X004802Y019841D01*
X004925Y019941D02*
X004975Y019991D01*
X004975Y019841D01*
X004938Y020316D02*
X004938Y020466D01*
X004988Y020416D01*
X005038Y020466D01*
X005038Y020316D01*
X005085Y020341D02*
X005110Y020316D01*
X005160Y020316D01*
X005185Y020341D01*
X005185Y020441D01*
X005160Y020466D01*
X005110Y020466D01*
X005085Y020441D01*
X005085Y020341D01*
X005233Y020341D02*
X005258Y020316D01*
X005308Y020316D01*
X005333Y020341D01*
X005333Y020366D01*
X005308Y020391D01*
X005258Y020391D01*
X005233Y020416D01*
X005233Y020441D01*
X005258Y020466D01*
X005308Y020466D01*
X005333Y020441D01*
X005380Y020466D02*
X005480Y020466D01*
X005527Y020466D02*
X005527Y020316D01*
X005627Y020316D01*
X005577Y020391D02*
X005527Y020391D01*
X005527Y020466D02*
X005627Y020466D01*
X005675Y020466D02*
X005775Y020466D01*
X005725Y020466D02*
X005725Y020316D01*
X005430Y020391D02*
X005380Y020391D01*
X005380Y020316D02*
X005380Y020466D01*
X005407Y021670D02*
X005357Y021720D01*
X005382Y021720D02*
X005307Y021720D01*
X005307Y021670D02*
X005307Y021820D01*
X005382Y021820D01*
X005407Y021795D01*
X005407Y021745D01*
X005382Y021720D01*
X005455Y021745D02*
X005555Y021745D01*
X005530Y021670D02*
X005530Y021820D01*
X005455Y021745D01*
X006797Y021662D02*
X006797Y021511D01*
X006797Y021562D02*
X006872Y021562D01*
X006897Y021587D01*
X006897Y021637D01*
X006872Y021662D01*
X006797Y021662D01*
X006847Y021562D02*
X006897Y021511D01*
X006944Y021511D02*
X006944Y021536D01*
X007044Y021637D01*
X007044Y021662D01*
X006944Y021662D01*
X007588Y021715D02*
X007613Y021690D01*
X007664Y021690D01*
X007689Y021715D01*
X007689Y021816D01*
X007664Y021841D01*
X007613Y021841D01*
X007588Y021816D01*
X007588Y021715D01*
X007639Y021740D02*
X007689Y021690D01*
X007736Y021690D02*
X007836Y021791D01*
X007836Y021816D01*
X007811Y021841D01*
X007761Y021841D01*
X007736Y021816D01*
X007736Y021690D02*
X007836Y021690D01*
X007839Y021366D02*
X007839Y021215D01*
X007886Y021240D02*
X007911Y021215D01*
X007961Y021215D01*
X007986Y021240D01*
X007986Y021341D01*
X007961Y021366D01*
X007911Y021366D01*
X007886Y021341D01*
X007886Y021240D01*
X007789Y021316D02*
X007839Y021366D01*
X007789Y021316D02*
X007738Y021366D01*
X007738Y021215D01*
X008033Y021240D02*
X008058Y021215D01*
X008108Y021215D01*
X008133Y021240D01*
X008133Y021265D01*
X008108Y021290D01*
X008058Y021290D01*
X008033Y021316D01*
X008033Y021341D01*
X008058Y021366D01*
X008108Y021366D01*
X008133Y021341D01*
X008180Y021366D02*
X008281Y021366D01*
X008328Y021366D02*
X008328Y021215D01*
X008428Y021215D01*
X008378Y021290D02*
X008328Y021290D01*
X008328Y021366D02*
X008428Y021366D01*
X008475Y021366D02*
X008575Y021366D01*
X008525Y021366D02*
X008525Y021215D01*
X008230Y021290D02*
X008180Y021290D01*
X008180Y021215D02*
X008180Y021366D01*
X008200Y020010D02*
X008200Y019935D01*
X008250Y019960D01*
X008275Y019960D01*
X008300Y019935D01*
X008300Y019885D01*
X008275Y019860D01*
X008225Y019860D01*
X008200Y019885D01*
X008153Y019860D02*
X008103Y019910D01*
X008128Y019910D02*
X008053Y019910D01*
X008053Y019860D02*
X008053Y020010D01*
X008128Y020010D01*
X008153Y019985D01*
X008153Y019935D01*
X008128Y019910D01*
X008200Y020010D02*
X008300Y020010D01*
X011023Y015940D02*
X010998Y015915D01*
X010998Y015815D01*
X011023Y015790D01*
X011073Y015790D01*
X011098Y015815D01*
X011145Y015790D02*
X011245Y015790D01*
X011195Y015790D02*
X011195Y015940D01*
X011145Y015890D01*
X011098Y015915D02*
X011073Y015940D01*
X011023Y015940D01*
X011292Y015865D02*
X011367Y015865D01*
X011392Y015840D01*
X011392Y015815D01*
X011367Y015790D01*
X011317Y015790D01*
X011292Y015815D01*
X011292Y015865D01*
X011342Y015915D01*
X011392Y015940D01*
X011431Y015896D02*
X011456Y015922D01*
X011506Y015922D01*
X011531Y015896D01*
X011578Y015871D02*
X011628Y015922D01*
X011628Y015771D01*
X011578Y015771D02*
X011678Y015771D01*
X011725Y015796D02*
X011750Y015771D01*
X011800Y015771D01*
X011825Y015796D01*
X011825Y015846D01*
X011800Y015871D01*
X011775Y015871D01*
X011725Y015846D01*
X011725Y015922D01*
X011825Y015922D01*
X012031Y015928D02*
X012031Y015778D01*
X012031Y015828D02*
X012106Y015828D01*
X012131Y015853D01*
X012131Y015903D01*
X012106Y015928D01*
X012031Y015928D01*
X012081Y015828D02*
X012131Y015778D01*
X012179Y015778D02*
X012279Y015878D01*
X012279Y015903D01*
X012254Y015928D01*
X012204Y015928D01*
X012179Y015903D01*
X012179Y015778D02*
X012279Y015778D01*
X012326Y015853D02*
X012426Y015853D01*
X012401Y015928D02*
X012326Y015853D01*
X012401Y015778D02*
X012401Y015928D01*
X012628Y015337D02*
X012678Y015337D01*
X012704Y015312D01*
X012704Y015212D01*
X012678Y015187D01*
X012628Y015187D01*
X012603Y015212D01*
X012603Y015312D01*
X012628Y015337D01*
X012653Y015237D02*
X012704Y015187D01*
X012751Y015212D02*
X012776Y015187D01*
X012826Y015187D01*
X012851Y015212D01*
X012851Y015262D01*
X012826Y015287D01*
X012801Y015287D01*
X012751Y015262D01*
X012751Y015337D01*
X012851Y015337D01*
X012878Y014878D02*
X012853Y014853D01*
X012853Y014753D01*
X012878Y014728D01*
X012928Y014728D01*
X012953Y014753D01*
X012953Y014853D01*
X012928Y014878D01*
X012878Y014878D01*
X012805Y014878D02*
X012805Y014728D01*
X012705Y014728D02*
X012705Y014878D01*
X012755Y014828D01*
X012805Y014878D01*
X013000Y014853D02*
X013000Y014828D01*
X013025Y014803D01*
X013075Y014803D01*
X013100Y014778D01*
X013100Y014753D01*
X013075Y014728D01*
X013025Y014728D01*
X013000Y014753D01*
X013000Y014853D02*
X013025Y014878D01*
X013075Y014878D01*
X013100Y014853D01*
X013147Y014878D02*
X013247Y014878D01*
X013295Y014878D02*
X013295Y014728D01*
X013395Y014728D01*
X013345Y014803D02*
X013295Y014803D01*
X013295Y014878D02*
X013395Y014878D01*
X013442Y014878D02*
X013542Y014878D01*
X013492Y014878D02*
X013492Y014728D01*
X013197Y014803D02*
X013147Y014803D01*
X013147Y014728D02*
X013147Y014878D01*
X014043Y014934D02*
X014043Y015084D01*
X014118Y015084D01*
X014143Y015059D01*
X014143Y015009D01*
X014118Y014984D01*
X014043Y014984D01*
X014093Y014984D02*
X014143Y014934D01*
X014191Y014934D02*
X014291Y014934D01*
X014241Y014934D02*
X014241Y015084D01*
X014191Y015034D01*
X014338Y015009D02*
X014413Y015009D01*
X014438Y014984D01*
X014438Y014959D01*
X014413Y014934D01*
X014363Y014934D01*
X014338Y014959D01*
X014338Y015009D01*
X014388Y015059D01*
X014438Y015084D01*
X014520Y015476D02*
X014520Y015626D01*
X014570Y015576D01*
X014620Y015626D01*
X014620Y015476D01*
X014667Y015501D02*
X014692Y015476D01*
X014742Y015476D01*
X014767Y015501D01*
X014767Y015601D01*
X014742Y015626D01*
X014692Y015626D01*
X014667Y015601D01*
X014667Y015501D01*
X014815Y015501D02*
X014840Y015476D01*
X014890Y015476D01*
X014915Y015501D01*
X014915Y015526D01*
X014890Y015551D01*
X014840Y015551D01*
X014815Y015576D01*
X014815Y015601D01*
X014840Y015626D01*
X014890Y015626D01*
X014915Y015601D01*
X014962Y015626D02*
X014962Y015476D01*
X014962Y015551D02*
X015012Y015551D01*
X014962Y015626D02*
X015062Y015626D01*
X015109Y015626D02*
X015109Y015476D01*
X015209Y015476D01*
X015159Y015551D02*
X015109Y015551D01*
X015109Y015626D02*
X015209Y015626D01*
X015256Y015626D02*
X015357Y015626D01*
X015307Y015626D02*
X015307Y015476D01*
X015613Y015506D02*
X015613Y015606D01*
X015638Y015631D01*
X015688Y015631D01*
X015713Y015606D01*
X015713Y015506D01*
X015688Y015481D01*
X015638Y015481D01*
X015613Y015506D01*
X015663Y015531D02*
X015713Y015481D01*
X015760Y015506D02*
X015785Y015481D01*
X015835Y015481D01*
X015860Y015506D01*
X015860Y015531D01*
X015835Y015556D01*
X015760Y015556D01*
X015760Y015506D01*
X015760Y015556D02*
X015810Y015606D01*
X015860Y015631D01*
X015836Y015111D02*
X015786Y015111D01*
X015761Y015086D01*
X015714Y015086D02*
X015689Y015111D01*
X015639Y015111D01*
X015614Y015086D01*
X015567Y015086D02*
X015567Y015036D01*
X015541Y015011D01*
X015466Y015011D01*
X015466Y014961D02*
X015466Y015111D01*
X015541Y015111D01*
X015567Y015086D01*
X015516Y015011D02*
X015567Y014961D01*
X015614Y014961D02*
X015714Y015061D01*
X015714Y015086D01*
X015811Y015036D02*
X015836Y015036D01*
X015861Y015011D01*
X015861Y014986D01*
X015836Y014961D01*
X015786Y014961D01*
X015761Y014986D01*
X015714Y014961D02*
X015614Y014961D01*
X015836Y015036D02*
X015861Y015061D01*
X015861Y015086D01*
X015836Y015111D01*
X014983Y016819D02*
X014883Y016819D01*
X014836Y016819D02*
X014736Y016819D01*
X014836Y016919D01*
X014836Y016945D01*
X014811Y016970D01*
X014761Y016970D01*
X014736Y016945D01*
X014689Y016945D02*
X014689Y016894D01*
X014664Y016869D01*
X014589Y016869D01*
X014589Y016819D02*
X014589Y016970D01*
X014664Y016970D01*
X014689Y016945D01*
X014639Y016869D02*
X014689Y016819D01*
X014883Y016919D02*
X014933Y016970D01*
X014933Y016819D01*
X015527Y018451D02*
X015577Y018451D01*
X015602Y018477D01*
X015649Y018451D02*
X015749Y018451D01*
X015796Y018451D02*
X015896Y018451D01*
X015846Y018451D02*
X015846Y018602D01*
X015796Y018552D01*
X015699Y018602D02*
X015699Y018451D01*
X015649Y018552D02*
X015699Y018602D01*
X015602Y018577D02*
X015577Y018602D01*
X015527Y018602D01*
X015502Y018577D01*
X015502Y018477D01*
X015527Y018451D01*
X016181Y018669D02*
X016206Y018644D01*
X016256Y018644D01*
X016281Y018669D01*
X016329Y018644D02*
X016429Y018644D01*
X016379Y018644D02*
X016379Y018794D01*
X016329Y018744D01*
X016281Y018769D02*
X016256Y018794D01*
X016206Y018794D01*
X016181Y018769D01*
X016181Y018669D01*
X016476Y018669D02*
X016576Y018769D01*
X016576Y018669D01*
X016551Y018644D01*
X016501Y018644D01*
X016476Y018669D01*
X016476Y018769D01*
X016501Y018794D01*
X016551Y018794D01*
X016576Y018769D01*
X016885Y019333D02*
X016860Y019358D01*
X016860Y019458D01*
X016885Y019483D01*
X016935Y019483D01*
X016960Y019458D01*
X016960Y019358D01*
X016935Y019333D01*
X016885Y019333D01*
X016910Y019383D02*
X016960Y019333D01*
X017007Y019358D02*
X017032Y019333D01*
X017082Y019333D01*
X017107Y019358D01*
X017107Y019383D01*
X017082Y019408D01*
X017057Y019408D01*
X017082Y019408D02*
X017107Y019433D01*
X017107Y019458D01*
X017082Y019483D01*
X017032Y019483D01*
X017007Y019458D01*
X017029Y019775D02*
X017029Y019925D01*
X017079Y019875D01*
X017129Y019925D01*
X017129Y019775D01*
X017177Y019800D02*
X017202Y019775D01*
X017252Y019775D01*
X017277Y019800D01*
X017277Y019900D01*
X017252Y019925D01*
X017202Y019925D01*
X017177Y019900D01*
X017177Y019800D01*
X017324Y019800D02*
X017349Y019775D01*
X017399Y019775D01*
X017424Y019800D01*
X017424Y019825D01*
X017399Y019850D01*
X017349Y019850D01*
X017324Y019875D01*
X017324Y019900D01*
X017349Y019925D01*
X017399Y019925D01*
X017424Y019900D01*
X017471Y019925D02*
X017571Y019925D01*
X017619Y019925D02*
X017619Y019775D01*
X017719Y019775D01*
X017669Y019850D02*
X017619Y019850D01*
X017619Y019925D02*
X017719Y019925D01*
X017766Y019925D02*
X017866Y019925D01*
X017816Y019925D02*
X017816Y019775D01*
X017521Y019850D02*
X017471Y019850D01*
X017471Y019775D02*
X017471Y019925D01*
X018395Y020223D02*
X018395Y020373D01*
X018470Y020373D01*
X018495Y020348D01*
X018495Y020298D01*
X018470Y020273D01*
X018395Y020273D01*
X018445Y020273D02*
X018495Y020223D01*
X018542Y020248D02*
X018567Y020223D01*
X018617Y020223D01*
X018642Y020248D01*
X018642Y020348D01*
X018617Y020373D01*
X018567Y020373D01*
X018542Y020348D01*
X018542Y020323D01*
X018567Y020298D01*
X018642Y020298D01*
X017654Y021157D02*
X017554Y021157D01*
X017507Y021157D02*
X017407Y021157D01*
X017360Y021157D02*
X017310Y021207D01*
X017335Y021207D02*
X017260Y021207D01*
X017260Y021157D02*
X017260Y021307D01*
X017335Y021307D01*
X017360Y021282D01*
X017360Y021232D01*
X017335Y021207D01*
X017407Y021257D02*
X017457Y021307D01*
X017457Y021157D01*
X017554Y021257D02*
X017604Y021307D01*
X017604Y021157D01*
X017558Y021780D02*
X017658Y021880D01*
X017658Y021905D01*
X017633Y021930D01*
X017583Y021930D01*
X017558Y021905D01*
X017461Y021930D02*
X017461Y021780D01*
X017411Y021780D02*
X017511Y021780D01*
X017558Y021780D02*
X017658Y021780D01*
X017461Y021930D02*
X017411Y021880D01*
X017364Y021855D02*
X017338Y021830D01*
X017263Y021830D01*
X017263Y021780D02*
X017263Y021930D01*
X017338Y021930D01*
X017364Y021905D01*
X017364Y021855D01*
X017313Y021830D02*
X017364Y021780D01*
X016577Y021830D02*
X016477Y021830D01*
X016429Y021830D02*
X016329Y021830D01*
X016329Y021680D01*
X016429Y021680D01*
X016379Y021755D02*
X016329Y021755D01*
X016282Y021830D02*
X016182Y021830D01*
X016182Y021680D01*
X016135Y021705D02*
X016110Y021680D01*
X016060Y021680D01*
X016035Y021705D01*
X015987Y021705D02*
X015987Y021805D01*
X015962Y021830D01*
X015912Y021830D01*
X015887Y021805D01*
X015887Y021705D01*
X015912Y021680D01*
X015962Y021680D01*
X015987Y021705D01*
X016060Y021755D02*
X016110Y021755D01*
X016135Y021730D01*
X016135Y021705D01*
X016182Y021755D02*
X016232Y021755D01*
X016135Y021805D02*
X016110Y021830D01*
X016060Y021830D01*
X016035Y021805D01*
X016035Y021780D01*
X016060Y021755D01*
X015840Y021830D02*
X015840Y021680D01*
X015740Y021680D02*
X015740Y021830D01*
X015790Y021780D01*
X015840Y021830D01*
X015832Y021388D02*
X015757Y021313D01*
X015857Y021313D01*
X015832Y021238D02*
X015832Y021388D01*
X015710Y021363D02*
X015710Y021263D01*
X015685Y021238D01*
X015635Y021238D01*
X015610Y021263D01*
X015610Y021363D01*
X015635Y021388D01*
X015685Y021388D01*
X015710Y021363D01*
X015660Y021288D02*
X015710Y021238D01*
X016527Y021680D02*
X016527Y021830D01*
X016366Y023064D02*
X016316Y023064D01*
X016291Y023089D01*
X016391Y023189D01*
X016391Y023089D01*
X016366Y023064D01*
X016291Y023089D02*
X016291Y023189D01*
X016316Y023214D01*
X016366Y023214D01*
X016391Y023189D01*
X016244Y023064D02*
X016144Y023064D01*
X016097Y023064D02*
X016047Y023114D01*
X016072Y023114D02*
X015997Y023114D01*
X015997Y023064D02*
X015997Y023214D01*
X016072Y023214D01*
X016097Y023189D01*
X016097Y023139D01*
X016072Y023114D01*
X016144Y023164D02*
X016194Y023214D01*
X016194Y023064D01*
X014942Y023254D02*
X014942Y023304D01*
X014892Y023304D01*
X014942Y023254D02*
X014917Y023229D01*
X014867Y023229D01*
X014842Y023254D01*
X014842Y023354D01*
X014867Y023379D01*
X014917Y023379D01*
X014942Y023354D01*
X014795Y023379D02*
X014695Y023379D01*
X014695Y023229D01*
X014795Y023229D01*
X014745Y023304D02*
X014695Y023304D01*
X014647Y023304D02*
X014622Y023279D01*
X014547Y023279D01*
X014500Y023279D02*
X014500Y023379D01*
X014547Y023379D02*
X014622Y023379D01*
X014647Y023354D01*
X014647Y023304D01*
X014597Y023279D02*
X014647Y023229D01*
X014547Y023229D02*
X014547Y023379D01*
X014500Y023279D02*
X014450Y023229D01*
X014400Y023279D01*
X014400Y023379D01*
X014353Y023354D02*
X014353Y023329D01*
X014328Y023304D01*
X014278Y023304D01*
X014253Y023329D01*
X014253Y023354D01*
X014278Y023379D01*
X014328Y023379D01*
X014353Y023354D01*
X014328Y023304D02*
X014353Y023279D01*
X014353Y023254D01*
X014328Y023229D01*
X014278Y023229D01*
X014253Y023254D01*
X014253Y023279D01*
X014278Y023304D01*
X014204Y023254D02*
X014204Y023229D01*
X014179Y023229D01*
X014179Y023254D01*
X014204Y023254D01*
X014132Y023229D02*
X014032Y023229D01*
X014082Y023229D02*
X014082Y023379D01*
X014032Y023329D01*
X013632Y022832D02*
X013582Y022832D01*
X013557Y022807D01*
X013557Y022782D01*
X013582Y022757D01*
X013657Y022757D01*
X013657Y022707D02*
X013657Y022807D01*
X013632Y022832D01*
X013510Y022807D02*
X013485Y022832D01*
X013435Y022832D01*
X013410Y022807D01*
X013410Y022707D01*
X013435Y022682D01*
X013485Y022682D01*
X013510Y022707D01*
X013557Y022707D02*
X013582Y022682D01*
X013632Y022682D01*
X013657Y022707D01*
X013960Y021622D02*
X013885Y021547D01*
X013985Y021547D01*
X014033Y021497D02*
X014058Y021497D01*
X014058Y021472D01*
X014033Y021472D01*
X014033Y021497D01*
X014106Y021497D02*
X014106Y021472D01*
X014106Y021497D02*
X014206Y021597D01*
X014206Y021622D01*
X014106Y021622D01*
X013960Y021622D02*
X013960Y021472D01*
X014254Y021497D02*
X014254Y021572D01*
X014254Y021497D02*
X014279Y021472D01*
X014354Y021472D01*
X014354Y021572D01*
X014279Y020897D02*
X014279Y020872D01*
X014179Y020772D01*
X014179Y020747D01*
X014131Y020772D02*
X014106Y020747D01*
X014056Y020747D01*
X014031Y020772D01*
X014031Y020872D01*
X014056Y020897D01*
X014106Y020897D01*
X014131Y020872D01*
X014179Y020897D02*
X014279Y020897D01*
X011431Y015896D02*
X011431Y015796D01*
X011456Y015771D01*
X011506Y015771D01*
X011531Y015796D01*
X012929Y013566D02*
X013004Y013566D01*
X013029Y013541D01*
X013029Y013491D01*
X013004Y013466D01*
X012929Y013466D01*
X012979Y013466D02*
X013029Y013416D01*
X013076Y013416D02*
X013176Y013416D01*
X013126Y013416D02*
X013126Y013566D01*
X013076Y013516D01*
X013224Y013491D02*
X013324Y013491D01*
X013299Y013566D02*
X013224Y013491D01*
X013299Y013416D02*
X013299Y013566D01*
X012929Y013566D02*
X012929Y013416D01*
X014002Y012385D02*
X014002Y012285D01*
X014027Y012260D01*
X014077Y012260D01*
X014102Y012285D01*
X014149Y012260D02*
X014249Y012360D01*
X014249Y012385D01*
X014224Y012410D01*
X014174Y012410D01*
X014149Y012385D01*
X014102Y012385D02*
X014077Y012410D01*
X014027Y012410D01*
X014002Y012385D01*
X014149Y012260D02*
X014249Y012260D01*
X015494Y012428D02*
X015494Y012578D01*
X015569Y012578D01*
X015594Y012553D01*
X015594Y012503D01*
X015569Y012478D01*
X015494Y012478D01*
X015544Y012478D02*
X015594Y012428D01*
X015641Y012453D02*
X015641Y012478D01*
X015666Y012503D01*
X015716Y012503D01*
X015741Y012478D01*
X015741Y012453D01*
X015716Y012428D01*
X015666Y012428D01*
X015641Y012453D01*
X015666Y012503D02*
X015641Y012528D01*
X015641Y012553D01*
X015666Y012578D01*
X015716Y012578D01*
X015741Y012553D01*
X015741Y012528D01*
X015716Y012503D01*
X017130Y010190D02*
X017205Y010190D01*
X017230Y010165D01*
X017230Y010115D01*
X017205Y010089D01*
X017130Y010089D01*
X017130Y010039D02*
X017130Y010190D01*
X017180Y010089D02*
X017230Y010039D01*
X017277Y010039D02*
X017377Y010039D01*
X017424Y010039D02*
X017424Y010064D01*
X017525Y010165D01*
X017525Y010190D01*
X017424Y010190D01*
X017327Y010190D02*
X017327Y010039D01*
X017277Y010140D02*
X017327Y010190D01*
X016762Y009402D02*
X016687Y009402D01*
X016687Y009252D01*
X016762Y009252D01*
X016787Y009277D01*
X016787Y009302D01*
X016762Y009327D01*
X016687Y009327D01*
X016639Y009327D02*
X016539Y009327D01*
X016539Y009252D02*
X016539Y009402D01*
X016639Y009402D02*
X016639Y009252D01*
X016762Y009327D02*
X016787Y009352D01*
X016787Y009377D01*
X016762Y009402D01*
X016786Y008768D02*
X016711Y008768D01*
X016711Y008618D01*
X016664Y008618D02*
X016664Y008768D01*
X016564Y008768D02*
X016564Y008618D01*
X016614Y008668D01*
X016664Y008618D01*
X016711Y008668D02*
X016786Y008668D01*
X016811Y008693D01*
X016811Y008743D01*
X016786Y008768D01*
X016761Y008668D02*
X016811Y008618D01*
X017048Y008607D02*
X017123Y008607D01*
X017148Y008582D01*
X017148Y008532D01*
X017123Y008507D01*
X017048Y008507D01*
X017048Y008457D02*
X017048Y008607D01*
X017098Y008507D02*
X017148Y008457D01*
X017195Y008457D02*
X017295Y008457D01*
X017245Y008457D02*
X017245Y008607D01*
X017195Y008557D01*
X017343Y008582D02*
X017368Y008607D01*
X017418Y008607D01*
X017443Y008582D01*
X017443Y008557D01*
X017418Y008532D01*
X017443Y008507D01*
X017443Y008482D01*
X017418Y008457D01*
X017368Y008457D01*
X017343Y008482D01*
X017393Y008532D02*
X017418Y008532D01*
X016645Y008113D02*
X016645Y008088D01*
X016620Y008063D01*
X016645Y008038D01*
X016645Y008013D01*
X016620Y007988D01*
X016570Y007988D01*
X016545Y008013D01*
X016498Y008013D02*
X016473Y007988D01*
X016423Y007988D01*
X016398Y008013D01*
X016398Y008113D01*
X016423Y008138D01*
X016473Y008138D01*
X016498Y008113D01*
X016545Y008113D02*
X016570Y008138D01*
X016620Y008138D01*
X016645Y008113D01*
X016620Y008063D02*
X016595Y008063D01*
X016369Y008593D02*
X016269Y008593D01*
X016222Y008643D02*
X016197Y008618D01*
X016147Y008618D01*
X016122Y008643D01*
X016122Y008693D02*
X016172Y008718D01*
X016197Y008718D01*
X016222Y008693D01*
X016222Y008643D01*
X016122Y008693D02*
X016122Y008768D01*
X016222Y008768D01*
X016417Y008768D02*
X016492Y008768D01*
X016517Y008743D01*
X016517Y008693D01*
X016492Y008668D01*
X016417Y008668D01*
X016417Y008618D02*
X016417Y008768D01*
X014431Y006774D02*
X014356Y006699D01*
X014456Y006699D01*
X014431Y006624D02*
X014431Y006774D01*
X014309Y006774D02*
X014309Y006649D01*
X014284Y006624D01*
X014234Y006624D01*
X014209Y006649D01*
X014209Y006774D01*
X012842Y006736D02*
X012817Y006711D01*
X012767Y006711D01*
X012742Y006736D01*
X012742Y006861D01*
X012695Y006811D02*
X012695Y006711D01*
X012695Y006786D02*
X012595Y006786D01*
X012595Y006811D02*
X012645Y006861D01*
X012695Y006811D01*
X012595Y006811D02*
X012595Y006711D01*
X012547Y006736D02*
X012522Y006711D01*
X012472Y006711D01*
X012447Y006736D01*
X012547Y006836D01*
X012547Y006736D01*
X012447Y006736D02*
X012447Y006836D01*
X012472Y006861D01*
X012522Y006861D01*
X012547Y006836D01*
X012400Y006861D02*
X012350Y006836D01*
X012300Y006786D01*
X012375Y006786D01*
X012400Y006761D01*
X012400Y006736D01*
X012375Y006711D01*
X012325Y006711D01*
X012300Y006736D01*
X012300Y006786D01*
X012253Y006786D02*
X012253Y006736D01*
X012228Y006711D01*
X012178Y006711D01*
X012153Y006736D01*
X012153Y006786D02*
X012203Y006811D01*
X012228Y006811D01*
X012253Y006786D01*
X012253Y006861D02*
X012153Y006861D01*
X012153Y006786D01*
X012105Y006811D02*
X012105Y006836D01*
X012080Y006861D01*
X012030Y006861D01*
X012005Y006836D01*
X011958Y006811D02*
X011958Y006711D01*
X012005Y006711D02*
X012105Y006811D01*
X012105Y006711D02*
X012005Y006711D01*
X011958Y006786D02*
X011858Y006786D01*
X011858Y006811D02*
X011908Y006861D01*
X011958Y006811D01*
X011858Y006811D02*
X011858Y006711D01*
X011811Y006736D02*
X011786Y006711D01*
X011736Y006711D01*
X011711Y006736D01*
X011711Y006836D01*
X011736Y006861D01*
X011786Y006861D01*
X011811Y006836D01*
X011811Y006786D02*
X011761Y006786D01*
X011811Y006786D02*
X011811Y006736D01*
X011663Y006711D02*
X011563Y006711D01*
X011563Y006861D01*
X011663Y006861D01*
X011613Y006786D02*
X011563Y006786D01*
X011516Y006861D02*
X011516Y006711D01*
X011416Y006711D02*
X011416Y006861D01*
X011466Y006811D01*
X011516Y006861D01*
X011369Y006861D02*
X011269Y006861D01*
X011319Y006861D02*
X011319Y006711D01*
X011221Y006711D02*
X011221Y006811D01*
X011171Y006861D01*
X011121Y006811D01*
X011121Y006711D01*
X011121Y006786D02*
X011221Y006786D01*
X012842Y006736D02*
X012842Y006861D01*
X011326Y004716D02*
X011276Y004691D01*
X011226Y004641D01*
X011301Y004641D01*
X011326Y004616D01*
X011326Y004591D01*
X011301Y004566D01*
X011251Y004566D01*
X011226Y004591D01*
X011226Y004641D01*
X011179Y004691D02*
X011154Y004716D01*
X011103Y004716D01*
X011078Y004691D01*
X011078Y004591D01*
X011103Y004566D01*
X011154Y004566D01*
X011179Y004591D01*
X014276Y004504D02*
X014276Y004403D01*
X014302Y004378D01*
X014352Y004378D01*
X014377Y004403D01*
X014424Y004403D02*
X014424Y004429D01*
X014449Y004454D01*
X014499Y004454D01*
X014524Y004429D01*
X014524Y004403D01*
X014499Y004378D01*
X014449Y004378D01*
X014424Y004403D01*
X014449Y004454D02*
X014424Y004479D01*
X014424Y004504D01*
X014449Y004529D01*
X014499Y004529D01*
X014524Y004504D01*
X014524Y004479D01*
X014499Y004454D01*
X014377Y004504D02*
X014352Y004529D01*
X014302Y004529D01*
X014276Y004504D01*
X015275Y005111D02*
X015300Y005086D01*
X015350Y005086D01*
X015375Y005111D01*
X015422Y005161D02*
X015522Y005161D01*
X015497Y005236D02*
X015422Y005161D01*
X015375Y005211D02*
X015350Y005236D01*
X015300Y005236D01*
X015275Y005211D01*
X015275Y005111D01*
X015497Y005086D02*
X015497Y005236D01*
X013130Y000992D02*
X013080Y000992D01*
X013055Y000967D01*
X013130Y000992D02*
X013155Y000967D01*
X013155Y000942D01*
X013055Y000842D01*
X013155Y000842D01*
X013007Y000842D02*
X012907Y000842D01*
X012957Y000842D02*
X012957Y000992D01*
X012907Y000942D01*
X012860Y000967D02*
X012835Y000992D01*
X012785Y000992D01*
X012760Y000967D01*
X012760Y000867D01*
X012785Y000842D01*
X012835Y000842D01*
X012860Y000867D01*
X019396Y005969D02*
X019421Y005944D01*
X019471Y005944D01*
X019496Y005969D01*
X019543Y005944D02*
X019643Y005944D01*
X019690Y005944D02*
X019690Y005969D01*
X019790Y006069D01*
X019790Y006094D01*
X019690Y006094D01*
X019593Y006094D02*
X019593Y005944D01*
X019543Y006044D02*
X019593Y006094D01*
X019496Y006069D02*
X019471Y006094D01*
X019421Y006094D01*
X019396Y006069D01*
X019396Y005969D01*
X020164Y005976D02*
X020189Y005951D01*
X020239Y005951D01*
X020264Y005976D01*
X020311Y005951D02*
X020411Y005951D01*
X020361Y005951D02*
X020361Y006101D01*
X020311Y006051D01*
X020264Y006076D02*
X020239Y006101D01*
X020189Y006101D01*
X020164Y006076D01*
X020164Y005976D01*
X020458Y005976D02*
X020458Y006001D01*
X020483Y006026D01*
X020534Y006026D01*
X020559Y006001D01*
X020559Y005976D01*
X020534Y005951D01*
X020483Y005951D01*
X020458Y005976D01*
X020483Y006026D02*
X020458Y006051D01*
X020458Y006076D01*
X020483Y006101D01*
X020534Y006101D01*
X020559Y006076D01*
X020559Y006051D01*
X020534Y006026D01*
X020960Y005994D02*
X021035Y005994D01*
X021060Y006019D01*
X021060Y006069D01*
X021035Y006094D01*
X020960Y006094D01*
X020960Y005944D01*
X021010Y005994D02*
X021060Y005944D01*
X021108Y005944D02*
X021208Y006094D01*
X021108Y006094D02*
X021208Y005944D01*
X021551Y006094D02*
X021651Y006094D01*
X021698Y006094D02*
X021798Y005944D01*
X021698Y005944D02*
X021798Y006094D01*
X021601Y006094D02*
X021601Y005944D01*
X022135Y007293D02*
X022185Y007293D01*
X022210Y007318D01*
X022210Y007444D01*
X022258Y007444D02*
X022358Y007444D01*
X022358Y007419D01*
X022258Y007318D01*
X022258Y007293D01*
X022135Y007293D02*
X022110Y007318D01*
X022110Y007444D01*
X023149Y007455D02*
X023149Y007404D01*
X023174Y007379D01*
X023149Y007332D02*
X023149Y007232D01*
X023149Y007185D02*
X023149Y007085D01*
X023299Y007085D01*
X023224Y007085D02*
X023224Y007135D01*
X023299Y007282D02*
X023149Y007282D01*
X023149Y007455D02*
X023174Y007480D01*
X023199Y007480D01*
X023299Y007379D01*
X023299Y007480D01*
X023274Y007527D02*
X023299Y007552D01*
X023299Y007602D01*
X023274Y007627D01*
X023249Y007627D01*
X023224Y007602D01*
X023224Y007577D01*
X023224Y007602D02*
X023199Y007627D01*
X023174Y007627D01*
X023149Y007602D01*
X023149Y007552D01*
X023174Y007527D01*
X023174Y007674D02*
X023149Y007699D01*
X023149Y007749D01*
X023174Y007774D01*
X023199Y007774D01*
X023299Y007674D01*
X023299Y007774D01*
X023299Y007821D02*
X023149Y007821D01*
X023149Y007896D01*
X023174Y007922D01*
X023224Y007922D01*
X023249Y007896D01*
X023249Y007821D01*
X023249Y007871D02*
X023299Y007922D01*
X023299Y007969D02*
X023299Y008069D01*
X023274Y008116D02*
X023299Y008141D01*
X023299Y008191D01*
X023274Y008216D01*
X023249Y008216D01*
X023224Y008191D01*
X023224Y008141D01*
X023199Y008116D01*
X023174Y008116D01*
X023149Y008141D01*
X023149Y008191D01*
X023174Y008216D01*
X023174Y008263D02*
X023199Y008263D01*
X023224Y008288D01*
X023224Y008338D01*
X023249Y008363D01*
X023274Y008363D01*
X023299Y008338D01*
X023299Y008288D01*
X023274Y008263D01*
X023174Y008263D02*
X023149Y008288D01*
X023149Y008338D01*
X023174Y008363D01*
X023174Y008411D02*
X023274Y008411D01*
X023299Y008436D01*
X023299Y008486D01*
X023274Y008511D01*
X023174Y008511D01*
X023149Y008486D01*
X023149Y008436D01*
X023174Y008411D01*
X023149Y008558D02*
X023149Y008633D01*
X023174Y008658D01*
X023224Y008658D01*
X023249Y008633D01*
X023249Y008558D01*
X023299Y008558D02*
X023149Y008558D01*
X023149Y007969D02*
X023299Y007969D01*
X026129Y008173D02*
X026154Y008148D01*
X026204Y008148D01*
X026229Y008173D01*
X026229Y008298D01*
X026276Y008273D02*
X026276Y008248D01*
X026301Y008223D01*
X026351Y008223D01*
X026376Y008198D01*
X026376Y008173D01*
X026351Y008148D01*
X026301Y008148D01*
X026276Y008173D01*
X026276Y008273D02*
X026301Y008298D01*
X026351Y008298D01*
X026376Y008273D01*
X026423Y008298D02*
X026498Y008298D01*
X026523Y008273D01*
X026523Y008248D01*
X026498Y008223D01*
X026423Y008223D01*
X026423Y008148D02*
X026423Y008298D01*
X026498Y008223D02*
X026523Y008198D01*
X026523Y008173D01*
X026498Y008148D01*
X026423Y008148D01*
X026571Y008223D02*
X026671Y008223D01*
X026718Y008248D02*
X026743Y008223D01*
X026793Y008223D01*
X026818Y008198D01*
X026818Y008173D01*
X026793Y008148D01*
X026743Y008148D01*
X026718Y008173D01*
X026718Y008248D02*
X026718Y008273D01*
X026743Y008298D01*
X026793Y008298D01*
X026818Y008273D01*
X026865Y008298D02*
X026915Y008248D01*
X026965Y008298D01*
X026965Y008148D01*
X027013Y008148D02*
X027088Y008148D01*
X027113Y008173D01*
X027113Y008273D01*
X027088Y008298D01*
X027013Y008298D01*
X027013Y008148D01*
X026865Y008148D02*
X026865Y008298D01*
X027160Y008223D02*
X027260Y008223D01*
X027307Y008298D02*
X027407Y008148D01*
X027407Y008298D01*
X027455Y008273D02*
X027455Y008248D01*
X027480Y008223D01*
X027530Y008223D01*
X027555Y008198D01*
X027555Y008173D01*
X027530Y008148D01*
X027480Y008148D01*
X027455Y008173D01*
X027455Y008273D02*
X027480Y008298D01*
X027530Y008298D01*
X027555Y008273D01*
X027307Y008298D02*
X027307Y008148D01*
X027307Y007798D02*
X027407Y007648D01*
X027455Y007648D02*
X027555Y007748D01*
X027555Y007773D01*
X027530Y007798D01*
X027480Y007798D01*
X027455Y007773D01*
X027407Y007798D02*
X027307Y007648D01*
X027455Y007648D02*
X027555Y007648D01*
X026129Y008173D02*
X026129Y008298D01*
X021973Y003890D02*
X021873Y003890D01*
X021873Y003815D01*
X021923Y003840D01*
X021948Y003840D01*
X021973Y003815D01*
X021973Y003765D01*
X021948Y003740D01*
X021898Y003740D01*
X021873Y003765D01*
X021826Y003740D02*
X021726Y003740D01*
X021826Y003840D01*
X021826Y003865D01*
X021801Y003890D01*
X021751Y003890D01*
X021726Y003865D01*
X021679Y003865D02*
X021679Y003815D01*
X021654Y003790D01*
X021579Y003790D01*
X021629Y003790D02*
X021679Y003740D01*
X021579Y003740D02*
X021579Y003890D01*
X021654Y003890D01*
X021679Y003865D01*
X021304Y003890D02*
X021254Y003865D01*
X021204Y003815D01*
X021279Y003815D01*
X021304Y003790D01*
X021304Y003765D01*
X021279Y003740D01*
X021229Y003740D01*
X021204Y003765D01*
X021204Y003815D01*
X021157Y003840D02*
X021157Y003865D01*
X021132Y003890D01*
X021082Y003890D01*
X021057Y003865D01*
X021009Y003865D02*
X020984Y003890D01*
X020909Y003890D01*
X020909Y003740D01*
X020909Y003790D02*
X020984Y003790D01*
X021009Y003815D01*
X021009Y003865D01*
X020959Y003790D02*
X021009Y003740D01*
X021057Y003740D02*
X021157Y003840D01*
X021157Y003740D02*
X021057Y003740D01*
X019710Y012214D02*
X019659Y012214D01*
X019634Y012239D01*
X019587Y012214D02*
X019537Y012264D01*
X019562Y012264D02*
X019487Y012264D01*
X019487Y012214D02*
X019487Y012364D01*
X019562Y012364D01*
X019587Y012339D01*
X019587Y012289D01*
X019562Y012264D01*
X019634Y012339D02*
X019659Y012364D01*
X019710Y012364D01*
X019735Y012339D01*
X019735Y012314D01*
X019710Y012289D01*
X019735Y012264D01*
X019735Y012239D01*
X019710Y012214D01*
X019710Y012289D02*
X019684Y012289D01*
X019126Y012219D02*
X019026Y012219D01*
X019076Y012219D02*
X019076Y012369D01*
X019026Y012319D01*
X018978Y012344D02*
X018953Y012369D01*
X018903Y012369D01*
X018878Y012344D01*
X018878Y012244D01*
X018903Y012219D01*
X018953Y012219D01*
X018978Y012244D01*
X010735Y012821D02*
X010635Y012821D01*
X010710Y012896D01*
X010710Y012746D01*
X010588Y012746D02*
X010488Y012746D01*
X010538Y012746D02*
X010538Y012896D01*
X010488Y012846D01*
X010441Y012871D02*
X010415Y012896D01*
X010365Y012896D01*
X010340Y012871D01*
X010340Y012771D01*
X010365Y012746D01*
X010415Y012746D01*
X010441Y012771D01*
X008145Y009015D02*
X008045Y009015D01*
X008045Y008940D01*
X008095Y008965D01*
X008120Y008965D01*
X008145Y008940D01*
X008145Y008890D01*
X008120Y008865D01*
X008070Y008865D01*
X008045Y008890D01*
X007997Y008890D02*
X007972Y008865D01*
X007922Y008865D01*
X007897Y008890D01*
X007897Y008990D01*
X007922Y009015D01*
X007972Y009015D01*
X007997Y008990D01*
X005435Y003283D02*
X005460Y003258D01*
X005460Y003233D01*
X005435Y003208D01*
X005460Y003183D01*
X005460Y003158D01*
X005435Y003133D01*
X005385Y003133D01*
X005359Y003158D01*
X005312Y003133D02*
X005212Y003133D01*
X005262Y003133D02*
X005262Y003283D01*
X005212Y003233D01*
X005165Y003258D02*
X005140Y003283D01*
X005090Y003283D01*
X005065Y003258D01*
X005065Y003158D01*
X005090Y003133D01*
X005140Y003133D01*
X005165Y003158D01*
X005359Y003258D02*
X005385Y003283D01*
X005435Y003283D01*
X005435Y003208D02*
X005410Y003208D01*
X018900Y021774D02*
X018900Y021924D01*
X018975Y021924D01*
X019000Y021899D01*
X019000Y021849D01*
X018975Y021824D01*
X018900Y021824D01*
X018950Y021824D02*
X019000Y021774D01*
X019047Y021774D02*
X019147Y021874D01*
X019147Y021899D01*
X019122Y021924D01*
X019072Y021924D01*
X019047Y021899D01*
X019047Y021774D02*
X019147Y021774D01*
X019195Y021799D02*
X019295Y021899D01*
X019295Y021799D01*
X019270Y021774D01*
X019220Y021774D01*
X019195Y021799D01*
X019195Y021899D01*
X019220Y021924D01*
X019270Y021924D01*
X019295Y021899D01*
X019868Y021921D02*
X019868Y021770D01*
X019868Y021820D02*
X019943Y021820D01*
X019968Y021845D01*
X019968Y021895D01*
X019943Y021921D01*
X019868Y021921D01*
X019918Y021820D02*
X019968Y021770D01*
X020015Y021770D02*
X020116Y021770D01*
X020066Y021770D02*
X020066Y021921D01*
X020015Y021870D01*
X020163Y021870D02*
X020188Y021845D01*
X020263Y021845D01*
X020263Y021795D02*
X020263Y021895D01*
X020238Y021921D01*
X020188Y021921D01*
X020163Y021895D01*
X020163Y021870D01*
X020163Y021795D02*
X020188Y021770D01*
X020238Y021770D01*
X020263Y021795D01*
X020537Y021770D02*
X020537Y021921D01*
X020612Y021921D01*
X020638Y021895D01*
X020638Y021845D01*
X020612Y021820D01*
X020537Y021820D01*
X020587Y021820D02*
X020638Y021770D01*
X020685Y021770D02*
X020785Y021870D01*
X020785Y021895D01*
X020760Y021921D01*
X020710Y021921D01*
X020685Y021895D01*
X020685Y021770D02*
X020785Y021770D01*
X020832Y021770D02*
X020932Y021870D01*
X020932Y021895D01*
X020907Y021921D01*
X020857Y021921D01*
X020832Y021895D01*
X020832Y021770D02*
X020932Y021770D01*
X020224Y022970D02*
X020173Y022970D01*
X020148Y022995D01*
X020148Y023045D02*
X020199Y023070D01*
X020224Y023070D01*
X020249Y023045D01*
X020249Y022995D01*
X020224Y022970D01*
X020148Y023045D02*
X020148Y023120D01*
X020249Y023120D01*
X020051Y023120D02*
X020051Y022970D01*
X020001Y022970D02*
X020101Y022970D01*
X020001Y023070D02*
X020051Y023120D01*
X019954Y023095D02*
X019954Y023045D01*
X019929Y023020D01*
X019854Y023020D01*
X019854Y022970D02*
X019854Y023120D01*
X019929Y023120D01*
X019954Y023095D01*
X019904Y023020D02*
X019954Y022970D01*
X019274Y022999D02*
X019249Y022974D01*
X019199Y022974D01*
X019174Y022999D01*
X019174Y023024D01*
X019199Y023049D01*
X019249Y023049D01*
X019274Y023024D01*
X019274Y022999D01*
X019249Y023049D02*
X019274Y023074D01*
X019274Y023099D01*
X019249Y023124D01*
X019199Y023124D01*
X019174Y023099D01*
X019174Y023074D01*
X019199Y023049D01*
X019127Y022974D02*
X019027Y022974D01*
X018979Y022974D02*
X018929Y023024D01*
X018954Y023024D02*
X018879Y023024D01*
X018879Y022974D02*
X018879Y023124D01*
X018954Y023124D01*
X018979Y023099D01*
X018979Y023049D01*
X018954Y023024D01*
X019027Y023074D02*
X019077Y023124D01*
X019077Y022974D01*
X004297Y025457D02*
X004196Y025457D01*
X004149Y025457D02*
X004099Y025507D01*
X004124Y025507D02*
X004049Y025507D01*
X004049Y025457D02*
X004049Y025607D01*
X004124Y025607D01*
X004149Y025582D01*
X004149Y025532D01*
X004124Y025507D01*
X004196Y025557D02*
X004246Y025607D01*
X004246Y025457D01*
X002840Y025295D02*
X002805Y025330D01*
X002770Y025330D01*
X002736Y025364D02*
X002701Y025328D01*
X002665Y025328D01*
X002612Y025382D01*
X002577Y025346D02*
X002683Y025452D01*
X002736Y025399D01*
X002736Y025364D01*
X002648Y025346D02*
X002648Y025275D01*
X002681Y025242D02*
X002823Y025242D01*
X002840Y025260D01*
X002840Y025295D01*
X002752Y025171D02*
X002681Y025242D01*
D18*
X011175Y015361D02*
X011199Y015361D01*
X011689Y015361D02*
X011713Y015361D01*
X010520Y012265D02*
X010496Y012265D01*
X007955Y008677D02*
X007955Y008653D01*
X011176Y004378D02*
X011176Y004354D01*
X014387Y004182D02*
X014387Y004158D01*
X015355Y004600D02*
X015379Y004600D01*
X016743Y007696D02*
X016743Y007720D01*
X019589Y005468D02*
X019613Y005468D01*
X018997Y011751D02*
X018973Y011751D01*
X014845Y012078D02*
X014845Y012102D01*
X015707Y018240D02*
X015707Y018264D01*
X016339Y019244D02*
X016363Y019244D01*
X013971Y021165D02*
X013971Y021189D01*
X013565Y022187D02*
X013541Y022187D01*
D19*
X018467Y019756D03*
X019110Y021306D03*
X020073Y021256D03*
X020743Y021256D03*
X020072Y022520D03*
X019088Y022525D03*
X012217Y015361D03*
X014202Y014443D03*
X015686Y014477D03*
X015669Y013064D03*
X019650Y011784D03*
X021136Y004366D03*
X021727Y004366D03*
X006883Y020832D03*
X003846Y024963D03*
D20*
X014546Y013698D02*
X015176Y013698D01*
X015176Y012438D02*
X014546Y012438D01*
D21*
X013120Y013787D03*
X014869Y016598D03*
X017511Y020938D03*
X017472Y021580D03*
X008143Y020251D03*
X005417Y021411D03*
X004984Y019234D03*
G36*
X002445Y024910D02*
X002318Y024783D01*
X002107Y024994D01*
X002234Y025121D01*
X002445Y024910D01*
G37*
X017317Y009799D03*
X017332Y008257D03*
D22*
X017400Y008669D02*
X017400Y008850D01*
X017278Y008758D01*
X017400Y008850D02*
X017400Y009031D01*
X017384Y009145D02*
X017384Y009326D01*
X017262Y009234D01*
X017384Y009326D02*
X017384Y009507D01*
X017262Y009412D02*
X017378Y009336D01*
X017278Y008936D02*
X017394Y008860D01*
X020034Y005901D02*
X019876Y005744D01*
X019876Y005311D01*
X020034Y005901D02*
X020664Y005901D01*
X020821Y005744D01*
X020821Y005311D01*
X020955Y005496D02*
X021136Y005496D01*
X021228Y005374D01*
X021317Y005496D02*
X021136Y005496D01*
X021126Y005490D02*
X021050Y005374D01*
X021546Y005496D02*
X021727Y005496D01*
X021819Y005374D01*
X021908Y005496D02*
X021727Y005496D01*
X021717Y005490D02*
X021641Y005374D01*
X020821Y004523D02*
X020821Y003933D01*
X019876Y003933D01*
X019876Y004523D01*
X024798Y007082D02*
X024798Y007437D01*
X025782Y006807D02*
X026609Y006807D01*
X024798Y009169D02*
X024798Y009523D01*
X025782Y009799D02*
X026609Y009799D01*
X026923Y013416D02*
X022159Y013416D01*
X022159Y013692D01*
X022159Y014755D02*
X022159Y015936D01*
X021420Y016673D02*
X017541Y016673D01*
X017520Y016672D01*
X017499Y016674D01*
X017479Y016679D01*
X017460Y016687D01*
X017443Y016698D01*
X017427Y016711D01*
X017414Y016727D01*
X017403Y016745D01*
X017395Y016764D01*
X017390Y016784D01*
X017391Y016784D02*
X017391Y017180D01*
X017411Y017180D02*
X017441Y017182D01*
X017471Y017187D01*
X017500Y017196D01*
X017527Y017209D01*
X017553Y017224D01*
X017577Y017243D01*
X017598Y017264D01*
X017617Y017288D01*
X017632Y017314D01*
X017645Y017341D01*
X017654Y017370D01*
X017659Y017400D01*
X017661Y017430D01*
X017659Y017460D01*
X017654Y017490D01*
X017645Y017519D01*
X017632Y017546D01*
X017617Y017572D01*
X017598Y017596D01*
X017577Y017617D01*
X017553Y017636D01*
X017527Y017651D01*
X017500Y017664D01*
X017471Y017673D01*
X017441Y017678D01*
X017411Y017680D01*
X017391Y017680D02*
X017391Y018011D01*
X017391Y018016D02*
X017390Y018041D01*
X017392Y018065D01*
X017398Y018089D01*
X017407Y018111D01*
X017420Y018132D01*
X017435Y018151D01*
X017453Y018168D01*
X017473Y018182D01*
X017494Y018193D01*
X017517Y018201D01*
X017541Y018206D01*
X021381Y018206D01*
X021404Y018204D01*
X021427Y018199D01*
X021449Y018190D01*
X021469Y018177D01*
X021487Y018162D01*
X021502Y018144D01*
X021515Y018124D01*
X021524Y018102D01*
X021529Y018079D01*
X021531Y018056D01*
X021531Y016823D01*
X021532Y016824D02*
X021533Y016803D01*
X021531Y016782D01*
X021526Y016762D01*
X021518Y016743D01*
X021507Y016726D01*
X021494Y016710D01*
X021478Y016697D01*
X021460Y016686D01*
X021441Y016678D01*
X021421Y016673D01*
X022159Y016999D02*
X022159Y018928D01*
X027356Y018928D01*
X028183Y018337D02*
X028183Y018022D01*
X028183Y018023D02*
X028184Y017991D01*
X028180Y017960D01*
X028173Y017929D01*
X028162Y017899D01*
X028148Y017871D01*
X028130Y017845D01*
X028109Y017821D01*
X028085Y017800D01*
X028059Y017782D01*
X028031Y017768D01*
X028001Y017757D01*
X027970Y017750D01*
X027939Y017746D01*
X027907Y017747D01*
X027869Y017744D01*
X027831Y017738D01*
X027794Y017728D01*
X027758Y017714D01*
X027723Y017698D01*
X027691Y017678D01*
X027660Y017655D01*
X027631Y017629D01*
X027605Y017600D01*
X027582Y017569D01*
X027562Y017537D01*
X027546Y017502D01*
X027532Y017466D01*
X027522Y017429D01*
X027516Y017391D01*
X027513Y017353D01*
X027513Y014046D01*
X023412Y010408D02*
X022912Y010408D01*
X013465Y002923D02*
X013465Y002490D01*
X013465Y002923D02*
X013307Y003081D01*
X012677Y003081D01*
X012520Y002923D01*
X012520Y002490D01*
X012520Y001703D02*
X012520Y001112D01*
X013465Y001112D01*
X013465Y001703D01*
X006702Y003573D02*
X006702Y004203D01*
X006544Y004360D01*
X006111Y004360D01*
X006702Y003573D02*
X006544Y003415D01*
X006111Y003415D01*
X005324Y003415D02*
X004733Y003415D01*
X004733Y004360D01*
X005324Y004360D01*
X005679Y012795D02*
X005429Y013045D01*
X005429Y013545D01*
X005679Y013795D01*
X005429Y014045D01*
X005429Y014545D01*
X005679Y014795D01*
X005429Y015045D01*
X005429Y015545D01*
X005679Y015795D01*
X006179Y015795D01*
X006429Y015545D01*
X006429Y015045D01*
X006179Y014795D01*
X006429Y014545D01*
X006429Y014045D01*
X006179Y013795D01*
X006429Y013545D01*
X006429Y013045D01*
X006179Y012795D01*
X005679Y012795D01*
X003348Y016407D02*
X003348Y016623D01*
X003348Y016407D02*
X002364Y016407D01*
X002364Y016623D01*
X002364Y016407D02*
X002364Y016111D01*
X012009Y016111D01*
X012009Y016407D01*
X012009Y016623D01*
X012009Y016407D02*
X011025Y016407D01*
X011025Y016623D01*
X008394Y017384D02*
X008394Y017620D01*
X008394Y017384D02*
X008118Y017384D01*
X006701Y017384D02*
X006425Y017384D01*
X006425Y017620D01*
X006425Y019116D02*
X006425Y019352D01*
X006661Y019352D01*
X008157Y019352D02*
X008394Y019352D01*
X008394Y019116D01*
X011025Y024222D02*
X011025Y024478D01*
X012009Y024478D01*
X012009Y024222D01*
X012009Y024478D02*
X009155Y026978D01*
X005218Y026978D01*
X002364Y024478D01*
X002364Y024222D01*
X002364Y024478D02*
X003348Y024478D01*
X003348Y024222D01*
X003193Y025740D02*
X003215Y025891D01*
X003087Y026019D01*
X003068Y025866D02*
X003203Y025894D01*
X003215Y025891D02*
X003343Y025763D01*
X004108Y026705D02*
X004130Y026856D01*
X004002Y026984D01*
X003983Y026831D02*
X004118Y026859D01*
X004130Y026856D02*
X004258Y026728D01*
X013899Y022616D02*
X013899Y022278D01*
X014353Y022128D02*
X014565Y022128D01*
X015019Y022278D02*
X015019Y022616D01*
D23*
X025162Y011158D03*
D24*
X026465Y012766D02*
X026562Y012766D01*
X026514Y012766D02*
X026514Y013057D01*
X026562Y013057D02*
X026465Y013057D01*
X026662Y013008D02*
X026662Y012815D01*
X026710Y012766D01*
X026807Y012766D01*
X026855Y012815D01*
X026956Y012815D02*
X027005Y012766D01*
X027102Y012766D01*
X027150Y012815D01*
X027150Y012863D01*
X027102Y012911D01*
X027005Y012911D01*
X026956Y012960D01*
X026956Y013008D01*
X027005Y013057D01*
X027102Y013057D01*
X027150Y013008D01*
X027251Y013057D02*
X027396Y013057D01*
X027445Y013008D01*
X027445Y012911D01*
X027396Y012863D01*
X027251Y012863D01*
X027251Y012766D02*
X027251Y013057D01*
X026855Y013008D02*
X026807Y013057D01*
X026710Y013057D01*
X026662Y013008D01*
X023864Y014449D02*
X023864Y014546D01*
X023816Y014594D01*
X023574Y014594D01*
X023622Y014695D02*
X023671Y014695D01*
X023719Y014744D01*
X023719Y014840D01*
X023767Y014889D01*
X023816Y014889D01*
X023864Y014840D01*
X023864Y014744D01*
X023816Y014695D01*
X023622Y014695D02*
X023574Y014744D01*
X023574Y014840D01*
X023622Y014889D01*
X023574Y014990D02*
X023574Y015135D01*
X023622Y015183D01*
X023816Y015183D01*
X023864Y015135D01*
X023864Y014990D01*
X023574Y014990D01*
X023719Y015285D02*
X023719Y015478D01*
X023671Y015579D02*
X023719Y015628D01*
X023719Y015724D01*
X023767Y015773D01*
X023816Y015773D01*
X023864Y015724D01*
X023864Y015628D01*
X023816Y015579D01*
X023671Y015579D02*
X023622Y015579D01*
X023574Y015628D01*
X023574Y015724D01*
X023622Y015773D01*
X023622Y015874D02*
X023816Y015874D01*
X023864Y015922D01*
X023864Y016019D01*
X023816Y016067D01*
X023622Y016067D01*
X023574Y016019D01*
X023574Y015922D01*
X023622Y015874D01*
X023622Y016169D02*
X023816Y016169D01*
X023864Y016217D01*
X023864Y016314D01*
X023816Y016362D01*
X023864Y016463D02*
X023574Y016463D01*
X023622Y016362D02*
X023574Y016314D01*
X023574Y016217D01*
X023622Y016169D01*
X023767Y016463D02*
X023574Y016657D01*
X023574Y016758D02*
X023864Y016758D01*
X023864Y016951D01*
X023719Y016855D02*
X023719Y016758D01*
X023574Y016758D02*
X023574Y016951D01*
X023574Y017053D02*
X023574Y017246D01*
X023574Y017149D02*
X023864Y017149D01*
X023864Y017347D02*
X023574Y017347D01*
X023864Y017541D01*
X023574Y017541D01*
X023574Y017642D02*
X023864Y017642D01*
X023864Y017835D01*
X023864Y017936D02*
X023767Y018033D01*
X023864Y018130D01*
X023574Y018130D01*
X023574Y017936D02*
X023864Y017936D01*
X023719Y017739D02*
X023719Y017642D01*
X023574Y017642D02*
X023574Y017835D01*
X023864Y016657D02*
X023719Y016512D01*
X024931Y016642D02*
X025173Y016642D01*
X025222Y016690D01*
X025222Y016787D01*
X025173Y016835D01*
X024931Y016835D01*
X025028Y016936D02*
X024931Y017033D01*
X025222Y017033D01*
X025222Y016936D02*
X025222Y017130D01*
X023864Y014449D02*
X023816Y014401D01*
X023574Y014401D01*
D25*
X011702Y014405D02*
X011702Y014641D01*
X011465Y014641D01*
X010363Y014641D02*
X010127Y014405D01*
X010127Y013303D02*
X010127Y013067D01*
X010363Y013067D01*
X011465Y013067D02*
X011702Y013067D01*
X011702Y013303D01*
X011422Y003397D02*
X009062Y003397D01*
X009062Y000897D01*
X011422Y000897D01*
X011422Y001167D01*
X011422Y003107D02*
X011422Y003397D01*
D26*
X014250Y020226D02*
X014252Y020238D01*
X014257Y020249D01*
X014266Y020258D01*
X014277Y020263D01*
X014289Y020265D01*
X014301Y020263D01*
X014312Y020258D01*
X014321Y020249D01*
X014326Y020238D01*
X014328Y020226D01*
X014326Y020214D01*
X014321Y020203D01*
X014312Y020194D01*
X014301Y020189D01*
X014289Y020187D01*
X014277Y020189D01*
X014266Y020194D01*
X014257Y020203D01*
X014252Y020214D01*
X014250Y020226D01*
D27*
X016212Y022806D03*
D28*
X002040Y003128D02*
X002277Y002891D01*
X002624Y003173D01*
X002692Y003134D01*
X002763Y003101D01*
X002961Y003579D01*
X002896Y003612D01*
X002839Y003655D01*
X002789Y003708D01*
X002749Y003768D01*
X002719Y003834D01*
X002701Y003904D01*
X002695Y003976D01*
X001758Y003976D01*
X001758Y004034D02*
X002700Y004034D01*
X002703Y004057D02*
X002725Y004134D01*
X002762Y004206D01*
X002761Y004206D02*
X002207Y004206D01*
X002203Y004189D02*
X001758Y004144D01*
X001758Y003808D01*
X002203Y003763D01*
X002232Y003663D01*
X002272Y003566D01*
X002322Y003474D01*
X002040Y003128D01*
X002055Y003113D02*
X002550Y003113D01*
X002620Y003170D02*
X002074Y003170D01*
X002121Y003228D02*
X002815Y003228D01*
X002839Y003285D02*
X002168Y003285D01*
X002215Y003343D02*
X002863Y003343D01*
X002887Y003400D02*
X002262Y003400D01*
X002309Y003458D02*
X002911Y003458D01*
X002935Y003516D02*
X002300Y003516D01*
X002269Y003573D02*
X002959Y003573D01*
X002871Y003631D02*
X002245Y003631D01*
X002224Y003688D02*
X002808Y003688D01*
X002764Y003746D02*
X002208Y003746D01*
X001809Y003803D02*
X002733Y003803D01*
X002712Y003861D02*
X001758Y003861D01*
X001758Y003918D02*
X002700Y003918D01*
X002695Y003976D02*
X002703Y004057D01*
X002712Y004091D02*
X001758Y004091D01*
X001801Y004149D02*
X002732Y004149D01*
X002762Y004206D02*
X002811Y004270D01*
X002871Y004324D01*
X002941Y004365D01*
X003016Y004393D01*
X003096Y004406D01*
X003177Y004404D01*
X003256Y004387D01*
X003330Y004355D01*
X003397Y004310D01*
X003455Y004254D01*
X003501Y004187D01*
X003534Y004114D01*
X003552Y004035D01*
X003556Y003954D01*
X003544Y003874D01*
X003518Y003798D01*
X003477Y003728D01*
X003425Y003667D01*
X003362Y003616D01*
X003290Y003579D01*
X003488Y003101D01*
X003559Y003134D01*
X003628Y003173D01*
X003974Y002891D01*
X004211Y003128D01*
X003929Y003474D01*
X003979Y003566D01*
X004020Y003663D01*
X004049Y003763D01*
X004493Y003808D01*
X004493Y004144D01*
X004049Y004189D01*
X004020Y004290D01*
X003979Y004387D01*
X003929Y004478D01*
X004211Y004825D01*
X003974Y005062D01*
X003628Y004780D01*
X003536Y004830D01*
X003439Y004870D01*
X003339Y004899D01*
X003294Y005344D01*
X002958Y005344D01*
X002912Y004899D01*
X002812Y004870D01*
X002715Y004830D01*
X002624Y004780D01*
X002277Y005062D01*
X002040Y004825D01*
X002322Y004478D01*
X002272Y004387D01*
X002232Y004290D01*
X002203Y004189D01*
X002224Y004264D02*
X002806Y004264D01*
X002868Y004321D02*
X002245Y004321D01*
X002268Y004379D02*
X002978Y004379D01*
X003275Y004379D02*
X003983Y004379D01*
X004007Y004321D02*
X003381Y004321D01*
X003445Y004264D02*
X004027Y004264D01*
X004044Y004206D02*
X003488Y004206D01*
X003518Y004149D02*
X004450Y004149D01*
X004493Y004091D02*
X003539Y004091D01*
X003552Y004034D02*
X004493Y004034D01*
X004493Y003976D02*
X003555Y003976D01*
X003550Y003918D02*
X004493Y003918D01*
X004493Y003861D02*
X003539Y003861D01*
X003519Y003803D02*
X004443Y003803D01*
X004044Y003746D02*
X003488Y003746D01*
X003443Y003688D02*
X004027Y003688D01*
X004006Y003631D02*
X003380Y003631D01*
X003293Y003573D02*
X003982Y003573D01*
X003952Y003516D02*
X003316Y003516D01*
X003340Y003458D02*
X003942Y003458D01*
X003989Y003400D02*
X003364Y003400D01*
X003388Y003343D02*
X004036Y003343D01*
X004083Y003285D02*
X003412Y003285D01*
X003436Y003228D02*
X004130Y003228D01*
X004177Y003170D02*
X003631Y003170D01*
X003623Y003170D02*
X003460Y003170D01*
X003483Y003113D02*
X003513Y003113D01*
X003702Y003113D02*
X004196Y003113D01*
X004138Y003055D02*
X003772Y003055D01*
X003843Y002998D02*
X004081Y002998D01*
X004023Y002940D02*
X003913Y002940D01*
X002792Y003170D02*
X002628Y003170D01*
X002738Y003113D02*
X002768Y003113D01*
X002479Y003055D02*
X002113Y003055D01*
X002170Y002998D02*
X002408Y002998D01*
X002338Y002940D02*
X002228Y002940D01*
X002299Y004436D02*
X003952Y004436D01*
X003942Y004494D02*
X002309Y004494D01*
X002263Y004552D02*
X003989Y004552D01*
X004036Y004609D02*
X002216Y004609D01*
X002169Y004667D02*
X004083Y004667D01*
X004129Y004724D02*
X002122Y004724D01*
X002075Y004782D02*
X002621Y004782D01*
X002627Y004782D02*
X003624Y004782D01*
X003630Y004782D02*
X004176Y004782D01*
X004197Y004839D02*
X003701Y004839D01*
X003771Y004897D02*
X004139Y004897D01*
X004082Y004954D02*
X003842Y004954D01*
X003912Y005012D02*
X004024Y005012D01*
X003514Y004839D02*
X002737Y004839D01*
X002904Y004897D02*
X003348Y004897D01*
X003333Y004954D02*
X002918Y004954D01*
X002924Y005012D02*
X003327Y005012D01*
X003321Y005070D02*
X002930Y005070D01*
X002936Y005127D02*
X003316Y005127D01*
X003310Y005185D02*
X002941Y005185D01*
X002947Y005242D02*
X003304Y005242D01*
X003298Y005300D02*
X002953Y005300D01*
X002551Y004839D02*
X002054Y004839D01*
X002112Y004897D02*
X002480Y004897D01*
X002409Y004954D02*
X002169Y004954D01*
X002227Y005012D02*
X002339Y005012D01*
D29*
X006357Y002649D02*
X006357Y001389D01*
X006987Y001389D02*
X006987Y002649D01*
D30*
X006672Y002019D03*
D31*
X006672Y002000D03*
M02*
